<?xml version="1.0" encoding="UTF-8" standalone="no"?>
<!-- Created with Inkscape (http://www.inkscape.org/) -->

<svg
   width="900"
   height="600"
   viewBox="0 0 900 600"
   version="1.1"
   id="svg1"
   inkscape:version="1.4 (e7c3feb1, 2024-10-09)"
   sodipodi:docname="physical-web.svg"
   xmlns:inkscape="http://www.inkscape.org/namespaces/inkscape"
   xmlns:sodipodi="http://sodipodi.sourceforge.net/DTD/sodipodi-0.dtd"
   xmlns="http://www.w3.org/2000/svg"
   xmlns:svg="http://www.w3.org/2000/svg">
  <sodipodi:namedview
     id="namedview1"
     pagecolor="#ffffff"
     bordercolor="#666666"
     borderopacity="1.0"
     inkscape:showpageshadow="2"
     inkscape:pageopacity="0.0"
     inkscape:pagecheckerboard="0"
     inkscape:deskcolor="#d1d1d1"
     inkscape:document-units="px"
     inkscape:zoom="1"
     inkscape:cx="411"
     inkscape:cy="305"
     inkscape:window-width="1784"
     inkscape:window-height="911"
     inkscape:window-x="0"
     inkscape:window-y="25"
     inkscape:window-maximized="0"
     inkscape:current-layer="layer1" />
  <defs
     id="defs1">
    <inkscape:path-effect
       effect="fillet_chamfer"
       id="path-effect59"
       is_visible="true"
       lpeversion="1"
       nodesatellites_param="F,0,0,1,0,0,0,1 @ F,0,0,1,0,0,0,1 @ F,0,0,1,0,0,0,1 @ F,0,0,1,0,0,0,1 @ F,0,0,1,0,0,0,1 @ F,0,0,1,0,0,0,1 @ F,0,0,1,0,0,0,1 @ F,0,0,1,0,0,0,1 @ F,0,0,1,0,0,0,1 @ F,0,0,1,0,0,0,1 @ F,0,0,1,0,0,0,1 @ F,0,0,1,0,0,0,1 @ F,0,0,1,0,0,0,1 @ F,0,0,1,0,0,0,1 @ F,0,0,1,0,0,0,1 @ F,0,0,1,0,0,0,1 @ F,0,0,1,0,0,0,1 @ F,0,0,1,0,0,0,1 @ F,0,0,1,0,0,0,1 @ F,0,0,1,0,0,0,1 @ F,0,0,1,0,0,0,1 @ F,0,0,1,0,0,0,1 @ F,0,0,1,0,0,0,1 @ F,0,0,1,0,0,0,1 @ F,0,0,1,0,0,0,1 @ F,0,0,1,0,0,0,1 @ F,0,0,1,0,0,0,1 @ F,0,0,1,0,0,0,1 @ F,0,0,1,0,0,0,1 @ F,0,0,1,0,0,0,1 @ F,0,0,1,0,0,0,1 @ F,0,0,1,0,0,0,1 @ F,0,0,1,0,0,0,1 @ F,0,0,1,0,0,0,1 @ F,0,0,1,0,0,0,1 @ F,0,0,1,0,0,0,1 @ F,0,0,1,0,0,0,1 @ F,0,0,1,0,0,0,1"
       radius="0"
       unit="px"
       method="auto"
       mode="F"
       chamfer_steps="1"
       flexible="false"
       use_knot_distance="true"
       apply_no_radius="true"
       apply_with_radius="true"
       only_selected="false"
       hide_knots="false" />
  </defs>
  <g
     inkscape:label="Calque 1"
     inkscape:groupmode="layer"
     id="layer1">
    <rect
       style="fill:#ffffff;stroke:none;stroke-width:1.5"
       id="rect1"
       width="900"
       height="600"
       x="0"
       y="0"
       ry="4.0025837e-14" />
    <path
       style="fill:none;stroke:#000000;stroke-width:1.125;stroke-linecap:butt;stroke-linejoin:miter;stroke-dasharray:none;stroke-opacity:1"
       d="m 843.46492,75.30921 c 4.50263,20.179403 2.92553,35.73402 -1.63395,49.52072"
       id="path10"
       sodipodi:nodetypes="cc" />
    <path
       style="fill:none;stroke:#000000;stroke-width:1.125;stroke-linecap:butt;stroke-linejoin:miter;stroke-dasharray:none;stroke-opacity:1"
       d="m 856.863,74.967693 c -0.29873,14.397575 0.85957,30.242507 8.87145,42.552007 1.1481,2.00061 1.96642,4.24719 3.54622,5.94414"
       id="path11"
       sodipodi:nodetypes="ccc" />
    <path
       style="fill:none;stroke:#000000;stroke-width:1.125;stroke-linecap:butt;stroke-linejoin:miter;stroke-dasharray:none;stroke-opacity:1"
       d="m 839.54347,88.628587 c -4.0605,1.297928 -8.27107,3.28662 -12.6195,2.56299 -2.61764,-0.0687 -4.24807,-2.122462 -4.69995,-3.929085 -4.16332,4.564485 -9.94799,-0.116842 -8.79974,-5.623327 -0.68835,-3.098955 3.05137,-5.400788 -1.14143,-6.584917 -3.85485,-2.371985 -3.09982,-9.022069 -0.51585,-12.039837 2.22518,0.222737 -2.2491,-5.623888 -0.58275,-7.849395 0.8229,-6.449609 7.36785,-7.61199 12.3966,-6.229941 3.9891,3.210878 -2.8131,-2.202325 -2.28652,-4.574102 -2.10623,-4.108446 -0.2379,-11.499115 5.17792,-7.302255 0.59648,-2.155678 1.5735,-9.657632 6.04253,-10.048668 3.16185,-1.437043 5.59192,3.216331 6.7149,-1.303477 3.14902,-3.125521 8.6157,0.124624 9.8208,3.923874 1.383,2.664223 -1.2594,7.244535 3.29092,5.591041 6.22103,0.943469 12.49935,2.504852 18.31192,5.044204 2.35793,0.4934 2.5851,3.060178 2.10735,3.281619 4.81628,-0.07504 8.4675,3.896481 12.30293,6.404178 3.37718,3.349953 -4.56457,2.494111 -0.1437,4.888918 3.98355,4.180492 9.24428,8.375889 9.88598,14.64336 0.51959,4.166291 -7.06651,0.02893 -3.22073,4.560283 2.34952,4.31943 4.3485,10.055752 2.3079,14.831385 -3.27863,0.55383 -5.86755,1.066807 -6.717,5.106945 -1.89398,3.500377 -5.1195,8.65768 -9.5673,6.2991 -5.53238,-1.538723 -10.6557,-4.879095 -14.53687,-9.262245"
       id="path17" />
    <path
       style="fill:none;stroke:#000000;stroke-width:1.125;stroke-linecap:butt;stroke-linejoin:miter;stroke-dasharray:none;stroke-opacity:1"
       d="m 522.38904,62.902356 c 4.50263,20.179397 2.92553,35.734014 -1.63395,49.520714"
       id="path10-5"
       sodipodi:nodetypes="cc" />
    <path
       style="fill:none;stroke:#000000;stroke-width:1.125;stroke-linecap:butt;stroke-linejoin:miter;stroke-dasharray:none;stroke-opacity:1"
       d="m 538.64916,58.983279 c -0.29872,14.397569 0.85958,30.242496 8.87145,42.552001 1.1481,2.00061 1.96643,4.24719 3.54623,5.94415"
       id="path11-1"
       sodipodi:nodetypes="ccc" />
    <path
       style="fill:none;stroke:#000000;stroke-width:1.125;stroke-linecap:butt;stroke-linejoin:miter;stroke-dasharray:none;stroke-opacity:1"
       d="m 521.32964,72.644168 c -4.06051,1.297927 -8.27108,3.28662 -12.61951,2.56299 -2.61765,-0.0687 -4.24807,-2.122463 -4.69995,-3.929085 -4.16332,4.564484 -9.948,-0.116843 -8.79975,-5.623322 -0.68835,-3.098955 3.05138,-5.400787 -1.14142,-6.584917 -3.85485,-2.371985 -3.09982,-9.022069 -0.51585,-12.039837 2.22517,0.222737 -2.2491,-5.623888 -0.58275,-7.849395 0.8229,-6.449609 7.36785,-7.61199 12.3966,-6.229941 3.9891,3.210878 -2.8131,-2.202325 -2.28653,-4.574102 -2.10622,-4.108446 -0.2379,-11.499115 5.17793,-7.302255 0.59647,-2.155678 1.5735,-9.657632 6.04252,-10.048668 3.16185,-1.4370427 5.59193,3.216331 6.7149,-1.3034767 3.14903,-3.1255215 8.6157,0.1246237 9.8208,3.9238737 1.383,2.664223 -1.2594,7.244535 3.29093,5.591041 6.22102,0.943469 12.49935,2.504852 18.31192,5.044204 2.35793,0.4934 2.5851,3.060178 2.10735,3.281619 4.81628,-0.07504 8.4675,3.896481 12.30293,6.404178 3.37717,3.349954 -4.56458,2.494111 -0.1437,4.888918 3.98355,4.180492 9.24427,8.375889 9.88597,14.64336 0.5196,4.166291 -7.0665,0.02894 -3.22072,4.560283 2.34952,4.31943 4.3485,10.055754 2.3079,14.831379 -3.27863,0.55383 -5.86755,1.066808 -6.717,5.106945 -1.89398,3.500378 -5.1195,8.657685 -9.5673,6.2991 -5.53238,-1.538722 -10.6557,-4.879095 -14.53688,-9.262245"
       id="path17-7" />
    <path
       style="fill:none;stroke:#000000;stroke-width:1.125;stroke-linecap:butt;stroke-linejoin:miter;stroke-dasharray:none;stroke-opacity:1"
       d="m 674.22387,67.218402 c 0.0555,12.225611 0.54212,31.265178 2.72361,43.678258 l 0.34022,0.37111"
       id="path24"
       sodipodi:nodetypes="ccc" />
    <path
       style="fill:none;stroke:#000000;stroke-width:1.125;stroke-linecap:butt;stroke-linejoin:miter;stroke-dasharray:none;stroke-opacity:1"
       d="m 660.36076,67.074064 c -1.30304,29.873711 -6.15297,42.724086 -6.33569,43.108886"
       id="path25"
       sodipodi:nodetypes="cc" />
    <path
       style="fill:none;stroke:#000000;stroke-width:1.125;stroke-linecap:butt;stroke-linejoin:miter;stroke-dasharray:none;stroke-opacity:1"
       d="m 660.01637,74.862168 c -2.6177,0.05542 -10.01175,-1.40405 -13.05772,-1.535683 -1.63971,-1.735387 -3.94419,1.826567 -5.72892,1.291045 -0.49161,-1.508077 -3.4367,-0.724271 -3.81958,-4.020183 -2.57493,1.734645 -3.90085,-0.02819 -6.88658,2.701601 -2.43498,0.268732 -6.86013,5.363662 -6.06863,-0.361613 -1.95363,-4.975395 5.15972,-6.09009 6.78258,-10.125015 0.95446,-1.499299 2.59732,-3.453019 0.66541,-3.730954 1.42877,-1.702552 -1.49967,-1.321957 -0.84512,-2.609722 -2.56685,1.384965 -5.55228,-1.453058 -1.60518,-2.69952 3.45717,-3.065415 6.58379,-4.02543 9.8707,-6.945885 -2.38438,1.431367 3.53336,-2.492048 3.84446,-4.109528 1.45603,-2.077492 6.25912,-4.855407 1.5008,-3.597755 1.59955,-4.36641 -7.26564,3.732764 -5.28801,-0.245686 2.77071,-2.64282 0.48036,-2.852199 -0.28954,-4.266361 1.66556,-0.604628 6.21422,-1.337521 8.90496,-2.967091 5.75807,-2.573715 6.242,-4.34344 3.96034,-5.09692 -2.87239,-0.03503 1.22964,-2.332692 1.05685,-3.145834 -4.32396,0.0267 6.28058,-0.508451 7.49652,-1.673238 3.44864,-2.1915 0.67438,-5.591825 3.95635,-9.323792 0.56009,-1.315864 4.73129,5.133978 6.14306,6.02377 2.6563,4.868858 9.4858,5.112484 9.96564,6.459947 -1.31811,1.46514 -6.62443,0.41793 -2.5731,2.852603 3.5768,2.302185 5.253,4.091353 8.73177,6.524443 6.55046,4.213159 9.68941,7.040894 3.93379,5.616813 1.08325,1.239759 4.12853,2.35992 2.4886,2.367846 -3.49474,0.01689 -7.83505,-0.606315 -9.93598,-0.586022 2.67244,1.89054 5.73419,4.194605 8.47532,6.451023 3.45031,2.840195 5.92573,4.485745 10.01876,8.908775 0.30029,0.324506 -3.89517,-1.075263 -3.77426,-0.373788 0.10698,0.620625 3.76396,2.508371 3.97951,2.912412 -2.42376,0.274737 -4.10267,-0.09027 -6.73191,0.687513 3.30174,3.233879 5.37404,7.204734 7.71231,9.835749 0.63788,1.622437 5.20253,4.810245 0.0905,3.579435 -3.71685,-1.887045 -4.42607,-0.559545 -8.32818,-1.490302 -2.656,-1.84152 -8.11514,0.249055 -11.32256,-0.62426 -1.97256,0.03352 -4.57445,-0.136104 -6.44242,-0.551334 l -2.98929,-0.632429"
       id="path26"
       sodipodi:nodetypes="cccccccccccccccccccccccccscasscccccccc" />
    <path
       style="fill:none;stroke:#000000;stroke-width:1.125;stroke-linecap:butt;stroke-linejoin:miter;stroke-dasharray:none;stroke-opacity:1"
       d="m 735.12472,113.85209 c 0.0598,13.18097 -0.84639,17.32817 -0.59027,30.50363 0.24309,13.24752 3.04839,17.892 3.81982,22.28161 l 0.34022,0.37112"
       id="path24-1"
       sodipodi:nodetypes="cccc" />
    <path
       style="fill:none;stroke:#000000;stroke-width:1.125;stroke-linecap:butt;stroke-linejoin:miter;stroke-dasharray:none;stroke-opacity:1"
       d="m 722.2735,114.2137 c -1.30304,29.87371 -7.6708,51.32513 -7.85352,51.70992"
       id="path25-3"
       sodipodi:nodetypes="cc" />
    <path
       style="fill:none;stroke:#000000;stroke-width:1.125;stroke-linecap:butt;stroke-linejoin:miter;stroke-dasharray:none;stroke-opacity:1"
       d="m 718.70371,129.40123 c -2.6177,0.0554 -5.5215,0.49323 -8.56747,0.3616 -1.63971,-1.73539 -5.71499,1.1309 -7.49972,0.59537 -0.49161,-1.50807 -3.18372,1.61572 -3.56661,-1.68019 -2.57493,1.73464 -4.15382,-2.36818 -7.13955,0.36161 -2.43498,0.26873 -6.86013,5.36366 -6.06864,-0.36161 -1.95362,-4.9754 5.15973,-6.09009 6.78259,-10.12502 0.95446,-1.4993 2.59732,-3.45302 0.66541,-3.73095 1.42877,-1.70256 -1.49967,-1.32196 -0.84512,-2.60973 -2.56686,1.38497 -5.55228,-1.45305 -1.60518,-2.69952 3.45717,-3.06541 6.58379,-4.02543 9.8707,-6.94588 -2.38438,1.43137 3.53336,-2.49205 3.84446,-4.109528 1.45603,-2.077492 7.01804,-5.234865 2.25972,-3.977212 1.59955,-4.36641 -6.88619,3.100335 -4.90856,-0.878115 2.77071,-2.64282 -0.65801,-1.840313 -1.42792,-3.254475 1.66557,-0.604628 5.70828,-1.96995 8.39903,-3.59952 1.33106,-1.435342 8.51874,-3.963982 6.23708,-4.717463 -2.87239,-0.03502 -0.54116,-2.079719 -0.71395,-2.892862 -4.32396,0.0267 2.35952,-1.899795 3.57546,-3.064583 3.44864,-2.191497 7.75758,-4.200477 9.14227,-8.311905 0.56009,-1.315859 3.7194,3.616151 5.13118,4.505943 3.94424,2.179126 7.87406,4.513175 11.78028,6.870545 0.83818,0.75051 -3.51237,-0.194393 -2.06762,1.486687 -1.31811,1.46514 -6.62443,0.41793 -2.5731,2.852603 3.5768,2.302185 7.39953,3.733597 10.87827,6.166688 3.45113,0.134902 6.83528,5.649667 1.29533,4.319947 -1.09425,0.470798 -2.74835,0.374475 -4.32008,0.361605 -0.79933,0.03968 -4.50711,1.73775 -1.42791,1.084823 2.67242,1.89054 4.16601,5.904542 7.33109,7.935102 3.22515,1.79565 5.96595,5.24728 8.49817,7.0967 -0.86354,0.0245 3.77566,2.615 1.66261,4.85664 -0.58973,3.18391 -5.87348,-1.67134 -3.56978,1.44643 3.2385,2.03226 2.2119,6.44582 4.55018,9.07683 0.63787,1.62244 5.20252,4.81025 0.0905,3.57944 -3.71685,-1.88705 -7.52497,-0.24333 -11.42707,-1.17409 -2.65598,-1.84152 -5.77512,1.32419 -8.98255,0.45087 -1.97255,0.0335 -3.94202,0.0536 -5.80999,-0.3616 -1.01751,0 -2.03502,0 -3.05252,0"
       id="path26-8" />
    <ellipse
       style="fill:none;stroke:#000000;stroke-width:0.75714;stroke-dasharray:none;stroke-opacity:1"
       id="path27"
       cx="715.61548"
       cy="392.99051"
       rx="12.207905"
       ry="8.753377"
       transform="matrix(0.87740658,-0.47974753,0.3015497,0.95345046,0,0)" />
    <path
       style="fill:none;stroke:#000000;stroke-width:0.75;stroke-linecap:butt;stroke-linejoin:miter;stroke-dasharray:none;stroke-opacity:1"
       d="m 751.93718,22.874713 c 0.20917,0.707724 0.41362,1.4529 0.6762,2.106572"
       id="path28"
       sodipodi:nodetypes="cc" />
    <path
       style="fill:none;stroke:#000000;stroke-width:0.75;stroke-linecap:butt;stroke-linejoin:miter;stroke-dasharray:none;stroke-opacity:1"
       d="m 749.19934,25.290148 c 0.20919,0.707724 0.41367,1.4529 0.67624,2.10657"
       id="path28-5"
       sodipodi:nodetypes="cc" />
    <path
       style="fill:none;stroke:#000000;stroke-width:0.75;stroke-linecap:butt;stroke-linejoin:miter;stroke-dasharray:none;stroke-opacity:1"
       d="m 743.43336,23.188678 c -0.47635,6.702208 5.31194,11.802747 10.24254,12.869095"
       id="path30"
       sodipodi:nodetypes="cc" />
    <path
       style="fill:none;stroke:#000000;stroke-width:0.75;stroke-linecap:butt;stroke-linejoin:miter;stroke-dasharray:none;stroke-opacity:1"
       d="m 739.82564,26.745935 c -0.47634,6.702207 5.07782,11.411229 10.00844,12.477577"
       id="path30-4" />
    <path
       style="fill:none;stroke:#000000;stroke-width:0.75;stroke-linecap:butt;stroke-linejoin:miter;stroke-dasharray:none;stroke-opacity:1"
       d="m 735.51939,28.667758 c -0.47635,6.702213 5.07781,11.411234 10.0084,12.477583"
       id="path30-5" />
    <path
       style="fill:none;stroke:#000000;stroke-width:0.75;stroke-linecap:butt;stroke-linejoin:miter;stroke-dasharray:none;stroke-opacity:1"
       d="m 742.74022,23.522898 c -2.9574,-0.906674 -5.75448,-2.673252 -8.84949,-2.847686 -1.24994,-0.117112 -2.69797,0.16744 -3.48525,1.459953 -0.85088,1.445928 -0.50481,3.472131 0.39205,4.767947 0.50186,0.749066 1.18572,1.327741 1.95281,1.614052 1.2,1.021359 2.83793,1.085997 4.15187,0.344976 1.68967,-0.872148 3.00641,-2.460177 4.44663,-3.783475 0.48722,-0.487333 0.9559,-1.002258 1.39138,-1.555767 z"
       id="path34" />
    <path
       style="fill:#ffffff;fill-opacity:1;stroke:#000000;stroke-width:0.75;stroke-linecap:butt;stroke-linejoin:miter;stroke-dasharray:none;stroke-opacity:1"
       d="m 742.19924,24.009037 c 0.38342,3.294227 -0.91973,6.609397 -2.95691,8.773117 -1.30848,1.414582 -2.91692,2.441299 -4.64052,2.89756 -1.69277,1.032813 -3.84593,0.89329 -5.45531,-0.304222 -1.00959,-0.733849 -1.65369,-2.17372 -1.45344,-3.593514 0.27991,-2.187718 1.70749,-3.941695 3.33664,-4.848205 2.72168,-1.516915 5.78771,-1.500339 8.68613,-2.174481 0.83968,-0.187475 1.67338,-0.423354 2.48341,-0.750255 z"
       id="path33" />
    <path
       style="fill:none;stroke:#000000;stroke-width:0.75;stroke-linecap:butt;stroke-linejoin:miter;stroke-dasharray:none;stroke-opacity:1"
       d="m 753.42488,36.324565 c 0.72127,0.188987 3.60659,0.945203 4.32795,1.134327"
       id="path35" />
    <path
       style="fill:none;stroke:#000000;stroke-width:0.75;stroke-linecap:butt;stroke-linejoin:miter;stroke-dasharray:none;stroke-opacity:1"
       d="m 752.47815,37.134798 c 0.40575,0.540153 2.02867,2.700773 2.43443,3.240926"
       id="path36" />
    <path
       style="fill:none;stroke:#000000;stroke-width:0.75;stroke-linecap:butt;stroke-linejoin:miter;stroke-dasharray:none;stroke-opacity:1"
       d="m 749.51088,39.355988 2.02872,2.106602"
       id="path37" />
    <path
       style="fill:none;stroke:#000000;stroke-width:0.75;stroke-linecap:butt;stroke-linejoin:miter;stroke-dasharray:none;stroke-opacity:1"
       d="m 747.74442,40.537774 c 0.11273,0.729207 0.56355,3.646041 0.67624,4.375252"
       id="path38" />
    <path
       style="fill:none;stroke:#000000;stroke-width:0.75;stroke-linecap:butt;stroke-linejoin:miter;stroke-dasharray:none;stroke-opacity:1"
       d="m 745.03944,41.185957 c -0.15778,0.756216 -0.78893,3.781082 -0.94673,4.537298"
       id="path39" />
    <path
       style="fill:none;stroke:#000000;stroke-width:0.75;stroke-linecap:butt;stroke-linejoin:miter;stroke-dasharray:none;stroke-opacity:1"
       d="m 741.83309,41.577174 c -0.42915,0.809543 -2.14229,4.050469 -2.56975,4.861392"
       id="path40" />
    <ellipse
       style="fill:none;stroke:#000000;stroke-width:0.75714;stroke-dasharray:none;stroke-opacity:1"
       id="path27-4"
       cx="756.1839"
       cy="414.57483"
       rx="12.207905"
       ry="8.753377"
       transform="matrix(0.87740658,-0.47974753,0.3015497,0.95345046,0,0)" />
    <path
       style="fill:none;stroke:#000000;stroke-width:0.75;stroke-linecap:butt;stroke-linejoin:miter;stroke-dasharray:none;stroke-opacity:1"
       d="m 794.04083,23.991714 c 0.20917,0.70772 0.41377,1.452901 0.67634,2.106571"
       id="path28-1"
       sodipodi:nodetypes="cc" />
    <path
       style="fill:none;stroke:#000000;stroke-width:0.75;stroke-linecap:butt;stroke-linejoin:miter;stroke-dasharray:none;stroke-opacity:1"
       d="m 791.3031,26.407149 c 0.20925,0.707725 0.41355,1.4529 0.67612,2.106572"
       id="path28-5-7"
       sodipodi:nodetypes="cc" />
    <path
       style="fill:none;stroke:#000000;stroke-width:0.75;stroke-linecap:butt;stroke-linejoin:miter;stroke-dasharray:none;stroke-opacity:1"
       d="m 785.5371,24.30568 c -0.4764,6.702207 5.31195,11.802742 10.2426,12.86909"
       id="path30-1"
       sodipodi:nodetypes="cc" />
    <path
       style="fill:none;stroke:#000000;stroke-width:0.75;stroke-linecap:butt;stroke-linejoin:miter;stroke-dasharray:none;stroke-opacity:1"
       d="m 781.92937,27.862932 c -0.47639,6.702211 5.07788,11.411234 10.00845,12.477582"
       id="path30-4-3" />
    <path
       style="fill:none;stroke:#000000;stroke-width:0.75;stroke-linecap:butt;stroke-linejoin:miter;stroke-dasharray:none;stroke-opacity:1"
       d="m 777.6231,29.78476 c -0.47633,6.702207 5.0778,11.411229 10.00845,12.47758"
       id="path30-5-4" />
    <path
       style="fill:none;stroke:#000000;stroke-width:0.75;stroke-linecap:butt;stroke-linejoin:miter;stroke-dasharray:none;stroke-opacity:1"
       d="m 785.22442,24.51779 c -2.71125,-1.650456 -5.1027,-4.097812 -8.08732,-5.069949 -1.19655,-0.438108 -2.66258,-0.5359 -3.6759,0.520359 -1.10453,1.189354 -1.1523,3.254703 -0.52418,4.750603 0.34695,0.860446 0.90375,1.601895 1.59728,2.079859 0.9759,1.306851 2.56072,1.794343 3.98265,1.412296 1.81335,-0.412522 3.39915,-1.619712 5.055,-2.536773 0.56775,-0.348924 1.12267,-0.729543 1.65247,-1.156395 z"
       id="path34-8" />
    <path
       style="fill:#ffffff;fill-opacity:1;stroke:#000000;stroke-width:0.75;stroke-linecap:butt;stroke-linejoin:miter;stroke-dasharray:none;stroke-opacity:1"
       d="m 784.84523,26.111337 c 0.0652,3.323646 -1.54816,6.447491 -3.78016,8.331124 -1.43602,1.234521 -3.13282,2.044387 -4.88932,2.272329 -1.78125,0.804898 -3.9075,0.384616 -5.39183,-1.015866 -0.93277,-0.861281 -1.43467,-2.376338 -1.09942,-3.761003 0.4881,-2.137333 2.07495,-3.693538 3.78082,-4.381249 2.85015,-1.151367 5.89523,-0.733853 8.84011,-1.024633 0.85245,-0.07646 1.70355,-0.20181 2.5398,-0.420702 z"
       id="path33-6" />
    <path
       style="fill:none;stroke:#000000;stroke-width:0.75;stroke-linecap:butt;stroke-linejoin:miter;stroke-dasharray:none;stroke-opacity:1"
       d="m 795.52868,37.441566 c 0.72127,0.188987 3.60659,0.945203 4.32787,1.134323"
       id="path35-1" />
    <path
       style="fill:none;stroke:#000000;stroke-width:0.75;stroke-linecap:butt;stroke-linejoin:miter;stroke-dasharray:none;stroke-opacity:1"
       d="m 794.58188,38.251795 c 0.40574,0.540157 2.02875,2.700778 2.43442,3.240931"
       id="path36-5" />
    <path
       style="fill:none;stroke:#000000;stroke-width:0.75;stroke-linecap:butt;stroke-linejoin:miter;stroke-dasharray:none;stroke-opacity:1"
       d="m 791.61458,40.472985 2.02874,2.106601"
       id="path37-0" />
    <path
       style="fill:none;stroke:#000000;stroke-width:0.75;stroke-linecap:butt;stroke-linejoin:miter;stroke-dasharray:none;stroke-opacity:1"
       d="m 789.84818,41.65477 c 0.11272,0.72921 0.56355,3.646046 0.67619,4.375253"
       id="path38-6" />
    <path
       style="fill:none;stroke:#000000;stroke-width:0.75;stroke-linecap:butt;stroke-linejoin:miter;stroke-dasharray:none;stroke-opacity:1"
       d="m 787.14315,42.302958 c -0.15772,0.756215 -0.78892,3.781083 -0.94673,4.537298"
       id="path39-5" />
    <path
       style="fill:none;stroke:#000000;stroke-width:0.75;stroke-linecap:butt;stroke-linejoin:miter;stroke-dasharray:none;stroke-opacity:1"
       d="m 783.93682,42.694169 c -0.42907,0.809544 -2.14229,4.050475 -2.56972,4.861394"
       id="path40-3" />
    <ellipse
       style="fill:none;stroke:#000000;stroke-width:0.75714;stroke-dasharray:none;stroke-opacity:1"
       id="path27-9"
       cx="732.48352"
       cy="433.28766"
       rx="12.207905"
       ry="8.753377"
       transform="matrix(0.87740658,-0.47974753,0.3015497,0.95345046,0,0)" />
    <path
       style="fill:none;stroke:#000000;stroke-width:0.75;stroke-linecap:butt;stroke-linejoin:miter;stroke-dasharray:none;stroke-opacity:1"
       d="m 778.88873,53.203724 c 0.20917,0.707721 0.41369,1.452898 0.67627,2.10657"
       id="path28-57"
       sodipodi:nodetypes="cc" />
    <path
       style="fill:none;stroke:#000000;stroke-width:0.75;stroke-linecap:butt;stroke-linejoin:miter;stroke-dasharray:none;stroke-opacity:1"
       d="m 776.15092,55.619158 c 0.20926,0.707722 0.4137,1.452898 0.67628,2.106571"
       id="path28-5-6"
       sodipodi:nodetypes="cc" />
    <path
       style="fill:none;stroke:#000000;stroke-width:0.75;stroke-linecap:butt;stroke-linejoin:miter;stroke-dasharray:none;stroke-opacity:1"
       d="m 770.38493,53.517687 c -0.4764,6.70221 5.31195,11.802745 10.2426,12.869099"
       id="path30-8"
       sodipodi:nodetypes="cc" />
    <path
       style="fill:none;stroke:#000000;stroke-width:0.75;stroke-linecap:butt;stroke-linejoin:miter;stroke-dasharray:none;stroke-opacity:1"
       d="m 766.7772,57.074945 c -0.47632,6.702211 5.07788,11.411231 10.00853,12.477573"
       id="path30-4-5" />
    <path
       style="fill:none;stroke:#000000;stroke-width:0.75;stroke-linecap:butt;stroke-linejoin:miter;stroke-dasharray:none;stroke-opacity:1"
       d="m 762.471,58.99677 c -0.47632,6.70221 5.0778,11.411228 10.00838,12.477586"
       id="path30-5-47" />
    <path
       style="fill:none;stroke:#000000;stroke-width:0.75;stroke-linecap:butt;stroke-linejoin:miter;stroke-dasharray:none;stroke-opacity:1"
       d="m 768.84922,54.089619 c -3.04132,-0.368711 -6.03659,-1.615832 -9.11812,-1.236347 -1.25063,0.107127 -2.64442,0.646532 -3.25343,2.064261 -0.65167,1.580688 -0.045,3.521412 1.01116,4.642113 0.59399,0.650795 1.3455,1.10074 2.14102,1.246911 1.31955,0.795414 2.94675,0.567238 4.14833,-0.399376 1.55572,-1.163194 2.64922,-2.967376 3.89947,-4.53196 0.41775,-0.568488 0.8136,-1.160939 1.17157,-1.785602 z"
       id="path34-9" />
    <path
       style="fill:#ffffff;fill-opacity:1;stroke:#000000;stroke-width:0.75;stroke-linecap:butt;stroke-linejoin:miter;stroke-dasharray:none;stroke-opacity:1"
       d="m 768.9786,55.861711 c -0.10118,3.322417 -1.8675,6.33114 -4.18973,8.059632 -1.49527,1.134666 -3.22957,1.827646 -4.99447,1.935636 -1.81838,0.682267 -3.91995,0.117969 -5.3319,-1.381175 -0.88815,-0.92332 -1.31355,-2.469966 -0.90975,-3.829456 0.594,-2.100466 2.25585,-3.546004 3.99315,-4.116414 2.90272,-0.955395 5.92192,-0.331299 8.87625,-0.421122 0.85477,-0.01829 1.71067,-0.08551 2.55645,-0.247101 z"
       id="path33-66" />
    <path
       style="fill:none;stroke:#000000;stroke-width:0.75;stroke-linecap:butt;stroke-linejoin:miter;stroke-dasharray:none;stroke-opacity:1"
       d="m 780.3765,66.653572 c 0.72135,0.188995 3.6066,0.945204 4.32788,1.134331"
       id="path35-6" />
    <path
       style="fill:none;stroke:#000000;stroke-width:0.75;stroke-linecap:butt;stroke-linejoin:miter;stroke-dasharray:none;stroke-opacity:1"
       d="m 779.42978,67.463813 c 0.40567,0.54015 2.02867,2.700765 2.43442,3.240915"
       id="path36-6" />
    <path
       style="fill:none;stroke:#000000;stroke-width:0.75;stroke-linecap:butt;stroke-linejoin:miter;stroke-dasharray:none;stroke-opacity:1"
       d="m 776.4624,69.684991 2.02875,2.106607"
       id="path37-7" />
    <path
       style="fill:none;stroke:#000000;stroke-width:0.75;stroke-linecap:butt;stroke-linejoin:miter;stroke-dasharray:none;stroke-opacity:1"
       d="m 774.696,70.866781 c 0.11273,0.729217 0.56355,3.64605 0.67627,4.375251"
       id="path38-0" />
    <path
       style="fill:none;stroke:#000000;stroke-width:0.75;stroke-linecap:butt;stroke-linejoin:miter;stroke-dasharray:none;stroke-opacity:1"
       d="m 771.99105,71.514968 c -0.1578,0.75621 -0.78892,3.781079 -0.9468,4.537304"
       id="path39-4" />
    <path
       style="fill:none;stroke:#000000;stroke-width:0.75;stroke-linecap:butt;stroke-linejoin:miter;stroke-dasharray:none;stroke-opacity:1"
       d="m 768.78465,71.906183 c -0.42908,0.809543 -2.14223,4.050472 -2.56973,4.861387"
       id="path40-1" />
    <path
       style="fill:none;stroke:#000000;stroke-width:1.125;stroke-linecap:butt;stroke-linejoin:miter;stroke-dasharray:none;stroke-opacity:1"
       d="m 611.33781,112.8964 c 1.61397,0.10318 3.49246,-0.25667 4.87458,0.29375 1.19593,0.20706 3.07861,0.77635 4.13083,1.3823 0.97882,0.53227 1.03281,0.83774 1.94126,1.46349 0.84868,1.37464 -1.34503,1.14089 -2.25302,1.15542 -2.83032,-0.11964 -5.54658,0.38841 -8.36834,0.28632 -1.89108,-0.12163 2.52804,0.48506 3.27632,0.71583 1.37634,0.16533 2.54482,0.75454 3.85888,1.14531 1.10224,0.63378 2.268,0.6084 3.21576,1.43166 0.81996,0.51716 1.57278,1.23202 2.16153,2.10319 -0.16934,1.1939 -1.69603,1.56449 -2.80473,1.6191 -1.95618,-0.36668 -4.14954,-0.99187 -6.04555,-1.71797 -1.51036,-0.46035 -3.16539,-1.14056 -4.75928,-1.71799 -1.13677,-0.54713 -2.53907,-1.17572 -3.0871,-0.14316 -4.77316,3.99338 -10.6647,4.40286 -16.67501,5.68013 -0.96741,0.11595 -2.62317,0.33462 -4.41415,0.33279 -2.84115,-0.0507 -5.76845,0.12819 -8.52726,-0.14316 -0.11032,-0.47175 -1.77311,-0.0993 -2.70122,-0.71583 -2.41505,-0.1689 -7.00955,-2.79904 -5.91693,-6.29926 -0.45645,0.44375 -1.64073,0.57017 -2.31532,0.28633 -0.87571,-0.33428 -2.05546,-1.12032 -2.44395,-2.29063 -1.0661,-1.24924 -1.52308,-2.72849 -0.86045,-4.45066 0.4535,-0.94915 2.38643,-1.19968 3.56166,-0.84645 1.46723,-0.0849 3.21625,3.25188 3.73023,2.57697 1.71498,-3.68045 2.98748,-4.94544 6.66657,-6.72717 2.69744,-1.13483 5.32344,-1.95107 8.12579,-2.57855 4.1921,-0.79145 7.90657,-1.08224 11.86561,0.28633 1.19835,-0.0302 3.97798,1.96461 3.73023,0.57266 -0.55527,-2.86004 0.40941,-5.93744 1.80081,-7.444577 -0.42697,-0.731685 -1.091,-2.057715 -1.53355,-3.00276 -0.60556,-1.211033 -1.01926,-2.72478 -1.03903,-4.256655 -0.10354,-1.09635 0.23717,-2.761815 0.65693,-3.128085 0.70407,-0.90792 2.35299,-0.806573 3.33057,-0.206715 0.48446,0.356557 1.0514,0.91044 1.41492,1.57482 0.93757,1.844407 1.12533,7.452292 1.58573,7.148535 1.64165,-1.083128 2.61912,-1.217453 4.19128,-0.517425 0.45774,0.203797 -0.21864,-5.592225 0.13997,-8.635425 1.08188,-2.679495 3.21251,-2.142218 4.43765,-0.501075 0.7784,1.053712 0.79904,2.513437 0.83608,3.928755 v 5.305387 c 0.99919,2.158965 3.96114,9.99746 -1.41496,13.74384 -0.56022,0.44492 -2.09774,1.6628 -3.70531,2.01553 -3.13389,0.64959 -7.67516,-1.62005 -8.51439,-3.87668"
       id="path41"
       sodipodi:nodetypes="ccccccccccccccccccccccccccccccccccsscccccsc" />
    <path
       style="fill:none;stroke:#000000;stroke-width:1.125;stroke-linecap:butt;stroke-linejoin:miter;stroke-dasharray:none;stroke-opacity:1"
       d="m 613.64409,99.152565 c 0.25022,0.848885 0.53641,1.716355 0.64314,2.576975"
       id="path42" />
    <path
       style="fill:none;stroke:#000000;stroke-width:1.125;stroke-linecap:butt;stroke-linejoin:miter;stroke-dasharray:none;stroke-opacity:1"
       d="m 609.39931,99.4389 c 0.47772,1.07083 0.63363,1.88594 0.90041,3.00646"
       id="path43"
       sodipodi:nodetypes="cc" />
    <path
       style="fill:none;stroke:#000000;stroke-width:1.125;stroke-linecap:butt;stroke-linejoin:miter;stroke-dasharray:none;stroke-opacity:1"
       d="m 616.08467,103.89166 c 0.54156,3.24162 -2.35942,2.41495 -3.10878,0.78942 1.00253,2.76847 -2.54695,4.67473 -3.06537,1.35805"
       id="path44"
       sodipodi:nodetypes="ccc" />
    <path
       style="fill:#feffff;fill-opacity:1;stroke:#000000;stroke-width:1.125;stroke-linecap:butt;stroke-linejoin:miter;stroke-dasharray:none;stroke-opacity:1"
       d="m 578.76293,117.33452 c 1.39772,-0.11926 2.94924,-0.74829 4.24476,0.14316 1.28696,1.03915 1.19208,2.99403 1.15618,4.56854 0.0233,1.57297 -0.16045,3.22191 -0.8579,4.61756 -0.56071,1.02352 -1.34355,1.9658 -2.42968,2.2586 -1.46976,0.47398 -3.07251,0.67819 -4.30259,1.78319 -2.60681,1.82138 -3.65151,2.52706 -4.92626,5.64963 -0.3262,0.79617 0.13514,2.36214 -0.79727,2.554 -1.12732,-0.39099 -1.29967,-1.86361 -1.74261,-2.90078 -0.48075,-1.13838 0.043,-2.33501 0.67601,-3.24149 0.63683,-0.83834 1.49078,-1.41995 2.16924,-2.2166 0.81732,-0.84927 1.76974,-1.50768 2.60609,-2.32701 0.56719,-0.53466 0.69708,-1.38031 1.06029,-2.07852 l 0.0315,-0.10908 0.0251,-0.1113"
       id="path45"
       sodipodi:nodetypes="ccccccccccccccc" />
    <path
       style="fill:none;stroke:#000000;stroke-width:1.125;stroke-linecap:butt;stroke-linejoin:miter;stroke-dasharray:none;stroke-opacity:1"
       d="m 587.76697,126.90201 c 0.0597,1.16389 -0.68843,2.12554 -1.38245,2.89658 -0.7338,0.76784 -1.54282,1.46537 -2.41557,2.02079 -0.75292,0.30288 -1.47602,0.69781 -2.18571,1.10565 -0.52789,0.30933 -1.12908,0.76138 -1.13763,1.50248 0.0454,0.58626 0.0399,1.17271 0.031,1.76362 0.0588,0.45266 -0.14987,1.42652 -0.69967,0.94298 -0.65766,-0.63947 -1.28177,-1.34933 -1.72851,-2.1903 -0.53605,-0.51854 -0.40074,-1.44051 -0.14668,-2.08642 0.23535,-0.45825 0.50067,-0.89722 0.6856,-1.38821 0.32187,-0.71883 0.58643,-1.47786 1.00199,-2.13844 l 0.0712,-0.0803 0.0601,-0.0332"
       id="path46" />
    <path
       style="fill:none;stroke:#000000;stroke-width:1.125;stroke-linecap:butt;stroke-linejoin:miter;stroke-dasharray:none;stroke-opacity:1"
       d="m 648.21329,137.78947 c 1.61397,0.10318 4.53401,0.22707 6.78754,0.4822 2.67713,0.30307 5.62184,0.23009 7.985,1.24399 0.84867,1.37464 -4.02312,1.89468 -4.93112,1.9092 -2.83031,-0.11963 -6.69436,1.04798 -9.51617,0.94589 -1.89108,-0.12163 2.52803,0.48506 3.27637,0.71582 1.37634,0.16534 3.33837,0.1889 5.00661,0.29732 0.97661,0.0634 1.95754,0.0874 2.92878,0.20675 1.49758,0.18405 3.86841,-0.0871 4.45715,0.78406 -0.16941,1.1939 -2.17397,1.70815 -3.47436,2.09021 -1.7181,0.50477 -3.58439,0.23431 -5.37593,0.16648 -2.42782,-0.0919 -4.82103,-0.63047 -7.24619,-0.77574 -1.24998,-0.0749 -3.20854,-1.08151 -3.75656,-0.049 -4.77318,3.99339 -8.39613,4.40287 -14.40646,5.68014 -0.96743,0.11595 -2.6232,0.33461 -4.41418,0.33279 -2.84115,-0.0507 -5.76844,0.1282 -8.52724,-0.14316 -0.11031,-0.47174 -2.44262,-0.005 -3.37074,-0.6216 -2.41506,-0.1689 -6.34001,-2.89327 -5.24736,-6.39348 -0.4565,0.44374 -1.43788,0.77004 -2.85641,0.95258 -3.74262,-0.30664 -5.38948,-2.17488 -3.77784,-6.27491 0.45355,-0.94914 2.70465,-3.41493 4.57614,-3.24497 1.79155,0.1627 3.21627,4.51777 3.73026,3.84285 1.71498,-3.68045 4.4342,-4.47001 7.24041,-5.78493 2.45249,-1.14916 3.84141,-1.12807 7.97412,-1.64579 4.13269,-0.51773 13.45195,2.0565 12.90511,-1.016 -0.55528,-2.86005 0.40937,-5.93745 1.80079,-7.44459 -0.80138,-1.37339 -2.42714,-2.10012 -5.00741,-7.19278 -0.1035,-1.09634 0.23718,-2.76182 0.65699,-3.12809 0.72015,-0.90792 2.29681,-0.80657 3.33053,-0.20671 0.48445,0.35656 1.05143,0.91044 1.41491,1.57482 0.93759,1.84441 3.56016,7.38567 4.02051,7.08191 1.6417,-1.08313 2.61917,-1.21744 4.19128,-0.51742 0.45774,0.20379 -2.65336,-5.52561 -2.29476,-8.5688 1.08188,-2.6795 2.73912,-1.94234 3.96426,-0.3012 0.89773,2.78786 1.80418,5.54055 2.5945,8.43463 3.12664,2.87845 5.48187,5.73651 4.99537,11.07325 -1.35343,2.2392 -2.31881,2.717 -3.89331,3.58794 -1.54546,0.85484 -4.18261,1.43591 -5.07262,1.63119 -3.12585,0.68586 -7.67511,-1.62006 -8.51437,-3.87669"
       id="path41-9"
       sodipodi:nodetypes="caccccaacaaaccccccccacazccccccssccccssc" />
    <path
       style="fill:none;stroke:#000000;stroke-width:1.125;stroke-linecap:butt;stroke-linejoin:miter;stroke-dasharray:none;stroke-opacity:1"
       d="m 651.65384,124.04564 c 0.25023,0.84888 0.5364,1.71636 0.64314,2.57696"
       id="path42-3" />
    <path
       style="fill:none;stroke:#000000;stroke-width:1.125;stroke-linecap:butt;stroke-linejoin:miter;stroke-dasharray:none;stroke-opacity:1"
       d="m 647.3134,124.61463 c 0.47776,1.07084 0.63367,1.88596 0.90045,3.00646"
       id="path43-9"
       sodipodi:nodetypes="cc" />
    <path
       style="fill:none;stroke:#000000;stroke-width:1.125;stroke-linecap:butt;stroke-linejoin:miter;stroke-dasharray:none;stroke-opacity:1"
       d="m 653.71189,129.9154 c 0.54156,3.24162 -1.21164,3.26296 -3.01317,0.0356 1.19383,3.89914 -2.64265,5.42851 -3.16107,2.11183"
       id="path44-6"
       sodipodi:nodetypes="ccc" />
    <path
       style="fill:#feffff;fill-opacity:1;stroke:#000000;stroke-width:1.125;stroke-linecap:butt;stroke-linejoin:miter;stroke-dasharray:none;stroke-opacity:1"
       d="m 617.90692,142.22758 c 1.39772,-0.11925 2.94925,-0.74827 4.24477,0.14317 1.28696,1.03914 1.19207,2.99402 1.15617,4.56854 0.0232,1.57295 -0.16044,3.2219 -0.85786,4.61754 -0.56073,1.02353 -1.34355,1.96581 -2.42968,2.25862 -1.46981,0.47397 -4.96623,-0.65434 -6.1963,0.45067 -2.60686,1.82138 -3.65154,2.52706 -4.9263,5.64964 -0.32617,0.79617 -2.29959,2.89513 -3.23202,3.087 -1.12731,-0.39099 0.25589,-2.72975 -0.18705,-3.76692 -0.48076,-1.13838 0.92223,-2.00188 1.55522,-2.90836 0.63684,-0.83834 1.49079,-1.41995 2.16925,-2.2166 1.87424,-2.24445 2.83095,-3.83518 2.83095,-3.83518"
       id="path45-6"
       sodipodi:nodetypes="cccccccccccc" />
    <path
       style="fill:none;stroke:#000000;stroke-width:1.125;stroke-linecap:butt;stroke-linejoin:miter;stroke-dasharray:none;stroke-opacity:1"
       d="m 626.91096,151.79507 c 0.0597,1.1639 -0.45167,2.55861 -1.14574,3.32965 -0.73376,0.76785 -4.89062,1.13224 -5.7634,1.68766 -0.75287,0.30288 -1.47597,0.69782 -2.1857,1.10565 -0.52789,0.30933 -1.12906,0.76138 -1.13763,1.50249 0.0454,0.58625 0.0397,1.1727 0.0312,1.76361 0.0588,0.45266 -2.14503,2.12609 -2.69482,1.64255 -0.65766,-0.63947 0.37521,-2.0489 -0.0716,-2.88987 -0.53607,-0.51854 -0.0625,-1.44051 0.19146,-2.08641 0.23536,-0.45826 0.50068,-0.89723 0.68562,-1.38822 0.32185,-0.71882 3.69753,-1.5778 4.11308,-2.23837 l 0.0712,-0.0803 0.0601,-0.0332"
       id="path46-4"
       sodipodi:nodetypes="ccccccccccccc" />
    <path
       style="fill:#ffffff;fill-opacity:1;stroke:#000000;stroke-width:1.125;stroke-linecap:butt;stroke-linejoin:miter;stroke-dasharray:none;stroke-opacity:1"
       d="m 469.7598,134.56828 c 4.32528,-0.8699 10.39331,-4.97313 11.42012,-9.0428 0.41269,1.58131 0.68446,6.83927 0.82483,8.10562 0.87103,3.38667 -0.47378,5.22481 2.51353,7.20031 3.47567,-1.89891 2.15359,-4.50023 1.66713,-8.71454 -0.18696,-1.62313 0.12577,-4.18176 0.54103,-8.13338 1.86636,3.44197 0.42715,6.73054 1.13208,10.48302 0.1739,3.51862 3.94746,9.60557 4.00055,4.18772 -0.12485,-7.25314 -0.35352,-14.55681 0.17879,-21.78186 0.66303,-4.21129 -0.13387,-8.6916 1.45535,-12.71313 2.21883,-2.25966 4.84868,-3.99116 6.87489,-6.48983 1.41321,-0.827183 2.93631,-3.704715 0.0291,-2.906468 -4.14729,0.65742 -7.63325,-2.922855 -6.96002,-7.40007 -2.15363,-2.17476 -4.80192,6.784823 -3.94391,1.207448 0.85295,-2.01555 -0.90404,-4.5243 -1.94156,-1.515353 -2.0683,3.709253 -5.69295,6.906405 -5.01265,11.772188 1.81659,8.424565 -6.12375,4.585585 -15.35298,12.572425 -2.99639,3.3828 -4.02431,8.21424 -4.92378,12.67172 -0.0402,3.63942 -1.53401,9.49302 -5.91822,7.60583 -4.63056,-0.81932 -6.96805,-5.65028 -10.65056,-8.05859 -4.15615,-2.31781 -6.73754,2.25109 -9.36132,4.83315 -2.73389,2.18455 -6.24819,1.03067 -9.25172,0.43645 2.92383,3.49341 6.56804,7.25157 11.13679,7.4076 4.33034,-0.642 8.5689,-1.91931 12.95155,-2.10543 3.3129,0.97755 7.76343,-2.19766 10.22701,0.65859 0.55582,4.0155 4.08986,5.16813 6.99312,5.51996 3.4774,-0.0422 7.97682,0.45451 10.34556,-2.39731 -1.17752,-2.927 -6.81903,-1.02548 -9.25708,-2.58235 -1.23923,-1.26015 2.87536,-1.255 4.58884,-2.95133 3.11553,-2.30066 3.89966,-8.66014 0.24588,-10.86135 -0.95792,-0.73397 -2.02979,-1.27802 -3.13782,-1.67767"
       id="path47"
       sodipodi:nodetypes="ccccccccccccccccccccccccccccccc" />
    <path
       style="fill:none;stroke:#000000;stroke-width:1.125;stroke-linecap:butt;stroke-linejoin:miter;stroke-dasharray:none;stroke-opacity:1"
       d="m 477.99491,136.56784 c 0.10832,0.17226 0.43111,-0.0963 0.11734,-0.0254 0.47114,-0.1699 0.91408,-0.6509 0.86086,-1.23026 -0.051,-0.43304 -0.44978,-0.68096 -0.81686,-0.70462 -0.82314,-0.17765 -1.66174,-0.25059 -2.50005,-0.22867 -0.67802,0.009 -1.35652,0.006 -2.03403,-0.0116 -0.47713,0.0268 -0.94944,0.1389 -1.42875,0.11914 0.37224,0.0578 0.78695,0.049 1.08954,-0.22835 0.41843,-0.26095 0.8238,-0.54704 1.24667,-0.79862 0.47285,-0.23652 0.91365,-0.6204 1.08955,-1.17531 0.0332,-0.10269 0.0563,-0.20949 0.0665,-0.31791"
       id="path48" />
    <path
       style="fill:#ffffff;fill-opacity:1;stroke:#000000;stroke-width:1.125;stroke-linecap:butt;stroke-linejoin:miter;stroke-dasharray:none;stroke-opacity:1"
       d="m 430.57847,147.39837 c 4.60916,-0.92011 11.07547,-5.26011 12.16967,-9.56462 0.43978,1.67256 0.72938,7.23393 0.87897,8.57336 0.9282,3.58209 -0.50489,5.5263 2.6785,7.61579 3.7038,-2.00847 2.29495,-4.7599 1.77655,-9.2174 -0.19921,-1.71679 0.13403,-4.42307 0.57655,-8.60272 1.98886,3.64058 0.45518,7.11893 1.20638,11.08794 0.18532,3.72167 4.20656,10.15986 4.26313,4.42938 -0.13304,-7.67169 -0.37673,-15.39682 0.19051,-23.03878 0.70656,-4.45431 -0.14264,-9.19315 1.55088,-13.44674 2.36446,-2.39006 5.16692,-4.22148 7.32612,-6.86433 1.50597,-0.87492 3.12905,-3.91849 0.031,-3.07419 -4.4195,0.69537 -8.13426,-3.09151 -7.41685,-7.82708 -2.29498,-2.300258 -5.11708,7.17634 -4.20276,1.277123 0.90895,-2.131868 -0.96338,-4.785383 -2.06901,-1.602803 -2.20404,3.9233 -6.0666,7.30495 -5.34164,12.4515 1.93583,8.91071 -6.52568,4.8502 -16.36067,13.29793 -3.19306,3.57799 -4.28845,8.68822 -5.24694,13.40292 -0.0428,3.84944 -1.63471,10.04083 -6.30668,8.04473 -4.93448,-0.86659 -7.4254,-5.97633 -11.3496,-8.52361 -4.42894,-2.45156 -7.17976,2.381 -9.97575,5.11205 -2.91333,2.31061 -6.65829,1.09015 -9.85896,0.46163 3.11574,3.69501 6.99913,7.67003 11.86776,7.83506 4.61455,-0.67905 9.13131,-2.03007 13.80162,-2.22693 3.53034,1.03397 8.27298,-2.32447 10.89825,0.69659 0.5923,4.24722 4.3583,5.46637 7.45212,5.8385 3.70564,-0.0445 8.50037,0.48075 11.02459,-2.53565 -1.2548,-3.09591 -7.2666,-1.08466 -9.86467,-2.73135 -1.32057,-1.33288 3.06408,-1.32744 4.89003,-3.12165 3.32002,-2.43342 4.15561,-9.15987 0.26202,-11.4881 -1.02079,-0.77633 -2.16302,-1.35177 -3.34377,-1.77448"
       id="path47-0"
       sodipodi:nodetypes="ccccccccccccccccccccccccccccccc" />
    <path
       style="fill:#ffffff;fill-opacity:1;stroke:#000000;stroke-width:1.125;stroke-linecap:butt;stroke-linejoin:miter;stroke-dasharray:none;stroke-opacity:1"
       d="m 439.35409,149.51331 c 0.11542,0.1822 0.45939,-0.10181 0.12504,-0.0268 0.50205,-0.17972 0.97406,-0.68846 0.91737,-1.30126 -0.0544,-0.45803 -0.47931,-0.72026 -0.87049,-0.74528 -0.87716,-0.18788 -1.7708,-0.26505 -2.66414,-0.24186 -0.72252,0.009 -1.44554,0.006 -2.16753,-0.0123 -0.50844,0.0284 -1.01176,0.14692 -1.52253,0.12601 0.39667,0.0612 0.83859,0.0519 1.16105,-0.24152 0.4459,-0.276 0.87788,-0.5786 1.3285,-0.8447 0.50389,-0.25016 0.97361,-0.65621 1.16105,-1.24315 0.0354,-0.10859 0.0599,-0.22157 0.0709,-0.33624"
       id="path48-7" />
    <path
       style="fill:none;stroke:#000000;stroke-width:1.125;stroke-linecap:butt;stroke-linejoin:miter;stroke-dasharray:none;stroke-opacity:1"
       d="m 268.52826,117.03127 87.88516,1.85973 23.03483,35.44428 -96.80856,2.51612 z"
       id="path49-1"
       sodipodi:nodetypes="ccccc" />
    <path
       style="fill:none;stroke:#000000;stroke-width:1.125;stroke-linecap:butt;stroke-linejoin:miter;stroke-dasharray:none;stroke-opacity:1"
       d="m 275.7976,137.31484 92.15841,-0.70169"
       id="path50-9"
       sodipodi:nodetypes="cc" />
    <path
       style="fill:none;stroke:#000000;stroke-width:1.125;stroke-linecap:butt;stroke-linejoin:miter;stroke-dasharray:none;stroke-opacity:1"
       d="m 313.83295,118.09877 18.75853,37.2985"
       id="path51-6"
       sodipodi:nodetypes="cc" />
    <path
       style="fill:none;stroke:#000000;stroke-width:1.125;stroke-linecap:butt;stroke-linejoin:miter;stroke-dasharray:none;stroke-opacity:1"
       d="m 336.28387,118.6645 20.45342,36.39131"
       id="path52-7"
       sodipodi:nodetypes="cc" />
    <path
       style="fill:none;stroke:#000000;stroke-width:1.125;stroke-linecap:butt;stroke-linejoin:miter;stroke-dasharray:none;stroke-opacity:1"
       d="m 291.74976,117.39707 18.19154,38.67535"
       id="path53-8"
       sodipodi:nodetypes="cc" />
    <path
       style="fill:none;stroke:#000000;stroke-width:1.125;stroke-linecap:butt;stroke-linejoin:miter;stroke-dasharray:none;stroke-opacity:1"
       d="m 274.8251,134.43757 -8.37205,20.66349"
       id="path54-9"
       sodipodi:nodetypes="cc" />
    <path
       style="fill:none;stroke:#000000;stroke-width:1.125;stroke-linecap:butt;stroke-linejoin:miter;stroke-dasharray:none;stroke-opacity:1"
       d="m 289.22125,156.10204 1.23865,8.85708"
       id="path55-7"
       sodipodi:nodetypes="cc" />
    <path
       style="fill:none;stroke:#000000;stroke-width:1.125;stroke-linecap:butt;stroke-linejoin:miter;stroke-dasharray:none;stroke-opacity:1"
       d="m 371.25117,154.32758 2.49025,7.00133"
       id="path56-5" />
    <path
       style="fill:none;stroke:#000000;stroke-width:1.125;stroke-linecap:butt;stroke-linejoin:miter;stroke-dasharray:none;stroke-opacity:1"
       d="m 346.2145,155.15415 2.41688,7.38583"
       id="path57-5"
       sodipodi:nodetypes="cc" />
    <path
       style="fill:none;stroke:#000000;stroke-width:1.125;stroke-linecap:butt;stroke-linejoin:miter;stroke-dasharray:none;stroke-opacity:1"
       d="m 312.87698,155.89337 2.19677,7.79688"
       id="path58-2"
       sodipodi:nodetypes="cc" />
    <path
       style="fill:none;stroke:#000000;stroke-width:1.125;stroke-linecap:butt;stroke-linejoin:miter;stroke-dasharray:none;stroke-opacity:1"
       d="m 270.34654,65.0796 87.88516,1.85973 23.03483,35.44428 -96.80856,2.51611 z"
       id="path49-1-1"
       sodipodi:nodetypes="ccccc" />
    <path
       style="fill:none;stroke:#000000;stroke-width:1.125;stroke-linecap:butt;stroke-linejoin:miter;stroke-dasharray:none;stroke-opacity:1"
       d="M 277.61589,85.36317 369.7743,84.661477"
       id="path50-9-9"
       sodipodi:nodetypes="cc" />
    <path
       style="fill:none;stroke:#000000;stroke-width:1.125;stroke-linecap:butt;stroke-linejoin:miter;stroke-dasharray:none;stroke-opacity:1"
       d="m 315.65123,66.14709 18.75854,37.2985"
       id="path51-6-6"
       sodipodi:nodetypes="cc" />
    <path
       style="fill:none;stroke:#000000;stroke-width:1.125;stroke-linecap:butt;stroke-linejoin:miter;stroke-dasharray:none;stroke-opacity:1"
       d="m 338.10216,66.71283 20.45342,36.39131"
       id="path52-7-7"
       sodipodi:nodetypes="cc" />
    <path
       style="fill:none;stroke:#000000;stroke-width:1.125;stroke-linecap:butt;stroke-linejoin:miter;stroke-dasharray:none;stroke-opacity:1"
       d="m 293.56804,65.445397 18.19154,38.675353"
       id="path53-8-8"
       sodipodi:nodetypes="cc" />
    <path
       style="fill:none;stroke:#000000;stroke-width:1.125;stroke-linecap:butt;stroke-linejoin:miter;stroke-dasharray:none;stroke-opacity:1"
       d="m 276.64339,82.485893 -8.37206,20.663487"
       id="path54-9-9"
       sodipodi:nodetypes="cc" />
    <path
       style="fill:none;stroke:#000000;stroke-width:1.125;stroke-linecap:butt;stroke-linejoin:miter;stroke-dasharray:none;stroke-opacity:1"
       d="m 291.03954,104.15037 1.23865,8.85707"
       id="path55-7-7"
       sodipodi:nodetypes="cc" />
    <path
       style="fill:none;stroke:#000000;stroke-width:1.125;stroke-linecap:butt;stroke-linejoin:miter;stroke-dasharray:none;stroke-opacity:1"
       d="m 373.06945,102.3759 2.49026,7.00134"
       id="path56-5-5" />
    <path
       style="fill:none;stroke:#000000;stroke-width:1.125;stroke-linecap:butt;stroke-linejoin:miter;stroke-dasharray:none;stroke-opacity:1"
       d="m 348.03278,103.20247 2.41688,7.38583"
       id="path57-5-5"
       sodipodi:nodetypes="cc" />
    <path
       style="fill:none;stroke:#000000;stroke-width:1.125;stroke-linecap:butt;stroke-linejoin:miter;stroke-dasharray:none;stroke-opacity:1"
       d="m 314.69526,103.9417 2.19678,7.79688"
       id="path58-2-2"
       sodipodi:nodetypes="cc" />
    <path
       style="fill:none;stroke:#000000;stroke-width:1.125;stroke-linecap:butt;stroke-linejoin:miter;stroke-dasharray:none;stroke-opacity:1"
       d="M 257.34865,118.24115 252.69784,8.3453528 238.86725,7.9494293 238.48082,51.446512 209.88023,26.107588 l 5.41093,29.29813 -29.37347,-26.130765 2.70544,27.318532 -34.39789,-27.714446 -2.0343,89.613921 z"
       id="path59"
       sodipodi:nodetypes="ccccccccccc" />
    <rect
       style="fill:#feffff;fill-opacity:1;stroke:#000000;stroke-width:1.125;stroke-dasharray:none;stroke-opacity:1"
       id="rect59"
       width="8.1163597"
       height="9.1061764"
       x="238.09428"
       y="73.412308"
       ry="3.1321801e-14" />
    <rect
       style="fill:#feffff;fill-opacity:1;stroke:#000000;stroke-width:1.125;stroke-dasharray:none;stroke-opacity:1"
       id="rect59-7"
       width="8.1163597"
       height="9.1061764"
       x="223.22649"
       y="73.412308"
       ry="3.1321801e-14" />
    <rect
       style="fill:#feffff;fill-opacity:1;stroke:#000000;stroke-width:1.125;stroke-dasharray:none;stroke-opacity:1"
       id="rect59-5"
       width="8.1163597"
       height="9.1061764"
       x="208.35855"
       y="73.412308"
       ry="3.1321801e-14" />
    <rect
       style="fill:#feffff;fill-opacity:1;stroke:#000000;stroke-width:1.125;stroke-dasharray:none;stroke-opacity:1"
       id="rect59-6"
       width="8.1163597"
       height="9.1061764"
       x="193.49066"
       y="73.412308"
       ry="3.1321801e-14" />
    <rect
       style="fill:#feffff;fill-opacity:1;stroke:#000000;stroke-width:1.125;stroke-dasharray:none;stroke-opacity:1"
       id="rect59-50"
       width="8.1163597"
       height="9.1061764"
       x="178.6228"
       y="73.412308"
       ry="3.1321801e-14" />
    <rect
       style="fill:#feffff;fill-opacity:1;stroke:#000000;stroke-width:1.125;stroke-dasharray:none;stroke-opacity:1"
       id="rect59-71"
       width="8.1163597"
       height="9.1061764"
       x="163.75493"
       y="73.412308"
       ry="3.1321801e-14" />
    <path
       style="fill:none;stroke:#000000;stroke-width:1.28018;stroke-linecap:butt;stroke-linejoin:miter;stroke-dasharray:none;stroke-opacity:1"
       d="m 25.116276,235.25629 62.566179,0.29122 26.694415,30.46779 -68.65262,0.0388 z"
       id="path60"
       sodipodi:nodetypes="ccccc" />
    <path
       style="fill:none;stroke:#000000;stroke-width:1.28018;stroke-linecap:butt;stroke-linejoin:miter;stroke-dasharray:none;stroke-opacity:1"
       d="m 24.779146,235.44162 0.147134,10.73666 21.042219,33.52538 68.348361,0.0326 0.0192,-13.65609"
       id="path61"
       sodipodi:nodetypes="ccccc" />
    <path
       style="fill:none;stroke:#000000;stroke-width:1.28018;stroke-linecap:butt;stroke-linejoin:miter;stroke-dasharray:none;stroke-opacity:1"
       d="m 46.006932,280.17341 -0.09608,-14.24772"
       id="path62"
       sodipodi:nodetypes="cc" />
    <ellipse
       style="fill:#ffffff;fill-opacity:1;stroke:#000000;stroke-width:1.28018;stroke-dasharray:none;stroke-opacity:1"
       id="path63"
       cx="107.09644"
       cy="272.91751"
       rx="1.3282101"
       ry="1.2338916" />
    <ellipse
       style="fill:#ffffff;fill-opacity:1;stroke:#000000;stroke-width:1.28018;stroke-dasharray:none;stroke-opacity:1"
       id="path63-5"
       cx="98.808868"
       cy="272.91751"
       rx="1.3282101"
       ry="1.2338916" />
    <ellipse
       style="fill:#ffffff;fill-opacity:1;stroke:#000000;stroke-width:1.28018;stroke-dasharray:none;stroke-opacity:1"
       id="path63-1"
       cx="90.521301"
       cy="272.91751"
       rx="1.3282101"
       ry="1.2338916" />
    <path
       style="fill:none;stroke:#000000;stroke-width:1.28018;stroke-linecap:butt;stroke-linejoin:miter;stroke-dasharray:none;stroke-opacity:1"
       d="m 239.52026,238.17603 62.56617,0.29122 26.69442,30.46779 -68.65262,0.0388 z"
       id="path60-0"
       sodipodi:nodetypes="ccccc" />
    <path
       style="fill:none;stroke:#000000;stroke-width:1.28018;stroke-linecap:butt;stroke-linejoin:miter;stroke-dasharray:none;stroke-opacity:1"
       d="m 239.18312,238.36135 0.14714,10.73666 21.04221,33.52539 68.34837,0.0326 0.0192,-13.65609"
       id="path61-5"
       sodipodi:nodetypes="ccccc" />
    <path
       style="fill:none;stroke:#000000;stroke-width:1.28018;stroke-linecap:butt;stroke-linejoin:miter;stroke-dasharray:none;stroke-opacity:1"
       d="m 260.41091,283.09315 -0.0961,-14.24773"
       id="path62-6"
       sodipodi:nodetypes="cc" />
    <ellipse
       style="fill:#ffffff;fill-opacity:1;stroke:#000000;stroke-width:1.28018;stroke-dasharray:none;stroke-opacity:1"
       id="path63-4"
       cx="321.50043"
       cy="275.83725"
       rx="1.3282101"
       ry="1.2338916" />
    <ellipse
       style="fill:#ffffff;fill-opacity:1;stroke:#000000;stroke-width:1.28018;stroke-dasharray:none;stroke-opacity:1"
       id="path63-5-5"
       cx="313.21283"
       cy="275.83725"
       rx="1.3282101"
       ry="1.2338916" />
    <ellipse
       style="fill:#ffffff;fill-opacity:1;stroke:#000000;stroke-width:1.28018;stroke-dasharray:none;stroke-opacity:1"
       id="path63-1-2"
       cx="304.92529"
       cy="275.83725"
       rx="1.3282101"
       ry="1.2338916" />
    <path
       style="fill:none;stroke:#000000;stroke-width:1.5;stroke-linecap:butt;stroke-linejoin:miter;stroke-dasharray:none;stroke-opacity:1"
       d="m 654.03575,239.46874 61.48769,0.29203 26.23432,30.55151 -67.46928,0.0389 z"
       id="path60-6-0"
       sodipodi:nodetypes="ccccc" />
    <path
       style="fill:none;stroke:#000000;stroke-width:1.5;stroke-linecap:butt;stroke-linejoin:miter;stroke-dasharray:none;stroke-opacity:1"
       d="m 653.51693,239.56084 0.0508,3.38934 20.96075,33.66438 68.01398,0.0327 0.0189,-5.70741"
       id="path61-5-9"
       sodipodi:nodetypes="ccccc" />
    <path
       style="fill:none;stroke:#000000;stroke-width:1.5;stroke-linecap:butt;stroke-linejoin:miter;stroke-dasharray:none;stroke-opacity:1"
       d="m 674.5663,277.08559 -0.0944,-6.86318"
       id="path62-1-2"
       sodipodi:nodetypes="cc" />
    <path
       id="path64-0"
       style="fill:#ffffff;stroke:#000000;stroke-width:1.5;stroke-dasharray:none"
       d="m 535.03399,299.76454 c 0,6.25255 -13.8366,11.32123 -30.90493,11.32123 -17.06831,0 -30.97152,-5.06868 -30.97152,-11.32123 0,-0.94292 0.002,-3.59852 0.0292,-8.62368 9.8901,0.0281 61.80894,-6e-5 61.80894,-6e-5 0,0 0.0384,2.37119 0.0384,8.62374 z"
       sodipodi:nodetypes="sssccss" />
    <ellipse
       style="fill:#ffffff;fill-opacity:1;stroke:#000000;stroke-width:1.5;stroke-dasharray:none;stroke-opacity:1"
       id="path64-3-7"
       cx="504.08337"
       cy="290.97876"
       rx="30.904922"
       ry="11.321239" />
    <path
       id="path64-6-7"
       style="fill:#ffffff;stroke:#000000;stroke-width:1.5;stroke-dasharray:none"
       d="m 131.90109,542.37138 c -1e-5,9.35241 -16.08183,16.93403 -35.919765,16.93403 -19.837942,0 -35.997185,-7.58163 -35.997185,-16.93403 0,-1.41039 0.0025,-5.38257 0.03391,-12.89908 11.494924,0.0421 71.83846,-9e-5 71.83846,-9e-5 0,0 0.0446,3.54676 0.0446,12.89917 z"
       sodipodi:nodetypes="sssccss" />
    <path
       id="path64-6-9"
       style="fill:#ffffff;stroke:#000000;stroke-width:1.5;stroke-dasharray:none"
       d="m 131.82937,528.45491 c -1e-5,9.35242 -16.08183,16.93403 -35.919775,16.93403 -19.837928,0 -35.997174,-7.58162 -35.997174,-16.93403 0,-1.41039 0.0025,-5.38257 0.03391,-12.89908 11.494925,0.0421 71.838459,-8e-5 71.838459,-8e-5 0,0 0.0446,3.54675 0.0446,12.89916 z"
       sodipodi:nodetypes="sssccss" />
    <path
       id="path64-6-4"
       style="fill:#ffffff;stroke:#000000;stroke-width:1.5;stroke-dasharray:none"
       d="m 131.77949,514.497 c -1e-5,9.35241 -16.08184,16.93403 -35.91977,16.93403 -19.837935,0 -35.997182,-7.58163 -35.997182,-16.93403 0,-1.41039 0.0025,-5.38257 0.03391,-12.89909 11.494925,0.0421 71.838462,-9e-5 71.838462,-9e-5 0,0 0.0446,3.54677 0.0446,12.89918 z"
       sodipodi:nodetypes="sssccss" />
    <ellipse
       style="fill:#ffffff;fill-opacity:1;stroke:#000000;stroke-width:1.5;stroke-dasharray:none;stroke-opacity:1"
       id="path64-3-1-7"
       cx="95.810837"
       cy="500.68805"
       rx="35.919762"
       ry="16.934034" />
    <circle
       style="fill:#ffffff;fill-opacity:1;stroke:#000000;stroke-width:1.5;stroke-dasharray:none;stroke-opacity:1"
       id="path65"
       cx="835.97095"
       cy="245.1759"
       r="34.344574" />
    <circle
       style="fill:#ffffff;fill-opacity:1;stroke:#000000;stroke-width:1.5;stroke-dasharray:none;stroke-opacity:1"
       id="path65-2"
       cx="838.01904"
       cy="353.92426"
       r="34.344574" />
    <ellipse
       style="fill:#ffffff;fill-opacity:1;stroke:#000000;stroke-width:1.5;stroke-dasharray:none;stroke-opacity:1"
       id="path65-9"
       cx="833.11395"
       cy="537.94141"
       rx="43.53183"
       ry="39.238758" />
    <path
       style="fill:none;stroke:#000000;stroke-width:1.5;stroke-linecap:butt;stroke-linejoin:miter;stroke-dasharray:none;stroke-opacity:1"
       d="m 844.9254,231.26291 v 8.0951"
       id="path66" />
    <path
       style="fill:none;stroke:#000000;stroke-width:1.5;stroke-linecap:butt;stroke-linejoin:miter;stroke-dasharray:none;stroke-opacity:1"
       d="m 825.95258,230.25102 v 8.60104"
       id="path67" />
    <path
       style="fill:none;stroke:#000000;stroke-width:1.5;stroke-linecap:butt;stroke-linejoin:miter;stroke-dasharray:none;stroke-opacity:1"
       d="m 831.77093,258.33088 c 8.85397,0 9.10694,0 9.10694,0"
       id="path68" />
    <path
       style="fill:none;stroke:#000000;stroke-width:1.5;stroke-linecap:butt;stroke-linejoin:miter;stroke-dasharray:none;stroke-opacity:1"
       d="m 846.59783,342.26189 v 8.0951"
       id="path66-2" />
    <path
       style="fill:none;stroke:#000000;stroke-width:1.5;stroke-linecap:butt;stroke-linejoin:miter;stroke-dasharray:none;stroke-opacity:1"
       d="m 827.625,341.25 v 8.60104"
       id="path67-9" />
    <path
       style="fill:none;stroke:#000000;stroke-width:1.5;stroke-linecap:butt;stroke-linejoin:miter;stroke-dasharray:none;stroke-opacity:1"
       d="m 833.44335,369.32986 c 8.85397,0 9.10695,0 9.10695,0"
       id="path68-6" />
    <path
       style="fill:none;stroke:#000000;stroke-width:1.5;stroke-linecap:butt;stroke-linejoin:miter;stroke-dasharray:none;stroke-opacity:1"
       d="m 842.09783,520.76189 v 8.0951"
       id="path66-4" />
    <path
       style="fill:none;stroke:#000000;stroke-width:1.5;stroke-linecap:butt;stroke-linejoin:miter;stroke-dasharray:none;stroke-opacity:1"
       d="m 823.125,519.75 v 8.60104"
       id="path67-4" />
    <path
       style="fill:none;stroke:#000000;stroke-width:1.5;stroke-linecap:butt;stroke-linejoin:miter;stroke-dasharray:none;stroke-opacity:1"
       d="m 825.93817,549.31621 c 0,0 6.04253,0.53388 9.07456,0.52555 2.76952,-0.008 8.2854,-0.52555 8.2854,-0.52555"
       id="path68-8"
       sodipodi:nodetypes="cac" />
    <path
       style="fill:none;stroke:#000000;stroke-width:1.5;stroke-linecap:butt;stroke-linejoin:miter;stroke-dasharray:none;stroke-opacity:1"
       d="m 836.88067,540.11521 c 0.42503,-1.43817 2.39318,-1.62194 3.37245,-0.64279 1.77683,1.67997 3.45915,3.69171 5.91008,4.37626 1.72868,0.22651 3.95445,0.35638 5.08845,-1.24274 l 0.11827,-0.25484"
       id="path69" />
    <path
       style="fill:none;stroke:#000000;stroke-width:1.5;stroke-linecap:butt;stroke-linejoin:miter;stroke-dasharray:none;stroke-opacity:1"
       d="m 830.4411,540.5624 c -0.78953,-1.12758 -2.32545,-1.84247 -3.6696,-1.33859 -0.69878,0.28987 -1.04963,1.01261 -1.64753,1.44153 -0.861,0.72755 -1.88857,1.20761 -2.88502,1.71322 -1.26698,0.71768 -2.96093,0.94747 -4.2312,0.11556 -0.23745,-0.16237 -0.44903,-0.36245 -0.62475,-0.59014"
       id="path70" />
    <rect
       style="fill:#ffffff;fill-opacity:1;stroke:#000000;stroke-width:1.5;stroke-dasharray:none;stroke-opacity:1"
       id="rect70"
       width="40.068668"
       height="36.491112"
       x="814.25262"
       y="466.68579"
       ry="4.0025837e-14" />
    <path
       style="fill:none;stroke:#000000;stroke-width:1.5;stroke-linecap:butt;stroke-linejoin:miter;stroke-dasharray:none;stroke-opacity:1"
       d="m 798.33247,503.1769 74.59215,-0.35775"
       id="path71" />
    <rect
       style="fill:#ffffff;fill-opacity:1;stroke:#000000;stroke-width:1.50896;stroke-dasharray:none;stroke-opacity:1"
       id="rect71"
       width="61.499256"
       height="42.767342"
       x="653.47144"
       y="196.48407"
       ry="3.3008586e-14" />
    <path
       style="fill:none;stroke:#000000;stroke-width:1.5;stroke-linecap:butt;stroke-linejoin:miter;stroke-dasharray:none;stroke-opacity:1"
       d="m 663.64309,353.86416 61.48768,0.29203 26.2343,30.5515 -67.46925,0.0388 z"
       id="path60-6-0-14"
       sodipodi:nodetypes="ccccc" />
    <path
       style="fill:none;stroke:#000000;stroke-width:1.5;stroke-linecap:butt;stroke-linejoin:miter;stroke-dasharray:none;stroke-opacity:1"
       d="m 662.98363,353.08906 0.0275,4.35028 21.12481,33.57064 68.04863,0.0161 0.036,-5.59042"
       id="path61-5-9-9"
       sodipodi:nodetypes="ccccc" />
    <path
       style="fill:none;stroke:#000000;stroke-width:1.5;stroke-linecap:butt;stroke-linejoin:miter;stroke-dasharray:none;stroke-opacity:1"
       d="m 684.17363,391.48101 -0.0944,-6.86318"
       id="path62-1-2-6"
       sodipodi:nodetypes="cc" />
    <rect
       style="fill:#ffffff;fill-opacity:1;stroke:#000000;stroke-width:1.5123;stroke-dasharray:none;stroke-opacity:1"
       id="rect71-4"
       width="61.775795"
       height="42.764008"
       x="663.03491"
       y="310.88116"
       ry="3.3006014e-14" />
    <path
       style="fill:none;stroke:#000000;stroke-width:1.5;stroke-linecap:butt;stroke-linejoin:miter;stroke-dasharray:none;stroke-opacity:1"
       d="m 654.94629,527.49342 96.19528,0.4859 41.04255,50.83424 -105.55316,0.0646 z"
       id="path60-6-0-1"
       sodipodi:nodetypes="ccccc" />
    <path
       style="fill:none;stroke:#000000;stroke-width:1.5;stroke-linecap:butt;stroke-linejoin:miter;stroke-dasharray:none;stroke-opacity:1"
       d="m 654.38794,526.74109 0.0508,6.68247 32.35232,55.9357 106.16807,0.0185 0.007,-9.89338"
       id="path61-5-9-0"
       sodipodi:nodetypes="ccccc" />
    <path
       style="fill:none;stroke:#000000;stroke-width:1.5;stroke-linecap:butt;stroke-linejoin:miter;stroke-dasharray:none;stroke-opacity:1"
       d="m 687.06559,590.08358 -0.14773,-11.41955"
       id="path62-1-2-0"
       sodipodi:nodetypes="cc" />
    <rect
       style="fill:#ffffff;fill-opacity:1;stroke:#000000;stroke-width:1.51086;stroke-dasharray:none;stroke-opacity:1"
       id="rect71-8"
       width="96.449417"
       height="71.164047"
       x="654.39148"
       y="455.96973"
       ry="5.4925662e-14" />
    <path
       style="fill:none;stroke:#000000;stroke-width:1.5;stroke-linecap:butt;stroke-linejoin:miter;stroke-dasharray:none;stroke-opacity:1"
       d="m 114.44603,300.86029 39.41955,66.00135"
       id="path72"
       sodipodi:nodetypes="cc" />
    <path
       style="fill:none;stroke:#000000;stroke-width:1.5;stroke-linecap:butt;stroke-linejoin:miter;stroke-dasharray:none;stroke-opacity:1"
       d="M 95.266395,302.50459 137.8546,373.64838"
       id="path73"
       sodipodi:nodetypes="cc" />
    <path
       style="fill:none;stroke:#000000;stroke-width:1.5;stroke-linecap:butt;stroke-linejoin:miter;stroke-dasharray:none;stroke-opacity:1"
       d="M 130.26266,418.64001 99.372548,480.60773"
       id="path74"
       sodipodi:nodetypes="cc" />
    <path
       style="fill:none;stroke:#000000;stroke-width:1.5;stroke-linecap:butt;stroke-linejoin:miter;stroke-dasharray:none;stroke-opacity:1"
       d="m 148.54573,419.66299 -30.52064,64.52057"
       id="path75"
       sodipodi:nodetypes="cc" />
    <rect
       style="fill:#ffffff;fill-opacity:1;stroke:none;stroke-width:1.5;stroke-dasharray:none;stroke-opacity:1"
       id="rect96"
       width="46.3125"
       height="12.375"
       x="102.72563"
       y="440.84698"
       ry="4.0025837e-14" />
    <path
       style="fill:none;stroke:#000000;stroke-width:1.5;stroke-linecap:butt;stroke-linejoin:miter;stroke-dasharray:none;stroke-opacity:1"
       d="m 245.55387,279.70039 -60.29545,87.19017"
       id="path76"
       sodipodi:nodetypes="cc" />
    <path
       style="fill:none;stroke:#000000;stroke-width:1.5;stroke-linecap:butt;stroke-linejoin:miter;stroke-dasharray:none;stroke-opacity:1"
       d="m 250.57316,302.34145 -49.53579,73.0422"
       id="path77"
       sodipodi:nodetypes="cc" />
    <path
       style="fill:none;stroke:#000000;stroke-width:1.5;stroke-linecap:butt;stroke-linejoin:miter;stroke-dasharray:none;stroke-opacity:1"
       d="m 306.18244,304.66359 26.72836,61.21087"
       id="path78"
       sodipodi:nodetypes="cc" />
    <path
       style="fill:none;stroke:#000000;stroke-width:1.5;stroke-linecap:butt;stroke-linejoin:miter;stroke-dasharray:none;stroke-opacity:1"
       d="m 322.77019,303.59512 25.11854,56.93055"
       id="path79"
       sodipodi:nodetypes="cc" />
    <path
       style="fill:none;stroke:#000000;stroke-width:1.5;stroke-linecap:butt;stroke-linejoin:miter;stroke-dasharray:none;stroke-opacity:1"
       d="m 468.65741,301.88555 -80.71315,61.67456"
       id="path80"
       sodipodi:nodetypes="cc" />
    <path
       style="fill:none;stroke:#000000;stroke-width:1.5;stroke-linecap:butt;stroke-linejoin:miter;stroke-dasharray:none;stroke-opacity:1"
       d="m 476.82652,310.06017 -80.05414,60.86024"
       id="path81"
       sodipodi:nodetypes="cc" />
    <path
       style="fill:none;stroke:#000000;stroke-width:1.5;stroke-linecap:butt;stroke-linejoin:miter;stroke-dasharray:none;stroke-opacity:1"
       d="m 398.96812,393.24757 79.66353,67.16536"
       id="path82"
       sodipodi:nodetypes="cc" />
    <path
       style="fill:none;stroke:#000000;stroke-width:1.5;stroke-linecap:butt;stroke-linejoin:miter;stroke-dasharray:none;stroke-opacity:1"
       d="m 381.3119,399.78799 79.54037,68.03853"
       id="path83"
       sodipodi:nodetypes="cc" />
    <path
       style="fill:none;stroke:#000000;stroke-width:1.5;stroke-linecap:butt;stroke-linejoin:miter;stroke-dasharray:none;stroke-opacity:1"
       d="m 534.07638,283.83967 114.08444,-43.9779"
       id="path84"
       sodipodi:nodetypes="cc" />
    <path
       style="fill:none;stroke:#000000;stroke-width:1.5;stroke-linecap:butt;stroke-linejoin:miter;stroke-dasharray:none;stroke-opacity:1"
       d="M 536.66645,288.35251 649.40346,244.43896"
       id="path85"
       sodipodi:nodetypes="cc" />
    <path
       style="fill:none;stroke:#000000;stroke-width:1.5;stroke-linecap:butt;stroke-linejoin:miter;stroke-dasharray:none;stroke-opacity:1"
       d="m 538.34291,300.77711 120.6065,43.94849"
       id="path86"
       sodipodi:nodetypes="cc" />
    <path
       style="fill:none;stroke:#000000;stroke-width:1.5;stroke-linecap:butt;stroke-linejoin:miter;stroke-dasharray:none;stroke-opacity:1"
       d="m 537.04145,306.07489 121.72046,44.3823"
       id="path87"
       sodipodi:nodetypes="cc" />
    <path
       style="fill:none;stroke:#000000;stroke-width:1.5;stroke-linecap:butt;stroke-linejoin:miter;stroke-dasharray:none;stroke-opacity:1"
       d="m 530.73079,482.72354 118.73378,34.78763"
       id="path88"
       sodipodi:nodetypes="cc" />
    <path
       style="fill:none;stroke:#000000;stroke-width:1.5;stroke-linecap:butt;stroke-linejoin:miter;stroke-dasharray:none;stroke-opacity:1"
       d="M 524.18485,494.62608 649.3791,532.58237"
       id="path89"
       sodipodi:nodetypes="cc" />
    <text
       xml:space="preserve"
       style="font-size:12px;line-height:1.25;font-family:sans-serif;stroke-width:1.5;stroke-dasharray:none"
       x="46.422726"
       y="576.32452"
       id="text89"><tspan
         sodipodi:role="line"
         id="tspan89"
         x="46.422726"
         y="576.32452"
         style="font-size:12px;stroke-width:1.5;stroke-dasharray:none">Database Server</tspan></text>
    <text
       xml:space="preserve"
       style="font-size:12px;line-height:1.25;font-family:sans-serif;stroke-width:1.5;stroke-dasharray:none"
       x="32.290367"
       y="296.51428"
       id="text90"><tspan
         sodipodi:role="line"
         id="tspan90"
         x="32.290367"
         y="296.51428"
         style="font-size:12px;stroke-width:1.5;stroke-dasharray:none">Backend Server</tspan></text>
    <text
       xml:space="preserve"
       style="font-size:12px;line-height:1.25;font-family:sans-serif;stroke-width:1.5;stroke-dasharray:none"
       x="240.5658"
       y="298.96832"
       id="text91"><tspan
         sodipodi:role="line"
         id="tspan91"
         x="240.5658"
         y="298.96832"
         style="font-size:12px;stroke-width:1.5;stroke-dasharray:none">Frontend Server</tspan></text>
    <text
       xml:space="preserve"
       style="font-size:12px;line-height:1.25;font-family:sans-serif;stroke-width:1.5;stroke-dasharray:none"
       x="465.68311"
       y="329.87955"
       id="text92"><tspan
         sodipodi:role="line"
         id="tspan92"
         x="465.68311"
         y="329.87955"
         style="font-size:12px;stroke-width:1.5;stroke-dasharray:none">Network Node</tspan></text>
    <text
       xml:space="preserve"
       style="font-size:12px;line-height:1.25;font-family:sans-serif;stroke-width:1.5;stroke-dasharray:none"
       x="127.94024"
       y="415.30655"
       id="text92-2"><tspan
         sodipodi:role="line"
         id="tspan92-9"
         x="127.94024"
         y="415.30655"
         style="font-size:12px;stroke-width:1.5;stroke-dasharray:none">Network Node</tspan></text>
    <rect
       style="fill:#ffffff;fill-opacity:1;stroke:none;stroke-width:1.89068;stroke-dasharray:none;stroke-opacity:1"
       id="rect96-2"
       width="59.517471"
       height="13.875"
       x="582.81042"
       y="249.7916"
       ry="4.7772773e-14" />
    <text
       xml:space="preserve"
       style="font-size:12px;line-height:1.25;font-family:sans-serif;stroke-width:1.5;stroke-dasharray:none"
       x="532.3208"
       y="260.74954"
       id="text93"><tspan
         sodipodi:role="line"
         id="tspan93"
         x="532.3208"
         y="260.74954"
         style="font-size:12px;stroke-width:1.5;stroke-dasharray:none">Slower Network Link</tspan></text>
    <text
       xml:space="preserve"
       style="font-size:12px;line-height:1.25;font-family:sans-serif;stroke-width:1.5;stroke-dasharray:none"
       x="78.407288"
       y="451.19992"
       id="text93-2"><tspan
         sodipodi:role="line"
         id="tspan93-8"
         x="78.407288"
         y="451.19992"
         style="font-size:12px;stroke-width:1.5;stroke-dasharray:none">Fast Network Link</tspan></text>
    <text
       xml:space="preserve"
       style="font-size:12px;line-height:1.25;font-family:sans-serif;stroke-width:0.75"
       x="164.23051"
       y="189.91518"
       id="text94"><tspan
         sodipodi:role="line"
         id="tspan94"
         x="164.23051"
         y="189.91518"
         style="font-size:12px;stroke-width:0.75">Industry</tspan></text>
    <text
       xml:space="preserve"
       style="font-size:12px;line-height:1.25;font-family:sans-serif;stroke-width:0.75"
       x="618.77106"
       y="189.32414"
       id="text95"><tspan
         sodipodi:role="line"
         id="tspan95"
         x="618.77106"
         y="189.32414"
         style="font-size:12px;stroke-width:0.75">Nature</tspan></text>
    <path
       style="fill:none;stroke:#000000;stroke-width:1.5;stroke-linecap:butt;stroke-linejoin:miter;stroke-dasharray:none;stroke-opacity:1"
       d="m 9.607995,169.97703 5.228021,4.77199 169.320724,-0.0205 4.37522,4.10933 4.37525,-4.11075 168.11601,-0.0215 4.60978,-5.49687"
       id="path95"
       sodipodi:nodetypes="ccccccc" />
    <path
       style="fill:none;stroke:#000000;stroke-width:1.5;stroke-linecap:butt;stroke-linejoin:miter;stroke-dasharray:none;stroke-opacity:1"
       d="m 380.41407,169.97703 6.76954,4.7663 250.96908,-0.58758 3.32753,3.05802 3.92426,-3.00883 238.39072,-0.19584 6.9396,-3.98658"
       id="path96"
       sodipodi:nodetypes="ccccccc" />
    <path
       id="path64-0-8"
       style="fill:#ffffff;stroke:#000000;stroke-width:1.5;stroke-dasharray:none"
       d="m 394.12645,384.60702 c 0,6.25255 -13.8366,11.32123 -30.90493,11.32123 -17.06831,0 -30.97152,-5.06868 -30.97152,-11.32123 0,-0.94292 0.002,-3.59852 0.0292,-8.62368 9.8901,0.0281 61.80894,-5e-5 61.80894,-5e-5 0,0 0.0384,2.37118 0.0384,8.62373 z"
       sodipodi:nodetypes="sssccss" />
    <ellipse
       style="fill:#ffffff;fill-opacity:1;stroke:#000000;stroke-width:1.5;stroke-dasharray:none;stroke-opacity:1"
       id="path64-3-7-3"
       cx="363.17584"
       cy="375.82126"
       rx="30.904922"
       ry="11.321239" />
    <path
       id="path64-0-3"
       style="fill:#ffffff;stroke:#000000;stroke-width:1.5;stroke-dasharray:none"
       d="m 523.12645,484.35702 c 0,6.25255 -13.8366,11.32123 -30.90493,11.32123 -17.06831,0 -30.97152,-5.06868 -30.97152,-11.32123 0,-0.94292 0.002,-3.59851 0.0292,-8.62368 9.8901,0.0281 61.80894,-5e-5 61.80894,-5e-5 0,0 0.0384,2.37118 0.0384,8.62373 z"
       sodipodi:nodetypes="sssccss" />
    <ellipse
       style="fill:#ffffff;fill-opacity:1;stroke:#000000;stroke-width:1.5;stroke-dasharray:none;stroke-opacity:1"
       id="path64-3-7-1"
       cx="492.17584"
       cy="475.57123"
       rx="30.904922"
       ry="11.321239" />
    <path
       id="path64-0-80"
       style="fill:#ffffff;stroke:#000000;stroke-width:1.5;stroke-dasharray:none"
       d="m 199.87645,390.60702 c 0,6.25255 -13.8366,11.32123 -30.90493,11.32123 -17.06831,0 -30.97152,-5.06868 -30.97152,-11.32123 0,-0.94292 0.002,-3.59851 0.0292,-8.62368 9.8901,0.0281 61.80894,-5e-5 61.80894,-5e-5 0,0 0.0384,2.37118 0.0384,8.62373 z"
       sodipodi:nodetypes="sssccss" />
    <ellipse
       style="fill:#ffffff;fill-opacity:1;stroke:#000000;stroke-width:1.5;stroke-dasharray:none;stroke-opacity:1"
       id="path64-3-7-36"
       cx="168.92581"
       cy="381.82126"
       rx="30.904922"
       ry="11.321239" />
    <path
       style="fill:none;stroke:#000000;stroke-width:1.125;stroke-linecap:butt;stroke-linejoin:miter;stroke-dasharray:none;stroke-opacity:1"
       d="M 96.09789,60.725196 C 71.403368,65.772241 48.721708,76.90914 25.590162,86.311042 17.414875,90.930683 19.494779,101.83359 24.53133,107.9545 c 4.894728,4.95288 9.108221,12.45525 2.771786,18.11857 -6.918382,9.58059 -17.9983932,16.88832 -20.7888552,28.86636 -1.2182718,9.77821 10.1997392,18.84815 19.6992742,14.73391 17.120728,-5.45421 34.101881,-11.50079 51.776392,-15.10859 12.300818,-2.79888 24.893013,-4.07092 37.420423,-5.29308 10.0065,-1.70453 21.8888,-0.92357 29.42866,-8.7424 6.38515,-8.08821 2.54815,-19.57061 -4.04306,-26.34866 -5.82637,-6.86883 -11.36643,-15.130158 -10.25231,-24.477835 0.26681,-7.672883 0.42284,-16.950242 -6.65953,-21.99915 -7.3212,-6.600586 -18.1088,-9.253685 -27.78622,-6.978429 z"
       id="path1" />
    <path
       style="fill:none;stroke:#000000;stroke-width:1.125;stroke-linecap:butt;stroke-linejoin:miter;stroke-dasharray:none;stroke-opacity:1"
       d="m 58.396319,79.21062 c -9.558598,2.810333 -21.416569,4.53501 -26.638297,13.941645 -3.896918,8.886845 2.596566,17.501075 4.555807,25.995815 3.448737,8.37419 -4.634238,14.95502 -12.094056,16.82818 -8.512747,5.06461 -14.217696,15.77954 -10.795092,25.36807 4.135365,6.67907 13.74919,4.86984 19.822817,2.03514 29.616946,-12.92768 62.328182,-15.69822 93.964762,-20.81207 8.81285,-2.21694 14.93621,-13.38531 9.21175,-21.11459 -5.16545,-5.80387 -13.38178,-8.84455 -16.34912,-16.50529 -3.8387,-7.082675 -3.3903,-15.426815 -1.47008,-22.9466 -0.33039,-8.039917 -9.69872,-11.485832 -16.81644,-11.419301 -14.969825,-0.718965 -29.331087,4.344566 -43.392051,8.629001 z"
       id="path2" />
    <path
       style="fill:none;stroke:#000000;stroke-width:1.125;stroke-linecap:butt;stroke-linejoin:miter;stroke-dasharray:none;stroke-opacity:1"
       d="M 103.48382,79.883332 C 88.015898,74.275946 71.948785,81.09639 57.405191,86.19378 c -8.27569,2.566462 -18.642947,4.957702 -21.996062,13.8478 -2.120659,8.93349 7.320416,15.34264 7.214195,24.11181 0.685317,6.28647 -2.84759,13.62921 -9.752366,14.78916 -7.242631,2.58042 -14.234305,9.23892 -14.345011,17.03466 2.609108,9.98353 13.540191,2.16518 19.825719,0.84484 26.194076,-8.24124 53.489674,-12.33019 80.275374,-18.14034 9.25593,-3.78848 9.14887,-19.01972 -0.55923,-22.22002 -8.67971,-3.88155 -17.71321,-12.09753 -16.00167,-22.264953 1.08877,-4.60617 4.78365,-9.78276 1.41768,-14.313405 z"
       id="path3" />
    <path
       style="fill:none;stroke:#000000;stroke-width:1.125;stroke-linecap:butt;stroke-linejoin:miter;stroke-dasharray:none;stroke-opacity:1"
       d="M 85.572052,94.069687 C 71.220379,90.29124 54.003984,92.944282 43.846282,104.22172 c -4.63742,10.18416 5.859694,20.54571 1.419605,30.83484 -2.58193,7.86306 -12.248398,9.45498 -16.613642,15.83022 0.520709,6.22473 9.702933,2.5978 13.933094,2.01345 15.04243,-4.28951 30.295301,-7.86195 45.421018,-11.82887 7.01196,-1.34663 15.565883,-2.75415 19.077493,-9.68103 -2.81055,-8.28858 -12.304858,-11.79131 -16.701965,-19.13235 -4.38165,-5.26316 -0.634545,-13.57256 -4.809833,-18.188293 z"
       id="path4" />
    <path
       style="fill:none;stroke:#000000;stroke-width:1.125;stroke-linecap:butt;stroke-linejoin:miter;stroke-dasharray:none;stroke-opacity:1"
       d="m 49.869994,121.81312 c -0.874166,7.46586 -4.699637,15.02509 -1.951861,22.53462 5.704762,6.07267 14.437639,0.26703 21.188879,-0.75612 8.542025,-2.86048 18.014608,-9.41832 17.472598,-19.2479 -0.799268,-15.16315 -24.19082,-23.0215 -33.81888,-10.67053 -1.782774,2.34101 -2.839973,5.21825 -2.890736,8.13993 z"
       id="path5" />
    <path
       style="fill:none;stroke:#000000;stroke-width:1.125;stroke-linecap:butt;stroke-linejoin:miter;stroke-dasharray:none;stroke-opacity:1"
       d="m 50.869193,144.4747 c -1.981098,-8.15874 2.197227,-18.70775 11.034345,-20.96052 9.880984,-0.64071 12.645134,13.7714 4.127136,17.87584 -4.333688,3.03491 -9.975692,3.75922 -15.161481,3.08468 z"
       id="path6" />
  </g>
</svg>
