<?xml version="1.0" encoding="UTF-8" standalone="no"?>
<!-- Created with Inkscape (http://www.inkscape.org/) -->

<svg
   width="1200"
   height="800"
   viewBox="0 0 1200 800"
   version="1.1"
   id="svg1"
   inkscape:version="1.4 (e7c3feb1, 2024-10-09)"
   sodipodi:docname="physical-web.svg"
   xmlns:inkscape="http://www.inkscape.org/namespaces/inkscape"
   xmlns:sodipodi="http://sodipodi.sourceforge.net/DTD/sodipodi-0.dtd"
   xmlns="http://www.w3.org/2000/svg"
   xmlns:svg="http://www.w3.org/2000/svg">
  <sodipodi:namedview
     id="namedview1"
     pagecolor="#ffffff"
     bordercolor="#666666"
     borderopacity="1.0"
     inkscape:showpageshadow="2"
     inkscape:pageopacity="0.0"
     inkscape:pagecheckerboard="0"
     inkscape:deskcolor="#d1d1d1"
     inkscape:document-units="px"
     inkscape:zoom="2.8284271"
     inkscape:cx="937.62359"
     inkscape:cy="697.56084"
     inkscape:window-width="1784"
     inkscape:window-height="911"
     inkscape:window-x="0"
     inkscape:window-y="25"
     inkscape:window-maximized="0"
     inkscape:current-layer="layer1" />
  <defs
     id="defs1">
    <inkscape:path-effect
       effect="fillet_chamfer"
       id="path-effect59"
       is_visible="true"
       lpeversion="1"
       nodesatellites_param="F,0,0,1,0,0,0,1 @ F,0,0,1,0,0,0,1 @ F,0,0,1,0,0,0,1 @ F,0,0,1,0,0,0,1 @ F,0,0,1,0,0,0,1 @ F,0,0,1,0,0,0,1 @ F,0,0,1,0,0,0,1 @ F,0,0,1,0,0,0,1 @ F,0,0,1,0,0,0,1 @ F,0,0,1,0,0,0,1 @ F,0,0,1,0,0,0,1 @ F,0,0,1,0,0,0,1 @ F,0,0,1,0,0,0,1 @ F,0,0,1,0,0,0,1 @ F,0,0,1,0,0,0,1 @ F,0,0,1,0,0,0,1 @ F,0,0,1,0,0,0,1 @ F,0,0,1,0,0,0,1 @ F,0,0,1,0,0,0,1 @ F,0,0,1,0,0,0,1 @ F,0,0,1,0,0,0,1 @ F,0,0,1,0,0,0,1 @ F,0,0,1,0,0,0,1 @ F,0,0,1,0,0,0,1 @ F,0,0,1,0,0,0,1 @ F,0,0,1,0,0,0,1 @ F,0,0,1,0,0,0,1 @ F,0,0,1,0,0,0,1 @ F,0,0,1,0,0,0,1 @ F,0,0,1,0,0,0,1 @ F,0,0,1,0,0,0,1 @ F,0,0,1,0,0,0,1 @ F,0,0,1,0,0,0,1 @ F,0,0,1,0,0,0,1 @ F,0,0,1,0,0,0,1 @ F,0,0,1,0,0,0,1 @ F,0,0,1,0,0,0,1 @ F,0,0,1,0,0,0,1"
       radius="0"
       unit="px"
       method="auto"
       mode="F"
       chamfer_steps="1"
       flexible="false"
       use_knot_distance="true"
       apply_no_radius="true"
       apply_with_radius="true"
       only_selected="false"
       hide_knots="false" />
  </defs>
  <g
     inkscape:label="Calque 1"
     inkscape:groupmode="layer"
     id="layer1">
    <rect
       style="fill:#ffffff;stroke:none;stroke-width:2"
       id="rect1"
       width="1200"
       height="800"
       x="0"
       y="0"
       ry="5.3367785e-14" />
    <path
       style="fill:none;stroke:#000000;stroke-width:1.5;stroke-linecap:butt;stroke-linejoin:miter;stroke-dasharray:none;stroke-opacity:1"
       d="m 1124.6199,100.41228 c 6.0035,26.90587 3.9007,47.64536 -2.1786,66.02763"
       id="path10"
       sodipodi:nodetypes="cc" />
    <path
       style="fill:none;stroke:#000000;stroke-width:1.5;stroke-linecap:butt;stroke-linejoin:miter;stroke-dasharray:none;stroke-opacity:1"
       d="m 1142.484,99.956924 c -0.3983,19.196766 1.1461,40.323336 11.8286,56.736006 1.5308,2.66749 2.6219,5.66292 4.7283,7.92553"
       id="path11"
       sodipodi:nodetypes="ccc" />
    <path
       style="fill:none;stroke:#000000;stroke-width:1.5;stroke-linecap:butt;stroke-linejoin:miter;stroke-dasharray:none;stroke-opacity:1"
       d="m 1119.3913,118.17145 c -5.414,1.73057 -11.0281,4.38216 -16.826,3.41732 -3.4902,-0.0916 -5.6641,-2.82995 -6.2666,-5.23878 -5.5511,6.08598 -13.264,-0.15579 -11.733,-7.49777 -0.9178,-4.13194 4.0685,-7.20105 -1.5219,-8.77989 -5.1398,-3.162646 -4.1331,-12.029425 -0.6878,-16.053115 2.9669,0.296982 -2.9988,-7.498518 -0.777,-10.46586 1.0972,-8.599479 9.8238,-10.149321 16.5288,-8.306588 5.3188,4.28117 -3.7508,-2.936434 -3.0487,-6.098803 -2.8083,-5.477928 -0.3172,-15.332153 6.9039,-9.73634 0.7953,-2.874238 2.098,-12.876843 8.0567,-13.398224 4.2158,-1.916057 7.4559,4.288441 8.9532,-1.737969 4.1987,-4.167362 11.4876,0.166165 13.0944,5.231832 1.844,3.552297 -1.6792,9.659379 4.3879,7.454721 8.2947,1.257959 16.6658,3.339802 24.4159,6.725605 3.1439,0.657867 3.4468,4.080238 2.8098,4.375492 6.4217,-0.100057 11.29,5.195308 16.4039,8.538904 4.5029,4.466605 -6.0861,3.325482 -0.1916,6.518558 5.3114,5.573989 12.3257,11.167852 13.1813,19.524479 0.6928,5.555055 -9.422,0.03858 -4.2943,6.080378 3.1327,5.75924 5.798,13.40767 3.0772,19.77518 -4.3715,0.73844 -7.8234,1.42241 -8.956,6.80926 -2.5253,4.66717 -6.826,11.54358 -12.7564,8.3988 -7.3765,-2.05163 -14.2076,-6.50546 -19.3825,-12.34966"
       id="path17" />
    <path
       style="fill:none;stroke:#000000;stroke-width:1.5;stroke-linecap:butt;stroke-linejoin:miter;stroke-dasharray:none;stroke-opacity:1"
       d="m 642.51872,81.869808 c 6.0035,26.905862 3.9007,47.645352 -2.1786,66.027622"
       id="path10-5"
       sodipodi:nodetypes="cc" />
    <path
       style="fill:none;stroke:#000000;stroke-width:1.5;stroke-linecap:butt;stroke-linejoin:miter;stroke-dasharray:none;stroke-opacity:1"
       d="m 664.19888,76.644372 c -0.3983,19.196762 1.1461,40.323328 11.8286,56.735998 1.5308,2.66749 2.6219,5.66292 4.7283,7.92553"
       id="path11-1"
       sodipodi:nodetypes="ccc" />
    <path
       style="fill:none;stroke:#000000;stroke-width:1.5;stroke-linecap:butt;stroke-linejoin:miter;stroke-dasharray:none;stroke-opacity:1"
       d="m 641.10618,94.858894 c -5.414,1.73057 -11.0281,4.38216 -16.826,3.41732 -3.4902,-0.0916 -5.6641,-2.82995 -6.2666,-5.23878 -5.5511,6.08598 -13.264,-0.15579 -11.733,-7.497766 -0.9178,-4.13194 4.0685,-7.20105 -1.5219,-8.77989 -5.1398,-3.162646 -4.1331,-12.029425 -0.6878,-16.053115 2.9669,0.296982 -2.9988,-7.498518 -0.777,-10.46586 1.0972,-8.599479 9.8238,-10.149321 16.5288,-8.306588 5.3188,4.28117 -3.7508,-2.936434 -3.0487,-6.098803 -2.8083,-5.477928 -0.3172,-15.332153 6.9039,-9.73634 0.7953,-2.874238 2.098,-12.876843 8.0567,-13.398224 4.2158,-1.916057 7.4559,4.288441 8.9532,-1.737969 4.1987,-4.1673622 11.4876,0.166165 13.0944,5.231832 1.844,3.552297 -1.6792,9.659379 4.3879,7.454721 8.2947,1.257959 16.6658,3.339802 24.4159,6.725605 3.1439,0.657867 3.4468,4.080238 2.8098,4.375492 6.4217,-0.100057 11.29,5.195308 16.4039,8.538904 4.5029,4.466605 -6.0861,3.325482 -0.1916,6.518558 5.3114,5.573989 12.3257,11.167852 13.1813,19.524479 0.6928,5.555055 -9.422,0.03858 -4.2943,6.080378 3.1327,5.75924 5.798,13.40767 3.0772,19.775176 -4.3715,0.73844 -7.8234,1.42241 -8.956,6.809256 -2.5253,4.66717 -6.826,11.54358 -12.7564,8.3988 -7.3765,-2.05163 -14.2076,-6.50546 -19.3825,-12.349656"
       id="path17-7" />
    <path
       style="fill:none;stroke:#000000;stroke-width:1.5;stroke-linecap:butt;stroke-linejoin:miter;stroke-dasharray:none;stroke-opacity:1"
       d="m 898.96516,89.624536 c 0.074,16.300814 0.72283,41.686904 3.63148,58.237674 l 0.45363,0.49482"
       id="path24"
       sodipodi:nodetypes="ccc" />
    <path
       style="fill:none;stroke:#000000;stroke-width:1.5;stroke-linecap:butt;stroke-linejoin:miter;stroke-dasharray:none;stroke-opacity:1"
       d="m 880.48102,89.432085 c -1.73739,39.831615 -8.20396,56.965455 -8.44759,57.478515"
       id="path25"
       sodipodi:nodetypes="cc" />
    <path
       style="fill:none;stroke:#000000;stroke-width:1.5;stroke-linecap:butt;stroke-linejoin:miter;stroke-dasharray:none;stroke-opacity:1"
       d="m 880.02183,99.816224 c -3.49027,0.0739 -13.34901,-1.872067 -17.4103,-2.047577 -2.18628,-2.31385 -5.25891,2.435423 -7.63855,1.721393 -0.65548,-2.01077 -4.58227,-0.965694 -5.09278,-5.360244 -3.43324,2.31286 -5.20113,-0.03759 -9.18211,3.602134 -3.24664,0.35831 -9.14684,7.15155 -8.09151,-0.48215 -2.60483,-6.63386 6.87963,-8.12012 9.04345,-13.50002 1.27261,-1.999065 3.46309,-4.604025 0.88721,-4.974605 1.90503,-2.27007 -1.99956,-1.76261 -1.12683,-3.47963 -3.42247,1.84662 -7.40304,-1.93741 -2.14024,-3.59936 4.60957,-4.08722 8.77839,-5.36724 13.16094,-9.26118 -3.17918,1.90849 4.71114,-3.32273 5.12594,-5.47937 1.94138,-2.76999 8.3455,-6.473877 2.00107,-4.797007 2.13273,-5.82188 -9.68752,4.977019 -7.05068,-0.327581 3.69428,-3.52376 0.64048,-3.802932 -0.38606,-5.688482 2.22075,-0.80617 8.28563,-1.783361 11.87329,-3.956121 7.67742,-3.43162 8.32266,-5.791253 5.28045,-6.795893 -3.82985,-0.0467 1.63952,-3.110256 1.40913,-4.194446 -5.76528,0.0356 8.37411,-0.677934 9.99536,-2.230984 4.59819,-2.922 0.89918,-7.455766 5.27514,-12.431723 0.74678,-1.754485 6.30838,6.845304 8.19075,8.031694 3.54173,6.491811 12.64772,6.816645 13.28752,8.613263 -1.75749,1.95352 -8.83258,0.55724 -3.43081,3.80347 4.76907,3.06958 7.004,5.455138 11.64236,8.699258 8.73395,5.617545 12.91922,9.387858 5.24505,7.489084 1.44434,1.653012 5.50471,3.14656 3.31814,3.157127 -4.65965,0.02252 -10.44673,-0.80842 -13.24797,-0.781362 3.56325,2.52072 7.64559,5.592807 11.30042,8.601364 4.60041,3.786927 7.90097,5.980993 13.35835,11.878367 0.40039,0.432674 -5.19356,-1.433684 -5.03234,-0.498384 0.14263,0.827499 5.01861,3.344495 5.30601,3.883216 -3.23169,0.366316 -5.47023,-0.120363 -8.97589,0.916683 4.40232,4.311839 7.16539,9.606312 10.28309,13.114332 0.8505,2.16325 6.9367,6.41366 0.1207,4.77258 -4.9558,-2.51606 -5.90143,-0.746059 -11.10423,-1.987069 -3.54134,-2.45536 -10.82019,0.332073 -15.09676,-0.832347 -2.63007,0.0447 -6.09926,-0.181471 -8.58989,-0.735111 l -3.98571,-0.843239"
       id="path26"
       sodipodi:nodetypes="cccccccccccccccccccccccccscasscccccccc" />
    <path
       style="fill:none;stroke:#000000;stroke-width:1.5;stroke-linecap:butt;stroke-linejoin:miter;stroke-dasharray:none;stroke-opacity:1"
       d="m 980.16629,151.80279 c 0.0798,17.57463 -1.12852,23.10423 -0.78702,40.6715 0.32412,17.66337 4.06451,23.856 5.09309,29.70882 l 0.45363,0.49482"
       id="path24-1"
       sodipodi:nodetypes="cccc" />
    <path
       style="fill:none;stroke:#000000;stroke-width:1.5;stroke-linecap:butt;stroke-linejoin:miter;stroke-dasharray:none;stroke-opacity:1"
       d="m 963.03133,152.28493 c -1.73739,39.83162 -10.22773,68.43351 -10.47136,68.94657"
       id="path25-3"
       sodipodi:nodetypes="cc" />
    <path
       style="fill:none;stroke:#000000;stroke-width:1.5;stroke-linecap:butt;stroke-linejoin:miter;stroke-dasharray:none;stroke-opacity:1"
       d="m 958.27162,172.53497 c -3.49027,0.0739 -7.36201,0.65765 -11.4233,0.48214 -2.18628,-2.31385 -7.61998,1.50786 -9.99962,0.79383 -0.65548,-2.01077 -4.24497,2.15429 -4.75548,-2.24026 -3.43324,2.31286 -5.53843,-3.15757 -9.51941,0.48215 -3.24664,0.35831 -9.14684,7.15155 -8.09151,-0.48215 -2.60483,-6.63386 6.87963,-8.12012 9.04345,-13.50002 1.27261,-1.99907 3.46309,-4.60403 0.88721,-4.97461 1.90503,-2.27007 -1.99956,-1.76261 -1.12683,-3.47963 -3.42247,1.84662 -7.40304,-1.93741 -2.14024,-3.59936 4.60957,-4.08722 8.77839,-5.36724 13.16094,-9.26118 -3.17918,1.90849 4.71114,-3.32273 5.12594,-5.47937 1.94138,-2.76999 9.35739,-6.97982 3.01296,-5.30295 2.13273,-5.82188 -9.18158,4.13378 -6.54474,-1.17082 3.69428,-3.52376 -0.87735,-2.45375 -1.90389,-4.3393 2.22075,-0.80617 7.61104,-2.6266 11.1987,-4.79936 1.77475,-1.91379 11.35832,-5.28531 8.31611,-6.28995 -3.82985,-0.0467 -0.72155,-2.77296 -0.95194,-3.85715 -5.76528,0.0356 3.14603,-2.53306 4.76728,-4.08611 4.59819,-2.921996 10.34345,-5.600636 12.1897,-11.08254 0.74678,-1.75448 4.9592,4.821534 6.84157,6.007924 5.25899,2.9055 10.49875,6.017566 15.70704,9.160726 1.11758,1.00068 -4.68316,-0.25919 -2.75682,1.98225 -1.75749,1.95352 -8.83258,0.55724 -3.43081,3.80347 4.76907,3.06958 9.86605,4.97813 14.50437,8.22225 4.6015,0.17987 9.1137,7.53289 1.7271,5.75993 -1.459,0.62773 -3.66446,0.4993 -5.7601,0.48214 -1.06578,0.0529 -6.00949,2.317 -1.90389,1.44643 3.56323,2.52072 5.55469,7.87272 9.77479,10.58013 4.3002,2.3942 7.9546,6.99638 11.3309,9.46227 -1.1514,0.0326 5.0342,3.48667 2.2168,6.47552 -0.7863,4.24522 -7.8313,-2.22845 -4.7597,1.92857 4.318,2.70969 2.9492,8.59443 6.0669,12.10245 0.8505,2.16325 6.9367,6.41366 0.1207,4.77258 -4.9558,-2.51606 -10.0333,-0.32444 -15.2361,-1.56545 -3.5413,-2.45536 -7.70016,1.76558 -11.97673,0.60116 -2.63007,0.0447 -5.25602,0.0715 -7.74665,-0.48214 -1.35668,0 -2.71336,0 -4.07003,0"
       id="path26-8" />
    <ellipse
       style="fill:none;stroke:#000000;stroke-width:1.00952;stroke-dasharray:none;stroke-opacity:1"
       id="path27"
       cx="954.15399"
       cy="523.9873"
       rx="16.277206"
       ry="11.671168"
       transform="matrix(0.87740658,-0.47974753,0.30154971,0.95345046,0,0)" />
    <path
       style="fill:none;stroke:#000000;stroke-width:1;stroke-linecap:butt;stroke-linejoin:miter;stroke-dasharray:none;stroke-opacity:1"
       d="m 1002.5829,30.499617 c 0.2789,0.943632 0.5515,1.9372 0.9016,2.808763"
       id="path28"
       sodipodi:nodetypes="cc" />
    <path
       style="fill:none;stroke:#000000;stroke-width:1;stroke-linecap:butt;stroke-linejoin:miter;stroke-dasharray:none;stroke-opacity:1"
       d="m 998.93246,33.720197 c 0.27891,0.943632 0.55155,1.9372 0.90165,2.808761"
       id="path28-5"
       sodipodi:nodetypes="cc" />
    <path
       style="fill:none;stroke:#000000;stroke-width:1;stroke-linecap:butt;stroke-linejoin:miter;stroke-dasharray:none;stroke-opacity:1"
       d="m 991.24448,30.918238 c -0.63513,8.936277 7.08259,15.736995 13.65672,17.158793"
       id="path30"
       sodipodi:nodetypes="cc" />
    <path
       style="fill:none;stroke:#000000;stroke-width:1;stroke-linecap:butt;stroke-linejoin:miter;stroke-dasharray:none;stroke-opacity:1"
       d="m 986.43419,35.661247 c -0.63512,8.936276 6.77043,15.214972 13.34459,16.636769"
       id="path30-4" />
    <path
       style="fill:none;stroke:#000000;stroke-width:1;stroke-linecap:butt;stroke-linejoin:miter;stroke-dasharray:none;stroke-opacity:1"
       d="m 980.69252,38.223678 c -0.63513,8.936283 6.77042,15.214978 13.34453,16.636776"
       id="path30-5" />
    <path
       style="fill:none;stroke:#000000;stroke-width:1;stroke-linecap:butt;stroke-linejoin:miter;stroke-dasharray:none;stroke-opacity:1"
       d="m 990.32029,31.363864 c -3.9432,-1.208898 -7.67263,-3.564336 -11.79931,-3.796914 -1.6666,-0.15615 -3.5973,0.223253 -4.647,1.946603 -1.13452,1.927905 -0.67309,4.629509 0.52273,6.357263 0.66915,0.998755 1.58096,1.770321 2.60374,2.15207 1.6,1.361811 3.78391,1.447995 5.53583,0.459967 2.25289,-1.162863 4.00854,-3.280236 5.92884,-5.044633 0.64962,-0.649777 1.27453,-1.336344 1.85517,-2.074356 z"
       id="path34" />
    <path
       style="fill:#ffffff;fill-opacity:1;stroke:#000000;stroke-width:1;stroke-linecap:butt;stroke-linejoin:miter;stroke-dasharray:none;stroke-opacity:1"
       d="m 989.59898,32.012049 c 0.51123,4.392303 -1.2263,8.81253 -3.94254,11.69749 -1.74464,1.886109 -3.88923,3.255065 -6.18736,3.863413 -2.25702,1.377084 -5.12791,1.191053 -7.27375,-0.405629 -1.34612,-0.978465 -2.20492,-2.898294 -1.93792,-4.791352 0.37322,-2.916958 2.27666,-5.255594 4.44886,-6.464274 3.6289,-2.022553 7.71695,-2.000452 11.58151,-2.899307 1.11957,-0.249967 2.23117,-0.564472 3.3112,-1.000341 z"
       id="path33" />
    <path
       style="fill:none;stroke:#000000;stroke-width:1;stroke-linecap:butt;stroke-linejoin:miter;stroke-dasharray:none;stroke-opacity:1"
       d="m 1004.5665,48.432753 c 0.9617,0.251983 4.8088,1.260271 5.7706,1.512437"
       id="path35" />
    <path
       style="fill:none;stroke:#000000;stroke-width:1;stroke-linecap:butt;stroke-linejoin:miter;stroke-dasharray:none;stroke-opacity:1"
       d="m 1003.3042,49.513064 c 0.541,0.720204 2.7049,3.60103 3.2459,4.321235"
       id="path36" />
    <path
       style="fill:none;stroke:#000000;stroke-width:1;stroke-linecap:butt;stroke-linejoin:miter;stroke-dasharray:none;stroke-opacity:1"
       d="m 999.34784,52.474651 2.70496,2.808803"
       id="path37" />
    <path
       style="fill:none;stroke:#000000;stroke-width:1;stroke-linecap:butt;stroke-linejoin:miter;stroke-dasharray:none;stroke-opacity:1"
       d="m 996.99256,54.050365 c 0.15031,0.972276 0.7514,4.861388 0.90166,5.833669"
       id="path38" />
    <path
       style="fill:none;stroke:#000000;stroke-width:1;stroke-linecap:butt;stroke-linejoin:miter;stroke-dasharray:none;stroke-opacity:1"
       d="m 993.38592,54.91461 c -0.21038,1.008287 -1.05191,5.041442 -1.2623,6.04973"
       id="path39" />
    <path
       style="fill:none;stroke:#000000;stroke-width:1;stroke-linecap:butt;stroke-linejoin:miter;stroke-dasharray:none;stroke-opacity:1"
       d="m 989.11079,55.436232 c -0.5722,1.079391 -2.85639,5.400625 -3.42633,6.481856"
       id="path40" />
    <ellipse
       style="fill:none;stroke:#000000;stroke-width:1.00952;stroke-dasharray:none;stroke-opacity:1"
       id="path27-4"
       cx="1008.2452"
       cy="552.76642"
       rx="16.277206"
       ry="11.671168"
       transform="matrix(0.87740658,-0.47974753,0.30154971,0.95345046,0,0)" />
    <path
       style="fill:none;stroke:#000000;stroke-width:1;stroke-linecap:butt;stroke-linejoin:miter;stroke-dasharray:none;stroke-opacity:1"
       d="m 1058.7211,31.988952 c 0.2789,0.943627 0.5517,1.937201 0.9018,2.808762"
       id="path28-1"
       sodipodi:nodetypes="cc" />
    <path
       style="fill:none;stroke:#000000;stroke-width:1;stroke-linecap:butt;stroke-linejoin:miter;stroke-dasharray:none;stroke-opacity:1"
       d="m 1055.0708,35.209532 c 0.279,0.943633 0.5514,1.9372 0.9015,2.808762"
       id="path28-5-7"
       sodipodi:nodetypes="cc" />
    <path
       style="fill:none;stroke:#000000;stroke-width:1;stroke-linecap:butt;stroke-linejoin:miter;stroke-dasharray:none;stroke-opacity:1"
       d="m 1047.3828,32.407574 c -0.6352,8.936275 7.0826,15.736989 13.6568,17.158786"
       id="path30-1"
       sodipodi:nodetypes="cc" />
    <path
       style="fill:none;stroke:#000000;stroke-width:1;stroke-linecap:butt;stroke-linejoin:miter;stroke-dasharray:none;stroke-opacity:1"
       d="m 1042.5725,37.150576 c -0.6352,8.936282 6.7705,15.214978 13.3446,16.636776"
       id="path30-4-3" />
    <path
       style="fill:none;stroke:#000000;stroke-width:1;stroke-linecap:butt;stroke-linejoin:miter;stroke-dasharray:none;stroke-opacity:1"
       d="m 1036.8308,39.713013 c -0.6351,8.936277 6.7704,15.214973 13.3446,16.636774"
       id="path30-5-4" />
    <path
       style="fill:none;stroke:#000000;stroke-width:1;stroke-linecap:butt;stroke-linejoin:miter;stroke-dasharray:none;stroke-opacity:1"
       d="m 1046.9659,32.690387 c -3.615,-2.200608 -6.8036,-5.46375 -10.7831,-6.759932 -1.5954,-0.584144 -3.5501,-0.714533 -4.9012,0.693812 -1.4727,1.585805 -1.5364,4.339603 -0.6989,6.334137 0.4626,1.147261 1.205,2.13586 2.1297,2.773145 1.3012,1.742469 3.4143,2.392458 5.3102,1.883062 2.4178,-0.55003 4.5322,-2.159616 6.74,-3.382365 0.757,-0.465232 1.4969,-0.972724 2.2033,-1.541859 z"
       id="path34-8" />
    <path
       style="fill:#ffffff;fill-opacity:1;stroke:#000000;stroke-width:1;stroke-linecap:butt;stroke-linejoin:miter;stroke-dasharray:none;stroke-opacity:1"
       d="m 1046.4603,34.815116 c 0.087,4.431528 -2.0642,8.596654 -5.0402,11.108165 -1.9147,1.646028 -4.1771,2.72585 -6.5191,3.029773 -2.375,1.073197 -5.21,0.512821 -7.1891,-1.354489 -1.2437,-1.148374 -1.9129,-3.168451 -1.4659,-5.01467 0.6508,-2.849778 2.7666,-4.924718 5.0411,-5.841665 3.8002,-1.535157 7.8603,-0.978471 11.7868,-1.366178 1.1366,-0.101948 2.2714,-0.26908 3.3864,-0.560936 z"
       id="path33-6" />
    <path
       style="fill:none;stroke:#000000;stroke-width:1;stroke-linecap:butt;stroke-linejoin:miter;stroke-dasharray:none;stroke-opacity:1"
       d="m 1060.7049,49.922088 c 0.9617,0.251983 4.8088,1.260271 5.7705,1.512431"
       id="path35-1" />
    <path
       style="fill:none;stroke:#000000;stroke-width:1;stroke-linecap:butt;stroke-linejoin:miter;stroke-dasharray:none;stroke-opacity:1"
       d="m 1059.4425,51.002394 c 0.541,0.720209 2.705,3.601036 3.2459,4.32124"
       id="path36-5" />
    <path
       style="fill:none;stroke:#000000;stroke-width:1;stroke-linecap:butt;stroke-linejoin:miter;stroke-dasharray:none;stroke-opacity:1"
       d="m 1055.4861,53.96398 2.705,2.808802"
       id="path37-0" />
    <path
       style="fill:none;stroke:#000000;stroke-width:1;stroke-linecap:butt;stroke-linejoin:miter;stroke-dasharray:none;stroke-opacity:1"
       d="m 1053.1309,55.539693 c 0.1503,0.972281 0.7514,4.861395 0.9016,5.833671"
       id="path38-6" />
    <path
       style="fill:none;stroke:#000000;stroke-width:1;stroke-linecap:butt;stroke-linejoin:miter;stroke-dasharray:none;stroke-opacity:1"
       d="m 1049.5242,56.403944 c -0.2103,1.008287 -1.0519,5.041444 -1.2623,6.049731"
       id="path39-5" />
    <path
       style="fill:none;stroke:#000000;stroke-width:1;stroke-linecap:butt;stroke-linejoin:miter;stroke-dasharray:none;stroke-opacity:1"
       d="m 1045.2491,56.925559 c -0.5721,1.079392 -2.8564,5.400633 -3.4263,6.481859"
       id="path40-3" />
    <ellipse
       style="fill:none;stroke:#000000;stroke-width:1.00952;stroke-dasharray:none;stroke-opacity:1"
       id="path27-9"
       cx="976.64471"
       cy="577.71686"
       rx="16.277206"
       ry="11.671168"
       transform="matrix(0.87740658,-0.47974753,0.30154971,0.95345046,0,0)" />
    <path
       style="fill:none;stroke:#000000;stroke-width:1;stroke-linecap:butt;stroke-linejoin:miter;stroke-dasharray:none;stroke-opacity:1"
       d="m 1038.5183,70.938298 c 0.2789,0.943629 0.5516,1.937198 0.9017,2.808761"
       id="path28-57"
       sodipodi:nodetypes="cc" />
    <path
       style="fill:none;stroke:#000000;stroke-width:1;stroke-linecap:butt;stroke-linejoin:miter;stroke-dasharray:none;stroke-opacity:1"
       d="m 1034.8679,74.158877 c 0.279,0.943629 0.5516,1.937198 0.9017,2.808761"
       id="path28-5-6"
       sodipodi:nodetypes="cc" />
    <path
       style="fill:none;stroke:#000000;stroke-width:1;stroke-linecap:butt;stroke-linejoin:miter;stroke-dasharray:none;stroke-opacity:1"
       d="m 1027.1799,71.356916 c -0.6352,8.93628 7.0826,15.736993 13.6568,17.158798"
       id="path30-8"
       sodipodi:nodetypes="cc" />
    <path
       style="fill:none;stroke:#000000;stroke-width:1;stroke-linecap:butt;stroke-linejoin:miter;stroke-dasharray:none;stroke-opacity:1"
       d="m 1022.3696,76.099927 c -0.6351,8.936281 6.7705,15.214974 13.3447,16.636764"
       id="path30-4-5" />
    <path
       style="fill:none;stroke:#000000;stroke-width:1;stroke-linecap:butt;stroke-linejoin:miter;stroke-dasharray:none;stroke-opacity:1"
       d="m 1016.628,78.66236 c -0.6351,8.93628 6.7704,15.214971 13.3445,16.636781"
       id="path30-5-47" />
    <path
       style="fill:none;stroke:#000000;stroke-width:1;stroke-linecap:butt;stroke-linejoin:miter;stroke-dasharray:none;stroke-opacity:1"
       d="m 1025.1323,72.119492 c -4.0551,-0.491614 -8.0488,-2.154443 -12.1575,-1.648463 -1.6675,0.142836 -3.5259,0.862043 -4.3379,2.752349 -0.8689,2.107584 -0.06,4.695216 1.3482,6.189483 0.792,0.867727 1.794,1.467654 2.8547,1.662549 1.7594,1.060552 3.929,0.756317 5.5311,-0.532502 2.0743,-1.550925 3.5323,-3.956501 5.1993,-6.042613 0.557,-0.757984 1.0848,-1.547919 1.5621,-2.380803 z"
       id="path34-9" />
    <path
       style="fill:#ffffff;fill-opacity:1;stroke:#000000;stroke-width:1;stroke-linecap:butt;stroke-linejoin:miter;stroke-dasharray:none;stroke-opacity:1"
       d="m 1025.3048,74.482282 c -0.1349,4.429889 -2.49,8.44152 -5.5863,10.746175 -1.9937,1.512888 -4.3061,2.436862 -6.6593,2.580848 -2.4245,0.90969 -5.2266,0.157292 -7.1092,-1.841566 -1.1842,-1.231093 -1.7514,-3.293288 -1.213,-5.105942 0.792,-2.800621 3.0078,-4.728005 5.3242,-5.488551 3.8703,-1.273861 7.8959,-0.441732 11.835,-0.561496 1.1397,-0.02439 2.2809,-0.114015 3.4086,-0.329468 z"
       id="path33-66" />
    <path
       style="fill:none;stroke:#000000;stroke-width:1;stroke-linecap:butt;stroke-linejoin:miter;stroke-dasharray:none;stroke-opacity:1"
       d="m 1040.502,88.87143 c 0.9618,0.251992 4.8088,1.260271 5.7705,1.512441"
       id="path35-6" />
    <path
       style="fill:none;stroke:#000000;stroke-width:1;stroke-linecap:butt;stroke-linejoin:miter;stroke-dasharray:none;stroke-opacity:1"
       d="m 1039.2397,89.951751 c 0.5409,0.7202 2.7049,3.60102 3.2459,4.32122"
       id="path36-6" />
    <path
       style="fill:none;stroke:#000000;stroke-width:1;stroke-linecap:butt;stroke-linejoin:miter;stroke-dasharray:none;stroke-opacity:1"
       d="m 1035.2832,92.913321 2.705,2.80881"
       id="path37-7" />
    <path
       style="fill:none;stroke:#000000;stroke-width:1;stroke-linecap:butt;stroke-linejoin:miter;stroke-dasharray:none;stroke-opacity:1"
       d="m 1032.928,94.489041 c 0.1503,0.97229 0.7514,4.8614 0.9017,5.833669"
       id="path38-0" />
    <path
       style="fill:none;stroke:#000000;stroke-width:1;stroke-linecap:butt;stroke-linejoin:miter;stroke-dasharray:none;stroke-opacity:1"
       d="m 1029.3214,95.353291 c -0.2104,1.00828 -1.0519,5.041439 -1.2624,6.049739"
       id="path39-4" />
    <path
       style="fill:none;stroke:#000000;stroke-width:1;stroke-linecap:butt;stroke-linejoin:miter;stroke-dasharray:none;stroke-opacity:1"
       d="m 1025.0462,95.874911 c -0.5721,1.07939 -2.8563,5.400629 -3.4263,6.481849"
       id="path40-1" />
    <path
       style="fill:none;stroke:#000000;stroke-width:1.5;stroke-linecap:butt;stroke-linejoin:miter;stroke-dasharray:none;stroke-opacity:1"
       d="m 759.11708,150.52854 c 2.15196,0.13757 4.65661,-0.34223 6.49944,0.39166 1.59457,0.27608 4.10481,1.03513 5.50777,1.84307 1.3051,0.70969 1.37709,1.11698 2.58835,1.95132 1.13157,1.83285 -1.79337,1.52118 -3.00403,1.54055 -3.77376,-0.15951 -7.39544,0.51789 -11.15778,0.38177 -2.52145,-0.16217 3.37071,0.64675 4.36842,0.95444 1.83512,0.22044 3.39309,1.00605 5.14518,1.52708 1.46965,0.84504 3.02399,0.8112 4.28767,1.90888 1.09329,0.68954 2.09705,1.64269 2.88205,2.80425 -0.22579,1.59187 -2.26138,2.08599 -3.73965,2.1588 -2.60824,-0.48891 -5.53272,-1.3225 -8.06073,-2.29063 -2.01381,-0.6138 -4.22052,-1.52075 -6.34571,-2.29065 -1.51569,-0.72951 -3.38542,-1.56763 -4.11613,-0.19088 -6.36421,5.32451 -14.2196,5.87048 -22.23335,7.57351 -1.28987,0.1546 -3.49756,0.44615 -5.88553,0.44372 -3.7882,-0.0676 -7.69127,0.17092 -11.36968,-0.19088 -0.14709,-0.629 -2.36414,-0.1324 -3.60162,-0.95444 -3.22007,-0.2252 -9.34607,-3.73206 -7.88924,-8.39902 -0.60861,0.59167 -2.18765,0.76023 -3.0871,0.38178 -1.16761,-0.44571 -2.74061,-1.49376 -3.2586,-3.05418 -1.42147,-1.66565 -2.03077,-3.63798 -1.14726,-5.93421 0.60466,-1.26553 3.1819,-1.59957 4.74887,-1.1286 1.95631,-0.11321 4.28834,4.33584 4.97365,3.43596 2.28664,-4.90727 3.9833,-6.59392 8.88876,-8.96956 3.59658,-1.51311 7.09791,-2.60143 10.83438,-3.43807 5.58947,-1.05527 10.54209,-1.44298 15.82081,0.38177 1.59781,-0.0403 5.30398,2.61949 4.97365,0.76355 -0.74036,-3.81338 0.54588,-7.91659 2.40107,-9.9261 -0.56929,-0.97558 -1.45466,-2.74362 -2.04473,-4.00368 -0.80741,-1.61471 -1.35901,-3.63304 -1.38537,-5.67554 -0.13806,-1.4618 0.31623,-3.68242 0.87591,-4.17078 0.93876,-1.21056 3.13731,-1.07543 4.44075,-0.27562 0.64595,0.47541 1.40187,1.21392 1.88656,2.09976 1.2501,2.45921 1.50045,9.93639 2.11431,9.53138 2.18887,-1.44417 3.49216,-1.62327 5.58837,-0.6899 0.61032,0.27173 -0.29151,-7.4563 0.18663,-11.5139 1.44251,-3.57266 4.28335,-2.85629 5.91687,-0.6681 1.03787,1.40495 1.06539,3.35125 1.11477,5.23834 v 7.07385 c 1.33225,2.87862 5.28152,13.32994 -1.88661,18.32512 -0.74696,0.59322 -2.79699,2.21706 -4.94041,2.68737 -4.17853,0.86612 -10.23355,-2.16007 -11.35253,-5.1689"
       id="path41"
       sodipodi:nodetypes="ccccccccccccccccccccccccccccccccccsscccccsc" />
    <path
       style="fill:none;stroke:#000000;stroke-width:1.5;stroke-linecap:butt;stroke-linejoin:miter;stroke-dasharray:none;stroke-opacity:1"
       d="m 762.19212,132.20342 c 0.33363,1.13185 0.71521,2.28847 0.85752,3.43597"
       id="path42" />
    <path
       style="fill:none;stroke:#000000;stroke-width:1.5;stroke-linecap:butt;stroke-linejoin:miter;stroke-dasharray:none;stroke-opacity:1"
       d="m 756.53242,132.5852 c 0.63696,1.42777 0.84483,2.51459 1.20054,4.00862"
       id="path43"
       sodipodi:nodetypes="cc" />
    <path
       style="fill:none;stroke:#000000;stroke-width:1.5;stroke-linecap:butt;stroke-linejoin:miter;stroke-dasharray:none;stroke-opacity:1"
       d="m 765.44623,138.52221 c 0.72208,4.32216 -3.1459,3.21994 -4.14505,1.05257 1.33671,3.69128 -3.39593,6.23296 -4.08716,1.81073"
       id="path44"
       sodipodi:nodetypes="ccc" />
    <path
       style="fill:#feffff;fill-opacity:1;stroke:#000000;stroke-width:1.5;stroke-linecap:butt;stroke-linejoin:miter;stroke-dasharray:none;stroke-opacity:1"
       d="m 715.68391,156.44602 c 1.86362,-0.15901 3.93231,-0.99771 5.65968,0.19089 1.71595,1.38553 1.58944,3.99204 1.54157,6.09139 0.031,2.09728 -0.21393,4.29587 -1.14386,6.15674 -0.74762,1.36469 -1.7914,2.62107 -3.23958,3.01147 -1.95968,0.63197 -4.09668,0.90425 -5.73678,2.37759 -3.47575,2.4285 -4.86868,3.36941 -6.56835,7.53284 -0.43493,1.06156 0.18018,3.14951 -1.06303,3.40533 -1.50309,-0.52132 -1.73289,-2.48481 -2.32348,-3.86771 -0.641,-1.51784 0.0573,-3.11334 0.90135,-4.32198 0.84911,-1.11779 1.98771,-1.89327 2.89232,-2.95547 1.08976,-1.13236 2.35965,-2.01024 3.47479,-3.10268 0.75625,-0.71288 0.92943,-1.84042 1.41371,-2.77136 l 0.042,-0.14545 0.0335,-0.1484"
       id="path45"
       sodipodi:nodetypes="ccccccccccccccc" />
    <path
       style="fill:none;stroke:#000000;stroke-width:1.5;stroke-linecap:butt;stroke-linejoin:miter;stroke-dasharray:none;stroke-opacity:1"
       d="m 727.68929,169.20268 c 0.0796,1.55186 -0.9179,2.83405 -1.84327,3.86211 -0.9784,1.02379 -2.05709,1.95382 -3.22076,2.69439 -1.00389,0.40384 -1.96802,0.93041 -2.91428,1.4742 -0.70385,0.41243 -1.50543,1.01517 -1.51684,2.0033 0.0605,0.78168 0.0532,1.56361 0.0414,2.3515 0.0784,0.60354 -0.19983,1.90202 -0.9329,1.2573 -0.87688,-0.85263 -1.70902,-1.7991 -2.30468,-2.9204 -0.71473,-0.69139 -0.53432,-1.92068 -0.19557,-2.78189 0.31379,-0.611 0.66755,-1.19629 0.91413,-1.85095 0.42916,-0.95844 0.7819,-1.97048 1.33599,-2.85125 l 0.095,-0.10704 0.0801,-0.0443"
       id="path46" />
    <path
       style="fill:none;stroke:#000000;stroke-width:1.5;stroke-linecap:butt;stroke-linejoin:miter;stroke-dasharray:none;stroke-opacity:1"
       d="m 832.28438,177.7193 c 2.15196,0.13757 6.04535,0.30275 9.05006,0.64292 3.56951,0.4041 7.49578,0.30679 10.64667,1.65866 1.13156,1.83285 -5.36417,2.52624 -6.57483,2.5456 -3.77375,-0.15951 -8.92582,1.39731 -12.68823,1.26119 -2.52143,-0.16217 3.37071,0.64674 4.3685,0.95442 1.83512,0.22045 4.45115,0.25187 6.67548,0.39643 1.30215,0.0846 2.61005,0.11649 3.90503,0.27566 1.99678,0.24541 5.15788,-0.11615 5.94288,1.04542 -0.22588,1.59187 -2.89863,2.27754 -4.63249,2.78695 -2.29079,0.67302 -4.77918,0.31241 -7.1679,0.22197 -3.23709,-0.12255 -6.42805,-0.84062 -9.66159,-1.03432 -1.66664,-0.0999 -4.27805,-1.44201 -5.00875,-0.0653 -6.36424,5.32451 -11.19484,5.87049 -19.20861,7.57352 -1.28991,0.1546 -3.4976,0.44614 -5.88557,0.44371 -3.7882,-0.0676 -7.69126,0.17094 -11.36966,-0.19087 -0.14708,-0.629 -3.25682,-0.007 -4.49432,-0.82881 -3.22008,-0.2252 -8.45335,-3.85769 -6.99648,-8.52464 -0.60866,0.59166 -1.91717,1.02673 -3.80854,1.27011 -4.99016,-0.40885 -7.18598,-2.89984 -5.03712,-8.36655 0.60473,-1.26551 3.60619,-4.55324 6.10152,-4.32662 2.38873,0.21693 4.28835,6.02369 4.97368,5.1238 2.28664,-4.90727 5.91226,-5.96001 9.65387,-7.71324 3.26999,-1.53221 5.12189,-1.5041 10.63216,-2.19439 5.51026,-0.6903 17.93594,2.742 17.20682,-1.35467 -0.74038,-3.81339 0.54582,-7.91659 2.40105,-9.92611 -1.0685,-1.83119 -3.23618,-2.80017 -6.67654,-9.59038 -0.138,-1.46179 0.31624,-3.68242 0.87598,-4.17078 0.9602,-1.21056 3.06241,-1.07543 4.44071,-0.27562 0.64594,0.47541 1.4019,1.21392 1.88654,2.09976 1.25013,2.45921 4.74689,9.84756 5.36069,9.44255 2.18893,-1.44417 3.49222,-1.62326 5.58837,-0.6899 0.61032,0.27172 -3.53782,-7.36747 -3.05968,-11.42506 1.4425,-3.57267 3.65216,-2.58979 5.28568,-0.4016 1.19697,3.71714 2.40558,7.3874 3.45933,11.24617 4.16886,3.83794 7.30916,7.64868 6.6605,14.76434 -1.80457,2.98559 -3.09175,3.62266 -5.19108,4.78392 -2.06061,1.13978 -5.57681,1.91454 -6.76349,2.17491 -4.16781,0.91449 -10.23349,-2.16008 -11.3525,-5.16891"
       id="path41-9"
       sodipodi:nodetypes="caccccaacaaaccccccccacazccccccssccccssc" />
    <path
       style="fill:none;stroke:#000000;stroke-width:1.5;stroke-linecap:butt;stroke-linejoin:miter;stroke-dasharray:none;stroke-opacity:1"
       d="m 836.87179,159.39418 c 0.33364,1.13185 0.7152,2.28848 0.85752,3.43596"
       id="path42-3" />
    <path
       style="fill:none;stroke:#000000;stroke-width:1.5;stroke-linecap:butt;stroke-linejoin:miter;stroke-dasharray:none;stroke-opacity:1"
       d="m 831.08454,160.15284 c 0.63701,1.42779 0.84489,2.51461 1.2006,4.00862"
       id="path43-9"
       sodipodi:nodetypes="cc" />
    <path
       style="fill:none;stroke:#000000;stroke-width:1.5;stroke-linecap:butt;stroke-linejoin:miter;stroke-dasharray:none;stroke-opacity:1"
       d="m 839.61585,167.22053 c 0.72208,4.32216 -1.61552,4.35062 -4.01755,0.0475 1.59177,5.19885 -3.52354,7.23801 -4.21477,2.81577"
       id="path44-6"
       sodipodi:nodetypes="ccc" />
    <path
       style="fill:#feffff;fill-opacity:1;stroke:#000000;stroke-width:1.5;stroke-linecap:butt;stroke-linejoin:miter;stroke-dasharray:none;stroke-opacity:1"
       d="m 791.8759,183.63678 c 1.86362,-0.15901 3.93233,-0.9977 5.65968,0.19089 1.71595,1.38552 1.58943,3.99203 1.54157,6.09139 0.031,2.09726 -0.21392,4.29586 -1.14381,6.15672 -0.74765,1.3647 -1.79141,2.62108 -3.23958,3.01149 -1.95974,0.63196 -6.62164,-0.87245 -8.26173,0.60089 -3.47582,2.42851 -4.86872,3.36941 -6.5684,7.53285 -0.43489,1.06156 -3.06612,3.86018 -4.30937,4.11601 -1.50308,-0.52133 0.34119,-3.63967 -0.24939,-5.02257 -0.64102,-1.51784 1.22964,-2.66917 2.07362,-3.87781 0.84913,-1.11779 1.98772,-1.89327 2.89234,-2.95547 2.49898,-2.9926 3.77459,-5.11357 3.77459,-5.11357"
       id="path45-6"
       sodipodi:nodetypes="cccccccccccc" />
    <path
       style="fill:none;stroke:#000000;stroke-width:1.5;stroke-linecap:butt;stroke-linejoin:miter;stroke-dasharray:none;stroke-opacity:1"
       d="m 803.88128,196.39343 c 0.0796,1.55186 -0.60223,3.41148 -1.52765,4.43953 -0.97835,1.0238 -6.52083,1.50965 -7.68453,2.25022 -1.00383,0.40384 -1.96797,0.93042 -2.91427,1.4742 -0.70386,0.41243 -1.50542,1.01517 -1.51684,2.00331 0.0605,0.78167 0.0529,1.5636 0.0416,2.35149 0.0784,0.60354 -2.86005,2.83478 -3.5931,2.19006 -0.87688,-0.85263 0.50029,-2.73186 -0.0954,-3.85316 -0.71475,-0.69139 -0.0834,-1.92068 0.25529,-2.78188 0.31381,-0.61101 0.66757,-1.1963 0.91415,-1.85096 0.42914,-0.95843 4.93005,-2.10373 5.48411,-2.98449 l 0.095,-0.10705 0.0801,-0.0443"
       id="path46-4"
       sodipodi:nodetypes="ccccccccccccc" />
    <path
       style="fill:#ffffff;fill-opacity:1;stroke:#000000;stroke-width:1.5;stroke-linecap:butt;stroke-linejoin:miter;stroke-dasharray:none;stroke-opacity:1"
       d="m 533.16343,160.08898 c 7.76598,-1.52791 18.66104,-8.7348 20.50466,-15.88275 0.74098,2.77741 1.22894,12.01248 1.48097,14.23668 1.56393,5.94834 -0.85067,9.17683 4.51301,12.64659 6.24052,-3.33523 3.86675,-7.90418 2.9933,-15.30618 -0.33566,-2.85085 0.22583,-7.34482 0.97142,-14.28544 3.35103,6.04546 0.76694,11.82151 2.03264,18.41234 0.31224,6.1801 7.08761,16.87119 7.18292,7.3553 -0.22415,-12.73939 -0.63474,-25.56754 0.32102,-38.25757 1.19047,-7.39671 -0.24036,-15.2659 2.61307,-22.32929 3.98387,-3.96887 8.70572,-7.010074 12.34375,-11.398724 2.53741,-1.45286 5.27212,-6.50694 0.0523,-5.10491 -7.4464,1.1547 -13.7054,-5.13369 -12.49662,-12.99745 -3.86682,-3.81974 -8.62178,11.91684 -7.08124,2.12076 1.53147,-3.54011 -1.62319,-7.94647 -3.48605,-2.66157 -3.71359,6.51492 -10.22161,12.13039 -9.00013,20.67663 3.26166,14.796884 -10.99511,8.054114 -27.56607,22.082174 -5.37997,5.94152 -7.22559,14.42744 -8.84057,22.25655 -0.0722,6.39226 -2.7543,16.6735 -10.62609,13.35885 -8.3141,-1.43906 -12.51104,-9.92414 -19.12293,-14.15408 -7.46231,-4.071 -12.09716,3.95381 -16.80812,8.48892 -4.90867,3.83694 -11.21854,1.81028 -16.61134,0.76658 5.24969,6.13583 11.79283,12.73664 19.99596,13.01069 7.77505,-1.12762 15.38534,-3.37108 23.25432,-3.69798 5.94827,1.71698 13.93913,-3.85996 18.36245,1.15675 0.99797,7.05282 7.34329,9.07728 12.55607,9.69524 6.24361,-0.074 14.32225,0.79831 18.5753,-4.21062 -2.11422,-5.14098 -12.24347,-1.80116 -16.62097,-4.53563 -2.22501,-2.21334 5.16267,-2.20429 8.2392,-5.18371 5.59391,-4.04088 7.00179,-15.21064 0.44148,-19.07683 -1.71993,-1.28915 -3.64446,-2.24471 -5.6339,-2.94665"
       id="path47"
       sodipodi:nodetypes="ccccccccccccccccccccccccccccccc" />
    <path
       style="fill:none;stroke:#000000;stroke-width:1.5;stroke-linecap:butt;stroke-linejoin:miter;stroke-dasharray:none;stroke-opacity:1"
       d="m 547.94946,163.601 c 0.19448,0.30255 0.77404,-0.16908 0.21067,-0.0446 0.84593,-0.29843 1.64121,-1.14324 1.54568,-2.16082 -0.0916,-0.76061 -0.80759,-1.19604 -1.46668,-1.2376 -1.47793,-0.31201 -2.98363,-0.44013 -4.48881,-0.40163 -1.21737,0.0155 -2.4356,0.0103 -3.65206,-0.0204 -0.85667,0.0471 -1.70471,0.24397 -2.56531,0.20926 0.66836,0.1016 1.41296,0.0861 1.95626,-0.40108 0.75128,-0.45832 1.47913,-0.96081 2.23837,-1.40268 0.849,-0.41542 1.64045,-1.08969 1.95627,-2.06433 0.0597,-0.18034 0.10095,-0.36794 0.11944,-0.55837"
       id="path48" />
    <path
       style="fill:#ffffff;fill-opacity:1;stroke:#000000;stroke-width:1.5;stroke-linecap:butt;stroke-linejoin:miter;stroke-dasharray:none;stroke-opacity:1"
       d="m 462.81389,182.62369 c 8.27569,-1.61607 19.88585,-9.23884 21.85047,-16.79926 0.78962,2.93767 1.3096,12.70566 1.57818,15.05821 1.66657,6.29158 -0.90651,9.70638 4.80922,13.37636 6.65012,-3.52769 4.12054,-8.36029 3.18976,-16.18942 -0.35769,-3.01536 0.24066,-7.76866 1.03519,-15.10978 3.57098,6.39431 0.81727,12.50366 2.16604,19.47482 0.33274,6.53672 7.55281,17.84473 7.65438,7.77973 -0.23886,-13.47451 -0.6764,-27.04291 0.34208,-40.46522 1.26861,-7.82353 -0.25612,-16.14681 2.78458,-23.6178 4.24535,-4.19789 9.27712,-7.41458 13.15393,-12.05647 2.70395,-1.53671 5.61817,-6.88243 0.0557,-5.3995 -7.93514,1.22134 -14.60495,-5.42993 -13.31684,-13.747454 -4.12061,-4.04017 -9.18765,12.604494 -7.54601,2.24313 1.632,-3.7444 -1.72973,-8.40503 -3.71486,-2.81516 -3.95733,6.890864 -10.8925,12.830384 -9.59085,21.869774 3.47575,15.65073 -11.71677,8.51887 -29.37536,23.35642 -5.73309,6.28438 -7.69984,15.25997 -9.42081,23.54086 -0.0769,6.76113 -2.93509,17.63565 -11.32354,14.12972 -8.8598,-1.52209 -13.33221,-10.4968 -20.37807,-14.97083 -7.95209,-4.30592 -12.89115,4.18197 -17.91131,8.97878 -5.23085,4.05834 -11.95487,1.91473 -17.70163,0.8108 5.59426,6.4899 12.56685,13.4716 21.3084,13.76147 8.28536,-1.19269 16.39515,-3.5656 24.78061,-3.91137 6.33869,1.81607 14.85402,-4.08269 19.56767,1.2235 1.06347,7.4598 7.82526,9.60109 13.38018,10.25471 6.65342,-0.0782 15.26229,0.84438 19.79449,-4.4536 -2.25298,-5.43764 -13.04707,-1.9051 -17.71188,-4.79735 -2.37105,-2.34106 5.50152,-2.3315 8.77998,-5.48283 5.96106,-4.27407 7.46135,-16.08838 0.47046,-20.17766 -1.83282,-1.36355 -3.88367,-2.37425 -6.00369,-3.11669"
       id="path47-0"
       sodipodi:nodetypes="ccccccccccccccccccccccccccccccc" />
    <path
       style="fill:#ffffff;fill-opacity:1;stroke:#000000;stroke-width:1.5;stroke-linecap:butt;stroke-linejoin:miter;stroke-dasharray:none;stroke-opacity:1"
       d="m 478.57039,186.33836 c 0.20725,0.32002 0.82484,-0.17882 0.22451,-0.0472 0.90144,-0.31565 1.74892,-1.20921 1.64712,-2.28552 -0.0976,-0.80449 -0.86059,-1.26506 -1.56294,-1.30901 -1.57494,-0.33 -3.17946,-0.46553 -4.78344,-0.4248 -1.29727,0.0164 -2.59545,0.0108 -3.89176,-0.0216 -0.9129,0.0498 -1.8166,0.25805 -2.73368,0.22133 0.71222,0.10746 1.50569,0.0911 2.08465,-0.42422 0.8006,-0.48477 1.57622,-1.01625 2.3853,-1.48362 0.90472,-0.43939 1.74811,-1.15258 2.08465,-2.18346 0.0636,-0.19074 0.10759,-0.38917 0.12729,-0.59059"
       id="path48-7" />
    <path
       style="fill:none;stroke:#000000;stroke-width:1.5;stroke-linecap:butt;stroke-linejoin:miter;stroke-dasharray:none;stroke-opacity:1"
       d="m 201.97017,80.217323 150.27316,3.23059 39.38682,61.571297 -165.53111,4.37081 z"
       id="path49-1"
       sodipodi:nodetypes="ccccc" />
    <path
       style="fill:none;stroke:#000000;stroke-width:1.5;stroke-linecap:butt;stroke-linejoin:miter;stroke-dasharray:none;stroke-opacity:1"
       d="m 214.39989,115.4525 157.5799,-1.21893"
       id="path50-9"
       sodipodi:nodetypes="cc" />
    <path
       style="fill:none;stroke:#000000;stroke-width:1.5;stroke-linecap:butt;stroke-linejoin:miter;stroke-dasharray:none;stroke-opacity:1"
       d="m 279.43579,82.071683 32.07486,64.792327"
       id="path51-6"
       sodipodi:nodetypes="cc" />
    <path
       style="fill:none;stroke:#000000;stroke-width:1.5;stroke-linecap:butt;stroke-linejoin:miter;stroke-dasharray:none;stroke-opacity:1"
       d="m 317.82421,83.054453 34.9729,63.216397"
       id="path52-7"
       sodipodi:nodetypes="cc" />
    <path
       style="fill:none;stroke:#000000;stroke-width:1.5;stroke-linecap:butt;stroke-linejoin:miter;stroke-dasharray:none;stroke-opacity:1"
       d="m 241.67617,80.852753 31.10536,67.184077"
       id="path53-8"
       sodipodi:nodetypes="cc" />
    <path
       style="fill:none;stroke:#000000;stroke-width:1.5;stroke-linecap:butt;stroke-linejoin:miter;stroke-dasharray:none;stroke-opacity:1"
       d="m 212.73702,110.4543 -14.31521,35.89515"
       id="path54-9"
       sodipodi:nodetypes="cc" />
    <path
       style="fill:none;stroke:#000000;stroke-width:1.5;stroke-linecap:butt;stroke-linejoin:miter;stroke-dasharray:none;stroke-opacity:1"
       d="m 237.35273,148.0883 2.11794,15.38587"
       id="path55-7"
       sodipodi:nodetypes="cc" />
    <path
       style="fill:none;stroke:#000000;stroke-width:1.5;stroke-linecap:butt;stroke-linejoin:miter;stroke-dasharray:none;stroke-opacity:1"
       d="m 377.61412,145.00581 4.25804,12.16224"
       id="path56-5" />
    <path
       style="fill:none;stroke:#000000;stroke-width:1.5;stroke-linecap:butt;stroke-linejoin:miter;stroke-dasharray:none;stroke-opacity:1"
       d="m 334.80439,146.44168 4.13258,12.83014"
       id="path57-5"
       sodipodi:nodetypes="cc" />
    <path
       style="fill:none;stroke:#000000;stroke-width:1.5;stroke-linecap:butt;stroke-linejoin:miter;stroke-dasharray:none;stroke-opacity:1"
       d="m 277.8012,147.72581 3.75622,13.54418"
       id="path58-2"
       sodipodi:nodetypes="cc" />
    <path
       style="fill:none;stroke:#000000;stroke-width:2;stroke-linecap:butt;stroke-linejoin:miter;stroke-dasharray:none;stroke-opacity:1"
       d="M 171.58552,200.91526 165.87561,25.065792 143.77618,24.465018 143.19472,99.561192 100.15883,61.111951 108.30076,105.56888 64.10189,65.918107 68.172833,107.37119 16.413619,65.317346 13.352573,201.29736 Z"
       id="path59"
       sodipodi:nodetypes="ccccccccccc" />
    <rect
       style="fill:#feffff;fill-opacity:1;stroke:#000000;stroke-width:2;stroke-dasharray:none;stroke-opacity:1"
       id="rect59"
       width="12.212852"
       height="13.817696"
       x="142.61308"
       y="132.89204"
       ry="4.7527649e-14" />
    <rect
       style="fill:#feffff;fill-opacity:1;stroke:#000000;stroke-width:2;stroke-dasharray:none;stroke-opacity:1"
       id="rect59-7"
       width="12.212852"
       height="13.817696"
       x="120.24121"
       y="132.89204"
       ry="4.7527649e-14" />
    <rect
       style="fill:#feffff;fill-opacity:1;stroke:#000000;stroke-width:2;stroke-dasharray:none;stroke-opacity:1"
       id="rect59-5"
       width="12.212852"
       height="13.817696"
       x="97.869141"
       y="132.89204"
       ry="4.7527649e-14" />
    <rect
       style="fill:#feffff;fill-opacity:1;stroke:#000000;stroke-width:2;stroke-dasharray:none;stroke-opacity:1"
       id="rect59-6"
       width="12.212852"
       height="13.817696"
       x="75.497086"
       y="132.89204"
       ry="4.7527649e-14" />
    <rect
       style="fill:#feffff;fill-opacity:1;stroke:#000000;stroke-width:2;stroke-dasharray:none;stroke-opacity:1"
       id="rect59-50"
       width="12.212852"
       height="13.817696"
       x="53.125118"
       y="132.89204"
       ry="4.7527649e-14" />
    <rect
       style="fill:#feffff;fill-opacity:1;stroke:#000000;stroke-width:2;stroke-dasharray:none;stroke-opacity:1"
       id="rect59-71"
       width="12.212852"
       height="13.817696"
       x="30.753143"
       y="132.89204"
       ry="4.7527649e-14" />
    <path
       style="fill:none;stroke:#000000;stroke-width:1.70691;stroke-linecap:butt;stroke-linejoin:miter;stroke-dasharray:none;stroke-opacity:1"
       d="m 33.488368,313.67506 83.421572,0.38829 35.59255,40.62372 -91.536824,0.0517 z"
       id="path60"
       sodipodi:nodetypes="ccccc" />
    <path
       style="fill:none;stroke:#000000;stroke-width:1.70691;stroke-linecap:butt;stroke-linejoin:miter;stroke-dasharray:none;stroke-opacity:1"
       d="m 33.038861,313.92216 0.196179,14.31554 28.056292,44.70052 91.131148,0.0435 0.0256,-18.20812"
       id="path61"
       sodipodi:nodetypes="ccccc" />
    <path
       style="fill:none;stroke:#000000;stroke-width:1.70691;stroke-linecap:butt;stroke-linejoin:miter;stroke-dasharray:none;stroke-opacity:1"
       d="M 61.342576,373.56455 61.214469,354.56758"
       id="path62"
       sodipodi:nodetypes="cc" />
    <ellipse
       style="fill:#ffffff;fill-opacity:1;stroke:#000000;stroke-width:1.70691;stroke-dasharray:none;stroke-opacity:1"
       id="path63"
       cx="142.79526"
       cy="363.89001"
       rx="1.7709469"
       ry="1.6451888" />
    <ellipse
       style="fill:#ffffff;fill-opacity:1;stroke:#000000;stroke-width:1.70691;stroke-dasharray:none;stroke-opacity:1"
       id="path63-5"
       cx="131.74516"
       cy="363.89001"
       rx="1.7709469"
       ry="1.6451888" />
    <ellipse
       style="fill:#ffffff;fill-opacity:1;stroke:#000000;stroke-width:1.70691;stroke-dasharray:none;stroke-opacity:1"
       id="path63-1"
       cx="120.69507"
       cy="363.89001"
       rx="1.7709469"
       ry="1.6451888" />
    <path
       style="fill:none;stroke:#000000;stroke-width:1.70691;stroke-linecap:butt;stroke-linejoin:miter;stroke-dasharray:none;stroke-opacity:1"
       d="m 319.36034,317.56804 83.42157,0.38829 35.59255,40.62372 -91.53682,0.0517 z"
       id="path60-0"
       sodipodi:nodetypes="ccccc" />
    <path
       style="fill:none;stroke:#000000;stroke-width:1.70691;stroke-linecap:butt;stroke-linejoin:miter;stroke-dasharray:none;stroke-opacity:1"
       d="m 318.91083,317.81514 0.19618,14.31554 28.05629,44.70052 91.13115,0.0435 0.0256,-18.20812"
       id="path61-5"
       sodipodi:nodetypes="ccccc" />
    <path
       style="fill:none;stroke:#000000;stroke-width:1.70691;stroke-linecap:butt;stroke-linejoin:miter;stroke-dasharray:none;stroke-opacity:1"
       d="m 347.21455,377.45753 -0.12811,-18.99697"
       id="path62-6"
       sodipodi:nodetypes="cc" />
    <ellipse
       style="fill:#ffffff;fill-opacity:1;stroke:#000000;stroke-width:1.70691;stroke-dasharray:none;stroke-opacity:1"
       id="path63-4"
       cx="428.66724"
       cy="367.78299"
       rx="1.7709469"
       ry="1.6451888" />
    <ellipse
       style="fill:#ffffff;fill-opacity:1;stroke:#000000;stroke-width:1.70691;stroke-dasharray:none;stroke-opacity:1"
       id="path63-5-5"
       cx="417.61713"
       cy="367.78299"
       rx="1.7709469"
       ry="1.6451888" />
    <ellipse
       style="fill:#ffffff;fill-opacity:1;stroke:#000000;stroke-width:1.70691;stroke-dasharray:none;stroke-opacity:1"
       id="path63-1-2"
       cx="406.56705"
       cy="367.78299"
       rx="1.7709469"
       ry="1.6451888" />
    <path
       style="fill:none;stroke:#000000;stroke-width:2;stroke-linecap:butt;stroke-linejoin:miter;stroke-dasharray:none;stroke-opacity:1"
       d="m 872.04767,319.29166 81.98358,0.38937 34.97909,40.73534 -89.95903,0.0518 z"
       id="path60-6-0"
       sodipodi:nodetypes="ccccc" />
    <path
       style="fill:none;stroke:#000000;stroke-width:2;stroke-linecap:butt;stroke-linejoin:miter;stroke-dasharray:none;stroke-opacity:1"
       d="m 871.3559,319.41445 0.0678,4.51912 27.94766,44.88585 90.6853,0.0436 0.0252,-7.60989"
       id="path61-5-9"
       sodipodi:nodetypes="ccccc" />
    <path
       style="fill:none;stroke:#000000;stroke-width:2;stroke-linecap:butt;stroke-linejoin:miter;stroke-dasharray:none;stroke-opacity:1"
       d="m 899.42173,369.44746 -0.1259,-9.15091"
       id="path62-1-2"
       sodipodi:nodetypes="cc" />
    <path
       id="path64-0"
       style="fill:#ffffff;stroke:#000000;stroke-width:2;stroke-dasharray:none"
       d="m 713.37866,399.68605 c -10e-6,8.33674 -18.44881,15.09498 -41.20658,15.09498 -22.75775,0 -41.29536,-6.75825 -41.29536,-15.09498 0,-1.25722 0.003,-4.79802 0.0389,-11.49824 13.18679,0.0375 82.41191,-7e-5 82.41191,-7e-5 0,0 0.0512,3.16158 0.0512,11.49831 z"
       sodipodi:nodetypes="sssccss" />
    <ellipse
       style="fill:#ffffff;fill-opacity:1;stroke:#000000;stroke-width:2;stroke-dasharray:none;stroke-opacity:1"
       id="path64-3-7"
       cx="672.11115"
       cy="387.97168"
       rx="41.206562"
       ry="15.094986" />
    <path
       id="path64-6-7"
       style="fill:#ffffff;stroke:#000000;stroke-width:2;stroke-dasharray:none"
       d="m 175.86812,723.16184 c -1e-5,12.46988 -21.44244,22.57871 -47.89302,22.57871 -26.45059,0 -47.996246,-10.10884 -47.996246,-22.57871 0,-1.88052 0.0033,-7.17676 0.04521,-17.19878 15.326566,0.0561 95.784616,-1.2e-4 95.784616,-1.2e-4 0,0 0.0595,4.72902 0.0595,17.1989 z"
       sodipodi:nodetypes="sssccss" />
    <path
       id="path64-6-9"
       style="fill:#ffffff;stroke:#000000;stroke-width:2;stroke-dasharray:none"
       d="m 175.77249,704.60655 c -1e-5,12.46989 -21.44244,22.57871 -47.89303,22.57871 -26.45057,0 -47.996232,-10.10883 -47.996232,-22.57871 0,-1.88052 0.0033,-7.17676 0.04521,-17.19878 15.326566,0.0561 95.784612,-1.1e-4 95.784612,-1.1e-4 0,0 0.0595,4.72901 0.0595,17.19889 z"
       sodipodi:nodetypes="sssccss" />
    <path
       id="path64-6-4"
       style="fill:#ffffff;stroke:#000000;stroke-width:2;stroke-dasharray:none"
       d="m 175.70598,685.996 c -1e-5,12.46988 -21.44244,22.57871 -47.89302,22.57871 -26.45058,0 -47.996243,-10.10884 -47.996243,-22.57871 0,-1.88052 0.0033,-7.17676 0.04521,-17.19878 15.326566,0.0561 95.784613,-1.2e-4 95.784613,-1.2e-4 0,0 0.0595,4.72902 0.0595,17.1989 z"
       sodipodi:nodetypes="sssccss" />
    <ellipse
       style="fill:#ffffff;fill-opacity:1;stroke:#000000;stroke-width:2;stroke-dasharray:none;stroke-opacity:1"
       id="path64-3-1-7"
       cx="127.74779"
       cy="667.58405"
       rx="47.893013"
       ry="22.578712" />
    <circle
       style="fill:#ffffff;fill-opacity:1;stroke:#000000;stroke-width:2;stroke-dasharray:none;stroke-opacity:1"
       id="path65"
       cx="1114.6279"
       cy="326.90121"
       r="45.792767" />
    <circle
       style="fill:#ffffff;fill-opacity:1;stroke:#000000;stroke-width:2;stroke-dasharray:none;stroke-opacity:1"
       id="path65-2"
       cx="1117.3588"
       cy="471.89899"
       r="45.792767" />
    <ellipse
       style="fill:#ffffff;fill-opacity:1;stroke:#000000;stroke-width:2;stroke-dasharray:none;stroke-opacity:1"
       id="path65-9"
       cx="1110.8186"
       cy="717.25525"
       rx="58.042442"
       ry="52.318344" />
    <path
       style="fill:none;stroke:#000000;stroke-width:2;stroke-linecap:butt;stroke-linejoin:miter;stroke-dasharray:none;stroke-opacity:1"
       d="m 1126.5672,308.35055 v 10.79346"
       id="path66" />
    <path
       style="fill:none;stroke:#000000;stroke-width:2;stroke-linecap:butt;stroke-linejoin:miter;stroke-dasharray:none;stroke-opacity:1"
       d="m 1101.2701,307.00136 v 11.46805"
       id="path67" />
    <path
       style="fill:none;stroke:#000000;stroke-width:2;stroke-linecap:butt;stroke-linejoin:miter;stroke-dasharray:none;stroke-opacity:1"
       d="m 1109.0279,344.44117 c 11.8053,0 12.1426,0 12.1426,0"
       id="path68" />
    <path
       style="fill:none;stroke:#000000;stroke-width:2;stroke-linecap:butt;stroke-linejoin:miter;stroke-dasharray:none;stroke-opacity:1"
       d="m 1128.7971,456.34919 v 10.79346"
       id="path66-2" />
    <path
       style="fill:none;stroke:#000000;stroke-width:2;stroke-linecap:butt;stroke-linejoin:miter;stroke-dasharray:none;stroke-opacity:1"
       d="m 1103.5,455 v 11.46805"
       id="path67-9" />
    <path
       style="fill:none;stroke:#000000;stroke-width:2;stroke-linecap:butt;stroke-linejoin:miter;stroke-dasharray:none;stroke-opacity:1"
       d="m 1111.2578,492.43981 c 11.8053,0 12.1426,0 12.1426,0"
       id="path68-6" />
    <path
       style="fill:none;stroke:#000000;stroke-width:2;stroke-linecap:butt;stroke-linejoin:miter;stroke-dasharray:none;stroke-opacity:1"
       d="m 1122.7971,694.34919 v 10.79346"
       id="path66-4" />
    <path
       style="fill:none;stroke:#000000;stroke-width:2;stroke-linecap:butt;stroke-linejoin:miter;stroke-dasharray:none;stroke-opacity:1"
       d="m 1097.5,693 v 11.46805"
       id="path67-4" />
    <path
       style="fill:none;stroke:#000000;stroke-width:2;stroke-linecap:butt;stroke-linejoin:miter;stroke-dasharray:none;stroke-opacity:1"
       d="m 1101.2509,732.42162 c 0,0 8.0567,0.71183 12.0994,0.70073 3.6927,-0.01 11.0472,-0.70073 11.0472,-0.70073"
       id="path68-8"
       sodipodi:nodetypes="cac" />
    <path
       style="fill:none;stroke:#000000;stroke-width:2;stroke-linecap:butt;stroke-linejoin:miter;stroke-dasharray:none;stroke-opacity:1"
       d="m 1115.8409,720.15361 c 0.5667,-1.91756 3.1909,-2.16258 4.4966,-0.85705 2.3691,2.23996 4.6122,4.92228 7.8801,5.83501 2.3049,0.30201 5.2726,0.47517 6.7846,-1.65698 l 0.1577,-0.33979"
       id="path69" />
    <path
       style="fill:none;stroke:#000000;stroke-width:2;stroke-linecap:butt;stroke-linejoin:miter;stroke-dasharray:none;stroke-opacity:1"
       d="m 1107.2548,720.74986 c -1.0527,-1.50343 -3.1006,-2.45662 -4.8928,-1.78478 -0.9317,0.3865 -1.3995,1.35014 -2.1967,1.92204 -1.148,0.97006 -2.5181,1.61015 -3.8467,2.28429 -1.6893,0.95691 -3.9479,1.26329 -5.6416,0.15408 -0.3166,-0.21649 -0.5987,-0.48326 -0.833,-0.78685"
       id="path70" />
    <rect
       style="fill:#ffffff;fill-opacity:1;stroke:#000000;stroke-width:2;stroke-dasharray:none;stroke-opacity:1"
       id="rect70"
       width="53.424892"
       height="48.654816"
       x="1085.6702"
       y="622.24774"
       ry="5.3367785e-14" />
    <path
       style="fill:none;stroke:#000000;stroke-width:2;stroke-linecap:butt;stroke-linejoin:miter;stroke-dasharray:none;stroke-opacity:1"
       d="m 1064.4433,670.90253 99.4562,-0.477"
       id="path71" />
    <rect
       style="fill:#ffffff;fill-opacity:1;stroke:#000000;stroke-width:2.01195;stroke-dasharray:none;stroke-opacity:1"
       id="rect71"
       width="81.999008"
       height="57.023121"
       x="871.29529"
       y="261.97876"
       ry="4.4011449e-14" />
    <path
       style="fill:none;stroke:#000000;stroke-width:2;stroke-linecap:butt;stroke-linejoin:miter;stroke-dasharray:none;stroke-opacity:1"
       d="m 884.85745,471.81888 81.98358,0.38937 34.97907,40.73534 -89.95901,0.0518 z"
       id="path60-6-0-14"
       sodipodi:nodetypes="ccccc" />
    <path
       style="fill:none;stroke:#000000;stroke-width:2;stroke-linecap:butt;stroke-linejoin:miter;stroke-dasharray:none;stroke-opacity:1"
       d="m 883.97818,470.78542 0.0366,5.80037 28.16641,44.76085 90.73151,0.0215 0.048,-7.4539"
       id="path61-5-9-9"
       sodipodi:nodetypes="ccccc" />
    <path
       style="fill:none;stroke:#000000;stroke-width:2;stroke-linecap:butt;stroke-linejoin:miter;stroke-dasharray:none;stroke-opacity:1"
       d="m 912.23151,521.97468 -0.1259,-9.15091"
       id="path62-1-2-6"
       sodipodi:nodetypes="cc" />
    <rect
       style="fill:#ffffff;fill-opacity:1;stroke:#000000;stroke-width:2.01639;stroke-dasharray:none;stroke-opacity:1"
       id="rect71-4"
       width="82.367729"
       height="57.018677"
       x="884.04657"
       y="414.50821"
       ry="4.400802e-14" />
    <path
       style="fill:none;stroke:#000000;stroke-width:2;stroke-linecap:butt;stroke-linejoin:miter;stroke-dasharray:none;stroke-opacity:1"
       d="m 873.26172,703.32456 128.26038,0.64786 54.7234,67.77899 -140.73755,0.0862 z"
       id="path60-6-0-1"
       sodipodi:nodetypes="ccccc" />
    <path
       style="fill:none;stroke:#000000;stroke-width:2;stroke-linecap:butt;stroke-linejoin:miter;stroke-dasharray:none;stroke-opacity:1"
       d="m 872.51725,702.32145 0.0677,8.90996 43.13642,74.58094 141.5574,0.0246 0.01,-13.19117"
       id="path61-5-9-0"
       sodipodi:nodetypes="ccccc" />
    <path
       style="fill:none;stroke:#000000;stroke-width:2;stroke-linecap:butt;stroke-linejoin:miter;stroke-dasharray:none;stroke-opacity:1"
       d="m 916.08745,786.77811 -0.19697,-15.22607"
       id="path62-1-2-0"
       sodipodi:nodetypes="cc" />
    <rect
       style="fill:#ffffff;fill-opacity:1;stroke:#000000;stroke-width:2.01448;stroke-dasharray:none;stroke-opacity:1"
       id="rect71-8"
       width="128.59923"
       height="94.885399"
       x="872.52197"
       y="607.95966"
       ry="7.3234218e-14" />
    <path
       style="fill:none;stroke:#000000;stroke-width:2;stroke-linecap:butt;stroke-linejoin:miter;stroke-dasharray:none;stroke-opacity:1"
       d="m 152.59471,401.14706 52.5594,88.00179"
       id="path72"
       sodipodi:nodetypes="cc" />
    <path
       style="fill:none;stroke:#000000;stroke-width:2;stroke-linecap:butt;stroke-linejoin:miter;stroke-dasharray:none;stroke-opacity:1"
       d="m 127.02186,403.33945 56.78427,94.85839"
       id="path73"
       sodipodi:nodetypes="cc" />
    <path
       style="fill:none;stroke:#000000;stroke-width:2;stroke-linecap:butt;stroke-linejoin:miter;stroke-dasharray:none;stroke-opacity:1"
       d="m 173.68355,558.18668 -41.18682,82.62363"
       id="path74"
       sodipodi:nodetypes="cc" />
    <path
       style="fill:none;stroke:#000000;stroke-width:2;stroke-linecap:butt;stroke-linejoin:miter;stroke-dasharray:none;stroke-opacity:1"
       d="m 198.06097,559.55065 -40.69418,86.02743"
       id="path75"
       sodipodi:nodetypes="cc" />
    <rect
       style="fill:#ffffff;fill-opacity:1;stroke:none;stroke-width:2;stroke-dasharray:none;stroke-opacity:1"
       id="rect96"
       width="61.75"
       height="16.5"
       x="136.96751"
       y="587.79596"
       ry="5.3367785e-14" />
    <path
       style="fill:none;stroke:#000000;stroke-width:2;stroke-linecap:butt;stroke-linejoin:miter;stroke-dasharray:none;stroke-opacity:1"
       d="M 327.40516,372.93385 247.01123,489.18742"
       id="path76"
       sodipodi:nodetypes="cc" />
    <path
       style="fill:none;stroke:#000000;stroke-width:2;stroke-linecap:butt;stroke-linejoin:miter;stroke-dasharray:none;stroke-opacity:1"
       d="m 334.09755,403.12194 -66.04773,97.3896"
       id="path77"
       sodipodi:nodetypes="cc" />
    <path
       style="fill:none;stroke:#000000;stroke-width:2;stroke-linecap:butt;stroke-linejoin:miter;stroke-dasharray:none;stroke-opacity:1"
       d="m 408.24325,406.21812 35.63782,81.61449"
       id="path78"
       sodipodi:nodetypes="cc" />
    <path
       style="fill:none;stroke:#000000;stroke-width:2;stroke-linecap:butt;stroke-linejoin:miter;stroke-dasharray:none;stroke-opacity:1"
       d="m 430.36026,404.7935 33.49138,75.90739"
       id="path79"
       sodipodi:nodetypes="cc" />
    <path
       style="fill:none;stroke:#000000;stroke-width:2;stroke-linecap:butt;stroke-linejoin:miter;stroke-dasharray:none;stroke-opacity:1"
       d="M 624.87655,402.51407 517.25902,484.74682"
       id="path80"
       sodipodi:nodetypes="cc" />
    <path
       style="fill:none;stroke:#000000;stroke-width:2;stroke-linecap:butt;stroke-linejoin:miter;stroke-dasharray:none;stroke-opacity:1"
       d="M 635.76869,413.41356 529.02984,494.56054"
       id="path81"
       sodipodi:nodetypes="cc" />
    <path
       style="fill:none;stroke:#000000;stroke-width:2;stroke-linecap:butt;stroke-linejoin:miter;stroke-dasharray:none;stroke-opacity:1"
       d="m 531.9575,524.33009 106.21804,89.55382"
       id="path82"
       sodipodi:nodetypes="cc" />
    <path
       style="fill:none;stroke:#000000;stroke-width:2;stroke-linecap:butt;stroke-linejoin:miter;stroke-dasharray:none;stroke-opacity:1"
       d="M 508.41587,533.05065 614.4697,623.76869"
       id="path83"
       sodipodi:nodetypes="cc" />
    <path
       style="fill:none;stroke:#000000;stroke-width:2;stroke-linecap:butt;stroke-linejoin:miter;stroke-dasharray:none;stroke-opacity:1"
       d="m 712.10184,378.45289 152.11259,-58.6372"
       id="path84"
       sodipodi:nodetypes="cc" />
    <path
       style="fill:none;stroke:#000000;stroke-width:2;stroke-linecap:butt;stroke-linejoin:miter;stroke-dasharray:none;stroke-opacity:1"
       d="M 715.55527,384.47002 865.87128,325.91861"
       id="path85"
       sodipodi:nodetypes="cc" />
    <path
       style="fill:none;stroke:#000000;stroke-width:2;stroke-linecap:butt;stroke-linejoin:miter;stroke-dasharray:none;stroke-opacity:1"
       d="m 717.79055,401.03615 160.80866,58.59798"
       id="path86"
       sodipodi:nodetypes="cc" />
    <path
       style="fill:none;stroke:#000000;stroke-width:2;stroke-linecap:butt;stroke-linejoin:miter;stroke-dasharray:none;stroke-opacity:1"
       d="m 716.05527,408.09986 162.29394,59.1764"
       id="path87"
       sodipodi:nodetypes="cc" />
    <path
       style="fill:none;stroke:#000000;stroke-width:2;stroke-linecap:butt;stroke-linejoin:miter;stroke-dasharray:none;stroke-opacity:1"
       d="M 707.64105,643.63138 865.95276,690.0149"
       id="path88"
       sodipodi:nodetypes="cc" />
    <path
       style="fill:none;stroke:#000000;stroke-width:2;stroke-linecap:butt;stroke-linejoin:miter;stroke-dasharray:none;stroke-opacity:1"
       d="M 698.91313,659.50144 865.8388,710.10983"
       id="path89"
       sodipodi:nodetypes="cc" />
    <text
       xml:space="preserve"
       style="font-size:16px;line-height:1.25;font-family:sans-serif;stroke-width:2;stroke-dasharray:none"
       x="61.896969"
       y="768.43268"
       id="text89"><tspan
         sodipodi:role="line"
         id="tspan89"
         x="61.896969"
         y="768.43268"
         style="font-size:16px;stroke-width:2;stroke-dasharray:none">Database Server</tspan></text>
    <text
       xml:space="preserve"
       style="font-size:16px;line-height:1.25;font-family:sans-serif;stroke-width:2;stroke-dasharray:none"
       x="43.053825"
       y="395.35236"
       id="text90"><tspan
         sodipodi:role="line"
         id="tspan90"
         x="43.053825"
         y="395.35236"
         style="font-size:16px;stroke-width:2;stroke-dasharray:none">Backend Server</tspan></text>
    <text
       xml:space="preserve"
       style="font-size:16px;line-height:1.25;font-family:sans-serif;stroke-width:2;stroke-dasharray:none"
       x="320.75439"
       y="398.62445"
       id="text91"><tspan
         sodipodi:role="line"
         id="tspan91"
         x="320.75439"
         y="398.62445"
         style="font-size:16px;stroke-width:2;stroke-dasharray:none">Frontend Server</tspan></text>
    <text
       xml:space="preserve"
       style="font-size:16px;line-height:1.25;font-family:sans-serif;stroke-width:2;stroke-dasharray:none"
       x="620.91083"
       y="439.83942"
       id="text92"><tspan
         sodipodi:role="line"
         id="tspan92"
         x="620.91083"
         y="439.83942"
         style="font-size:16px;stroke-width:2;stroke-dasharray:none">Network Node</tspan></text>
    <text
       xml:space="preserve"
       style="font-size:16px;line-height:1.25;font-family:sans-serif;stroke-width:2;stroke-dasharray:none"
       x="170.58699"
       y="553.74207"
       id="text92-2"><tspan
         sodipodi:role="line"
         id="tspan92-9"
         x="170.58699"
         y="553.74207"
         style="font-size:16px;stroke-width:2;stroke-dasharray:none">Network Node</tspan></text>
    <rect
       style="fill:#ffffff;fill-opacity:1;stroke:none;stroke-width:2.52091;stroke-dasharray:none;stroke-opacity:1"
       id="rect96-2"
       width="79.356628"
       height="18.5"
       x="777.08057"
       y="333.05545"
       ry="6.3697033e-14" />
    <text
       xml:space="preserve"
       style="font-size:16px;line-height:1.25;font-family:sans-serif;stroke-width:2;stroke-dasharray:none"
       x="709.76111"
       y="347.66608"
       id="text93"><tspan
         sodipodi:role="line"
         id="tspan93"
         x="709.76111"
         y="347.66608"
         style="font-size:16px;stroke-width:2;stroke-dasharray:none">Slower Network Link</tspan></text>
    <text
       xml:space="preserve"
       style="font-size:16px;line-height:1.25;font-family:sans-serif;stroke-width:2;stroke-dasharray:none"
       x="104.54305"
       y="601.59991"
       id="text93-2"><tspan
         sodipodi:role="line"
         id="tspan93-8"
         x="104.54305"
         y="601.59991"
         style="font-size:16px;stroke-width:2;stroke-dasharray:none">Fast Network Link</tspan></text>
    <text
       xml:space="preserve"
       style="font-size:16px;line-height:1.25;font-family:sans-serif"
       x="160.97403"
       y="253.22025"
       id="text94"><tspan
         sodipodi:role="line"
         id="tspan94"
         x="160.97403"
         y="253.22025"
         style="font-size:16px">Industry</tspan></text>
    <text
       xml:space="preserve"
       style="font-size:16px;line-height:1.25;font-family:sans-serif"
       x="746.35126"
       y="253.05171"
       id="text95"><tspan
         sodipodi:role="line"
         id="tspan95"
         x="746.35126"
         y="253.05171"
         style="font-size:16px">Nature</tspan></text>
    <path
       style="fill:none;stroke:#000000;stroke-width:2;stroke-linecap:butt;stroke-linejoin:miter;stroke-dasharray:none;stroke-opacity:1"
       d="m 12.81066,226.63604 6.970694,6.36265 167.760966,-0.0273 5.83363,5.4791 5.83366,-5.481 176.59988,-0.0287 8.58695,-6.71902"
       id="path95"
       sodipodi:nodetypes="ccccccc" />
    <path
       style="fill:none;stroke:#000000;stroke-width:2;stroke-linecap:butt;stroke-linejoin:miter;stroke-dasharray:none;stroke-opacity:1"
       d="m 396,226.63604 7.05176,6.35506 365.22029,-0.46114 4.77252,4.41317 4.41986,-4.42477 400.92917,-0.50623 9.2528,-5.31543"
       id="path96"
       sodipodi:nodetypes="ccccccc" />
    <path
       id="path64-0-8"
       style="fill:#ffffff;stroke:#000000;stroke-width:2;stroke-dasharray:none"
       d="m 525.50194,512.80936 c -10e-6,8.33674 -18.44881,15.09498 -41.20658,15.09498 -22.75775,0 -41.29536,-6.75825 -41.29536,-15.09498 0,-1.25722 0.003,-4.79802 0.0389,-11.49824 13.18679,0.0375 82.41191,-7e-5 82.41191,-7e-5 0,0 0.0512,3.16158 0.0512,11.49831 z"
       sodipodi:nodetypes="sssccss" />
    <ellipse
       style="fill:#ffffff;fill-opacity:1;stroke:#000000;stroke-width:2;stroke-dasharray:none;stroke-opacity:1"
       id="path64-3-7-3"
       cx="484.23444"
       cy="501.095"
       rx="41.206562"
       ry="15.094986" />
    <path
       id="path64-0-3"
       style="fill:#ffffff;stroke:#000000;stroke-width:2;stroke-dasharray:none"
       d="m 697.50194,645.80936 c -10e-6,8.33674 -18.44881,15.09498 -41.20658,15.09498 -22.75775,0 -41.29536,-6.75825 -41.29536,-15.09498 0,-1.25722 0.003,-4.79802 0.0389,-11.49824 13.18679,0.0375 82.41191,-7e-5 82.41191,-7e-5 0,0 0.0512,3.16158 0.0512,11.49831 z"
       sodipodi:nodetypes="sssccss" />
    <ellipse
       style="fill:#ffffff;fill-opacity:1;stroke:#000000;stroke-width:2;stroke-dasharray:none;stroke-opacity:1"
       id="path64-3-7-1"
       cx="656.23444"
       cy="634.09497"
       rx="41.206562"
       ry="15.094986" />
    <path
       id="path64-0-80"
       style="fill:#ffffff;stroke:#000000;stroke-width:2;stroke-dasharray:none"
       d="m 266.50194,520.80936 c -10e-6,8.33674 -18.44881,15.09498 -41.20658,15.09498 -22.75775,0 -41.29536,-6.75825 -41.29536,-15.09498 0,-1.25722 0.003,-4.79802 0.0389,-11.49824 13.18679,0.0375 82.41191,-7e-5 82.41191,-7e-5 0,0 0.0512,3.16158 0.0512,11.49831 z"
       sodipodi:nodetypes="sssccss" />
    <ellipse
       style="fill:#ffffff;fill-opacity:1;stroke:#000000;stroke-width:2;stroke-dasharray:none;stroke-opacity:1"
       id="path64-3-7-36"
       cx="225.23442"
       cy="509.095"
       rx="41.206562"
       ry="15.094986" />
  </g>
</svg>
