<?xml version="1.0" encoding="UTF-8" standalone="no"?>
<!-- Created with Inkscape (http://www.inkscape.org/) -->

<svg
   version="1.1"
   id="svg1"
   width="320"
   height="208"
   viewBox="0 0 320 208"
   sodipodi:docname="world-map.svg"
   inkscape:version="1.4 (86a8ad7, 2024-10-11)"
   xmlns:inkscape="http://www.inkscape.org/namespaces/inkscape"
   xmlns:sodipodi="http://sodipodi.sourceforge.net/DTD/sodipodi-0.dtd"
   xmlns="http://www.w3.org/2000/svg"
   xmlns:svg="http://www.w3.org/2000/svg">
  <defs
     id="defs1" />
  <sodipodi:namedview
     id="namedview1"
     pagecolor="#ffffff"
     bordercolor="#000000"
     borderopacity="0.25"
     inkscape:showpageshadow="2"
     inkscape:pageopacity="0.0"
     inkscape:pagecheckerboard="0"
     inkscape:deskcolor="#d1d1d1"
     showgrid="false"
     inkscape:zoom="1.7412504"
     inkscape:cx="143.00069"
     inkscape:cy="135.82194"
     inkscape:window-width="1440"
     inkscape:window-height="877"
     inkscape:window-x="1272"
     inkscape:window-y="48"
     inkscape:window-maximized="1"
     inkscape:current-layer="g1" />
  <g
     inkscape:groupmode="layer"
     inkscape:label="Image"
     id="g1">
    <path
       style="fill:none;stroke:#101010;stroke-width:0.78992126;stroke-dasharray:none"
       d="m 103.15,10.64 c 1.15,-0.05 1.86,0.07 2.99,0.18 5.92,0.55 11.88,3.61 17.58,2.4 1.39,-0.3 2.78,-0.9 4.12,-1.35 1.94,-0.66 3.78,-1.06 5.61,-1.06 1.34,0 3.28,0.25 4.39,1.27 2.43,2.26 0.58,6.2 -1.41,7.99 -3.89,3.5 -9.79,3.76 -14.2,6.64 -3.06,2 -5.79,6.14 -9.35,7.07 -3.38,0.88 -5.88,-1.21 -5.98,-4.28 -0.06,-1.98 0.41,-2.71 -0.33,-4.86 -0.9,-2.62 -4.24,-4.13 -6.78,-2.64 -1.68,0.98 -2.23,2.4 -2.24,4.14 -0.01,1.57 0.91,3.74 0.79,5.24 -0.25,3.21 -1.19,5.46 -0.07,8.61 0.71,2 3.02,4.07 1.6,6.35 -2.22,3.56 -8.11,3.8 -11.69,4.99 -1.86,0.62 -3.35,1.1 -5.24,1.91 -4.26,1.82 -10.88,4.39 -13.09,8.82 -1.59,3.18 -0.96,6.39 -3.01,9.35 -1.69,2.44 -6.69,4.39 -7.34,7.11 -0.54,2.25 0.78,4.28 1.02,6.36 0.13,1.15 0.24,1.92 0.36,2.99 0.17,1.59 0.76,2.67 2.25,3.5 3.38,1.9 6.32,0.34 9.72,-0.28 1.35,-0.24 2.28,-0.23 3.74,-0.23 1.27,0 2.15,0.01 3.37,0.23 3.86,0.69 7.71,2.69 10.3,5.76 2.73,3.24 4.68,7.45 8.4,9.58 3.63,2.08 8.36,0.4 10.77,4.63 0.71,1.24 1.13,2.46 1.14,3.74 0.01,1.69 -0.67,3.93 -1.38,5.61 -2.44,5.79 -5.76,10.93 -9.45,16.09 -1.43,2 -2.97,4.15 -3.81,6.36 -0.84,2.22 -1.34,4.6 -2.43,6.73 -2.51,4.89 -4.93,7.29 -4.57,12.72 0.08,1.16 1.43,4.86 -0.42,5.3 -3.45,0.82 -6.31,-6.34 -7.32,-8.67 -1.46,-3.38 -2.47,-7.54 -2.72,-11.22 -0.06,-0.93 -0.16,-1.66 -0.28,-2.62 -0.14,-1.16 -0.11,-1.78 -0.11,-2.99 -0,-1.48 0,-2.48 0,-4.12 0,-3.43 0.27,-6.54 -0.91,-9.73 -2.25,-6.04 -9.32,-7.05 -12.06,-12.35 -1.31,-2.53 -0.35,-5.83 0.56,-8.23 0.73,-1.94 1.53,-3.87 1.05,-5.99 -0.92,-4.04 -5.2,-2.81 -7.67,-5.28 -2.39,-2.39 -2.33,-6.26 -4.45,-8.87 -2.17,-2.66 -6,-2.46 -9.06,-3.3 -2.96,-0.81 -4.97,-2.53 -6.23,-5.37 -1.63,-3.66 -1.76,-7.82 -3.29,-11.6 -1.74,-4.29 -4.49,-7.99 -4.48,-12.72 0,-1.29 0.15,-2.48 0.57,-3.74 0.72,-2.14 1.84,-3.76 2.47,-5.99 0.29,-1.03 0.46,-1.87 0.48,-2.99 0.03,-1.93 -0.42,-4.93 -2.07,-6.57 -1.8,-1.79 -4.8,-1.24 -6.9,-0.72 -4.15,1.04 -7.05,4.29 -11.22,5.22 -2.23,0.5 -4.95,-0.48 -5.75,-2.8 -0.8,-2.31 1.56,-4.53 3.14,-5.92 3.8,-3.35 9.3,-5.19 14.22,-5.65 0.96,-0.09 1.67,-0.18 2.62,-0.3 1.92,-0.23 2.95,-0.11 5.24,-0.11 1.07,0 1.87,-0.03 2.99,0.11 0.9,0.11 1.39,0.21 2.24,0.25 0.87,0.05 1.41,0.06 2.24,0.17 2.6,0.34 4.89,0.39 7.48,0.7 1.09,0.13 1.6,0.24 2.62,0.26 1.22,0.03 1.82,0.01 2.99,0.01 1.46,-0 2.5,0.09 4.12,-0.39 5.37,-1.6 7.07,-7.33 11.97,-9.51 1.63,-0.73 3.7,-0.96 5.24,-0.94 3.63,0.03 7.8,1.45 11.6,0.9 4.92,-0.72 10.4,-5.71 15.34,-5.92 m 118.6,4.81 c 2.68,-0.48 4.98,0.01 7.86,0.57 4.26,0.83 8.78,1.98 13.09,2.84 1.84,0.37 3.57,0.53 5.24,0.52 3.08,-0.01 6.29,-0.9 9.35,-1.11 1.51,-0.1 2.38,-0.44 4.12,-0.31 5.76,0.41 11.49,3.59 17.21,4.62 1.02,0.18 1.64,0.17 2.62,0.17 1.04,0.01 1.63,0.03 2.62,-0.01 1.07,-0.05 1.87,-0.28 2.99,-0.31 1.59,-0.04 3.31,0.37 4.86,0.71 3.3,0.72 13.34,3.96 12.95,8.59 -0.18,2.13 -3.04,2.28 -4.34,2.24 -3.86,-0.12 -7.91,-1.43 -11.97,-2.01 -1.52,-0.22 -2.44,-0.22 -4.12,-0.22 -2.21,0 -6.08,-0.09 -7.63,1.95 -2.53,3.33 2.82,5.12 3.23,7.77 0.21,1.36 -0.76,2.69 -1.65,3.74 -1.1,1.29 -2.32,2.4 -2.08,4.12 0.37,2.66 3.65,4.33 5.41,6.36 1.88,2.16 3.65,4.63 2.58,7.48 -2.13,5.67 -10.02,7.7 -15.19,9.25 -2.31,0.69 -6.75,1.27 -7.62,3.85 -0.48,1.42 0.51,2.59 1.25,3.73 0.87,1.34 1.77,2.81 1.74,4.49 -0.05,2.77 -2.75,2.66 -3.7,4.9 -1.68,3.97 1.37,10.5 3.92,13.42 1.7,1.95 5.18,2.88 6.82,4.91 0.61,0.75 1.42,2.23 0.43,2.94 -1,0.72 -2.52,0.06 -3.59,-0.25 -3.17,-0.94 -6.13,-2.32 -8.98,-4.02 -3.96,-2.35 -8.09,-5.74 -9.16,-10.31 -0.35,-1.49 -0.37,-2.65 -0.51,-4.12 -0.34,-3.57 -1.47,-7.12 -3.01,-10.48 -0.73,-1.59 -1.61,-2.86 -3.05,-3.96 -1.8,-1.37 -4.25,-2.15 -6.36,-1.58 -2.91,0.79 -5.56,5.18 -5.92,7.78 -0.15,1.12 -0.2,1.88 -0.34,2.99 -0.28,2.27 -0.89,6.7 -4.22,6.16 -3.4,-0.55 -3.62,-4.89 -4.09,-7.65 -0.79,-4.74 -1.86,-9.73 -5.07,-13.45 -1.91,-2.22 -4.64,-3.37 -7.31,-3.37 -1.05,0 -2,0.08 -2.98,0.58 -3.22,1.63 -1.11,4.94 -2.83,7.23 -1.42,1.9 -6.68,2.99 -6.68,5.65 0,1.56 2.1,2.37 2.98,3.41 1.23,1.45 1.47,3.5 0.97,5.2 -1.48,5.13 -7.66,7.7 -9.84,12.35 -1.58,3.38 0.13,6.97 -0.68,10.48 -0.86,3.69 -4.12,5.7 -5.57,8.98 -0.45,1.03 -0.79,3.46 -0.83,4.49 -0.07,1.79 -0.26,2.41 -0.38,4.49 -0.27,4.53 -3.74,7.57 -7.1,10.32 -1.3,1.06 -2.86,2.35 -4.49,2.65 -5.87,1.09 -3.38,-6.75 -4.83,-9.97 -1.85,-4.13 -5.22,-5.51 -5.27,-10.1 -0.01,-1.19 0.03,-2.23 0.23,-3.37 0.33,-1.84 1.06,-3.58 0.66,-5.24 -0.64,-2.63 -3.27,-4.36 -3.99,-7.11 -0.27,-1.02 -0.26,-1.95 -0.27,-2.99 -0.01,-1.29 0,-2.1 -0,-3.37 -0,-1.67 0.02,-3.35 -0.83,-4.86 -1.44,-2.56 -4.27,-3.01 -6.65,-2.99 -7.39,0.05 -15.4,4.43 -21.63,-1.61 -2.31,-2.24 -3.06,-5.24 -3.06,-8.12 0,-2.21 0.39,-4.94 1.54,-7.11 2.63,-4.93 7.51,-8.6 10.23,-13.47 1.91,-3.42 0.06,-6.42 1.76,-9.72 1.28,-2.48 5.24,-3.14 6.55,-5.63 2.21,-4.21 -6.97,-4.61 -4.05,-9.33 2.46,-3.97 8.58,-1.57 12.03,-0.71 4.1,1.03 7.9,2.13 11.17,-1.55 1.39,-1.56 1.34,-3.32 -0.7,-3.5 -1.26,-0.11 -1.97,0.18 -3.37,0.12 -1.25,-0.06 -2.31,-0.27 -3.35,-0.89 -1.89,-1.13 -1.73,-3.46 -0.31,-5.02 2.81,-3.09 6.89,-4.28 10.76,-4.54 1.16,-0.08 1.84,-0.22 2.99,-0.32 1.57,-0.14 2.98,0.16 4.49,0.33 2.88,0.32 5.86,1.1 8.61,1.1 1.07,0 1.63,0.03 2.62,-0.01 1.27,-0.06 3.11,-0.38 4.49,-0.57 3.48,-0.49 7.8,-0.89 11.22,-1.34 4.21,-0.56 7.48,-2.98 11.22,-4.64 2.12,-0.94 4.5,-1.83 6.73,-2.24 M 157.4,52.59 c 4.08,-0.07 6.35,3.29 10.1,4.43 1.56,0.47 2.91,0.3 4.49,0.2 1.3,-0.09 2.06,-0.05 3.37,-0.03 1.08,0.01 1.91,0.1 2.99,0.28 1.76,0.29 5.95,0.74 6.19,3.1 0.14,1.42 -1.26,2.57 -2.44,3.14 -3.43,1.65 -8.22,-1.08 -11.6,0.07 -2.13,0.73 -3.13,2.98 -5.61,3.08 -4.59,0.19 -3.55,-5.14 -6.77,-6.45 -3.84,-1.57 -8.28,3.58 -11.81,1.2 -1.75,-1.18 -0.07,-3.32 1.02,-4.31 2.87,-2.61 6.34,-4.65 10.09,-4.71 m 23.8,15.85 c 1.49,-1.08 5.67,0.77 6.8,1.71 1.08,0.91 1.37,2.2 1.84,3.5 0.97,2.71 4.3,8.6 1.13,10.99 -2.97,2.25 -4.73,-3.26 -4.97,-5.01 -0.14,-0.96 -0.12,-1.58 -0.35,-2.62 -0.56,-2.52 -2.14,-3.37 -3.87,-5.27 -0.69,-0.76 -1.74,-2.46 -0.58,-3.31 m 109.02,50.35 c 3.07,-0.85 4.03,1.99 6.73,2.59 1.05,0.23 5.17,-0.84 6.32,-0.2 1.92,1.07 1.88,4.17 2.82,5.98 0.92,1.75 2.53,2.84 3.63,4.49 3.91,5.87 -3.21,9.21 -7.16,12.78 -2.32,2.1 -4.75,5.01 -7.86,5.72 -7.16,1.65 -6.05,-7.13 -11.6,-8.59 -1.02,-0.27 -1.93,-0.44 -2.99,-0.47 -3.15,-0.09 -6.13,1.67 -8.98,2.74 -1.72,0.65 -4.6,1.69 -6.24,0.31 -2.24,-1.89 0.38,-5.86 0.95,-8.01 0.65,-2.47 -0.03,-4.19 1.71,-6.33 1.83,-2.24 5.17,-3.43 7.7,-4.52 2.14,-0.93 3.75,-2.19 5.61,-3.55 1.43,-1.05 2.44,-1.25 4.12,-1.32 2.06,-0.09 3.28,-1.09 5.24,-1.63"
       id="path2"
       sodipodi:nodetypes="ccsssssssssscsssssssssssscssssccssssssssssssssssssscsssssssssssssssscssssccsssssssssssssssssssssssssssssssssssssssscsssssssssssssscsscscssssssssssssssssssssssccsssssssssssccssssssccsssssssssssssssc" />
  </g>
</svg>
