<svg xml:space="preserve" xmlns="http://www.w3.org/2000/svg" viewBox="0 0 300 200"><defs><linearGradient id="a" gradientUnits="userSpaceOnUse" x1="27.5" y1="3" x2="152" y2="63.5"><stop offset=".1" stop-color="#76b3e1"/><stop offset=".3" stop-color="#dcf2fd"/><stop offset="1" stop-color="#76b3e1"/></linearGradient><linearGradient id="b" gradientUnits="userSpaceOnUse" x1="95.8" y1="32.6" x2="74" y2="105.2"><stop offset="0" stop-color="#76b3e1"/><stop offset=".5" stop-color="#4377bb"/><stop offset="1" stop-color="#1f3b77"/></linearGradient><linearGradient id="c" gradientUnits="userSpaceOnUse" x1="18.4" y1="64.2" x2="144.3" y2="149.8"><stop offset="0" stop-color="#315aa9"/><stop offset=".5" stop-color="#518ac8"/><stop offset="1" stop-color="#315aa9"/></linearGradient><linearGradient id="d" gradientUnits="userSpaceOnUse" x1="75.2" y1="74.5" x2="24.4" y2="260.8"><stop offset="0" stop-color="#4377bb"/><stop offset=".5" stop-color="#1a336b"/><stop offset="1" stop-color="#1a336b"/></linearGradient></defs><rect style="fill:#fff;fill-opacity:1;stroke:none;stroke-width:1.00157" width="300" height="200" ry="0"/><path style="fill:#558eca;fill-opacity:1;stroke:none;stroke-width:1px;stroke-linecap:butt;stroke-linejoin:miter;stroke-opacity:1" d="M204.4 66c-1.4 15.7-12 29-24.2 38.2-10 3.4-22.2 2.6-28.7-6.9-7.7-6.6-14.6-15.3-14.8-25.9-4.6-1-5.7 12.5-9.1 17.1-5.3 7.2-13 11-20.8 14.8-10 4.8-19.4 8.2-25.4 16.3-6 8-3.2 19-8.1 28.6-5 9.4 11.6 9.2 13.4 18.6 4 8.9 14.5 14 15.3 24.6.5 4.4-4.1 11 3.7 8.6h69.5c14-3.6 46.5-36.5 51.7-44 5.7-8.4 26-8.1 25.3 5-5.1 11.3 3.2 16 1.2 25.9-3 9.7-13.8 9.5-21.3 13.1h63.7c-.5-9.5-7.6-13.5-8.8-25a157 157 0 0 0-3.4-29c-1.8-9-2.6-18.9-7.9-26.4-6.4-9-17.4-13.5-26.8-19.3-9-5.5-19.9-7.8-28-14.5-5.7-4.7-12.4-8.5-14-17.3-.3-1.1-1.2-2.6-2.5-2.6z"/><path style="fill:#3967b1;fill-opacity:1" d="M53.7 189.2c-.7-6.4 3-13.3-.5-19.4-5.2-6.8-13.8-9.4-21.5-12-3-1.2-7-1.7-7.9-5.3-.8-5.3 5.5-9.8 10.2-7.5 7.7 1 13.8 6.3 21 8.3 8 .4 16.8.6 23.2 6.1 2.8 2.6 5.6 5.2 7.1 8.7 1.9 3.7 3.8 7.8 7.7 9.7 4.4 4.7 7.5 11 7.7 17.4.4 4.7-3.6 7.6-8 6.3H53.1l.6-12.3z"/><path style="fill:#4171b8;fill-opacity:1" d="M179.4 201.2c3.3-5 7.9-4.7 12.3-8.6 31.9-28 9.1-9.5 40-37.4 4.8-4.4 12.6-4 16.8.6 4.5 5.6-2.4 12 .3 17.6 4.2 4.8 5.8 12 .8 17.1-4 4.3-10.6 8-16.5 6.2-1.2 5.7-5.6 7.6-10.8 6.8l-42.6-.2z"/><path d="M79.7.4A36.2 36.2 0 0 0 46 19.8c-5.4 9.6-11.2 19.2-16.4 29-3.2 8.6-.9 19 6 25.2 5.6 4.2.1 5.3-3.7 6.2-3.3 1.2-7 1.7-10 3.4L2 120.2c23.2 17 49.8 31.8 79.1 33.3 14.2.7 30.9-4.3 37-18.3 6.3-12.2 14-23.7 19.3-36.3 2.6-10.4-3.1-21.3-11.4-27.3l18.1-6 18.2-32.1a170.4 170.4 0 0 0-60-30C95 2 87.4 1.2 79.8.6Z" style="fill:#fff;fill-opacity:1;stroke:none;stroke-width:1.02282" transform="matrix(.73327 0 0 .68267 80.4 96.8)"/><path d="M198.3 120S159.9 93.1 130 99.3l-2.2.7c-4.3 1.4-8 3.5-10.1 6.2l-1.5 2-10.8 18 18.8 3.4c8 4.9 18.2 7 27.6 4.9l33.3 6.2z" fill="#76b3e1"/><path d="M163 35S110-4 69 5l-3 1c-6 2-11 5-14 9l-2 3-15 26 26 5c11 7 25 10 38 7l46 9z" opacity=".3" fill="url(#a)" style="fill:url(#a)" transform="matrix(.72522 0 0 .68892 80 95.9)"/><path d="m117.8 120-3 .7c-12.2 3.4-15.9 14.5-9.3 24.1 7.2 9 22.4 13.8 34.8 10.3l45-14.4s-38.5-26.9-67.5-20.7Z" fill="#518ac8"/><path d="m52 35-4 1c-17 5-22 21-13 35 10 13 31 20 48 15l62-21S92 26 52 35Z" opacity=".3" fill="url(#b)" style="fill:url(#b)" transform="matrix(.72522 0 0 .68892 80 95.9)"/><path d="M134 80a45 45 0 0 0-48-15L24 85 4 120l112 19 20-36c4-7 3-15-2-23z" fill="url(#c)" style="fill:url(#c)" transform="matrix(.72522 0 0 .68892 80 95.9)"/><path d="M114 115a45 45 0 0 0-48-15L4 120s53 40 94 30l3-1c17-5 23-21 13-34z" fill="url(#d)" style="fill:url(#d)" transform="matrix(.72522 0 0 .68892 80 95.9)"/><path style="fill:#4273b9;fill-opacity:1;stroke:none" d="m197.8 63-3 7c-1.2-1.8-3.3-4-3.7-6-.5-2.2 1.6-4 1-6-1.3-4.3-9.4-7.7-13.3-8l1 7c-6-4.8-14.7-3-22-3v-1c7.2-.6 4.9-5 7.5-10 1.4-2.9 4.8-6.5 7.5-8l-2 4 17 5 3-8 7-2c2.5-6.4-7-10.1-11-14h7c-.8-6.7-12.2-8.6-18-9v-1l10-1V8l-9-1V6h8V5l-8-2V2h4V1l-4-1v-1l3-1c-2-1.4-4.5-.9-7-1.4-7.8-1.5-16.2-.6-24-.6-3 0-7.4-.9-10 .5C134-1.1 131.2 7 130 12c-1.5 6.3 1.6 12.6.7 19-.4 2.4-2.9 3.6-3 6-.2 2.4 1.1 5.5 1.6 8 .7 3.7.5 8.5 2.4 12 1.1 2.2 3.6 2.5 4.6 5 1.4 3.4 1.4 7.5 2.7 11 3 8 9.5 13.3 15.7 19 1.4 1.3 2.6 3.4 4.3 4.5 2.2 1.3 7 1.4 9.7 1.5 3.8 0 8.5.4 12-1.5A58.4 58.4 0 0 0 196.4 80c3.1-4.4 10-15.2 1.4-17m-8-66v1c5.9 1.2 6.9 4.2 9.5 9 1.5 2.9 4.3 5.8 5.3 9 1.8 6.2.2 15.4.2 22h1l5-5v10l-3-2-1 11 4-2-2 7-5-3-1 4c1.5-.2 3.6.8 5 .3 5-2 3.2-8.6 3-12.3l2 1c0-4.2 1-10.1-.2-14-.7-2-2.5-2.8-2.8-5-1.5-9.4 3.6-25.2-6.4-31.5-1.7-1.1-4.7-.5-6.6-.5-2.6 0-4.6.3-7 1m-15 13-2 4 2 5-11-1 1-4 7-4h3m14 17.3c.7 0 .1.5-.4.3l.4-.3m7 5.7-9-3c3.3-2.5 7-.4 9 3m-28.4.6-.3.7.3-.7m15.4-.6v4l-3-1v-2l1-1h2m9 1v1l-4 2 1-4 3 1m-37 0 2 3c-2.5-.3-3.6-1-2-3m21 0-1 1 1-1m-28 3-3-2 3 2m29-1-1 1 1-1m-18 4c-.4 5-1.8 8-5.9 10.5-1.5.9-2.9 3.4-5 2-2.2-1.5-.4-4.2.9-5.5 2.7-3 6.2-5.7 10-7m46 9h3l-1-2-2 2m-19 14-4 4 3 3-12-1c.4-2 0-5.5 1.1-6.9 1-1.2 2.6-.9 3.9-1.6 4.4-2.8 7.4-4.3 8 2.5m4-1-1 1 1-1m-15 3c1.1 3.1 3 2.8 6 2v-1l-6-1m12 8c0 1.7-.6 4-.4 5.6.3 2.5 2.8 5 2 7.7-.7 2.6-5 5.4-7.1 2.5-1.7-2.3 0-6.5.5-8.8l-7-1c2.8-4.1 7-6 12-6m-20 7-1 1z"/><path style="fill:#b2b2b2;fill-opacity:1;stroke:none;stroke-width:1.00157" d="M0 0v200h300V0Zm1 1h298v198H1Z"/></svg>