<svg xmlns="http://www.w3.org/2000/svg" viewBox="0 0 300 200"><rect style="fill:#fff;fill-opacity:1;stroke:none;stroke-width:1.00157" width="300" height="200" ry="0"/><path style="stroke-width:1.30213" d="M35 150c-10.5 0-19 10.9-19 18v32l4.6-.2H54V168c0-7.1-8.5-18-19-18z"/><path style="stroke-width:1.60908" d="M16 0v81c0 9.5 8.5 17 19 17s19-7.5 19-17V0H16Z"/><path stroke="#000" style="stroke-width:1.14509" d="M35.6 60.6h74.9v36.9H35.6z"/><path d="M142.2 23.6a45 46.5 0 0 0-45 46.6 45 46.5 0 0 0 45 46.5 45 46.5 0 0 0 33.4-15.5 25.2 12.4 0 0 1-8.4.8 25.2 12.4 0 0 1-25.3-12.4 25.2 12.4 0 0 1 25.3-12.3 25.2 12.4 0 0 1 18.6 4 45 46.5 0 0 0 1.4-11.1 45 46.5 0 0 0-45-46.6z" style="stroke-width:1.57745"/><path style="fill:#ef3936;fill-opacity:1;stroke:none;stroke-width:1.08265" d="M221.2 76c-7.6.2-12.7 8.7-12.7 19.4s6 17.5 12.7 19.4c5.7.8 6.3.8 11.3-.7 3.6 1.2 4.1 1.2 7.8.6 7.1-1.7 13.2-8.6 13.2-19.3 0-10.6-1.4-19.2-14.4-19.3-3.5 0-6.5.5-9.2 3.6-2.3-3.2-5.6-3.7-8.7-3.7z"/><ellipse ry="9.2" rx="8" cy="50.5" cx="168" stroke="#fff" fill="#fff" style="stroke-width:1.49817"/><path style="fill:#b2b2b2;fill-opacity:1;stroke:none;stroke-width:1.00157" d="M0 0v200h300V0Zm1 1h298v198H1Z"/><path style="fill:#000;fill-opacity:1;stroke:none;stroke-width:1.38135px;stroke-linecap:butt;stroke-linejoin:miter;stroke-opacity:1" d="M229.5 79.2c-1.2-2.8-1-5.2.1-8l1.4.2c-1.3 2.6-1 5-.4 7.6l-.7.7z"/><circle cy="52.3" cx="169.4" stroke="#000" style="stroke-width:1.43778" r="5.8"/><ellipse ry="10" rx="8.6" cy="50.4" cx="142" stroke="#fff" fill="#fff" style="stroke-width:1.61929"/><circle cy="52.2" cx="143.4" stroke="#000" style="stroke-width:1.61929" r="6.5"/><rect style="fill:#fff;fill-opacity:1;stroke:none;stroke-width:3.35992" width="2.5" height="10.8" x="148.7" y="94.6" ry="1.1"/><ellipse style="fill:#fff;fill-opacity:1;stroke:none;stroke-width:2.59136;stroke-opacity:1" cx="117.7" cy="91.5" rx="3" ry="2" transform="rotate(-18.1)"/><ellipse style="fill:#fff;fill-opacity:1;stroke:none;stroke-width:2.59136;stroke-opacity:1" cx="143.7" cy="100" rx="3" ry="2" transform="rotate(-18.1)"/></svg>