<svg xml:space="preserve" xmlns="http://www.w3.org/2000/svg" viewBox="0 0 300 200"><rect style="fill:#fff;fill-opacity:1;stroke:none;stroke-width:1.00157" width="300" height="200" ry="0"/><path style="fill:none;stroke:#000;stroke-width:.883068px;stroke-linecap:butt;stroke-linejoin:miter;stroke-opacity:1" d="M44.1 126.7v40l40.3 19.5 40.1-20v-39.5l-40.2-19.6Z"/><g transform="matrix(.88307 0 0 .88307 29.8 93.8)"><circle style="fill:#b1fb7b;fill-opacity:1;stroke:#000;stroke-width:.75;stroke-opacity:1" cx="80.3" cy="59.4" r="15"/><text xml:space="preserve" style="font-size:16px;line-height:1.25;font-family:sans-serif" x="75.3" y="65.2"><tspan x="75.3" y="65.2">4</tspan></text></g><g transform="matrix(.88307 0 0 .88307 29.8 93.8)"><circle style="fill:#eb483f;fill-opacity:1;stroke:#000;stroke-width:.75;stroke-opacity:1" cx="43.1" cy="60.3" r="15"/><text xml:space="preserve" style="font-size:16px;line-height:1.25;font-family:sans-serif" x="37.8" y="66.1"><tspan x="37.8" y="66.1">1</tspan></text></g><path style="fill:none;stroke:#000;stroke-width:.883068px;stroke-linecap:butt;stroke-linejoin:miter;stroke-opacity:1" d="M124.5 126.7v40l40.3 19.5 40-20v-39.5l-40.2-19.6z"/><g transform="matrix(.88307 0 0 .88307 31 91.8)"><circle style="fill:#656af6;fill-opacity:1;stroke:#000;stroke-width:.75;stroke-opacity:1" cx="172.1" cy="72.1" r="15"/><text xml:space="preserve" style="font-size:16px;line-height:1.25;font-family:sans-serif" x="166.8" y="77.8"><tspan x="166.8" y="77.8">5</tspan></text></g><g transform="matrix(.88307 0 0 .88307 31.5 91.1)"><circle style="fill:#fffea6;fill-opacity:1;stroke:#000;stroke-width:.75;stroke-opacity:1" cx="150.9" cy="44.9" r="15"/><text xml:space="preserve" style="font-size:16px;line-height:1.25;font-family:sans-serif" x="145.8" y="50.7"><tspan x="145.8" y="50.7">3</tspan></text></g><g transform="matrix(.88307 0 0 .88307 32 91.9)"><circle style="fill:#ed6f2d;fill-opacity:1;stroke:#000;stroke-width:.75;stroke-opacity:1" cx="130.3" cy="72.1" r="15"/><text xml:space="preserve" style="font-size:16px;line-height:1.25;font-family:sans-serif" x="125.1" y="78"><tspan x="125.1" y="78">2</tspan></text></g><path style="fill:none;stroke:#000;stroke-width:.883068px;stroke-linecap:butt;stroke-linejoin:miter;stroke-opacity:1" d="M204.9 126.7v40l40.2 19.5 40.1-20v-39.5L245 107.1z"/><g transform="matrix(.88307 0 0 .88307 32.8 94)"><circle style="fill:#eb483f;fill-opacity:1;stroke:#000;stroke-width:.75;stroke-opacity:1" cx="240.2" cy="59.7" r="15"/><text xml:space="preserve" style="font-size:16px;line-height:1.25;font-family:sans-serif" x="234.9" y="65.6"><tspan x="234.9" y="65.6">1</tspan></text></g><path style="fill:none;stroke:#000;stroke-width:2.5;stroke-linecap:round;stroke-linejoin:miter;stroke-dasharray:none;stroke-opacity:1" d="m24.6 18 17 13.2c2 2 2 4.8 1.8 7.6M56.4 73.6l-17-13.2c-2-2.2-2-5-1.8-7.6M9.8 36.2l19.5 14.6c4.9 1 9.2-2.6 12.2-6.1 3.8-4.9 11.6-4.5 16-.6 4.5 3.8 9.1 7.4 14 10.8" transform="translate(.8 1) scale(.87891)"/><text xml:space="preserve" style="font-size:10.6667px;line-height:1.25;font-family:sans-serif" x="31.4" y="12.4" transform="rotate(40 -.9 1.6) scale(.87891)"><tspan x="31.4" y="12.4">0</tspan></text><text xml:space="preserve" style="font-size:10.6667px;line-height:1.25;font-family:sans-serif" x="39.1" y="12.4" transform="rotate(40 -.9 1.6) scale(.87891)"><tspan x="39.1" y="12.4">0</tspan></text><text xml:space="preserve" style="font-size:10.6667px;line-height:1.25;font-family:sans-serif" x="47.8" y="11.9" transform="rotate(40 -.9 1.6) scale(.87891)"><tspan x="47.8" y="11.9">1</tspan></text><text xml:space="preserve" style="font-size:10.6667px;line-height:1.25;font-family:sans-serif" x="66.9" y="11.5" transform="rotate(40 -.9 1.6) scale(.87891)"><tspan x="66.9" y="11.5">1</tspan></text><text xml:space="preserve" style="font-size:10.6667px;line-height:1.25;font-family:sans-serif" x="75.3" y="11.6" transform="rotate(40 -.9 1.6) scale(.87891)"><tspan x="75.3" y="11.6">0</tspan></text><text xml:space="preserve" style="font-size:10.6667px;line-height:1.25;font-family:sans-serif" x="83.4" y="11.1" transform="rotate(40 -.9 1.6) scale(.87891)"><tspan x="83.4" y="11.1">1</tspan></text><path style="fill:none;stroke:#000;stroke-width:2.5;stroke-linecap:round;stroke-linejoin:miter;stroke-dasharray:none;stroke-opacity:1" d="m24.6 18 17 13.2c2 2 2 4.8 1.8 7.6M56.4 73.6l-17-13.2c-2-2.2-2-5-1.8-7.6M9.8 36.2l19.5 14.6c4.9 1 9.2-2.6 12.2-6.1 3.8-4.9 11.6-4.5 16-.6 4.5 3.8 9.1 7.4 14 10.8" transform="translate(72.8 4.6) scale(.87891)"/><text xml:space="preserve" style="font-size:10.6667px;line-height:1.25;font-family:sans-serif" x="31.4" y="12.4" transform="rotate(40 30 102.3) scale(.87891)"><tspan x="31.4" y="12.4">1</tspan></text><text xml:space="preserve" style="font-size:10.6667px;line-height:1.25;font-family:sans-serif" x="39.1" y="12.4" transform="rotate(40 30 102.3) scale(.87891)"><tspan x="39.1" y="12.4">1</tspan></text><text xml:space="preserve" style="font-size:10.6667px;line-height:1.25;font-family:sans-serif" x="47.8" y="11.9" transform="rotate(40 30 102.3) scale(.87891)"><tspan x="47.8" y="11.9">1</tspan></text><text xml:space="preserve" style="font-size:10.6667px;line-height:1.25;font-family:sans-serif" x="66.9" y="11.5" transform="rotate(40 30 102.3) scale(.87891)"><tspan x="66.9" y="11.5">0</tspan></text><text xml:space="preserve" style="font-size:10.6667px;line-height:1.25;font-family:sans-serif" x="75.3" y="11.6" transform="rotate(40 30 102.3) scale(.87891)"><tspan x="75.3" y="11.6">0</tspan></text><text xml:space="preserve" style="font-size:10.6667px;line-height:1.25;font-family:sans-serif" x="83.4" y="11.1" transform="rotate(40 30 102.3) scale(.87891)"><tspan x="83.4" y="11.1">1</tspan></text><path style="fill:none;stroke:#000;stroke-width:2.5;stroke-linecap:round;stroke-linejoin:miter;stroke-dasharray:none;stroke-opacity:1" d="m24.6 18 17 13.2c2 2 2 4.8 1.8 7.6M56.4 73.6l-17-13.2c-2-2.2-2-5-1.8-7.6M9.8 36.2l19.5 14.6c4.9 1 9.2-2.6 12.2-6.1 3.8-4.9 11.6-4.5 16-.6 4.5 3.8 9.1 7.4 14 10.8" transform="translate(17.3 -21.3) scale(.87891)"/><text xml:space="preserve" style="font-size:10.6667px;line-height:1.25;font-family:sans-serif" x="31.4" y="12.4" transform="rotate(40 37.9 13) scale(.87891)"><tspan x="31.4" y="12.4">1</tspan></text><text xml:space="preserve" style="font-size:10.6667px;line-height:1.25;font-family:sans-serif" x="39.1" y="12.4" transform="rotate(40 37.9 13) scale(.87891)"><tspan x="39.1" y="12.4">0</tspan></text><text xml:space="preserve" style="font-size:10.6667px;line-height:1.25;font-family:sans-serif" x="47.8" y="11.9" transform="rotate(40 37.9 13) scale(.87891)"><tspan x="47.8" y="11.9">1</tspan></text><text xml:space="preserve" style="font-size:10.6667px;line-height:1.25;font-family:sans-serif" x="66.9" y="11.5" transform="rotate(40 37.9 13) scale(.87891)"><tspan x="66.9" y="11.5">0</tspan></text><text xml:space="preserve" style="font-size:10.6667px;line-height:1.25;font-family:sans-serif" x="75.3" y="11.6" transform="rotate(40 37.9 13) scale(.87891)"><tspan x="75.3" y="11.6">1</tspan></text><text xml:space="preserve" style="font-size:10.6667px;line-height:1.25;font-family:sans-serif" x="83.4" y="11.1" transform="rotate(40 37.9 13) scale(.87891)"><tspan x="83.4" y="11.1">1</tspan></text><path style="fill:none;stroke:#000;stroke-width:2.5;stroke-linecap:round;stroke-linejoin:miter;stroke-dasharray:none;stroke-opacity:1" d="m24.6 18 17 13.2c2 2 2 4.8 1.8 7.6M56.4 73.6l-17-13.2c-2-2.2-2-5-1.8-7.6M9.8 36.2l19.5 14.6c4.9 1 9.2-2.6 12.2-6.1 3.8-4.9 11.6-4.5 16-.6 4.5 3.8 9.1 7.4 14 10.8" transform="translate(55.7 27.4) scale(.87891)"/><text xml:space="preserve" style="font-size:10.6667px;line-height:1.25;font-family:sans-serif" x="31.4" y="12.4" transform="rotate(40 -9.8 90.2) scale(.87891)"><tspan x="31.4" y="12.4">0</tspan></text><text xml:space="preserve" style="font-size:10.6667px;line-height:1.25;font-family:sans-serif" x="39.1" y="12.4" transform="rotate(40 -9.8 90.2) scale(.87891)"><tspan x="39.1" y="12.4">1</tspan></text><text xml:space="preserve" style="font-size:10.6667px;line-height:1.25;font-family:sans-serif" x="47.8" y="11.9" transform="rotate(40 -9.8 90.2) scale(.87891)"><tspan x="47.8" y="11.9">1</tspan></text><text xml:space="preserve" style="font-size:10.6667px;line-height:1.25;font-family:sans-serif" x="66.9" y="11.5" transform="rotate(40 -9.8 90.2) scale(.87891)"><tspan x="66.9" y="11.5">0</tspan></text><text xml:space="preserve" style="font-size:10.6667px;line-height:1.25;font-family:sans-serif" x="75.3" y="11.6" transform="rotate(40 -9.8 90.2) scale(.87891)"><tspan x="75.3" y="11.6">1</tspan></text><text xml:space="preserve" style="font-size:10.6667px;line-height:1.25;font-family:sans-serif" x="83.4" y="11.1" transform="rotate(40 -9.8 90.2) scale(.87891)"><tspan x="83.4" y="11.1">0</tspan></text><path style="fill:#b2b2b2;fill-opacity:1;stroke:#000;stroke-width:1;stroke-linecap:round;stroke-dasharray:none;stroke-opacity:1" d="M148.2 30.8 162.6 46 147.9 61h30.8v20.8h-15.8l33.4 21.5 34.9-21.5H212V34s0-2-.6-2.7c-.5-.5-2-.6-2-.6Z"/><path style="fill:#b2b2b2;fill-opacity:1;stroke:none;stroke-width:1.00157" d="M0 0v200h300V0Zm1 1h298v198H1Z"/></svg>