<svg xml:space="preserve" xmlns="http://www.w3.org/2000/svg" viewBox="0 0 300 200"><defs><linearGradient id="a" gradientUnits="userSpaceOnUse" x1="27.5" y1="3" x2="152" y2="63.5"><stop offset=".1" stop-color="#76b3e1"/><stop offset=".3" stop-color="#dcf2fd"/><stop offset="1" stop-color="#76b3e1"/></linearGradient><linearGradient id="b" gradientUnits="userSpaceOnUse" x1="95.8" y1="32.6" x2="74" y2="105.2"><stop offset="0" stop-color="#76b3e1"/><stop offset=".5" stop-color="#4377bb"/><stop offset="1" stop-color="#1f3b77"/></linearGradient><linearGradient id="c" gradientUnits="userSpaceOnUse" x1="18.4" y1="64.2" x2="144.3" y2="149.8"><stop offset="0" stop-color="#315aa9"/><stop offset=".5" stop-color="#518ac8"/><stop offset="1" stop-color="#315aa9"/></linearGradient><linearGradient id="d" gradientUnits="userSpaceOnUse" x1="75.2" y1="74.5" x2="24.4" y2="260.8"><stop offset="0" stop-color="#4377bb"/><stop offset=".5" stop-color="#1a336b"/><stop offset="1" stop-color="#1a336b"/></linearGradient></defs><rect style="fill:#fff;fill-opacity:1;stroke:none;stroke-width:1.00157" width="300" height="200" ry="0"/><path style="fill:#b2b2b2;fill-opacity:1;stroke:none;stroke-width:1.00157" d="M0 0v200h300V0Zm1 1h298v198H1Z"/><path style="fill:#000;fill-opacity:1;stroke:#000;stroke-width:1.14154px;stroke-linecap:butt;stroke-linejoin:miter;stroke-opacity:1" d="M65.5 139.9h80l.7 29.3-9.9-.4-5.4 13.7H175l-5.8-14.3-8.2.3v-28.6h74.2l3.1-6.1-175.6-.7z"/><path style="fill:#000;fill-opacity:1;stroke:none;stroke-width:1.14154px;stroke-linecap:butt;stroke-linejoin:miter;stroke-opacity:1" d="M161.5 133.5s-2.7-19-1.2-23.9c1.6-4.9 2.5-4 4.3-5.6 1.4-1.3 4.7-2.9 4.7-2.9l.4-3s-9.8-1.7-14.8-2c-1.4-.2-2.8-.2-4.3 0-5.2.3-15.7 2-15.7 2l.4 3s3.8 1.7 5.4 2.9c2.2 1.6 3.8.7 5.8 5.6 2 5-.6 23.8-.6 23.8z"/><path style="fill:#000;fill-opacity:1;stroke-width:.923093;stroke-linecap:round" d="M169 114.1h3.4A61.6 4.2 0 0 1 234 110a61.6 4.2 0 0 1 61.6 4.2h3.4c-10-6.3-24.2-4.2-35.8-6-9.7-.5-19.5-.7-29.2-.7-21.3.8-43.4-.6-64 5.6z"/><path d="M287 48s-34.3-25.2-60.8-19.4l-1.9.6a18.4 18.4 0 0 0-9 5.8l-1.3 2-9.7 16.8L221 57a32.7 32.7 0 0 0 24.5 4.5l29.7 5.8z" fill="#76b3e1"/><path d="M163 35S110-4 69 5l-3 1c-6 2-11 5-14 9l-2 3-15 26 26 5c11 7 25 10 38 7l46 9z" opacity=".3" fill="url(#a)" style="fill:url(#a)" transform="translate(181.7 25.3) scale(.64563)"/><path d="m215.3 48-2.6.6c-11 3.2-14.2 13.5-8.4 22.6 6.4 8.4 20 12.9 31 9.7l40-13.6s-34.2-25.2-60-19.4Z" fill="#518ac8"/><path d="m52 35-4 1c-17 5-22 21-13 35 10 13 31 20 48 15l62-21S92 26 52 35Z" opacity=".3" fill="url(#b)" style="fill:url(#b)" transform="translate(181.7 25.3) scale(.64563)"/><path d="M134 80a45 45 0 0 0-48-15L24 85 4 120l112 19 20-36c4-7 3-15-2-23z" fill="url(#c)" style="fill:url(#c)" transform="translate(181.7 25.3) scale(.64563)"/><path d="M114 115a45 45 0 0 0-48-15L4 120s53 40 94 30l3-1c17-5 23-21 13-34z" fill="url(#d)" style="fill:url(#d)" transform="translate(181.7 25.3) scale(.64563)"/><ellipse style="opacity:1;fill:none;fill-opacity:.4;stroke:#000;stroke-width:2.28304;stroke-linecap:round;stroke-dasharray:none;stroke-opacity:1" cx="235.6" cy="128.3" rx="6.5" ry="6"/><ellipse style="fill:none;fill-opacity:.4;stroke:#000;stroke-width:2.28304;stroke-linecap:round;stroke-dasharray:none;stroke-opacity:1" cx="65.8" cy="128.3" rx="6.5" ry="6"/><path style="fill:#000;fill-opacity:1;stroke-width:.923093;stroke-linecap:round" d="M169 114.1c.8.3-.9 1 1 2.4 3.3 3.1 6.4 6.4 9.6 9.5 10.9 3.3 22.4 2.7 33.6 3.5 21.8.7 43.7.5 65.5-1.6 3.6-.8 8.1-.6 10.9-3.2l9.4-10.6h-3.4a61.6 4.2 0 0 1-61.6 4.2 61.6 4.2 0 0 1-61.6-4.2zM1 114.3h3.4A61.6 4.2 0 0 1 66 110a61.6 4.2 0 0 1 61.6 4.2h3.4c-10.1-6.4-24.2-4.3-35.9-6-9.7-.5-19.4-.7-29.1-.7-21.3.8-43.4-.7-64 5.5z"/><path style="fill:#fbbb30;fill-opacity:1;stroke:none;stroke-width:1.14154" d="m37 124.9 1.5-.6c3.7-1.2 5.7-2 6.5-2.4a10 10 0 0 0 3.6-4h-.1l-3 2.3a18.4 18.4 0 0 1-9.6 3h-.5l-.8-.4a56.7 56.7 0 0 1-12-6.5l-2.1-2.3c-2.2-2.7-3.9-5-4.5-6.3l-.2-.3.1-.3c1-2 3.6-4.4 6.8-6.4a15 15 0 0 1 10.1-2.5c.2 0 .7 0 2-.4a52.4 52.4 0 0 1 14.3-1.5 47.1 47.1 0 0 1 3.4.2 53 53 0 0 1 18.4.8l2 .4 1 .1-.4-.2a726 726 0 0 0-6.3-2.6 12.8 12.8 0 0 1-4.9-3h.6a95.9 95.9 0 0 0 15.5 2.3 54.9 54.9 0 0 1 19.5 7.5c.2 0-.4-.7-.8-1.2-1.6-1.7-4.6-4-8-6.4-.8-.6-.8-.5-.2-.5a22.1 22.1 0 0 1 9.9 4.7l.1.2v-.1a3 3 0 0 0-.3-1 12.9 12.9 0 0 0-2.4-3c0-.1.5 0 .8.2 1 .4 1.6 1 4 2.8l2.7 2.2.2.1.2-.1a87.7 87.7 0 0 0 14-8.8l1-.7.6-.2 4-.7a58 58 0 0 1-16.1 11.8h.5l.5.2.6.6c.8.9 1 1.2 1.1 2 .2.4.2.7 0 1.2a2 2 0 0 0 .1 1.4l.6 1.1 1.1 1c.6.5.6.5-.2.4a6 6 0 0 1-1.8-.4c-.5-.1-.5-.2-.7-.4-.3-.2-.8-.9-1-1.4l-.2-.4-.4.6-.2 1.3.1.8c.1.3.4.7 1 1.3.5.5.6.7.6.8l-1-.3a7.2 7.2 0 0 1-2.7-1.6l-.4 1c-.8 2-1.5 3-3.2 4.5l-.4.5-2 .7a9072.2 9072.2 0 0 0-8.6 3.5c.9-.5 2.3-1.6 3.2-2.4 2.7-2.6 4.1-5.4 3.8-7.5v-.3c-.1 0-.4.3-2.6 3.1a28.8 28.8 0 0 1-7 6.8c-3 1.5-9.4 3.4-14.7 4.4-2.6.5-3.7.6-6.5.6a107 107 0 0 1-7.2-.2c-.1 0-.3 0-.5.2l-.4.2-.6.2c-1.3.6-3.4 1-6.4 1.2h-5.2a79.2 79.2 0 0 1-10-1z"/><path style="fill:#1e1d1b;stroke:none;stroke-width:1.14154" d="M124.5 88.8c-1 0-2 .2-3 .4l-1.6.4c-.8.4-1.4 1.1-2 1.6l-4.5 3.2a108.5 108.5 0 0 1-45.9 15.8c-10.3 1-21.3.8-32.3-.5-6-.6-12.2-1.5-18.3-3 0 .4.3 1 .6 1.3.4.3 1.4.4 1.9.5l4.8 1a164.9 164.9 0 0 0 45.6 2.3c2.4-.2 4.9-.4 7.2-.8a106.2 106.2 0 0 0 33.4-11.6 67 67 0 0 0 13.4-9.8c.2-.2.8-.5.7-.8z"/><path style="fill:#000;fill-opacity:1;stroke-width:.923093;stroke-linecap:round" d="M1 114.3c.8.2-1 .9 1 2.3l9.6 9.6c10.8 3.2 22.3 2.7 33.5 3.5 21.9.7 43.8.4 65.6-1.7 3.6-.8 8-.5 10.8-3.1l9.5-10.6h-3.4a61.6 4.2 0 0 1-61.6 4.2 61.6 4.2 0 0 1-61.6-4.2z"/></svg>