<svg xmlns="http://www.w3.org/2000/svg" viewBox="0 0 300 200"><rect style="fill:#fff;fill-opacity:1;stroke:none;stroke-width:1.00157" width="300" height="200" ry="0"/><path style="fill:#b2b2b2;fill-opacity:1;stroke:none;stroke-width:1.00157" d="M0 0v200h300V0Zm1 1h298v198H1Z"/><text xml:space="preserve" style="font-style:normal;font-weight:400;font-size:42.6667px;line-height:1.25;font-family:sans-serif;fill:#000;fill-opacity:1;stroke:none" x="152.5" y="66.1"><tspan x="152.5" y="66.1" style="font-size:42.6667px">TIME</tspan></text><text xml:space="preserve" style="font-style:normal;font-weight:400;font-size:42.6667px;line-height:1.25;font-family:sans-serif;fill:#a00;fill-opacity:1;stroke:none" x="187.6" y="101.6"><tspan x="187.6" y="101.6" style="font-size:42.6667px;fill:#a00">OUT</tspan></text><path style="color:#000;fill:#000;-inkscape-stroke:none" d="M152.4 22.3a9.6 9.6 0 0 0-9.6 9.6v74.6c0 5.3 4.3 9.6 9.6 9.6h25c0 3 .2 5.4-.4 7.8-.9 3.1-2.2 5.3-4.7 8.7v.1c-.6 1-1.7 2-2.4 3.6l-1 2.2 2.3-1 2.5-1c2.2-1.3 4.6-2.5 6.7-4 2.7-2 5.2-5.6 6.2-8.8 1-3.2 1-4.6 1-7.6h95c5.4 0 9.6-4.3 9.6-9.6V32c0-5.3-4.2-9.6-9.6-9.6zm0 1.8h130.3c4.3 0 7.8 3.4 7.8 7.7v74.8c0 4.3-3.5 7.7-7.8 7.7h-97v2.4a22 22 0 0 1-1 6.4c-.8 2.6-3.3 6.2-5.5 7.8-1.6 1.2-3.5 2.2-5.4 3.2l.2-.3c2.5-3.5 4-6 4.9-9.4a23 23 0 0 0 .4-8.3v-.2l-.3-1.5v-.1h-26.6a7.7 7.7 0 0 1-7.8-7.7V31.8c0-4.3 3.5-7.7 7.8-7.7z"/><g transform="translate(213.8 197.4) scale(.19749)"><circle style="fill:#212121;fill-opacity:1;stroke:none;stroke-width:2;stroke-dasharray:none;stroke-opacity:1" cx="-641.9" cy="-436.6" r="400"/><path style="fill:#fff;fill-opacity:1;stroke:none;stroke-width:1.76134;stroke-dasharray:none;stroke-opacity:1" d="m-713.3-704.7-191.1 96.5a148.7 176.3 0 0 0-11.4 67.6 148.7 176.3 0 0 0 18.3 83.7h260.8a148.7 176.3 0 0 0 18.3-83.7 148.7 176.3 0 0 0-95-164.1z"/><path style="fill:#fff;fill-opacity:1;stroke:none;stroke-width:1.86537;stroke-dasharray:none;stroke-opacity:1" d="M-576.9-702.1a153 153 0 0 0-57.6 53c29 46.5 40.6 105.8 22.3 158.5-1.5 10.8-13.5 27-11.4 33.7h237.3c13.6-31.1 23.8-65.6 18.4-99.8a218 218 0 0 0-8.3-44.2 170 170 0 0 0-17.9-40.8z"/><path style="fill:#fff;fill-opacity:1;stroke:none;stroke-width:1.36583;stroke-dasharray:none;stroke-opacity:1" d="M-757.4-202c-48.7 9.3-96.7 25.3-138.6 52.2 76 71.3 184 93.7 286.8 92 77.5-5.6 156-37.3 217.1-88.2-11.5-13.8-87.7-46.6-127.4-52.8-.3 29.8 10 58.8 25.3 84-45 7.5-91.4 8.3-135.7-3.4A219.4 219.4 0 0 1-757.4-202z"/><path style="fill:#ffb928;fill-opacity:1;stroke:none;stroke-width:1px;stroke-linecap:butt;stroke-linejoin:miter;stroke-opacity:1" d="M-823.3-387.3c46.8-8.2 91.4-25.4 137.4-36.5a385 385 0 0 1 108.3-5c46 8 90.2 25.3 131.4 47.2 39.7 21.1 77.2 46.1 115 70.5-45 4.7-90.3 8.4-135.5 6.8-63 .2-127.3 1.4-188.4-16.7a520 520 0 0 1-98.9-32.4 961.7 961.7 0 0 1-69.3-33.9z"/><ellipse style="fill:#212121;fill-opacity:1;stroke:none;stroke-width:2.03131;stroke-dasharray:none;stroke-opacity:1" cx="-708.8" cy="-522.7" rx="58.6" ry="57.5"/><path style="fill:#ffb928;fill-opacity:1;stroke:none;stroke-width:1px;stroke-linecap:butt;stroke-linejoin:miter;stroke-opacity:1" d="m-820.6-373.5 28 15.8a575 575 0 0 0 19 58c7 20.9 18.4 40 27.6 60 8.3 12.9 15.5 26.6 26.4 37.5a226 226 0 0 0 29.6 28.4c11.1 7.3 21.8 15.3 34.5 20 11 5.5 23.2 8.3 35.1 11.3 27.6 4.3 55.6 6.6 83.4 3.9-11-22-18.7-45.9-20.7-70.3a123 123 0 0 1 13.5-58c3.9-8.2 8.3-16 12.5-24.1l25.9.5a213.8 213.8 0 0 0-28.5 65c-5.8 33 3.2 67 19.7 95.7.5 3.9-9.6 2-13.6 3.4a337.9 337.9 0 0 1-105.3-6c-21.4-6.6-42-16.2-61-28.1a222 222 0 0 1-59-57.8 328.8 328.8 0 0 1-47-90.8 682.4 682.4 0 0 1-20.1-64.4z"/><path style="fill:#431314;fill-opacity:1;stroke:none;stroke-width:1px;stroke-linecap:butt;stroke-linejoin:miter;stroke-opacity:1" d="M-545-292.6a570 570 0 0 1-194.9-42.7c-14-5.6-27.8-11.5-41.6-17.6 12.5 30.2 24.2 60.7 35.9 91.3a238.1 238.1 0 0 0 46 71c14.3 13.8 30.9 25.6 50 31.5a279.6 279.6 0 0 0 63.9 12.7c11.2-.6 29.4 3.5 36.3-.3-10.9-24-21.2-49.3-19.7-76.1 2-25 12-48.3 24.1-69.8z"/><path style="fill:#c82b3a;fill-opacity:1;stroke:none;stroke-width:1px;stroke-linecap:butt;stroke-linejoin:miter;stroke-opacity:1" d="M-749-270.2a226.6 226.6 0 0 0 54.3 84.3c16.3 14.9 36.3 25.6 57.8 30.8 6.4 1.7 12.8 3 19.3 4.3 2.6-7.6 2.3-15.7.3-23.4-4.5-17.8-15.7-32.9-27.2-46.8a158 158 0 0 0-40-28.6 176 176 0 0 0-35.5-14.7c-9.1-3.2-18.6-5-28.1-5.8l-.8-.1z"/><ellipse style="fill:#212121;fill-opacity:1;stroke:none;stroke-width:2.03131;stroke-dasharray:none;stroke-opacity:1" cx="-446.3" cy="-523.5" rx="58.6" ry="57.5"/></g></svg>