<svg xml:space="preserve" xmlns:xlink="http://www.w3.org/1999/xlink" xmlns="http://www.w3.org/2000/svg" viewBox="0 0 300 200"><defs><linearGradient id="a"><stop style="stop-color:#fff;stop-opacity:.29829547" offset="0"/><stop style="stop-color:#fff;stop-opacity:.19886364" offset="1"/></linearGradient><linearGradient xlink:href="#a" id="b" x1="81.8" y1="79.1" x2="155.9" y2="79.1" gradientUnits="userSpaceOnUse" gradientTransform="translate(0 14)"/></defs><rect style="fill:#fff;fill-opacity:1;stroke:none;stroke-width:1.00157" width="300" height="200" ry="0"/><path style="fill:#b2b2b2;fill-opacity:1;stroke:none;stroke-width:1.00157" d="M0 0v200h300V0Zm1 1h298v198H1Z"/><text xml:space="preserve" style="font-style:normal;font-weight:400;font-size:37.3333px;line-height:1.25;font-family:sans-serif;fill:#000;fill-opacity:1;stroke:none" x="180.2" y="47"><tspan x="180.2" y="47" style="font-size:37.3333px">It&apos;s a</tspan></text><text xml:space="preserve" style="font-style:normal;font-weight:400;font-size:37.3333px;line-height:1.25;font-family:sans-serif;fill:#a00;fill-opacity:1;stroke:none" x="213.3" y="84.5"><tspan x="213.3" y="84.5" style="font-size:37.3333px;fill:#a00">Cat!</tspan></text><path style="color:#000;fill:#000;stroke-width:.975514;-inkscape-stroke:none" d="M160.8 7.2c-5 0-9.1 4.3-9.1 9.7v74.6c0 5.3 4 9.6 9.1 9.6h23.8c.1 3 .3 5.3-.4 7.7-.8 3.2-2 5.3-4.4 8.8-.6 1-1.7 2-2.3 3.6l-.9 2.2 2.1-.9c.9-.3 1.7-.7 2.4-1.1 2.2-1.2 4.4-2.4 6.4-4 2.6-2 5-5.6 6-8.7.8-3.3.8-4.7 1-7.6h90.3c5 0 9.1-4.3 9.1-9.6V16.9c0-5.4-4-9.7-9-9.7zm0 1.8H285c4 0 7.4 3.5 7.4 7.7v74.8c0 4.3-3.3 7.7-7.4 7.7h-92.3v2.4a17.8 17.8 0 0 1-6.1 14.2h-.1c-1.6 1.2-3.4 2.2-5.2 3.2l.2-.3c2.4-3.5 3.8-6 4.7-9.4a24.2 24.2 0 0 0 .3-8.2v-.3l-.2-1.5h-25.4c-4 0-7.3-3.5-7.3-7.8V16.7c0-4.2 3.3-7.7 7.3-7.7z"/><path style="fill:#7e6a61;fill-opacity:1;stroke:#000;stroke-width:1.05976;stroke-linecap:round;stroke-dasharray:none;stroke-opacity:1" d="M7 145.2h181.5v47.1H7z"/><path style="fill:#785d4d;fill-opacity:1;stroke:#000;stroke-width:1.05976;stroke-linecap:round;stroke-dasharray:none;stroke-opacity:1" d="M44.8 145.2h8.5v47.1h-8.5z"/><path style="fill:#010413;fill-opacity:1;stroke:#000;stroke-width:1.05976;stroke-linecap:round;stroke-dasharray:none;stroke-opacity:1" d="M71.2 167.3H128v8.5H71.2z"/><path style="fill:#d1cdc4;fill-opacity:1;stroke:#000;stroke-width:1.05976;stroke-linecap:round;stroke-dasharray:none;stroke-opacity:1" d="M137 163.3h11.7v16.2H137z"/><path style="fill:#b53a0f;fill-opacity:1;stroke:#000;stroke-width:1.05976;stroke-linecap:round;stroke-dasharray:none;stroke-opacity:1" d="M154.7 163.3h11.7v16.2h-11.7z"/><path style="fill:#efd869;fill-opacity:1;stroke:#000;stroke-width:1.05976;stroke-linecap:round;stroke-dasharray:none;stroke-opacity:1" d="M172.4 163.3h11.7v16.2h-11.7z"/><path style="fill:#785d4d;fill-opacity:1;stroke:#000;stroke-width:1.05976;stroke-linecap:round;stroke-dasharray:none;stroke-opacity:1" d="M60.8 135.8h72v9.4h-72z"/><path style="fill:#fad805;fill-opacity:1;stroke:#000;stroke-width:1.05976;stroke-linecap:round;stroke-dasharray:none;stroke-opacity:1" d="M49.9 47.4h124.2v87.8H49.9z"/><path style="fill:#f9d108;fill-opacity:1;stroke:#000;stroke-width:1.05976;stroke-linecap:round;stroke-dasharray:none;stroke-opacity:1" d="M61 47.4h8v88.5h-8z"/><rect style="fill:#fbaf75;fill-opacity:1;stroke:#000;stroke-width:1.05976;stroke-linecap:round;stroke-dasharray:none;stroke-opacity:1" width="83.2" height="70" x="79.2" y="56.7" rx="5.4" ry="5.4"/><path style="fill:#cc970b;fill-opacity:1;stroke:#000;stroke-width:1.05976;stroke-linecap:butt;stroke-linejoin:miter;stroke-dasharray:none;stroke-opacity:1" d="M50 53.6 22.1 67.8l.3 52 27.4 12.4z"/><g transform="translate(310.3 7.8)"><path style="fill:#000;fill-opacity:1;stroke:none;stroke-width:1px;stroke-linecap:butt;stroke-linejoin:miter;stroke-opacity:1" d="m-174.4 60.9 10.9-1 5 1.5 1.3 6-2.5-3.2-4.8-.7-9.5.3h-1.7zM-191 63.6l1.4-3.6-5.7-3-8.7-1.5-12 .4-5.8 7.7h5.4l3.3-3.6 7.5-1.4 5.4.6 8.7 4.4zM-174.1 68.4l3-1 3.8 1 3.7 1.9 1.4 2.7-2.9-2.4-5-2zM-195.4 66.3l-2.9-2h-6l-2.4.4-3.7 2.6 4-1.8 4.4-.3h3.7z"/><path style="fill:#000;fill-opacity:.33;stroke:none;stroke-width:1px;stroke-linecap:butt;stroke-linejoin:miter;stroke-opacity:1" d="m-187.8 65.8 1.8 12.7-11 2.8 1.6-5.1z"/><path style="fill:#000;fill-opacity:1;stroke:none;stroke-width:1px;stroke-linecap:butt;stroke-linejoin:miter;stroke-opacity:1" d="m-194.9 83.3-.5 3.6.8 1.7 3.9-.3-3.4-.9-.7-1.2zM-180.7 86.4l2.5-1.8 1.7.7-.2 1.7-1.1.6zM-185 86.1l-.5-2.3-2.5.3-2.3 1.9.7 1.6 2.6-.8z"/><path style="fill:#fff;fill-opacity:.5;stroke:none;stroke-width:1px;stroke-linecap:butt;stroke-linejoin:miter;stroke-opacity:1" d="m-197 69-2.8 2.3-6 .4-4.6-4.4 4-1.8 8.1-.3 2.9 1.1-1.6 2.6M-174.1 68.4l-1.6 1.7 3.5 2.2 4.5 1.2 5.5-.5-2.9-2.4-5-2-4-.2"/><ellipse style="fill:#000;fill-opacity:.535047;stroke:none;stroke-width:1;stroke-linecap:round;stroke-dasharray:none;stroke-opacity:1" cx="-169.5" cy="70.3" rx="2.6" ry="2.8"/><ellipse style="fill:#000;fill-opacity:.535047;stroke:none;stroke-width:1;stroke-linecap:round;stroke-dasharray:none;stroke-opacity:1" cx="-202.7" cy="67.7" rx="3.2" ry="3"/><path style="fill:#070707;fill-opacity:.535047;stroke:none;stroke-width:1px;stroke-linecap:butt;stroke-linejoin:miter;stroke-opacity:1" d="m-199.1 102.4 14.5-.3 5.4.9 8.4 2.4-10-.8-11-1z"/><path style="fill:#000;fill-opacity:.324766;stroke:none;stroke-width:1px;stroke-linecap:butt;stroke-linejoin:miter;stroke-opacity:1" d="m-200 101.2 9-3 8-.6 5.2 1 6.9 6.8-4-1.2-4.3-1.2-5.4-1-14.5.4z"/><path style="fill:#000;fill-opacity:.28972;stroke:none;stroke-width:1px;stroke-linecap:butt;stroke-linejoin:miter;stroke-opacity:1" d="m-199.1 102.4 4.2 4.5 9.5 2.5h4.7l9.8-4-10.4-.8-5-.5-5.6-.4z"/><path style="fill:#000;fill-opacity:.4;stroke:none;stroke-width:1px;stroke-linecap:butt;stroke-linejoin:miter;stroke-opacity:1" d="m-186.9 88.6-3.4 7.5-9.6 2.4-6 7v-8l7.5-5.6ZM-180.7 89.8v6l4.2 1.8 5.6 6.2V97z"/><path style="fill:#000;fill-opacity:.33;stroke:none;stroke-width:1px;stroke-linecap:butt;stroke-linejoin:miter;stroke-opacity:1" d="M-180.7 62.8-182 60l1.4-7.8V60zM-176.5 79.6l-3-12.3 2 14z"/></g><path style="fill:url(#b);fill-opacity:.35514;stroke:none;stroke-width:1.05976;stroke-linecap:butt;stroke-linejoin:miter;stroke-dasharray:none;stroke-opacity:1" d="M81.8 61 88.9 73l20.8 22.7 19 14.1 27.2 15.4z"/><path style="fill:none;stroke:#000;stroke-width:1.05976;stroke-linecap:butt;stroke-linejoin:miter;stroke-dasharray:none;stroke-opacity:1" d="M90 121.2v10.5" transform="translate(22 14)"/><path style="fill:#fdb87f;fill-opacity:1;stroke:#000;stroke-width:1px;stroke-linecap:butt;stroke-linejoin:miter;stroke-opacity:1" d="m26.6 136.8 23.3-6.3s4.3-2.3 6.7-2.8l7.7-1.5 26.1-11.1s10.5.5 15.7.2c7.6-.5 22.4-3 22.4-3s2-.3 2.3.8c.4 1.2-.3 2.6-1 3.8-1 1.5-4 4-4 4l-25.5 5.7 9.8 2.4c1 .3 3.7 1 3.2 1.8-1.6 3.4-3.8 3.9-6.4 5.9 1.2 4-2.1 6-3.5 7-1.3 1 0 3.7-1.3 4.8-2 1.6-7.6.8-7.6.8s-3.6 4.5-6.2 4.9c-2.9.4-6.2-1-8.1-3.2-1-1.1-1.4-4.4-1.4-4.4s-7.6 4.7-11.9 5c-2.6 0-7.6-2.3-7.6-2.3L34.1 168l-6.4 2.9z" transform="translate(22 14)"/><path style="fill:none;stroke:#000;stroke-width:1px;stroke-linecap:butt;stroke-linejoin:miter;stroke-opacity:1" d="m98.8 124.3 8 12.4s.5 3-.6 4.5a19 19 0 0 1-2.8 2.5L95 130.3M89.9 135l4.7 7.3c.8 3.4.8 4.7-.1 7 0 0-3.6 4.5-6.2 4.9-2.9.4-6.2-1-8.1-3.2-1-1.1-1.4-4.4-1.4-4.4s2.2-3 3.8-2.9c1 .1 2.1 2.4 2.1 2.4l1.5 3.7s-.3-1.4.2-1.7c.3-.3 1.3.1 1.3.1s-2.4-1-3-2c-1-1.9-.5-6.2-.5-6.2M77 129.3s2.6-1.5 4-1.6c1.1-.2 2.3 0 3.2.5 1.4.8 3.3 3.6 3.3 3.6M82 123.7s2.9-1 4.4-1.1c1 0 2 0 2.8.5 1.7 1.1 3.4 5.3 3.4 5.3M86.1 119s2.4-4 4.3-4c1.4.2 2.7 3 2.7 3" transform="translate(22 14)"/></svg>