<svg xml:space="preserve" xmlns="http://www.w3.org/2000/svg" viewBox="0 0 300 200"><rect style="fill:#fff;fill-opacity:1;stroke:none;stroke-width:1.00157" width="300" height="200" ry="0"/><path style="fill:none;stroke:#000;stroke-width:.883068px;stroke-linecap:butt;stroke-linejoin:miter;stroke-opacity:1" d="M44.1 126.7v40l40.3 19.5 40.1-20v-39.5l-40.2-19.6Z"/><g transform="matrix(.88307 0 0 .88307 29.8 93.8)"><circle style="fill:#b1fb7b;fill-opacity:1;stroke:#000;stroke-width:.75;stroke-opacity:1" cx="80.3" cy="59.4" r="15"/><text xml:space="preserve" style="font-size:16px;line-height:1.25;font-family:sans-serif" x="75.3" y="65.2"><tspan x="75.3" y="65.2">4</tspan></text></g><g transform="matrix(.88307 0 0 .88307 29.8 93.8)"><circle style="fill:#eb483f;fill-opacity:1;stroke:#000;stroke-width:.75;stroke-opacity:1" cx="43.1" cy="60.3" r="15"/><text xml:space="preserve" style="font-size:16px;line-height:1.25;font-family:sans-serif" x="37.8" y="66.1"><tspan x="37.8" y="66.1">1</tspan></text></g><path style="fill:none;stroke:#000;stroke-width:.883068px;stroke-linecap:butt;stroke-linejoin:miter;stroke-opacity:1" d="M124.5 126.7v40l40.3 19.5 40-20v-39.5l-40.2-19.6z"/><g transform="matrix(.88307 0 0 .88307 31 91.8)"><circle style="fill:#656af6;fill-opacity:1;stroke:#000;stroke-width:.75;stroke-opacity:1" cx="172.1" cy="72.1" r="15"/><text xml:space="preserve" style="font-size:16px;line-height:1.25;font-family:sans-serif" x="166.8" y="77.8"><tspan x="166.8" y="77.8">5</tspan></text></g><g transform="matrix(.88307 0 0 .88307 31.5 91.1)"><circle style="fill:#fffea6;fill-opacity:1;stroke:#000;stroke-width:.75;stroke-opacity:1" cx="150.9" cy="44.9" r="15"/><text xml:space="preserve" style="font-size:16px;line-height:1.25;font-family:sans-serif" x="145.8" y="50.7"><tspan x="145.8" y="50.7">3</tspan></text></g><g transform="matrix(.88307 0 0 .88307 32 91.9)"><circle style="fill:#ed6f2d;fill-opacity:1;stroke:#000;stroke-width:.75;stroke-opacity:1" cx="130.3" cy="72.1" r="15"/><text xml:space="preserve" style="font-size:16px;line-height:1.25;font-family:sans-serif" x="125.1" y="78"><tspan x="125.1" y="78">2</tspan></text></g><path style="fill:none;stroke:#000;stroke-width:.883068px;stroke-linecap:butt;stroke-linejoin:miter;stroke-opacity:1" d="M204.9 126.7v40l40.2 19.5 40.1-20v-39.5L245 107.1z"/><g transform="matrix(.88307 0 0 .88307 32.8 94)"><circle style="fill:#eb483f;fill-opacity:1;stroke:#000;stroke-width:.75;stroke-opacity:1" cx="240.2" cy="59.7" r="15"/><text xml:space="preserve" style="font-size:16px;line-height:1.25;font-family:sans-serif" x="234.9" y="65.6"><tspan x="234.9" y="65.6">1</tspan></text></g><path style="fill:none;stroke:#000;stroke-width:2.5;stroke-linecap:round;stroke-linejoin:miter;stroke-dasharray:none;stroke-opacity:1" d="m24.6 18 17 13.2c2 2 2 4.8 1.8 7.6M56.4 73.6l-17-13.2c-2-2.2-2-5-1.8-7.6M9.8 36.2l19.5 14.6c4.9 1 9.2-2.6 12.2-6.1 3.8-4.9 11.6-4.5 16-.6 4.5 3.8 9.1 7.4 14 10.8" transform="translate(.8 1) scale(.87891)"/><text xml:space="preserve" style="font-size:10.6667px;line-height:1.25;font-family:sans-serif" x="31.4" y="12.4" transform="rotate(40 -.9 1.6) scale(.87891)"><tspan x="31.4" y="12.4">0</tspan></text><text xml:space="preserve" style="font-size:10.6667px;line-height:1.25;font-family:sans-serif" x="39.1" y="12.4" transform="rotate(40 -.9 1.6) scale(.87891)"><tspan x="39.1" y="12.4">0</tspan></text><text xml:space="preserve" style="font-size:10.6667px;line-height:1.25;font-family:sans-serif" x="47.8" y="11.9" transform="rotate(40 -.9 1.6) scale(.87891)"><tspan x="47.8" y="11.9">1</tspan></text><text xml:space="preserve" style="font-size:10.6667px;line-height:1.25;font-family:sans-serif" x="66.9" y="11.5" transform="rotate(40 -.9 1.6) scale(.87891)"><tspan x="66.9" y="11.5">1</tspan></text><text xml:space="preserve" style="font-size:10.6667px;line-height:1.25;font-family:sans-serif" x="75.3" y="11.6" transform="rotate(40 -.9 1.6) scale(.87891)"><tspan x="75.3" y="11.6">0</tspan></text><text xml:space="preserve" style="font-size:10.6667px;line-height:1.25;font-family:sans-serif" x="83.4" y="11.1" transform="rotate(40 -.9 1.6) scale(.87891)"><tspan x="83.4" y="11.1">1</tspan></text><path style="fill:none;stroke:#000;stroke-width:2.5;stroke-linecap:round;stroke-linejoin:miter;stroke-dasharray:none;stroke-opacity:1" d="m24.6 18 17 13.2c2 2 2 4.8 1.8 7.6M56.4 73.6l-17-13.2c-2-2.2-2-5-1.8-7.6M9.8 36.2l19.5 14.6c4.9 1 9.2-2.6 12.2-6.1 3.8-4.9 11.6-4.5 16-.6 4.5 3.8 9.1 7.4 14 10.8" transform="translate(72.8 4.6) scale(.87891)"/><text xml:space="preserve" style="font-size:10.6667px;line-height:1.25;font-family:sans-serif" x="31.4" y="12.4" transform="rotate(40 30 102.3) scale(.87891)"><tspan x="31.4" y="12.4">1</tspan></text><text xml:space="preserve" style="font-size:10.6667px;line-height:1.25;font-family:sans-serif" x="39.1" y="12.4" transform="rotate(40 30 102.3) scale(.87891)"><tspan x="39.1" y="12.4">1</tspan></text><text xml:space="preserve" style="font-size:10.6667px;line-height:1.25;font-family:sans-serif" x="47.8" y="11.9" transform="rotate(40 30 102.3) scale(.87891)"><tspan x="47.8" y="11.9">1</tspan></text><text xml:space="preserve" style="font-size:10.6667px;line-height:1.25;font-family:sans-serif" x="66.9" y="11.5" transform="rotate(40 30 102.3) scale(.87891)"><tspan x="66.9" y="11.5">0</tspan></text><text xml:space="preserve" style="font-size:10.6667px;line-height:1.25;font-family:sans-serif" x="75.3" y="11.6" transform="rotate(40 30 102.3) scale(.87891)"><tspan x="75.3" y="11.6">0</tspan></text><text xml:space="preserve" style="font-size:10.6667px;line-height:1.25;font-family:sans-serif" x="83.4" y="11.1" transform="rotate(40 30 102.3) scale(.87891)"><tspan x="83.4" y="11.1">1</tspan></text><path style="fill:none;stroke:#000;stroke-width:2.5;stroke-linecap:round;stroke-linejoin:miter;stroke-dasharray:none;stroke-opacity:1" d="m24.6 18 17 13.2c2 2 2 4.8 1.8 7.6M56.4 73.6l-17-13.2c-2-2.2-2-5-1.8-7.6M9.8 36.2l19.5 14.6c4.9 1 9.2-2.6 12.2-6.1 3.8-4.9 11.6-4.5 16-.6 4.5 3.8 9.1 7.4 14 10.8" transform="translate(17.3 -21.3) scale(.87891)"/><text xml:space="preserve" style="font-size:10.6667px;line-height:1.25;font-family:sans-serif" x="31.4" y="12.4" transform="rotate(40 37.9 13) scale(.87891)"><tspan x="31.4" y="12.4">1</tspan></text><text xml:space="preserve" style="font-size:10.6667px;line-height:1.25;font-family:sans-serif" x="39.1" y="12.4" transform="rotate(40 37.9 13) scale(.87891)"><tspan x="39.1" y="12.4">0</tspan></text><text xml:space="preserve" style="font-size:10.6667px;line-height:1.25;font-family:sans-serif" x="47.8" y="11.9" transform="rotate(40 37.9 13) scale(.87891)"><tspan x="47.8" y="11.9">1</tspan></text><text xml:space="preserve" style="font-size:10.6667px;line-height:1.25;font-family:sans-serif" x="66.9" y="11.5" transform="rotate(40 37.9 13) scale(.87891)"><tspan x="66.9" y="11.5">0</tspan></text><text xml:space="preserve" style="font-size:10.6667px;line-height:1.25;font-family:sans-serif" x="75.3" y="11.6" transform="rotate(40 37.9 13) scale(.87891)"><tspan x="75.3" y="11.6">1</tspan></text><text xml:space="preserve" style="font-size:10.6667px;line-height:1.25;font-family:sans-serif" x="83.4" y="11.1" transform="rotate(40 37.9 13) scale(.87891)"><tspan x="83.4" y="11.1">1</tspan></text><path style="fill:none;stroke:#000;stroke-width:2.5;stroke-linecap:round;stroke-linejoin:miter;stroke-dasharray:none;stroke-opacity:1" d="m24.6 18 17 13.2c2 2 2 4.8 1.8 7.6M56.4 73.6l-17-13.2c-2-2.2-2-5-1.8-7.6M9.8 36.2l19.5 14.6c4.9 1 9.2-2.6 12.2-6.1 3.8-4.9 11.6-4.5 16-.6 4.5 3.8 9.1 7.4 14 10.8" transform="translate(55.7 27.4) scale(.87891)"/><text xml:space="preserve" style="font-size:10.6667px;line-height:1.25;font-family:sans-serif" x="31.4" y="12.4" transform="rotate(40 -9.8 90.2) scale(.87891)"><tspan x="31.4" y="12.4">0</tspan></text><text xml:space="preserve" style="font-size:10.6667px;line-height:1.25;font-family:sans-serif" x="39.1" y="12.4" transform="rotate(40 -9.8 90.2) scale(.87891)"><tspan x="39.1" y="12.4">1</tspan></text><text xml:space="preserve" style="font-size:10.6667px;line-height:1.25;font-family:sans-serif" x="47.8" y="11.9" transform="rotate(40 -9.8 90.2) scale(.87891)"><tspan x="47.8" y="11.9">1</tspan></text><text xml:space="preserve" style="font-size:10.6667px;line-height:1.25;font-family:sans-serif" x="66.9" y="11.5" transform="rotate(40 -9.8 90.2) scale(.87891)"><tspan x="66.9" y="11.5">0</tspan></text><text xml:space="preserve" style="font-size:10.6667px;line-height:1.25;font-family:sans-serif" x="75.3" y="11.6" transform="rotate(40 -9.8 90.2) scale(.87891)"><tspan x="75.3" y="11.6">1</tspan></text><text xml:space="preserve" style="font-size:10.6667px;line-height:1.25;font-family:sans-serif" x="83.4" y="11.1" transform="rotate(40 -9.8 90.2) scale(.87891)"><tspan x="83.4" y="11.1">0</tspan></text><path style="fill:#b2b2b2;fill-opacity:1;stroke:#000;stroke-width:1;stroke-linecap:round;stroke-dasharray:none;stroke-opacity:1" d="M148.2 30.8 162.6 46 147.9 61h30.8v20.8h-15.8l33.4 21.5 34.9-21.5H212V34s0-2-.6-2.7c-.5-.5-2-.6-2-.6Z"/><g style="stroke-width:1.5;stroke-dasharray:none"><rect style="fill:#000;fill-opacity:1;stroke:#fff;stroke-width:1.5;stroke-linecap:round;stroke-dasharray:none;stroke-opacity:1" width="162.6" height="33.9" x="128" y="156.3" ry="5" rx="5"/><path style="font-weight:700;font-size:21.3333px;line-height:1.25;-inkscape-font-specification:'sans-serif Bold';fill:#fff" d="M153.8 170.4q0 1-.4 2t-1 1.7q-1 .9-2.1 1.4-1.2.4-2.9.4H145v5h-4v-15.4h6.5q1.5 0 2.5.2 1 .3 1.8.8 1 .6 1.5 1.6t.5 2.3zm-4.2 0q0-.6-.3-1-.4-.5-.9-.7-.6-.3-1.2-.3H145v4.6h1.1l1.7-.1q.6-.1 1-.5.5-.4.6-.8.2-.5.2-1.1zm20.6 5q0 2.8-1.8 4.4-1.7 1.5-5.1 1.5-3.4 0-5.2-1.5-1.7-1.6-1.7-4.4v-10h4v9.7q0 1.7.7 2.4.6.8 2.2.8 1.5 0 2.2-.7.7-.8.7-2.5v-9.6h4zm17 .8q0 1.2-.5 2-.4 1-1.2 1.5-1 .7-2 1-1.1.3-2.8.3h-6.8v-15.5h8.8l1.7.6q.9.5 1.3 1.3.5.7.5 1.7t-.6 2q-.6.8-1.7 1.3 1.5.4 2.4 1.3.9 1 .9 2.5zM182 170l-.2-.8q-.2-.4-.7-.6-.5-.2-1.1-.2h-2.2v3.3h2.2q.7 0 1-.2.6-.3.8-.7.2-.3.2-.8zm1 6.3q0-.8-.4-1.2-.2-.4-1-.6l-1.2-.1h-2.7v3.8h2.8q.7 0 1.3-.2.7-.3.9-.7l.2-1zm18.3 4.8h-11.2v-15.5h4V178h7.2zm10.7 0h-9v-2.8h2.5v-10h-2.5v-2.7h9v2.7h-2.5v10h2.5zm15.7-4.9q0 2.3-2 3.7-1.9 1.5-5.2 1.5-2 0-3.4-.4-1.4-.3-2.6-.8v-3.8h.4q1.2 1 2.8 1.6 1.5.5 3 .5h.9l1-.3.7-.4q.3-.3.3-.9 0-.5-.4-.9-.5-.3-1.3-.5l-1.8-.4-1.9-.5q-2-.6-2.8-1.7-.8-1.1-.8-2.7 0-2.2 1.9-3.5 2-1.4 5-1.4 1.5 0 3 .3t2.6.7v3.6h-.4q-1-.8-2.3-1.3-1.4-.5-2.8-.5l-1 .1q-.5 0-1 .3l-.6.4q-.3.4-.3.8 0 .6.4 1l1.8.5 1.6.3 1.7.5q1.8.6 2.7 1.6.8 1 .8 2.6zm16.7 4.9h-4V174h-6v6.9h-4v-15.5h4v5.6h6v-5.6h4zm15.1 0h-11.2v-15.5h11.2v3h-7.2v2.6h6.7v3h-6.7v3.9h7.2zm18-7.8q0 2.2-1 4-1 1.6-2.4 2.5-1.2.7-2.5 1-1.4.3-3.2.3H263v-15.5h5.6q2 0 3.3.3 1.4.3 2.3.9 1.6 1 2.5 2.6 1 1.7 1 4zm-4 0q0-1.5-.6-2.6t-1.8-1.7q-.6-.3-1.3-.4l-1.9-.1h-1v9.7h1q1.4 0 2.1-.2.7 0 1.3-.4 1.1-.7 1.6-1.7t.5-2.6z" aria-label="PUBLISHED"/></g><path style="fill:#b2b2b2;fill-opacity:1;stroke:none;stroke-width:1.00157" d="M0 0v200h300V0Zm1 1h298v198H1Z"/></svg>