<svg xml:space="preserve" xmlns:xlink="http://www.w3.org/1999/xlink" xmlns="http://www.w3.org/2000/svg" viewBox="0 0 300 200"><defs><linearGradient id="a"><stop style="stop-color:#b4e700;stop-opacity:1" offset="0"/><stop style="stop-color:#76b30a;stop-opacity:1" offset="1"/></linearGradient><linearGradient xlink:href="#a" id="b" x1="0" y1="132.2" x2="300" y2="132.2" gradientUnits="userSpaceOnUse"/></defs><rect style="fill:#fff;fill-opacity:1;stroke:none;stroke-width:1.00157" width="300" height="200" ry="0"/><path style="fill:url(#b);fill-opacity:1;stroke:none;stroke-width:1;stroke-linecap:round;stroke-dasharray:none;stroke-opacity:1" d="M95.5 64.3A333 150 0 0 0 0 71V200h300V96A333 150 0 0 0 95.5 64.3z"/><path style="fill:#b2b2b2;fill-opacity:1;stroke:none;stroke-width:1.00157" d="M0 0v200h300V0Zm1 1h298v198H1Z"/><path style="fill:#9c9fa6;fill-opacity:1;stroke:#000;stroke-width:1px;stroke-linecap:butt;stroke-linejoin:miter;stroke-opacity:1" d="M43.5 155 40 174.5s20.4-7 31-7c4 0 8.5 0 11.5 2.5 2.5 2.2 3.5 9.5 3.5 9.5s-6.8-3.8-10.5-4c-15-.7-43.5 12-43.5 12l-4-26-7-16 25-1z"/><path style="fill:#9c9fa6;fill-opacity:1;stroke:#000;stroke-width:1px;stroke-linecap:butt;stroke-linejoin:miter;stroke-opacity:1" d="m60.5 55 5-17.5 10 16.5L86 36l9.5 20.5L144 70s-4.1 20.4-12 25.5c-11.6 7.5-41.5.5-41.5.5l-35 38.5 46-1s26.2 6.2 34 16c2.9 3.6 3.8 9 3 13.5-.7 4.4-7 11.5-7 11.5s-2.8-10.4-6.5-14c-7.7-7.5-29.5-13-29.5-13l-57 4.5s-9.5 14.7-17 18.5c-16.7 8.5-38.3.2-56 6.5-9 3.2-24 15.5-24 15.5l9.5 30-78.5 40 18.5-28 38-16-21.5-19.5-7.5-24-37.5 7.5 3-16.5 36.5-3 60.5-32z"/><circle style="fill:#9c9fa6;fill-opacity:1;stroke:#000;stroke-width:1;stroke-linecap:round;stroke-dasharray:none;stroke-opacity:1" cx="45.3" cy="140.8" r="14"/><circle style="fill:#9c9fa6;fill-opacity:1;stroke:#000;stroke-width:1;stroke-linecap:round;stroke-dasharray:none;stroke-opacity:1" cx="96.9" cy="140.7" r="10"/><circle style="fill:#9c9fa6;fill-opacity:1;stroke:#000;stroke-width:1;stroke-linecap:round;stroke-dasharray:none;stroke-opacity:1" cx="35.5" cy="181.5" r="9"/><ellipse style="fill:#fff;fill-opacity:1;stroke:#000;stroke-width:1;stroke-linecap:round;stroke-dasharray:none;stroke-opacity:1" cx="108.5" cy="58.1" rx="11.8" ry="12.1"/><ellipse style="fill:#000;fill-opacity:1;stroke:#000;stroke-width:1.5;stroke-linecap:round;stroke-opacity:1" cx="113" cy="59.1" rx="5.8" ry="5.6"/><ellipse style="fill:#fff;fill-opacity:1;stroke:#000;stroke-width:1;stroke-linecap:round;stroke-dasharray:none;stroke-opacity:1" cx="90.1" cy="57.9" rx="13.4" ry="14.1"/><ellipse style="fill:#000;fill-opacity:1;stroke:#000;stroke-width:1.5;stroke-linecap:round;stroke-opacity:1" cx="94.3" cy="58.6" rx="5.8" ry="5.6"/><path style="fill:none;stroke:#000;stroke-width:1px;stroke-linecap:butt;stroke-linejoin:miter;stroke-opacity:1" d="M64.5 64c6 14.9 18.7 29.2 46.2 25a16 16 0 0 0 6-2"/><path style="fill:#d8ae7e;fill-opacity:1;stroke:#000;stroke-width:1px;stroke-linecap:butt;stroke-linejoin:miter;stroke-opacity:1" d="M274.5 81c.3-5.9.3-12.3-4.3-16.6-2.2-4.4-2-11.8-8.4-12.3-4.9-.3-9.6 2.5-14.4.4-5-.8-8.3 5.3-13.4 3-2 3.8-3.6 7.5-7.3 10-2.6 4.7-4.3 10.6-2 15.7 1.8 4.4-4.7 10 2 12.3 5.8 1.9 8.8 8.4 15.1 9.3 4.4.4 8.9.7 12.8 3 5.3 0 7.4-6 11.3-8.5 4.5-3.3 9.5-7.8 8.7-14V81z"/><circle style="fill:#9f6006;fill-opacity:1;stroke:none;stroke-width:.537854;stroke-linecap:round;stroke-dasharray:none;stroke-opacity:1" cx="246.8" cy="62.6" r="3.5"/><ellipse style="fill:#9f6006;fill-opacity:1;stroke:none;stroke-width:.524338;stroke-linecap:round;stroke-dasharray:none;stroke-opacity:1" cx="259.8" cy="68.2" rx="3.5" ry="3.4"/><circle style="fill:#9f6006;fill-opacity:1;stroke:none;stroke-width:.676407;stroke-linecap:round;stroke-dasharray:none;stroke-opacity:1" cx="236.6" cy="74.2" r="4.4"/><circle style="fill:#9f6006;fill-opacity:1;stroke:none;stroke-width:.781146;stroke-linecap:round;stroke-dasharray:none;stroke-opacity:1" cx="241.2" cy="90.6" r="5.1"/><circle style="fill:#9f6006;fill-opacity:1;stroke:none;stroke-width:.76763;stroke-linecap:round;stroke-dasharray:none;stroke-opacity:1" cx="262.1" cy="87" r="5"/><circle style="fill:#9f6006;fill-opacity:1;stroke:none;stroke-width:.473667;stroke-linecap:round;stroke-dasharray:none;stroke-opacity:1" cx="249.2" cy="77.7" r="3.1"/></svg>