<svg xml:space="preserve" xmlns="http://www.w3.org/2000/svg" viewBox="0 0 300 200"><path style="fill:#fff;fill-opacity:1;stroke:none;stroke-width:.75;stroke-dasharray:none;stroke-opacity:1" d="M0 0h300v200H0z"/><rect style="fill:#b2b2b2;fill-opacity:1;stroke:none;stroke-width:1.28473;stroke-opacity:1" width="50" height="12" x="8" y="6" ry="3.2"/><rect style="fill:#b2b2b2;fill-opacity:1;stroke:none;stroke-width:1.28473;stroke-opacity:1" width="50" height="12" x="64" y="6" ry="3.2"/><rect style="fill:#b2b2b2;fill-opacity:1;stroke:none;stroke-width:1.28473;stroke-opacity:1" width="50" height="12" x="120" y="6" ry="3.2"/><rect style="fill:#b2b2b2;fill-opacity:1;stroke:none;stroke-width:.890087;stroke-opacity:1" width="24" height="12" x="268" y="6" ry="3.2"/><rect style="fill:none;fill-opacity:1;stroke:#b3b3b3;stroke-width:1.0112;stroke-dasharray:none;stroke-opacity:1" width="87" height="161.6" x="204.5" y="26.5" ry="3.6"/><rect style="fill:#b2b2b2;fill-opacity:1;stroke:none;stroke-width:1.28473;stroke-opacity:1" width="50" height="12" x="211.3" y="32" ry="3.2"/><rect style="fill:#b2b2b2;fill-opacity:1;stroke:none;stroke-width:1.55652;stroke-opacity:1" width="73.4" height="12" x="211.3" y="48.3" ry="3.2"/><rect style="fill:#b2b2b2;fill-opacity:1;stroke:none;stroke-width:1.55652;stroke-opacity:1" width="73.4" height="12" x="211.3" y="64.5" ry="3.2"/><rect style="fill:#b2b2b2;fill-opacity:1;stroke:none;stroke-width:1.06901;stroke-opacity:1" width="34.6" height="12" x="211.3" y="80.7" ry="3.2"/><rect style="fill:none;fill-opacity:1;stroke:#b3b3b3;stroke-width:1.0037;stroke-dasharray:none;stroke-opacity:1" width="189" height="163" x="8.5" y="26.5" ry="3.6"/><g transform="matrix(1.23347 0 0 1.23347 -35.2 -18.4)"><rect style="fill:#58595a;fill-opacity:1;stroke:none;stroke-width:.495485;stroke-dasharray:none;stroke-opacity:1" width="23.7" height="22.4" x="129.9" y="95.5" ry="2.8"/><rect style="fill:#58595a;fill-opacity:1;stroke:none;stroke-width:.495485;stroke-dasharray:none;stroke-opacity:1" width="23.7" height="22.4" x="51.3" y="95.4" ry="2.8"/><rect style="fill:#58595a;fill-opacity:1;stroke:none;stroke-width:.495485;stroke-dasharray:none;stroke-opacity:1" width="23.7" height="22.4" x="90.7" y="51.3" ry="2.8"/><path style="color:#000;fill:#58595a;fill-opacity:1;stroke:none;-inkscape-stroke:none" d="M67.3 116.3 78.1 135l.6-2.4h.4l-.4 5-4.3-2.4v-.5l2.8.7-10.7-19zM145.9 116.3l8.8 18.6.7-2.2.4-.1-.5 4.8-4.2-2.4v-.4l2.7.7-8.6-19Z"/><path style="fill:#eee;fill-opacity:1;stroke:#b4b4b4;stroke-width:.810719;stroke-dasharray:none;stroke-opacity:1" d="M88.3 49H112v22.8H88.3z"/><circle style="fill:#fff;fill-opacity:1;stroke:#aaa;stroke-width:.608039;stroke-dasharray:none;stroke-opacity:1" cx="100.2" cy="49.2" r="6"/><path style="fill:#eee;fill-opacity:1;stroke:#b4b4b4;stroke-width:.810719;stroke-dasharray:none;stroke-opacity:1" d="M127.6 93.2h23.7V116h-23.7z"/><circle style="fill:#fff;fill-opacity:1;stroke:#aaa;stroke-width:.608039;stroke-dasharray:none;stroke-opacity:1" cx="139.5" cy="93.4" r="6"/><rect style="fill:#58595a;fill-opacity:1;stroke:none;stroke-width:.495485;stroke-dasharray:none;stroke-opacity:1" width="23.7" height="22.4" x="151.9" y="139.6" ry="2.8"/><path style="fill:#eee;fill-opacity:1;stroke:#b4b4b4;stroke-width:.810719;stroke-dasharray:none;stroke-opacity:1" d="M149.6 137.2h23.7V160h-23.7z"/><circle style="fill:#fff;fill-opacity:1;stroke:#aaa;stroke-width:.608039;stroke-dasharray:none;stroke-opacity:1" cx="161.4" cy="137.5" r="6"/><rect style="fill:#58595a;fill-opacity:1;stroke:none;stroke-width:.495485;stroke-dasharray:none;stroke-opacity:1" width="23.7" height="22.4" x="107.6" y="139.6" ry="2.8"/><path style="fill:#eee;fill-opacity:1;stroke:#b4b4b4;stroke-width:.810719;stroke-dasharray:none;stroke-opacity:1" d="M105.3 137.2H129V160h-23.7z"/><rect style="fill:#58595a;fill-opacity:1;stroke:none;stroke-width:.495485;stroke-dasharray:none;stroke-opacity:1" width="23.7" height="22.4" x="75.3" y="139.6" ry="2.8"/><path style="fill:#eee;fill-opacity:1;stroke:#b4b4b4;stroke-width:.810719;stroke-dasharray:none;stroke-opacity:1" d="M72.9 137.2h23.7V160H72.9z"/><circle style="fill:#fff;fill-opacity:1;stroke:#aaa;stroke-width:.608039;stroke-dasharray:none;stroke-opacity:1" cx="84.8" cy="137.5" r="6"/><path style="fill:#eee;fill-opacity:.997972;stroke:#b4b4b4;stroke-width:.810719;stroke-dasharray:none;stroke-opacity:1" d="M48.9 93h23.7v22.8H48.9z"/><path style="color:#000;fill:#58595a;fill-opacity:1;stroke:none;-inkscape-stroke:none" d="M91 72 67 91.1l-.1-2.5h-.4l-.6 4.3 4.4-.3v-.4l-2.8-.3L92.3 72z"/><circle style="fill:#a9f890;fill-opacity:1;stroke:#aaa;stroke-width:.608039;stroke-dasharray:none;stroke-opacity:1" cx="60.8" cy="93.3" r="6"/><path style="color:#000;fill:#58595a;fill-opacity:1;stroke:none;-inkscape-stroke:none" d="m131.4 116.2-8.7 18.7-.8-2.3h-.3l.4 4.8 4.3-2.4v-.4l-2.7.6 8.5-19zM107.2 72l24 19.1.2-2.5h.4l.6 4.3-4.5-.3v-.4l2.8-.3L106 72Z"/><circle style="fill:#fff;fill-opacity:1;stroke:#aaa;stroke-width:.608039;stroke-dasharray:none;stroke-opacity:1" cx="117.2" cy="137.5" r="6"/></g><path style="fill:#b2b2b2;fill-opacity:1;stroke:none;stroke-width:1.00157" d="M0 0v200h300V0Zm1 1h298v198H1Z"/></svg>