<?xml version="1.0" encoding="UTF-8" standalone="no"?>
<svg
   width="300"
   height="200"
   version="1.1"
   id="svg1"
   sodipodi:docname="lightweight-solidjs.svg"
   inkscape:version="1.3.2 (091e20e, 2023-11-25)"
   inkscape:export-filename="../public/hero-images/lightweight-solidjs.svg"
   inkscape:export-xdpi="96"
   inkscape:export-ydpi="96"
   xml:space="preserve"
   xmlns:inkscape="http://www.inkscape.org/namespaces/inkscape"
   xmlns:sodipodi="http://sodipodi.sourceforge.net/DTD/sodipodi-0.dtd"
   xmlns="http://www.w3.org/2000/svg"
   xmlns:svg="http://www.w3.org/2000/svg"><defs
     id="defs1"><linearGradient
       id="a"
       gradientUnits="userSpaceOnUse"
       x1="27.5"
       y1="3"
       x2="152"
       y2="63.5"><stop
         offset=".1"
         stop-color="#76b3e1"
         id="stop1" /><stop
         offset=".3"
         stop-color="#dcf2fd"
         id="stop2" /><stop
         offset="1"
         stop-color="#76b3e1"
         id="stop3" /></linearGradient><linearGradient
       id="b"
       gradientUnits="userSpaceOnUse"
       x1="95.8"
       y1="32.6"
       x2="74"
       y2="105.2"><stop
         offset="0"
         stop-color="#76b3e1"
         id="stop4" /><stop
         offset=".5"
         stop-color="#4377bb"
         id="stop5" /><stop
         offset="1"
         stop-color="#1f3b77"
         id="stop6" /></linearGradient><linearGradient
       id="c"
       gradientUnits="userSpaceOnUse"
       x1="18.4"
       y1="64.2"
       x2="144.3"
       y2="149.8"><stop
         offset="0"
         stop-color="#315aa9"
         id="stop7" /><stop
         offset=".5"
         stop-color="#518ac8"
         id="stop8" /><stop
         offset="1"
         stop-color="#315aa9"
         id="stop9" /></linearGradient><linearGradient
       id="d"
       gradientUnits="userSpaceOnUse"
       x1="75.2"
       y1="74.5"
       x2="24.4"
       y2="260.8"><stop
         offset="0"
         stop-color="#4377bb"
         id="stop10" /><stop
         offset=".5"
         stop-color="#1a336b"
         id="stop11" /><stop
         offset="1"
         stop-color="#1a336b"
         id="stop12" /></linearGradient></defs><sodipodi:namedview
     id="namedview1"
     pagecolor="#ffffff"
     bordercolor="#666666"
     borderopacity="1.0"
     inkscape:showpageshadow="2"
     inkscape:pageopacity="0.0"
     inkscape:pagecheckerboard="0"
     inkscape:deskcolor="#d1d1d1"
     showguides="true"
     inkscape:zoom="2.3716619"
     inkscape:cx="138.29965"
     inkscape:cy="114.68751"
     inkscape:window-width="1792"
     inkscape:window-height="991"
     inkscape:window-x="0"
     inkscape:window-y="25"
     inkscape:window-maximized="1"
     inkscape:current-layer="svg1"><sodipodi:guide
       position="0,200"
       orientation="0,1"
       id="guide59"
       inkscape:locked="false"
       inkscape:label=""
       inkscape:color="rgb(0,134,229)" /><sodipodi:guide
       position="0,200"
       orientation="1,0"
       id="guide60"
       inkscape:locked="false" /><sodipodi:guide
       position="300,0"
       orientation="0,1"
       id="guide61"
       inkscape:locked="false"
       inkscape:label=""
       inkscape:color="rgb(0,134,229)" /><sodipodi:guide
       position="300,0"
       orientation="1,0"
       id="guide62"
       inkscape:locked="false" /></sodipodi:namedview><rect
     style="fill:#ffffff;fill-opacity:1;stroke:none;stroke-width:1.00157"
     id="rect62"
     width="300"
     height="200"
     x="0"
     y="0"
     ry="5.6843419e-14"
     inkscape:label="bg" /><path
     id="rect58"
     style="fill:#b2b2b2;fill-opacity:1;stroke:none;stroke-width:1.00157"
     d="M 0,0 V 200 H 300 V 0 Z M 1,1 H 299 V 199 H 1 Z"
     inkscape:label="borders"
     sodipodi:nodetypes="cccccccccc" /><path
     style="fill:#000000;fill-opacity:1;stroke:#000000;stroke-width:1.14154px;stroke-linecap:butt;stroke-linejoin:miter;stroke-opacity:1"
     d="m 65.511019,139.87232 h 79.980821 l 0.68068,29.31089 -9.86998,-0.34032 -5.4455,13.61375 h 44.24471 l -5.78585,-14.29445 -8.16826,0.34034 v -28.63021 h 74.19497 l 3.06308,-6.08486 -175.617421,-0.68069 z"
     id="path1" /><path
     style="fill:#000000;fill-opacity:1;stroke:none;stroke-width:1.14154px;stroke-linecap:butt;stroke-linejoin:miter;stroke-opacity:1"
     d="m 161.48802,133.48933 c 0,0 -2.65477,-18.91295 -1.14138,-23.84563 1.5134,-4.9327 2.49924,-4.08337 4.24929,-5.66911 1.36323,-1.23527 4.71997,-2.86014 4.71997,-2.86014 l 0.34035,-3.001879 c 0,0 -9.77184,-1.751852 -14.71383,-2.103281 -1.43289,-0.101902 -2.87622,-0.09558 -4.30955,0 -5.26563,0.351337 -15.6917,2.103281 -15.6917,2.103281 l 0.34035,3.001879 c 0,0 3.79004,1.65047 5.44549,2.86014 2.165,1.58196 3.73768,0.72592 5.72745,5.64846 1.98977,4.92254 -0.57311,23.80578 -0.57311,23.80578 z"
     id="path2"
     sodipodi:nodetypes="czaccaaccazcc" /><path
     id="path24"
     style="fill:#000000;fill-opacity:1;stroke-width:0.923093;stroke-linecap:round"
     d="m 169.04445,114.12345 h 3.36884 a 61.608817,4.2115404 0 0 1 61.60893,-4.2116 61.608817,4.2115404 0 0 1 61.60893,4.2116 H 299 c -10.08185,-6.3345 -24.1966,-4.26455 -35.81313,-5.97961 -9.7125,-0.4982 -19.43985,-0.70779 -29.16465,-0.71124 -21.28228,0.81348 -43.39214,-0.65125 -63.99232,5.52926 z" /><g
     id="g1"
     transform="matrix(0.64563061,0,0,0.64563061,181.69105,25.346543)"><path
       d="M 163,35 C 163,35 110,-4 69,5 l -3,1 c -6,2 -11,5 -14,9 l -2,3 -15,26 26,5 c 11,7 25,10 38,7 l 46,9 z"
       fill="#76b3e1"
       id="path12" /><path
       d="M 163,35 C 163,35 110,-4 69,5 l -3,1 c -6,2 -11,5 -14,9 l -2,3 -15,26 26,5 c 11,7 25,10 38,7 l 46,9 z"
       opacity="0.3"
       fill="url(#a)"
       id="path13"
       style="fill:url(#a)" /><path
       d="m 52,35 -4,1 C 31,41 26,57 35,71 45,84 66,91 83,86 L 145,65 C 145,65 92,26 52,35 Z"
       fill="#518ac8"
       id="path14" /><path
       d="m 52,35 -4,1 C 31,41 26,57 35,71 45,84 66,91 83,86 L 145,65 C 145,65 92,26 52,35 Z"
       opacity="0.3"
       fill="url(#b)"
       id="path15"
       style="fill:url(#b)" /><path
       d="M 134,80 A 45,45 0 0 0 86,65 l -62,20 -20,35 112,19 20,-36 c 4,-7 3,-15 -2,-23 z"
       fill="url(#c)"
       id="path16"
       style="fill:url(#c)" /><path
       d="M 114,115 A 45,45 0 0 0 66,100 L 4,120 c 0,0 53,40 94,30 l 3,-1 c 17,-5 23,-21 13,-34 z"
       fill="url(#d)"
       id="path17"
       style="fill:url(#d)" /></g><ellipse
     style="opacity:1;fill:none;fill-opacity:0.4;stroke:#000000;stroke-width:2.28304;stroke-linecap:round;stroke-dasharray:none;stroke-opacity:1"
     id="path5"
     cx="235.60121"
     cy="128.27773"
     rx="6.5482841"
     ry="6.0202537" /><ellipse
     style="fill:none;fill-opacity:0.4;stroke:#000000;stroke-width:2.28304;stroke-linecap:round;stroke-dasharray:none;stroke-opacity:1"
     id="path5-4"
     cx="65.756096"
     cy="128.27773"
     rx="6.5482841"
     ry="6.0202537" /><path
     id="path4-9"
     style="fill:#000000;fill-opacity:1;stroke-width:0.923093;stroke-linecap:round"
     d="m 169.04445,114.12345 c 0.75917,0.23181 -0.93673,0.93239 0.94978,2.36109 3.27876,3.11181 6.41336,6.37109 9.61601,9.56029 10.8603,3.22164 22.34959,2.68938 33.54124,3.48254 21.85651,0.67548 43.79691,0.46287 65.57307,-1.67216 3.57761,-0.78889 8.10039,-0.53665 10.84226,-3.13696 3.13094,-3.53054 6.35851,-7.12251 9.43319,-10.5948 h -3.36885 a 61.608817,4.2115404 0 0 1 -61.60893,4.21162 61.608817,4.2115404 0 0 1 -61.60893,-4.21162 z" /><path
     id="path24-4"
     style="fill:#000000;fill-opacity:1;stroke-width:0.923093;stroke-linecap:round"
     d="m 1,114.27236 h 3.3688362 a 61.608817,4.2115404 0 0 1 61.6089408,-4.21162 61.608817,4.2115404 0 0 1 61.608933,4.21162 h 3.36884 c -10.08183,-6.33451 -24.19659,-4.26458 -35.813126,-5.97964 -9.712501,-0.49817 -19.439852,-0.70778 -29.164647,-0.71122 -21.282285,0.81348 -43.392153,-0.65125 -63.9923207,5.52927 z" /><path
     style="fill:#fbbb30;fill-opacity:1;stroke:none;stroke-width:1.14154"
     d="m 36.964312,124.86503 c 0.04636,-0.0175 0.725296,-0.25088 1.508758,-0.51865 3.697081,-1.26355 5.76521,-2.05298 6.512199,-2.48576 0.694424,-0.40234 1.585326,-1.17824 2.274881,-1.98125 0.691388,-0.80514 1.444957,-1.99108 1.299712,-2.04545 -0.02227,-0.007 -0.06724,0.0209 -0.09994,0.0648 -0.218329,0.29323 -2.057012,1.7317 -2.918459,2.28322 -1.932977,1.23756 -3.745392,2.01851 -5.857701,2.524 -1.393489,0.33347 -2.632188,0.48019 -3.782455,0.44802 l -0.538699,-0.0151 -0.771907,-0.33267 c -5.15668,-2.22241 -9.497241,-4.60462 -11.900103,-6.53109 -0.790141,-0.63347 -1.396837,-1.25373 -2.191518,-2.24045 -2.190385,-2.71968 -3.851195,-5.04333 -4.515084,-6.31702 l -0.176748,-0.3391 0.138963,-0.27589 c 1.007817,-2.0009 3.514389,-4.35986 6.796575,-6.39633 1.182816,-0.733899 2.623412,-1.462141 3.600983,-1.820368 1.386742,-0.508197 3.27901,-0.821951 4.87305,-0.808057 0.526168,0.0048 1.346795,0.07496 1.660388,0.142541 0.107155,0.02319 0.63704,-0.08977 1.976799,-0.421089 3.420303,-0.845745 6.139502,-1.338118 8.287378,-1.500598 1.487929,-0.112572 4.007354,-0.114359 5.985714,-0.0038 0.959164,0.05344 2.73365,0.207917 2.952894,0.257145 0.07927,0.01778 0.266812,0.01238 0.416771,-0.01201 3.117524,-0.506833 7.86321,-0.476954 13.012492,0.08203 1.277337,0.138652 4.130031,0.523481 5.345869,0.721161 0.574108,0.09333 1.49122,0.242321 2.038046,0.331055 l 0.994214,0.161361 -0.430437,-0.18837 c -0.236741,-0.10361 -1.319706,-0.570265 -2.406588,-1.037013 -1.08688,-0.466758 -2.118958,-0.91089 -2.293496,-0.986963 -0.17454,-0.07607 -0.87426,-0.362082 -1.554939,-0.635594 -1.610048,-0.646994 -2.192013,-0.952865 -3.260637,-1.713771 -0.772505,-0.550056 -1.617699,-1.242823 -1.593892,-1.306427 0.0044,-0.01201 0.251472,0.04134 0.54885,0.11854 1.80808,0.469364 7.507236,1.511878 8.723816,1.595789 0.296328,0.02039 1.131287,0.07812 1.855459,0.128196 2.124175,0.146846 3.469518,0.285647 4.96954,0.512718 3.679137,0.556918 6.143269,1.20119 9.317863,2.436276 3.817377,1.48515 7.258337,3.173255 9.63813,4.728368 0.278961,0.18228 0.514338,0.33411 0.523072,0.33738 0.157796,0.0591 -0.40347,-0.75884 -0.857854,-1.25006 -1.556687,-1.682986 -4.535024,-4.066521 -7.994234,-6.397702 -0.810759,-0.546369 -0.788759,-0.50202 -0.212222,-0.427996 1.155545,0.148354 2.134403,0.405658 3.531549,0.928302 1.573893,0.588769 2.935986,1.261974 4.249631,2.100376 0.853774,0.544905 1.740455,1.234736 2.086057,1.622936 l 0.175096,0.196664 0.0018,-0.104966 c 0.0056,-0.20849 -0.139602,-0.674166 -0.323702,-1.041208 -0.352269,-0.702402 -1.231845,-1.869888 -1.990414,-2.641956 -0.157143,-0.159938 -0.307471,-0.298934 -0.334057,-0.308879 -0.02661,-0.0099 -0.04361,-0.03064 -0.0379,-0.04591 0.01861,-0.04972 0.458665,0.09293 0.823673,0.267258 0.88805,0.424018 1.593834,0.936894 3.878172,2.81817 1.82467,1.502727 2.26967,1.846281 2.73459,2.111175 l 0.25744,0.146649 0.19083,-0.0976 c 3.94237,-2.016841 6.45845,-3.463319 9.27148,-5.33008 1.86492,-1.237581 3.44209,-2.389573 4.81216,-3.51488 l 0.82232,-0.67543 0.65348,-0.151874 c 1.87487,-0.435749 3.9649,-0.79643 4.09364,-0.706443 0.0767,0.0536 -1.26467,1.416901 -2.34,2.378277 -2.02463,1.810094 -4.08453,3.390184 -6.68414,5.127297 -2.03168,1.357599 -4.36386,2.757457 -6.48006,3.88955 -0.3505,0.18751 -0.63239,0.34793 -0.62644,0.35648 0.005,0.009 0.21801,0.0524 0.47121,0.0971 l 0.46034,0.0817 0.6311,0.67139 c 0.78257,0.8325 0.97739,1.15254 1.15984,1.90515 0.11403,0.47058 0.10731,0.73557 -0.0321,1.26921 -0.14565,0.55679 -0.11678,0.9213 0.11428,1.4445 0.11923,0.26998 0.4819,0.90669 0.60608,1.06413 0.17339,0.21977 0.55539,0.57129 1.0827,0.9964 0.58907,0.47487 0.59833,0.45863 -0.21785,0.38136 -0.87217,-0.0827 -1.24661,-0.15791 -1.79184,-0.36032 -0.46613,-0.17308 -0.4963,-0.18935 -0.734,-0.39635 -0.30839,-0.26858 -0.74249,-0.90634 -0.97653,-1.43469 -0.0929,-0.20989 -0.18071,-0.37868 -0.19498,-0.37509 -0.0802,0.0202 -0.30552,0.36899 -0.39978,0.61889 -0.12933,0.34293 -0.15081,0.51623 -0.15944,1.28527 -0.004,0.4016 0.0192,0.64999 0.0771,0.80688 0.10789,0.29241 0.42802,0.71548 0.99471,1.31469 0.47245,0.49955 0.61857,0.6719 0.60359,0.71194 -0.0159,0.0421 -0.50941,-0.0801 -1.03736,-0.25736 -0.85104,-0.28561 -1.61807,-0.71845 -2.34268,-1.32198 -0.1948,-0.16224 -0.35814,-0.29644 -0.36298,-0.29818 -0.005,-9.4e-4 -0.1778,0.44557 -0.38437,0.99409 -0.75284,1.99905 -1.44529,3.00537 -3.14319,4.56797 l -0.46408,0.4271 -1.925897,0.77819 c -1.059234,0.42799 -3.446996,1.39425 -5.306142,2.14722 -1.859126,0.75299 -3.431635,1.38261 -3.494431,1.39916 -0.0645,0.017 -0.0068,-0.0329 0.132533,-0.11427 0.898584,-0.5258 2.309313,-1.59425 3.191411,-2.41707 2.721895,-2.53898 4.164606,-5.33555 3.842879,-7.44902 -0.02495,-0.1642 -0.06024,-0.31273 -0.0785,-0.33004 -0.04469,-0.0426 -0.330489,0.30906 -2.553035,3.14075 -2.424505,3.089 -2.608731,3.30208 -3.865689,4.47065 -1.382729,1.28548 -2.236499,1.9366 -3.034381,2.31411 -3.076603,1.45567 -9.446364,3.34504 -14.773887,4.38212 -2.608306,0.50776 -3.762993,0.61911 -6.543828,0.63108 -1.595046,0.006 -4.83873,-0.10731 -6.333395,-0.22291 -0.357716,-0.0277 -0.738905,-0.0361 -0.847088,-0.0188 -0.108184,0.0173 -0.336631,0.10576 -0.507661,0.19638 -0.171029,0.0906 -0.357611,0.1801 -0.414627,0.19881 -0.05701,0.0188 -0.306214,0.1303 -0.55377,0.24794 -1.301022,0.61827 -3.427523,0.99298 -6.446063,1.13587 -1.257053,0.0595 -4.40061,0.11668 -5.217932,0.0949 -1.590988,-0.0424 -3.136053,-0.16961 -6.610068,-0.54415 -1.104722,-0.1191 -3.288085,-0.38118 -3.341209,-0.40107 -0.01359,-0.005 0.0132,-0.0236 0.05957,-0.0411 z"
     id="path26" /><path
     style="fill:#1e1d1b;stroke:none;stroke-width:1.14154"
     d="m 124.53546,88.750997 c -1.06749,0.04633 -2.04904,0.297405 -3.03352,0.497149 -0.52409,0.106329 -1.18905,0.168901 -1.63376,0.377926 -0.76479,0.359471 -1.33033,1.078534 -1.96139,1.560068 -1.44903,1.105698 -2.94529,2.187913 -4.53224,3.183348 -5.76436,3.615755 -12.067,6.688212 -18.85652,9.292962 -4.756352,1.82474 -9.819349,3.30151 -15.086965,4.44366 -3.898549,0.8453 -7.762329,1.6463 -11.904744,2.08044 -10.338385,1.08348 -21.283073,0.76712 -32.31014,-0.45886 -6.066207,-0.67446 -12.26453,-1.5452 -18.357267,-2.93967 0.06227,0.26896 0.37754,0.99698 0.664253,1.20984 0.385826,0.28646 1.384151,0.40659 1.855018,0.51231 1.600713,0.35946 3.198964,0.67472 4.801941,0.97693 7.767998,1.46451 15.685319,2.33024 23.314226,2.65705 7.568001,0.32421 15.029735,0.28792 22.273127,-0.3377 2.437694,-0.21056 4.90356,-0.42016 7.258688,-0.79697 3.349156,-0.53585 6.601089,-1.34243 9.737454,-2.20152 8.577574,-2.34951 16.523579,-5.42024 23.655969,-9.390279 4.03452,-2.24571 7.76324,-4.784036 11.06716,-7.619985 0.80889,-0.694332 1.56671,-1.420172 2.31205,-2.157118 0.21635,-0.21391 0.77426,-0.57712 0.73666,-0.889581 z"
     id="path25" /><path
     id="path4-9-4"
     style="fill:#000000;fill-opacity:1;stroke-width:0.923093;stroke-linecap:round"
     d="m 1,114.27236 c 0.75916,0.2318 -0.93672491,0.93239 0.9497834,2.36108 3.2787472,3.11182 6.4133652,6.37109 9.6160186,9.56029 10.860292,3.22164 22.349579,2.68939 33.541232,3.48254 21.856507,0.67549 43.796905,0.46286 65.573066,-1.67216 3.57761,-0.78888 8.10039,-0.53665 10.84226,-3.13697 3.13094,-3.53052 6.35851,-7.1225 9.43319,-10.59478 h -3.36884 a 61.608817,4.2115404 0 0 1 -61.608933,4.2116 61.608817,4.2115404 0 0 1 -61.6089408,-4.2116 z" /></svg>
