<?xml version="1.0" encoding="UTF-8" standalone="no"?>
<!-- Created with Inkscape (http://www.inkscape.org/) -->

<svg
   width="1920"
   height="1080"
   viewBox="0 0 508 285.75"
   version="1.1"
   id="svg1"
   inkscape:version="1.4 (e7c3feb1, 2024-10-09)"
   sodipodi:docname="slide-1-5.svg"
   xml:space="preserve"
   xmlns:inkscape="http://www.inkscape.org/namespaces/inkscape"
   xmlns:sodipodi="http://sodipodi.sourceforge.net/DTD/sodipodi-0.dtd"
   xmlns="http://www.w3.org/2000/svg"
   xmlns:svg="http://www.w3.org/2000/svg"><sodipodi:namedview
     id="namedview1"
     pagecolor="#ffffff"
     bordercolor="#666666"
     borderopacity="1.0"
     inkscape:showpageshadow="2"
     inkscape:pageopacity="0.0"
     inkscape:pagecheckerboard="0"
     inkscape:deskcolor="#d1d1d1"
     inkscape:document-units="px"
     inkscape:zoom="0.30729166"
     inkscape:cx="909.55933"
     inkscape:cy="1078.7797"
     inkscape:window-width="1792"
     inkscape:window-height="1010"
     inkscape:window-x="0"
     inkscape:window-y="31"
     inkscape:window-maximized="0"
     inkscape:current-layer="layer1" /><defs
     id="defs1"><rect
       x="653.51049"
       y="434.90663"
       width="29.914212"
       height="66.731705"
       id="rect93" /><rect
       x="494.73505"
       y="529.25145"
       width="1682.0992"
       height="296.84103"
       id="rect92" /></defs><g
     inkscape:label="Calque 1"
     inkscape:groupmode="layer"
     id="layer1"><g
       id="g1" /><path
       style="opacity:1;fill:#0d7c76;fill-opacity:1;stroke-width:0.130291"
       id="path64796"
       sodipodi:type="arc"
       sodipodi:cx="255.71962"
       sodipodi:cy="167.74583"
       sodipodi:rx="96.308334"
       sodipodi:ry="96.308334"
       sodipodi:start="1.3766391"
       sodipodi:end="1.3756408"
       sodipodi:open="true"
       sodipodi:arc-type="arc"
       d="M 274.30132,262.2446 A 96.308334,96.308334 0 0 1 161.2255,186.35112 96.308334,96.308334 0 0 1 237.09076,73.25636 96.308334,96.308334 0 0 1 350.20444,149.09339 96.308334,96.308334 0 0 1 274.39565,262.226" /><path
       style="fill:none;stroke:#ffffff;stroke-width:2.64583;stroke-linecap:round;stroke-linejoin:round;stroke-dasharray:none;stroke-opacity:1"
       d="m 271.97883,90.944119 c -8.27818,37.843251 48.97447,33.116431 55.17532,32.496351 -7.89076,-6.55781 -16.49858,-12.21389 -24.88597,-18.11272 l 0.53271,11.94831"
       id="path64798"
       sodipodi:nodetypes="cccc" /><path
       style="fill:none;stroke:#fffeff;stroke-width:2.64583;stroke-linecap:round;stroke-linejoin:round;stroke-dasharray:none;stroke-opacity:1"
       d="m 283.16611,98.097881 0.45662,12.176619"
       id="path64799" /><path
       style="fill:none;stroke:#fffcff;stroke-width:2.64583;stroke-linecap:round;stroke-linejoin:round;stroke-dasharray:none;stroke-opacity:1"
       d="m 293.36402,115.29736 -0.76104,-17.123374 16.59064,-4.566232"
       id="path64800" /><path
       style="fill:none;stroke:#ffffff;stroke-width:2.64583;stroke-linecap:round;stroke-linejoin:round;stroke-dasharray:none;stroke-opacity:1"
       d="m 308.50869,103.12074 5.7839,-1.59818"
       id="path64801" /><path
       id="path64802"
       style="fill:none;stroke:#ffffff;stroke-width:2.64583;stroke-linecap:round;stroke-linejoin:round;stroke-dasharray:none;stroke-opacity:1"
       d="m 301.1266,86.910618 -17.80831,4.870648 -7.83869,-6.012206 c 4.1751,-6.958321 23.87314,-19.932683 36.41571,-1.826491 7.55639,10.908249 10.71952,21.046401 13.33599,29.819301"
       sodipodi:nodetypes="cccsc" /><path
       style="fill:none;stroke:#ffffff;stroke-width:3.81638;stroke-linecap:round;stroke-linejoin:round;stroke-dasharray:none;stroke-opacity:1"
       d="m 259.87624,259.83622 c 3.79773,-50.58762 -65.4884,-48.61561 -81.08896,-48.31079 11.35991,9.35907 25.41849,19.08038 37.45352,27.44686 l -1.62508,-17.18143"
       id="path64798-9"
       sodipodi:nodetypes="cccc" /><path
       style="fill:none;stroke:#fffeff;stroke-width:3.81638;stroke-linecap:round;stroke-linejoin:round;stroke-dasharray:none;stroke-opacity:1"
       d="m 243.8502,250.59195 -2.38737,-19.24348"
       id="path64799-6"
       sodipodi:nodetypes="cc" /><path
       style="fill:none;stroke:#fffcff;stroke-width:3.81638;stroke-linecap:round;stroke-linejoin:round;stroke-dasharray:none;stroke-opacity:1"
       d="m 227.55303,226.48204 2.13907,22.65709 -25.7855,3.96562"
       id="path64800-9"
       sodipodi:nodetypes="ccc" /><path
       style="fill:none;stroke:#ffffff;stroke-width:3.81638;stroke-linecap:round;stroke-linejoin:round;stroke-dasharray:none;stroke-opacity:1"
       d="m 207.53146,240.7597 -8.51921,0.4399"
       id="path64801-9"
       sodipodi:nodetypes="cc" /><path
       id="path64802-8"
       style="fill:none;stroke:#ffffff;stroke-width:3.81638;stroke-linecap:round;stroke-linejoin:round;stroke-dasharray:none;stroke-opacity:1"
       d="m 220.6861,265.24533 24.04552,-7.04714 8.68321,8.98649 c -5.62308,10.43797 -31.59906,28.22958 -49.94146,2.01533 -11.05056,-15.79303 -15.88346,-30.62716 -19.8955,-43.46852"
       sodipodi:nodetypes="cccsc" /><path
       style="fill:none;stroke:#ffffff;stroke-width:4.23333;stroke-linecap:butt;stroke-linejoin:miter;stroke-dasharray:none;stroke-opacity:1"
       d="m 192.60251,148.70695 -8.06702,1e-5 0.30442,42.00932 7.9148,10e-6"
       id="path64803"
       sodipodi:nodetypes="cccc" /><path
       style="fill:none;stroke:#ffffff;stroke-width:4.23279;stroke-linecap:butt;stroke-linejoin:miter;stroke-dasharray:none;stroke-opacity:1"
       d="m 319.64367,148.82937 8.0649,10e-6 -0.30434,42.0097 -7.91272,1e-5"
       id="path64803-7"
       sodipodi:nodetypes="cccc" /><path
       style="fill:none;stroke:#ffffff;stroke-width:4.23333;stroke-linecap:butt;stroke-linejoin:miter;stroke-dasharray:none;stroke-opacity:1"
       d="m 215.73808,156.77397 c -3.8953,-0.92505 -8.37496,-1.12359 -11.82981,1.2206 -1.73973,1.05036 -2.97941,3.09905 -2.53587,5.1657 0.66234,2.73166 3.27465,4.38367 5.77016,5.25759 2.92932,1.1468 6.37059,1.45669 8.67266,3.80328 2.80926,3.18186 1.75854,8.85034 -2.05723,10.75507 -3.34125,1.48944 -7.11729,0.65305 -10.48398,-0.30397 -0.91952,-0.25913 -1.83497,-0.5327 -2.75671,-0.78396"
       id="path64804" /><path
       style="fill:none;stroke:#ffffff;stroke-width:4.23333;stroke-linecap:butt;stroke-linejoin:miter;stroke-dasharray:none;stroke-opacity:1"
       d="m 246.63625,157.23058 21.30908,1e-5"
       id="path64805"
       sodipodi:nodetypes="cc" /><path
       style="fill:none;stroke:#ffffff;stroke-width:4.23333;stroke-linecap:butt;stroke-linejoin:miter;stroke-dasharray:none;stroke-opacity:1"
       d="m 223.21873,156.90688 16.68111,0.10764"
       id="path64805-5"
       sodipodi:nodetypes="cc" /><path
       style="fill:none;stroke:#ffffff;stroke-width:4.23333;stroke-linecap:butt;stroke-linejoin:miter;stroke-dasharray:none;stroke-opacity:1"
       d="m 246.85639,169.8626 21.30908,1e-5"
       id="path64805-6"
       sodipodi:nodetypes="cc" /><path
       style="fill:none;stroke:#ffffff;stroke-width:4.23333;stroke-linecap:butt;stroke-linejoin:miter;stroke-dasharray:none;stroke-opacity:1"
       d="m 246.85639,182.03351 21.30908,1e-5"
       id="path64805-3"
       sodipodi:nodetypes="cc" /><path
       style="fill:none;stroke:#ffffff;stroke-width:4.23333;stroke-linecap:butt;stroke-linejoin:miter;stroke-dasharray:none;stroke-opacity:1"
       d="m 230.0456,183.86694 c -0.0964,-12.07517 -0.0288,-20.46405 -0.0984,-32.53934 0.30694,-3.29942 0.67216,-5.02663 3.92405,-5.53871 2.70943,-0.28658 5.17813,0.10815 7.74213,0.78715"
       id="path64806"
       sodipodi:nodetypes="cccc" /><path
       style="fill:none;stroke:#ffffff;stroke-width:4.23333;stroke-linecap:butt;stroke-linejoin:miter;stroke-dasharray:none;stroke-opacity:1"
       d="m 275.02325,157.24322 10.76271,0.10763 -0.10763,26.42246"
       id="path64807" /><path
       style="fill:none;stroke:#ffffff;stroke-width:4.23333;stroke-linecap:butt;stroke-linejoin:miter;stroke-dasharray:none;stroke-opacity:1"
       d="m 298.16309,184.09619 -0.0538,-29.11314"
       id="path64808" /><path
       style="fill:none;stroke:#ffffff;stroke-width:4.23333;stroke-linecap:butt;stroke-linejoin:miter;stroke-dasharray:none;stroke-opacity:1"
       d="m 314.46859,158.05042 c -1.75207,-0.89219 -3.62682,-1.81856 -5.65079,-1.6681 -2.3173,0.006 -4.49716,1.10506 -6.18709,2.63647 -1.73833,1.49383 -3.16023,3.30315 -4.68289,5.00495"
       id="path64809" /><path
       style="opacity:1;fill:#ffffff;fill-opacity:1;stroke:#ffffff;stroke-width:4.64044;stroke-linecap:round;stroke-linejoin:round;stroke-dasharray:none;stroke-opacity:1"
       id="path64810"
       sodipodi:type="arc"
       sodipodi:cx="285.97443"
       sodipodi:cy="146.93794"
       sodipodi:rx="0.79213744"
       sodipodi:ry="0.7379818"
       sodipodi:start="1.3766391"
       sodipodi:end="1.3756408"
       sodipodi:open="true"
       sodipodi:arc-type="arc"
       d="m 286.12726,147.66206 a 0.79213744,0.7379818 0 0 1 -0.93005,-0.58155 0.79213744,0.7379818 0 0 1 0.62399,-0.86661 0.79213744,0.7379818 0 0 1 0.93037,0.58111 0.79213744,0.7379818 0 0 1 -0.62353,0.86691" /><text
       xml:space="preserve"
       style="font-size:16.9333px;line-height:1.25;font-family:sans-serif;text-align:center;text-anchor:middle;stroke-width:0.264583"
       x="26.19795"
       y="36.814259"
       id="text64810"><tspan
         sodipodi:role="line"
         id="tspan64810"
         style="font-size:16.9333px;text-align:start;text-anchor:start;stroke-width:0.264583"
         x="26.19795"
         y="36.814259">Groupe : Numérique Responsable</tspan></text></g></svg>
