<?xml version="1.0" encoding="UTF-8" standalone="no"?>
<!-- Created with Inkscape (http://www.inkscape.org/) -->

<svg
   width="1920"
   height="1080"
   viewBox="0 0 508 285.75"
   version="1.1"
   id="svg1"
   inkscape:version="1.4 (e7c3feb1, 2024-10-09)"
   sodipodi:docname="slide0.svg"
   xmlns:inkscape="http://www.inkscape.org/namespaces/inkscape"
   xmlns:sodipodi="http://sodipodi.sourceforge.net/DTD/sodipodi-0.dtd"
   xmlns="http://www.w3.org/2000/svg"
   xmlns:svg="http://www.w3.org/2000/svg">
  <sodipodi:namedview
     id="namedview1"
     pagecolor="#ffffff"
     bordercolor="#666666"
     borderopacity="1.0"
     inkscape:showpageshadow="2"
     inkscape:pageopacity="0.0"
     inkscape:pagecheckerboard="0"
     inkscape:deskcolor="#d1d1d1"
     inkscape:document-units="px"
     inkscape:zoom="0.43457604"
     inkscape:cx="773.16733"
     inkscape:cy="618.99409"
     inkscape:window-width="1792"
     inkscape:window-height="1011"
     inkscape:window-x="0"
     inkscape:window-y="31"
     inkscape:window-maximized="1"
     inkscape:current-layer="layer1" />
  <defs
     id="defs1" />
  <g
     inkscape:label="Calque 1"
     inkscape:groupmode="layer"
     id="layer1">
    <text
       xml:space="preserve"
       style="font-size:16.9333px;line-height:1.25;font-family:sans-serif;stroke-width:0.264583"
       x="237.73064"
       y="103.93552"
       id="text1"><tspan
         sodipodi:role="line"
         id="tspan1"
         style="font-size:16.9333px;stroke-width:0.264583"
         x="237.73064"
         y="103.93552">Comment faire des frontends</tspan></text>
    <text
       xml:space="preserve"
       style="font-size:16.9333px;line-height:1.25;font-family:sans-serif;stroke-width:0.264583"
       x="237.97041"
       y="128.66975"
       id="text2"><tspan
         sodipodi:role="line"
         id="tspan2"
         style="font-size:16.9333px;stroke-width:0.264583"
         x="237.97041"
         y="128.66975">web performants</tspan></text>
    <text
       xml:space="preserve"
       style="font-size:16.9333px;line-height:1.25;font-family:sans-serif;stroke-width:0.264583"
       x="236.7054"
       y="161.23383"
       id="text3"><tspan
         sodipodi:role="line"
         id="tspan3"
         style="font-size:16.9333px;stroke-width:0.264583"
         x="236.7054"
         y="161.23383"><tspan
           style="font-size:16.9333px;fill:#ee6714;fill-opacity:1"
           id="tspan10">[</tspan><tspan
           style="font-size:19.7556px;fill:#006396;fill-opacity:1"
           id="tspan15">55 diagramm</tspan><tspan
           style="font-size:16.9333px;fill:#ee6714;fill-opacity:1"
           id="tspan8">☰</tspan><tspan
           style="font-size:19.7556px;fill:#006396;fill-opacity:1"
           id="tspan16">s</tspan><tspan
           style="font-size:16.9333px;fill:#ee6714;fill-opacity:1"
           id="tspan11">]</tspan></tspan></text>
    <text
       xml:space="preserve"
       style="font-size:16.9333px;line-height:1.25;font-family:sans-serif;stroke-width:0.264583"
       x="237.02786"
       y="193.97169"
       id="text4"><tspan
         sodipodi:role="line"
         id="tspan4"
         style="font-size:16.9333px;fill:#777777;fill-opacity:1;stroke-width:0.264583"
         x="237.02786"
         y="193.97169">Nawfel Bengherbia</tspan></text>
    <text
       xml:space="preserve"
       style="font-size:16.9333px;line-height:1.25;font-family:sans-serif;stroke-width:0.264583"
       x="437.73801"
       y="24.751646"
       id="text5"><tspan
         sodipodi:role="line"
         id="tspan5"
         style="font-size:16.9333px;stroke-width:0.264583"
         x="437.73801"
         y="24.751646"><tspan
           style="fill:#ee6714;fill-opacity:1"
           id="tspan12">[</tspan><tspan
           style="font-size:19.7556px;fill:#006396;fill-opacity:1"
           id="tspan6">sf</tspan><tspan
           style="fill:#ee6714;fill-opacity:1"
           id="tspan14">☰</tspan><tspan
           style="font-size:19.7556px;fill:#006396;fill-opacity:1"
           id="tspan7">ir</tspan><tspan
           style="fill:#ee6714;fill-opacity:1"
           id="tspan13">]</tspan></tspan></text>
    <g
       id="g7"
       transform="matrix(0.74961835,0,0,0.74961835,7.5962525,69.795749)">
      <path
         style="fill:#b3b3b1"
         d="m 124.01482,190.77701 c -1.05965,-0.18687 -1.9573,-0.53992 -2.6627,-1.04726 -0.81268,-0.58449 -2.82529,-2.46785 -4.11837,-3.85388 -0.59339,-0.63604 -1.68386,-1.69933 -2.42327,-2.36287 -2.76221,-2.47876 -5.51691,-5.54313 -6.01234,-6.68823 -0.74633,-1.725 -0.78604,-3.97107 -0.12612,-7.1348 0.64693,-3.10146 2.67104,-10.90416 3.97006,-15.30407 0.21554,-0.73006 0.39189,-1.3793 0.39189,-1.44275 0,-0.0634 -0.42132,-0.39617 -0.93627,-0.73938 -1.29036,-0.86002 -2.39164,-1.75152 -2.55546,-2.06868 -0.0933,-0.18064 -0.1864,-1.04771 -0.29144,-2.71414 -0.24118,-3.82651 -0.068,-3.26514 -1.46856,-4.75971 -0.66126,-0.70562 -1.40301,-1.41202 -1.64833,-1.56978 -0.24533,-0.15775 -1.11584,-0.97127 -1.93448,-1.80782 -0.81863,-0.83655 -2.29032,-2.34033 -3.27042,-3.34175 -1.881251,-1.92218 -2.685051,-2.8685 -3.504105,-4.12542 -0.551392,-0.84616 -1.168364,-2.0418 -1.437012,-2.7848 -0.289768,-0.80141 -0.240959,-0.79831 -1.685049,-0.10695 -7.113626,3.40565 -14.304587,3.41802 -19.467144,0.0335 -1.560284,-1.02291 -3.913981,-3.20516 -4.730566,-4.38598 -0.28934,-0.41839 -0.727596,-0.85311 -1.355329,-1.34438 -2.097447,-1.64149 -3.514946,-3.03235 -4.263127,-4.18303 -0.171704,-0.26408 -0.714452,-0.82584 -1.206105,-1.24836 -2.277585,-1.95733 -3.181213,-3.02388 -4.065713,-4.79874 -1.180789,-2.36941 -1.538283,-4.27203 -1.651441,-8.78916 -0.08109,-3.237 0.102868,-5.617211 0.705052,-9.122621 0.377008,-2.194623 0.480092,-1.957739 -0.882476,-2.027902 -1.42105,-0.07317 -1.866499,-0.180732 -3.024869,-0.73038 -0.912018,-0.432754 -0.912876,-0.433499 -3.216923,-2.79005 -1.267564,-1.296449 -2.628754,-2.615264 -3.024868,-2.930699 -0.8744,-0.696307 -5.627342,-5.553149 -6.221229,-6.357227 -1.643798,-2.225574 -2.392272,-5.791451 -2.134342,-10.168425 0.186213,-3.159973 0.603817,-5.277324 1.621397,-8.220852 1.944455,-5.624676 6.273391,-12.413391 12.245906,-19.204249 1.259194,-1.431726 4.901141,-5.13719 6.713618,-6.830706 6.872528,-6.421455 15.699628,-12.712991 23.016765,-16.405254 7.248501,-3.657629 13.880731,-5.796095 20.45387,-6.595051 1.9906,-0.241955 6.24387,-0.244268 7.77823,-0.0042 3.2069,0.50169 5.78904,1.534787 7.64308,3.057945 0.93623,0.769147 9.11642,8.962062 10.91451,10.931487 1.13248,1.240396 2.72005,3.170489 3.25128,3.952752 0.86837,1.278727 1.68475,3.334367 2.14156,5.392388 1.25514,5.654745 0.8273,12.165985 -1.19865,18.242101 -0.26036,0.780852 -0.47338,1.504296 -0.47338,1.607652 0,0.217365 2.98846,3.262422 3.20178,3.262422 0.14115,0 1.09072,-2.570522 2.07279,-5.611118 0.60437,-1.871166 0.8403,-2.322067 1.63941,-3.133135 1.33017,-1.350073 3.50662,-2.444339 5.80659,-2.91941 0.80881,-0.167065 2.48057,-0.19174 3.11296,-0.04595 1.04433,0.24076 1.96226,0.950296 2.78281,2.15104 l 0.3231,0.472798 0.34528,-0.706388 c 0.88966,-1.820108 3.42299,-3.485908 6.35464,-4.178513 1.008,-0.238142 2.62099,-0.289992 3.38702,-0.108876 1.20514,0.284941 1.71162,0.657993 2.54962,1.877924 0.30606,0.44556 0.59716,0.823153 0.64687,0.839096 0.0878,0.02815 0.33848,-0.721225 2.3025,-6.882706 2.02128,-6.341116 4.26626,-12.430353 6.13546,-16.641748 0.90633,-2.041987 1.33494,-2.850274 1.77711,-3.351293 0.78053,-0.884428 2.32415,-1.715739 4.10372,-2.210048 0.63869,-0.177408 1.00496,-0.209123 2.43239,-0.210623 1.91559,-0.002 2.87437,0.127513 3.57611,0.483115 0.89211,0.452067 2.65159,2.30973 4.61484,4.872365 0.14777,0.192886 0.40705,0.408661 0.57617,0.4795 0.16912,0.07084 0.58551,0.352129 0.92532,0.62509 0.33981,0.272961 0.64621,0.463189 0.6809,0.422728 0.0347,-0.04046 0.44316,-1.024238 0.90772,-2.186171 0.98283,-2.458177 2.33695,-5.465688 2.75737,-6.124146 1.29127,-2.022347 5.30825,-3.491639 8.34466,-3.052228 1.59567,0.230917 2.15184,0.622131 4.61443,3.245865 2.37932,2.535011 2.67796,2.836461 3.35416,3.385779 0.49809,0.404617 3.26489,3.302506 4.17162,4.369254 0.80573,0.947929 0.91087,1.163617 0.91087,1.868508 0,0.796125 -0.14757,1.302953 -0.90986,3.124925 -0.7307,1.746474 -1.27122,3.276478 -1.1872,3.360502 0.034,0.03403 0.22811,-0.02258 0.43128,-0.125802 0.52537,-0.266911 1.78277,-0.64661 2.62606,-0.792995 1.02708,-0.17829 2.7921,-0.160586 3.52887,0.0354 1.3516,0.359527 1.94229,0.815079 4.11963,3.177146 0.93078,1.009746 2.2158,2.314893 2.85559,2.900328 0.63979,0.585435 1.63671,1.579321 2.21538,2.208634 0.57866,0.629314 1.62648,1.73371 2.32847,2.454213 1.06221,1.090215 1.33288,1.429016 1.61322,2.019334 0.36972,0.778527 0.61955,1.789348 0.62213,2.517213 l 0.002,0.46901 1.60846,1.645067 c 2.071,2.11813 3.20297,3.473797 3.6522,4.373931 0.34331,0.687896 0.35667,0.752111 0.34962,1.680482 -0.009,1.180714 -0.15827,1.764371 -0.92246,3.606014 -0.90114,2.171711 -3.08799,7.076271 -3.97783,8.921298 -0.44331,0.919169 -0.80602,1.691094 -0.80602,1.715388 0,0.05375 0.24663,0.01256 1.48843,-0.248639 2.77474,-0.583626 5.2542,-0.419729 6.61345,0.437163 0.54973,0.346556 2.48661,2.309955 3.83848,3.891028 0.62094,0.726216 1.26727,1.391021 1.43628,1.477345 0.38505,0.196669 2.86086,2.675138 3.82405,3.828163 1.58391,1.896075 2.29291,2.993944 2.29291,3.550503 0,0.167736 -0.10616,0.617103 -0.23592,0.998594 -0.17568,0.516538 -0.20559,0.705256 -0.11714,0.739197 0.0653,0.02507 0.54354,-0.04183 1.06272,-0.148649 1.33858,-0.275425 1.54782,-0.259606 2.19413,0.165878 1.2056,0.793674 3.47317,3.006462 4.86872,4.75109 0.28417,0.355252 0.94172,0.997134 1.46122,1.426403 1.60601,1.327079 3.93451,3.867793 4.6843,5.111218 0.19871,0.32953 0.21602,0.452623 0.17551,1.248359 -0.078,1.532743 -0.93656,3.671059 -2.15132,5.358209 -1.07074,1.48713 -2.1567,2.23865 -3.64421,2.5219 -2.40175,0.45734 -16.59819,3.71341 -16.71936,3.83472 -0.18534,0.18556 -0.7716,1.7727 -1.56776,4.24428 -0.72408,2.24782 -0.73854,2.31152 -0.58614,2.58294 0.0859,0.15305 0.77786,0.84445 1.5376,1.53644 0.75973,0.69199 2.09543,2.03598 2.96821,2.98666 0.87279,0.95067 1.80683,1.9149 2.07566,2.14273 0.6558,0.55579 0.8799,0.82891 1.21539,1.48132 0.55033,1.07016 0.71798,2.55329 0.42776,3.784 -0.0765,0.32455 -0.4908,1.38326 -0.92059,2.35267 -0.42979,0.96942 -1.22742,2.82129 -1.77252,4.11526 -1.21365,2.88104 -1.79847,4.18087 -2.6123,5.80622 -2.71919,5.43065 -5.93677,9.67133 -8.84391,11.65605 -0.94113,0.64251 -3.01923,1.68823 -4.0192,2.0225 -0.94863,0.31711 -2.3726,0.51466 -3.30114,0.45797 -1.67113,-0.10202 -2.77111,-0.56117 -3.89419,-1.62548 -0.37619,-0.35651 -0.7064,-0.64819 -0.7338,-0.64819 -0.0274,0 -0.34404,0.39971 -0.70364,0.88825 -0.84441,1.14717 -2.35758,2.64617 -3.45074,3.41844 -1.09033,0.77027 -2.75083,1.58729 -3.73513,1.83781 -0.95005,0.2418 -2.50404,0.26083 -3.35575,0.0411 -1.58678,-0.40938 -2.80765,-1.46537 -3.56985,-3.08774 -0.24217,-0.51548 -0.49182,-1.04139 -0.55477,-1.16869 -0.0746,-0.15082 -0.28345,-0.28871 -0.59951,-0.39579 -0.70551,-0.23901 -1.05273,-0.43078 -1.94748,-1.07557 -0.45131,-0.32524 -0.83621,-0.54022 -0.88299,-0.49318 -0.18503,0.18605 -0.77032,4.02864 -1.00685,6.61025 -0.15852,1.73013 -0.22309,1.98555 -0.60248,2.38321 -0.47774,0.50076 -2.03687,0.7811 -4.3418,0.78069 -1.30121,-2.3e-4 -1.73203,-0.0372 -2.40999,-0.2069 -1.53635,-0.38453 -2.35933,-0.85368 -3.48867,-1.98878 -0.69419,-0.69774 -1.728,-1.30256 -2.73437,-1.59973 -0.38902,-0.11487 -0.43329,-0.10987 -0.55615,0.0628 -0.0734,0.10318 -0.55575,0.83579 -1.07186,1.62802 -2.67391,4.10443 -5.96842,7.10522 -9.00828,8.20517 -1.69174,0.61215 -3.0866,0.62835 -4.79784,0.0557 -1.20755,-0.40407 -1.8618,-0.73856 -2.7537,-1.40783 -0.60405,-0.45327 -1.52063,-1.46933 -1.78585,-1.97967 -0.0618,-0.11884 -0.14613,-0.21606 -0.18748,-0.21606 -0.0414,0 -0.4352,0.48123 -0.87521,1.0694 -2.57702,3.44473 -5.62323,5.37059 -8.30794,5.25239 -0.91982,-0.0405 -1.60141,-0.32731 -2.91358,-1.22603 -1.67367,-1.14632 -4.22185,-3.48104 -5.36096,-4.91189 -0.25604,-0.32161 -1.02123,-1.05127 -1.70042,-1.62146 -1.19462,-1.00291 -1.25333,-1.03879 -1.80078,-1.10073 -0.50862,-0.0575 -0.64082,-0.12429 -1.306,-0.6594 -0.96502,-0.77631 -3.36231,-3.1092 -4.15677,-4.0451 -0.3433,-0.40441 -0.88345,-0.93721 -1.20034,-1.18399 -0.31689,-0.24678 -1.387,-1.24695 -2.37802,-2.2226 -1.0808,-1.06404 -1.83559,-1.73793 -1.88619,-1.684 -0.22039,0.2349 -2.0431,5.48545 -3.03141,8.73237 -2.2976,7.54837 -4.37718,17.10445 -5.62142,25.83142 -0.34724,2.43554 -0.46071,2.74005 -1.151,3.08878 -0.52731,0.26639 -1.97505,0.6469 -3.45699,0.9086 -1.44793,0.25569 -3.70947,0.31803 -4.76767,0.13142 z m -4.87258,-11.89618 c 0.63957,-0.12912 1.46649,-0.32519 1.8376,-0.43571 l 0.67475,-0.20095 0.1118,-0.79141 c 1.41209,-9.99581 3.60039,-19.97714 6.21574,-28.35133 1.3697,-4.3857 3.20915,-9.27515 5.16608,-13.73194 l 0.5903,-1.34439 0.61522,-0.30529 c 1.02018,-0.50625 3.08638,-1.15432 5.47193,-1.71628 1.24115,-0.29238 2.30668,-0.58371 2.36783,-0.64741 0.0929,-0.0968 2.91368,-9.96828 2.91368,-10.19662 0,-0.0414 -0.16204,-0.0468 -0.3601,-0.012 -1.77897,0.3123 -4.7857,0.71221 -4.8525,0.64541 -0.10931,-0.10931 0.77111,-2.05454 2.06959,-4.57261 3.87552,-7.51557 5.24783,-10.79292 5.93547,-14.1751 0.26715,-1.31404 0.29464,-1.59949 0.2486,-2.58171 -0.09,-1.919858 -0.58658,-3.167614 -1.75495,-4.409605 -1.45669,-1.548466 -3.2918,-2.439574 -6.08749,-2.956007 -1.27707,-0.235907 -5.10065,-0.232885 -6.86597,0.0054 -5.19583,0.70142 -10.94312,2.5485 -16.3727,5.26191 -7.53504,3.765602 -12.81161,8.036732 -16.1757,13.093432 -2.792609,4.19769 -4.086111,8.19434 -4.086111,12.62522 0,1.93306 0.403688,3.60223 1.305688,5.39877 0.752608,1.49899 1.676472,2.743 3.229313,4.34838 0.8977,0.92808 1.02992,0.96061 1.03313,0.25418 0.003,-0.58069 0.46463,-2.62736 0.8481,-3.75714 1.47416,-4.34317 4.38511,-8.70374 8.65506,-12.96521 3.78892,-3.78138 7.71871,-6.68425 11.85195,-8.75481 2.78879,-1.39706 4.67855,-1.98984 6.59623,-2.06912 1.41491,-0.0585 2.0891,0.0855 2.58958,0.55299 l 0.31193,0.29138 -0.0562,1.0774 c -0.0309,0.59258 -0.1259,1.4015 -0.21109,1.79761 -0.2461,1.14435 -1.23516,4.01726 -2.03185,5.90186 -0.70145,1.6593 -5.00825,10.33932 -5.41017,10.90376 -0.119,0.16712 -0.60972,0.48461 -1.27288,0.82353 -3.2416,1.65668 -7.22417,4.25635 -9.48264,6.1899 -1.15252,0.98672 -2.54871,2.36791 -3.46759,3.43034 l -0.85265,0.98586 v 0.61996 c 0,0.79036 0.2918,9.39948 0.31953,9.42721 0.0114,0.0114 0.51755,-0.46272 1.12473,-1.05364 1.84645,-1.79698 5.8658,-5.2516 6.1101,-5.2516 0.0703,0 0.12785,0.0483 0.12785,0.10727 0,0.059 -0.30508,1.04208 -0.67796,2.18463 -2.40878,7.3809 -5.59524,18.83314 -7.03054,25.26801 -0.38185,1.71193 -0.39643,1.83935 -0.40104,3.50501 -0.004,1.56421 0.0163,1.78956 0.2172,2.37096 0.65557,1.89733 2.07525,3.0404 4.2661,3.43491 0.87441,0.15745 3.34166,0.0377 4.64505,-0.22542 z m 37.15597,-19.98554 c 2.2977,-0.5821 4.70872,-2.7993 6.99524,-6.43289 0.93314,-1.48288 1.01582,-1.5979 1.10786,-1.54102 0.0422,0.0261 0.19513,0.38346 0.3399,0.7942 0.47892,1.3588 0.98686,2.22012 1.77509,3.01004 0.82571,0.82749 1.41337,1.18878 2.64578,1.62659 2.07084,0.73566 3.80469,0.40046 6.18771,-1.19626 2.49553,-1.67211 4.93208,-4.46035 6.9272,-7.92706 0.71637,-1.24477 0.50209,-1.13498 1.96141,-1.00494 0.8711,0.0776 1.60828,-0.0673 2.50883,-0.49337 0.29296,-0.13859 0.56742,-0.21467 0.60991,-0.16906 0.0425,0.0456 0.0964,0.45022 0.11977,0.89915 0.057,1.09395 0.31259,1.66871 1.04277,2.34472 0.30783,0.285 0.80711,0.63523 1.10951,0.77828 0.77428,0.3663 2.10544,0.61967 3.25169,0.61894 1.00909,-6.4e-4 3.00794,-0.22703 3.12908,-0.35439 0.039,-0.041 0.12018,-0.63636 0.18034,-1.32295 0.30827,-3.51813 1.30322,-9.04113 2.49108,-13.82797 2.10446,-8.4806 4.87968,-14.7186 7.20603,-16.19736 0.84163,-0.53498 1.80605,-0.30434 2.01795,0.48259 0.18399,0.68329 -0.24196,2.64697 -1.24001,5.71663 -1.62382,4.9943 -2.24084,7.48087 -2.99326,12.06273 -0.25597,1.55871 -0.31149,4.56501 -0.10198,5.52158 0.60667,2.7699 1.60234,4.03127 3.49638,4.42939 1.65937,0.3488 3.69545,-0.33119 5.85179,-1.95433 1.65671,-1.24706 2.84963,-2.71656 4.21139,-5.18783 0.32741,-0.59417 0.64831,-1.08031 0.71311,-1.08031 0.0648,0 0.1928,0.27007 0.28444,0.60017 0.65269,2.35104 2.22235,3.62504 4.46634,3.62504 1.40329,0 2.79062,-0.41174 4.7132,-1.39879 1.83372,-0.94144 3.32573,-2.23367 5.00277,-4.33293 2.40037,-3.00469 4.54216,-6.83234 6.76024,-12.08139 0.51332,-1.21475 1.36638,-3.20252 1.89571,-4.41727 1.27009,-2.91474 1.24959,-2.85339 1.2515,-3.74508 0.002,-0.91364 -0.25922,-1.69893 -0.73169,-2.19989 -0.68354,-0.72477 -1.81648,-0.63766 -2.55039,0.19611 -0.42368,0.48132 -0.58091,0.78131 -1.40253,2.67598 -1.40641,3.2432 -4.29657,8.73784 -5.74692,10.92577 -1.09941,1.65853 -2.47278,2.95021 -3.13679,2.95021 -0.86214,0 -1.15909,-1.18431 -0.96203,-3.83676 0.19488,-2.62314 0.5536,-4.29542 1.73121,-8.07066 0.3542,-1.13552 1.30229,-4.182 2.10686,-6.76994 2.99054,-9.61919 3.39859,-10.89497 4.10024,-12.819488 0.3947,-1.082605 0.75286,-2.0036 0.79592,-2.046656 0.043,-0.04306 1.02406,-0.293427 2.18001,-0.55638 7.26938,-1.653618 14.06265,-3.177646 14.96943,-3.358296 1.70508,-0.339689 2.32997,-0.753698 3.30522,-2.189817 0.87157,-1.283443 1.73623,-3.466245 1.73623,-4.38305 0,-0.170271 -0.093,-0.425961 -0.20806,-0.572286 -0.1878,-0.238751 -0.2513,-0.259377 -0.65234,-0.21188 -0.5518,0.06535 -5.98883,1.229444 -12.85053,2.751354 -2.86687,0.635865 -5.31917,1.156118 -5.44956,1.156118 -0.13039,0 -0.23708,-0.03646 -0.23708,-0.08103 0,-0.08158 0.57343,-1.734654 1.44173,-4.156203 0.55112,-1.536972 0.68268,-1.995321 1.77433,-6.181753 0.45448,-1.7429 1.08382,-3.925127 1.39854,-4.849392 0.31472,-0.924265 0.57176,-1.810119 0.5712,-1.968565 -0.002,-0.694414 -0.72271,-1.260366 -1.8983,-1.491649 -0.9651,-0.189872 -3.108,-0.076 -4.48784,0.238472 -1.89853,0.432689 -3.56621,1.116639 -4.72298,1.936995 -0.56428,0.400169 -0.85122,0.803075 -0.62552,0.878309 0.0564,0.0188 0.28152,0.163831 0.50027,0.322291 0.5366,0.388711 0.709,0.824642 0.64092,1.620588 -0.046,0.537752 -1.95713,8.186054 -2.60346,10.41899 -0.29317,1.012845 -1.87229,5.548851 -1.96457,5.64321 -0.0396,0.04049 -14.58847,3.444517 -32.33085,7.564508 l -32.25887,7.4909 -0.40151,0.43177 c -0.22083,0.23748 -0.65956,0.93863 -0.97496,1.55811 -0.58849,1.15587 -1.60274,3.98333 -1.71025,4.76773 -0.0557,0.40675 -0.0445,0.43977 0.14988,0.43977 1.35215,0 24.7003,-5.38707 58.05666,-13.3953 3.43299,-0.8242 6.43182,-1.52474 6.66408,-1.55676 0.41424,-0.05712 0.42113,-0.05358 0.36118,0.18528 -0.12116,0.48273 -4.76313,15.50416 -5.0084,16.2072 -0.13819,0.39611 -0.54683,1.67088 -0.90808,2.83281 -1.36412,4.38752 -5.09826,12.29037 -6.81752,14.42842 -0.51026,0.63455 -0.86667,0.76346 -1.07711,0.38959 -0.42598,-0.75679 0.22832,-4.87267 1.46725,-9.22981 1.07384,-3.77651 1.60034,-6.09578 1.80268,-7.94087 0.20192,-1.84122 0.21843,-2.37611 0.10793,-3.49652 -0.26722,-2.7095 -1.01406,-4.17067 -2.47218,-4.83676 -1.54904,-0.70763 -3.68451,-0.54303 -5.64314,0.43497 -1.10753,0.55302 -3.06119,1.9726 -3.78582,2.75087 -0.12804,0.13751 -0.26867,0.25003 -0.31252,0.25003 -0.0438,0 -0.0687,-0.30973 -0.0553,-0.68828 l 0.0244,-0.68828 -0.3361,-0.19998 c -0.5088,-0.30273 -2.0718,-0.26727 -3.58981,0.0814 -1.92117,0.44131 -4.07888,1.28169 -4.48961,1.74859 -0.44193,0.50238 -2.53541,7.6087 -4.41683,14.99295 -0.77436,3.03926 -1.08209,3.95874 -2.18696,6.53462 -1.29212,3.01241 -1.94681,3.96537 -2.51524,3.66116 -0.27242,-0.14579 -0.22107,-0.41288 0.3775,-1.96347 1.23274,-3.19345 1.94046,-6.59621 1.93333,-9.29559 -0.004,-1.54236 -0.17636,-2.57859 -0.53986,-3.24718 -0.25625,-0.47133 -0.88039,-1.04513 -1.1368,-1.04513 -0.23142,0 -0.40985,-0.35059 -0.47229,-0.92804 -0.16074,-1.48647 -0.81899,-3.02712 -1.63283,-3.82168 -2.49597,-2.43685 -7.11447,-1.53119 -10.57409,2.07351 -3.0315,3.15863 -6.17963,8.80131 -7.94888,14.24753 -0.24021,0.73941 -0.5487,1.78769 -0.68554,2.32952 -0.54178,2.14515 -4.26759,10.10038 -4.97439,10.62116 l -0.26407,0.19458 -0.25815,-0.19273 c -0.58918,-0.43989 -0.65465,-0.6263 -0.64797,-1.84494 0.007,-1.25033 0.22021,-2.33184 0.91169,-4.62154 0.55385,-1.83395 0.88856,-2.69801 2.49389,-6.43804 2.22266,-5.17828 3.16616,-7.66136 3.16616,-8.33263 0,-0.46526 -0.3729,-1.06453 -0.89631,-1.44041 -0.61865,-0.44428 -1.88817,-1.02804 -2.89678,-1.33201 -0.7779,-0.23444 -1.01775,-0.26115 -2.40068,-0.26734 -2.18576,-0.01 -2.12447,-0.0503 -3.45154,2.28334 -0.44547,0.78335 -0.4825,0.42312 -0.10899,-1.06008 0.48058,-1.90833 0.65093,-2.99601 0.6589,-4.20699 0.0164,-2.4878 -0.82656,-3.70259 -2.59072,-3.73359 -0.96109,-0.0169 -1.51474,0.28624 -2.60418,1.42582 -2.68457,2.80811 -5.12168,8.35813 -6.0313,13.73505 -0.23703,1.40113 -0.23624,3.80905 0.002,4.76138 l 0.18184,0.72822 -2.02478,5.2268 c -1.11363,2.87474 -2.06945,5.42067 -2.12405,5.65761 -0.0546,0.23695 -0.10032,0.76078 -0.10161,1.16406 -0.005,1.69238 1.04766,2.51459 2.37409,1.8536 0.5729,-0.28549 1.18365,-0.86441 1.52322,-1.44384 0.22769,-0.38853 2.64827,-5.7049 4.29823,-9.44031 l 0.78069,-1.76742 0.48161,-0.15627 c 0.26488,-0.0859 0.80866,-0.3601 1.2084,-0.60925 0.65929,-0.41092 1.04677,-0.55576 1.04677,-0.39129 0,0.0339 -0.28466,0.93059 -0.63258,1.99257 -2.16232,6.60013 -2.56996,8.54624 -2.56676,12.25383 0.002,2.15615 0.15868,3.58899 0.56314,5.14569 0.52645,2.02621 1.26589,3.01797 2.54018,3.407 0.4295,0.13112 2.14125,0.0966 2.74061,-0.0552 z m 17.37978,-11.8971 c -1.24109,-1.31593 -0.81786,-7.17396 0.97197,-13.45322 1.05738,-3.70962 2.57749,-6.96533 3.62531,-7.76454 0.37825,-0.2885 0.55847,-0.31595 0.72859,-0.11097 0.0652,0.0785 0.37712,0.23708 0.6932,0.35233 0.31608,0.11525 0.59713,0.26803 0.62457,0.33952 0.0274,0.0715 -0.14089,0.33426 -0.37404,0.58394 -1.77194,1.89755 -2.79815,4.84566 -2.7987,8.04013 -3e-4,1.75749 0.18946,2.94083 0.71607,4.46528 0.20981,0.60738 0.4046,1.21506 0.43287,1.35041 0.037,0.1774 -0.16918,0.72687 -0.73884,1.96857 -1.00522,2.19105 -1.74985,3.51396 -2.30552,4.096 -0.39112,0.40968 -0.48323,0.45928 -0.85291,0.45928 -0.34697,0 -0.46458,-0.0532 -0.72257,-0.32673 z m -6.72292,-24.08828 c -0.82729,-0.85824 -1.64259,-1.63215 -1.81178,-1.71979 -0.37649,-0.19503 -4.96962,-4.91253 -5.17411,-5.31422 -0.2479,-0.48696 -0.2768,-0.83799 -0.13149,-1.59742 0.23113,-1.20805 1.1795,-3.93374 1.82405,-5.2425 l 0.60399,-1.2264 -0.22947,-0.68595 c -0.22932,-0.68552 -0.22976,-0.68603 -0.68101,-0.79925 -1.77251,-0.44473 -3.0902,-1.79573 -3.74955,-3.84433 -0.48091,-1.49417 -0.73464,-3.649672 -0.6415,-5.449563 0.0362,-0.6998 0.0339,-1.272365 -0.005,-1.272365 -0.0391,0 -0.50707,0.423037 -1.04002,0.940083 -0.98111,0.951827 -2.28127,1.89285 -3.20164,2.317262 -0.27728,0.127862 -0.50415,0.259602 -0.50415,0.292755 0,0.03315 1.15151,1.246518 2.55891,2.696368 2.90221,2.98974 3.34078,3.48889 3.82287,4.35095 0.65972,1.1797 1.10712,2.95657 1.10799,4.4005 4.6e-4,0.77876 -0.38017,2.91973 -0.76992,4.33063 -0.1573,0.56942 -0.286,1.13959 -0.286,1.26705 0,0.30415 0.62642,1.67439 0.78727,1.72207 1.71325,0.50791 2.7593,1.27014 8.01787,5.84241 0.34927,0.30369 0.71873,0.55216 0.82103,0.55216 0.12991,0 -0.26765,-0.47062 -1.31816,-1.56045 z m -90.69714,-3.24525 c 4.132151,-0.50962 9.041228,-2.60713 13.345311,-5.7021 5.753222,-4.137 10.564659,-9.32589 14.164419,-15.275597 0.92896,-1.535388 2.65769,-5.088949 3.16178,-6.499303 1.37265,-3.840479 1.73414,-7.522098 1.05933,-10.789053 -0.52649,-2.548897 -1.88598,-5.012932 -3.5256,-6.390037 -1.12539,-0.945207 -2.7386,-1.893741 -4.22488,-2.484142 -0.303683,-0.120635 -0.552155,-0.274211 -0.552155,-0.341281 0,-0.06707 0.31329,-0.307006 0.696205,-0.533193 3.30966,-1.955034 8.10851,-5.886795 10.99848,-9.011202 3.83573,-4.146891 6.67109,-8.175591 8.99572,-12.781803 3.2199,-6.38017 4.49814,-11.591056 4.3432,-17.705518 -0.10328,-4.076099 -0.69943,-6.902332 -2.00578,-9.509013 -2.88887,-5.764461 -8.1542,-8.485169 -15.82576,-8.177514 -3.77254,0.151291 -7.113217,0.728179 -11.215367,1.936736 -5.3443,1.574515 -10.780044,4.007793 -16.228119,7.26442 -12.408591,7.417328 -24.20399,18.29998 -31.160697,28.749434 -4.080442,6.129105 -6.203106,11.303032 -6.688716,16.303541 -0.153445,1.580079 -0.128521,4.700584 0.04698,5.882549 0.559719,3.769521 2.10805,5.92987 4.748554,6.625548 0.437292,0.11521 0.983577,0.162863 1.824523,0.159154 1.963984,-0.0087 3.039739,-0.306495 6.001723,-1.66163 l 1.824524,-0.834736 -0.01613,-0.952593 c -0.0255,-1.506379 0.148594,-4.146115 0.358161,-5.43066 1.391597,-8.529815 6.088618,-17.694196 13.256548,-25.864916 2.990128,-3.408445 6.271694,-6.340157 9.762558,-8.721751 1.053209,-0.718538 1.269929,-0.830033 1.269929,-0.653334 0,0.04694 -0.436711,1.00842 -0.970469,2.136613 -7.1446,15.101378 -13.280158,31.150068 -17.121143,44.783522 -1.494155,5.303459 -2.691929,10.949586 -3.076075,14.500162 -0.316281,2.923317 -0.27509,7.567687 0.0869,9.797677 0.509086,3.13619 1.914373,5.58744 4.247869,7.40956 0.437976,0.342 0.796319,0.65311 0.796319,0.69135 0,0.0383 0.270078,0.26509 0.600173,0.50409 1.869107,1.35333 3.848342,2.16125 6.184983,2.52471 1.029383,0.16011 3.719463,0.18809 4.836699,0.0503 z m -1.662502,-11.36178 c -0.566701,-0.15941 -1.075878,-0.55628 -1.482334,-1.15538 -0.915982,-1.35012 -0.864143,-3.42541 0.22333,-8.940675 2.441176,-12.380751 8.897152,-30.733461 18.089103,-51.422758 3.790753,-8.532248 7.351534,-16.220045 7.622388,-16.456888 0.188044,-0.164431 0.332264,-0.175756 1.646505,-0.129293 0.79223,0.02801 1.78612,0.123721 2.20864,0.212696 2.52254,0.5312 4.42041,1.941064 5.42598,4.030783 0.71391,1.48362 0.81586,1.994145 0.81555,4.084332 -2.8e-4,1.969059 -0.13742,2.845477 -0.77364,4.944194 -1.83204,6.043333 -6.70719,13.183617 -13.867703,20.311054 -2.563353,2.551512 -6.870673,6.418506 -7.836233,7.035156 -0.699626,0.446813 -1.718441,1.370757 -2.172492,1.970192 -0.330273,0.436023 -0.531195,0.845069 -0.748847,1.524533 -0.163605,0.510742 -0.284576,1.018656 -0.268824,1.128698 0.03235,0.225988 0.127202,0.276033 2.300395,1.213706 2.358505,1.01763 3.607993,1.800362 4.964421,3.109919 1.779056,1.717582 2.407696,3.085355 2.569508,5.590642 0.120407,1.864226 -0.303088,4.16973 -1.164997,6.342234 -1.953164,4.923091 -5.630759,9.878225 -9.825614,13.238885 -3.162231,2.53339 -6.11527,3.82084 -7.725136,3.36797 z M 88.529975,95.061922 c 1.523049,-2.534524 2.669232,-5.439715 2.950932,-7.479624 0.06135,-0.444256 0.0605,-0.44595 -0.282008,-0.558986 -0.18895,-0.06236 -0.388219,-0.08577 -0.442822,-0.05202 -0.292656,0.180872 -0.971278,2.151873 -2.0114,5.84194 -0.68829,2.441869 -0.834664,3.040922 -0.743023,3.040922 0.02874,0 0.266485,-0.356503 0.528321,-0.792228 z m 76.694975,9.487928 c 0.86897,-0.22505 2.58203,-1.11569 3.55302,-1.84726 1.00701,-0.75871 2.6248,-2.34303 3.50972,-3.437112 1.01555,-1.255575 2.494,-3.55485 3.27409,-5.09181 1.39358,-2.745707 2.03654,-4.640955 3.11109,-9.170632 0.94704,-3.992192 2.29939,-10.615258 2.5784,-12.627624 0.35478,-2.558858 0.28617,-4.667161 -0.18548,-5.699595 -0.58442,-1.279285 -1.84859,-2.79071 -3.45329,-4.128708 -0.47533,-0.396335 -0.86425,-0.787734 -0.86425,-0.869776 0,-0.107939 0.27144,-0.222124 0.9821,-0.41314 1.424,-0.382751 2.2523,-0.724636 4.73559,-1.954634 1.21946,-0.604017 2.27919,-1.098212 2.35494,-1.098212 0.20546,0 0.18059,0.171631 -0.3491,2.408976 -2.06614,8.727075 -3.32998,16.012741 -4.16302,23.998602 -0.61971,5.940779 -0.74181,8.510925 -0.49417,10.402142 0.46519,3.552596 1.54456,4.783317 4.32779,4.934628 2.14492,0.116615 4.0532,-0.681043 6.45831,-2.69956 3.30121,-2.770576 6.64135,-8.100544 7.97955,-12.733237 1.08796,-3.766352 3.28967,-13.917918 3.71373,-17.123145 0.22896,-1.730567 0.16629,-4.405509 -0.12019,-5.129942 -0.49586,-1.253899 -1.89773,-2.958387 -3.56555,-4.33523 -0.53569,-0.442233 -0.97398,-0.840548 -0.97398,-0.885144 0,-0.0446 0.24847,-0.149065 0.55216,-0.232154 1.59017,-0.435073 2.6209,-0.80836 4.03669,-1.461925 0.86019,-0.397086 1.59262,-0.693335 1.62762,-0.658332 0.035,0.035 0.009,0.310693 -0.0577,0.612644 -0.67994,3.075277 -0.81715,4.347442 -0.75314,6.982848 0.0417,1.716996 0.0851,2.16637 0.29198,3.024868 0.31816,1.32017 0.65651,2.284542 1.03801,2.958566 0.41729,0.73727 1.61261,1.91441 2.43505,2.398015 1.49186,0.877236 3.53037,1.2958 5.31985,1.092316 2.58199,-0.293603 4.70828,-1.43058 7.01969,-3.753611 3.04418,-3.059471 5.39257,-6.920319 8.61938,-14.170579 1.85122,-4.159497 2.68983,-6.199342 2.81404,-6.844898 0.23513,-1.222126 -0.0659,-2.305391 -0.77436,-2.786702 -0.72775,-0.494406 -1.9331,-0.04316 -2.68336,1.004581 -0.20446,0.285516 -0.64242,1.13345 -0.97325,1.884298 -2.56113,5.812677 -4.80067,10.175513 -6.66524,12.984512 -0.85189,1.283394 -2.33099,2.825799 -3.34389,3.487032 -0.91946,0.600226 -1.77056,0.85181 -2.35201,0.695244 -0.85936,-0.231403 -1.36111,-1.099207 -1.56792,-2.711836 l -0.11408,-0.889531 0.61551,-0.525804 c 1.17475,-1.00354 3.40986,-3.326942 4.44098,-4.616414 3.14764,-3.936299 5.7089,-8.525872 7.07376,-12.675638 0.82524,-2.509098 1.03202,-4.601327 0.59492,-6.019527 -0.20173,-0.654496 -0.65503,-1.380684 -1.11472,-1.785756 -0.68056,-0.599705 -1.98169,-0.877589 -3.44935,-0.736683 -2.74871,0.263897 -4.70681,1.362064 -7.46707,4.187769 -1.99202,2.039262 -4.12277,5.046148 -5.45882,7.703408 -0.26275,0.522585 -0.45315,0.779097 -0.64543,0.869542 -2.52693,1.188599 -4.44654,1.940758 -5.92719,2.322444 -1.22448,0.315647 -5.27698,1.132379 -5.36101,1.080445 -0.0416,-0.02574 -0.0757,-0.104356 -0.0757,-0.174704 0,-0.126383 3.99502,-11.787521 7.99594,-23.339499 1.13411,-3.27454 2.37031,-6.694519 2.74711,-7.599955 0.3768,-0.905436 0.71207,-1.843063 0.74504,-2.083617 0.0543,-0.396325 0.0331,-0.464233 -0.2263,-0.723626 -0.42779,-0.427786 -1.20897,-0.624461 -2.47527,-0.623189 -1.4935,0.0015 -2.75824,0.291689 -4.13243,0.948162 -1.10089,0.525919 -1.5067,0.95424 -2.12606,2.244001 -3.02387,6.296967 -6.55841,16.425808 -10.14084,29.060315 l -0.78961,2.784799 -0.57616,0.307697 c -1.08086,0.577226 -4.03102,1.880653 -4.99343,2.20618 -1.28125,0.433369 -2.00561,0.61348 -4.5469,1.130583 -2.30732,0.469497 -2.51113,0.495918 -2.51113,0.325533 0,-0.119745 1.56992,-4.735805 5.88979,-17.317824 3.86451,-11.255771 4.2356,-12.305953 4.92419,-13.935435 0.91311,-2.160786 0.91039,-2.615801 -0.0181,-3.026516 -1.806,-0.798879 -5.83319,0.0034 -7.3355,1.461342 -1.37524,1.334626 -5.73416,12.7835 -9.06402,23.806993 -1.46172,4.839028 -2.96819,10.193049 -3.79623,13.491872 -0.23085,0.919687 -0.59552,2.037554 -0.90846,2.784799 -0.28753,0.686597 -0.98128,2.359516 -1.54166,3.717597 -1.85823,4.503457 -2.74144,6.303463 -3.38318,6.894995 -0.49276,0.454208 -0.73235,0.468854 -1.03387,0.06319 -0.18582,-0.250007 -0.20098,-0.389764 -0.19277,-1.776509 0.007,-1.211038 0.0595,-1.767858 0.26764,-2.849541 0.75464,-3.921424 2.36245,-9.584273 4.57801,-16.12419 0.6365,-1.878837 1.16405,-3.58595 1.17233,-3.793587 0.0187,-0.469082 -0.13351,-0.763097 -0.53887,-1.040853 -0.63573,-0.435613 -1.95872,-0.49811 -3.51787,-0.166183 -1.92159,0.409087 -4.06623,1.632359 -4.834,2.75725 -0.40478,0.593054 -2.06606,5.482164 -3.81026,11.213509 -1.25274,4.116424 -2.03746,6.48013 -3.09237,9.314674 -1.72104,4.624454 -2.34866,6.035888 -2.88437,6.486665 -0.35165,0.295888 -0.4561,0.271892 -0.67283,-0.154565 -0.13382,-0.263324 -0.16793,-0.579429 -0.16805,-1.55746 -5.8e-4,-4.739879 1.58154,-10.82859 5.33603,-20.535545 1.28075,-3.311298 1.39073,-3.803494 0.98376,-4.402598 -0.47703,-0.702227 -1.12162,-0.961201 -2.3945,-0.962025 -2.26932,-0.0015 -5.64381,1.50179 -6.65483,2.964569 -0.17429,0.252172 -0.63539,1.450645 -1.21647,3.161776 -0.51467,1.515618 -1.30955,3.835979 -1.76639,5.156358 -1.03414,2.988923 -1.83052,5.519103 -2.46259,7.823909 -0.74484,2.716044 -2.23274,6.099885 -2.97834,6.773494 -0.31654,0.285974 -0.40564,0.322635 -0.57013,0.234602 -0.10722,-0.05739 -0.21796,-0.164296 -0.24608,-0.237578 -0.0281,-0.07328 0.16229,-0.686233 0.42314,-1.362111 1.20242,-3.115558 1.82863,-5.924459 1.91693,-8.598438 0.0959,-2.904115 -0.30435,-4.154582 -1.53235,-4.787502 -0.38001,-0.195865 -0.38387,-0.204846 -0.55247,-1.28679 -0.31816,-2.041732 -1.21412,-3.426973 -2.69636,-4.168859 -1.68998,-0.845858 -3.62913,-0.736185 -5.8033,0.32822 -2.88565,1.412721 -5.64145,4.808859 -8.44398,10.406012 -1.93638,3.867309 -3.51247,9.037074 -4.23414,13.888498 -0.56597,3.804712 -0.56531,6.118252 0.002,8.361481 0.7392,2.920902 2.05567,4.49442 4.54334,5.430448 0.75732,0.284956 0.93175,0.313918 1.8906,0.313906 1.19303,-1.3e-5 1.49807,-0.08147 2.89113,-0.772021 2.6285,-1.302971 5.56356,-4.445617 7.74463,-8.292368 0.48202,-0.850142 0.53639,-0.910621 0.79842,-0.888166 1.98409,0.170026 2.41339,0.128671 3.37203,-0.324838 0.29271,-0.138475 0.81042,-0.462352 1.15046,-0.719728 0.34004,-0.257376 0.65751,-0.467957 0.70549,-0.467957 0.048,0 0.13449,0.183653 0.19222,0.408118 0.36421,1.415892 0.88729,2.597735 1.58534,3.581922 0.87711,1.236656 1.7556,1.779551 2.98969,1.847604 1.86753,0.102983 3.72717,-0.735149 5.58722,-2.51814 1.33975,-1.284237 2.11764,-2.31283 3.52715,-4.663889 0.42746,-0.713005 0.81681,-1.291764 0.86523,-1.286132 0.0484,0.0056 0.19881,0.437756 0.33421,0.960275 0.71267,2.750308 1.82118,4.050002 3.73398,4.378012 1.91363,0.328151 4.1066,-0.871593 6.21609,-3.400745 0.37947,-0.45495 0.66831,-0.724392 0.72055,-0.67215 0.0522,0.05224 -0.0282,0.872628 -0.2007,2.046539 -0.55281,3.762351 -1.16772,9.791024 -1.36015,13.33523 -0.093,1.712468 -0.0855,2.138502 0.0578,3.31295 0.39608,3.244355 1.2901,4.644265 3.21383,5.032405 0.29049,0.0586 0.61458,0.12646 0.72021,0.15081 0.35692,0.0822 1.91669,-0.031 2.49672,-0.18119 z m 2.22384,-9.559382 c -0.43077,-0.511939 -0.58145,-1.513205 -0.51269,-3.406739 0.0654,-1.800219 0.65471,-9.032153 0.8845,-10.85392 0.34388,-2.726189 0.91812,-5.545597 2.0732,-10.178921 1.00159,-4.017686 0.93739,-3.793089 1.08427,-3.793089 0.21356,0 0.8909,0.810512 1.21671,1.455932 0.68031,1.347689 0.92727,2.544875 1.01696,4.929901 0.0984,2.616574 -0.3134,5.931495 -1.11538,8.978577 -0.45116,1.71417 -1.08019,4.232657 -1.976,7.911426 -0.34579,1.420043 -0.749,2.891672 -0.89602,3.270286 -0.3327,0.856808 -0.8935,1.714263 -1.21783,1.862038 -0.31694,0.144405 -0.27832,0.156557 -0.55772,-0.175491 z m 21.10025,-4.587353 c -0.16782,-0.111026 -0.38473,-0.599879 -0.51845,-1.1684 -0.18715,-0.795714 -0.0655,-3.862335 0.33162,-8.360864 0.3954,-4.478835 0.45563,-5.016914 0.77558,-6.929648 0.3771,-2.254308 0.87,-4.510828 1.73757,-7.954624 0.94503,-3.751297 0.97169,-3.841102 1.14056,-3.841102 0.4257,0 1.51871,1.851732 1.81381,3.072881 0.78214,3.236505 0.40564,8.376789 -0.95845,13.085515 -0.18715,0.646018 -0.72607,2.773437 -1.19761,4.727598 -1.09387,4.533239 -1.28764,5.228912 -1.68615,6.053775 -0.55229,1.143142 -1.03338,1.582889 -1.43848,1.314869 z M 120.22758,84.41782 c -0.79051,-0.846247 -0.90528,-3.466835 -0.31922,-7.289044 0.84635,-5.519758 2.78675,-11.149488 4.42453,-12.83696 0.50342,-0.518688 0.78021,-0.62275 0.98859,-0.371667 0.0635,0.07656 0.37132,0.238389 0.68395,0.359614 0.63896,0.247764 0.70261,0.398581 0.31937,0.756808 -0.78433,0.733132 -1.74117,2.397895 -2.18285,3.797849 -0.48666,1.542516 -0.59096,2.267932 -0.58502,4.069143 0.006,1.879294 0.18885,3.012455 0.72754,4.513295 0.46353,1.291438 0.47903,1.180134 -0.43955,3.156942 -0.96886,2.085002 -1.58414,3.164784 -2.12496,3.729224 -0.34426,0.359289 -0.4471,0.411929 -0.80476,0.411929 -0.33457,0 -0.46115,-0.0547 -0.68762,-0.297133 z m 91.72889,-31.038852 c -0.10615,-0.127908 -0.0554,-0.327798 0.32619,-1.28459 1.2713,-3.187689 3.3499,-7.580514 4.36097,-9.216265 0.63376,-1.025325 1.39036,-1.855699 1.69081,-1.855699 0.64952,0 0.53512,1.297845 -0.32749,3.715443 -0.93018,2.60699 -2.8242,5.542114 -5.14907,7.979391 -0.68099,0.713925 -0.79104,0.794707 -0.90141,0.66172 z m 7.12715,39.870729 c 4.81321,-1.115557 8.7998,-2.077033 8.85909,-2.136613 0.21575,-0.216816 1.67764,-4.779637 2.29604,-7.166352 0.34895,-1.346786 0.67465,-2.489754 0.72378,-2.539928 0.0491,-0.05017 0.0893,-0.21784 0.0893,-0.372591 0,-0.15475 0.18165,-0.987154 0.40366,-1.849786 0.22201,-0.862632 0.37592,-1.596162 0.34202,-1.630066 -0.0339,-0.0339 -0.2036,0.104941 -0.37711,0.308544 -2.5404,2.981115 -5.23721,4.771353 -8.17606,5.427548 -1.13674,0.253815 -3.21121,0.270372 -4.32931,0.03455 -1.86383,-0.393096 -3.37124,-1.167334 -4.63509,-2.38068 -0.47544,-0.456442 -0.84144,-0.738744 -0.89043,-0.686809 -0.0457,0.0485 -0.37083,1.514189 -0.7224,3.257089 -0.7446,3.691341 -1.80954,8.344582 -2.3575,10.30108 -0.21111,0.753785 -0.38384,1.391168 -0.38384,1.416407 0,0.124332 1.03157,-0.09897 9.15784,-1.982398 z"
         id="path8" />
      <path
         style="fill:#e41253"
         d="m 119.10741,185.44405 c -1.57742,-0.1973 -2.3739,-0.50816 -3.43371,-1.34017 -1.05746,-0.83017 -4.72888,-4.53561 -5.7069,-5.75978 -0.93099,-1.16531 -1.20363,-1.71906 -1.46678,-2.97913 -0.26555,-1.27161 -0.20058,-3.28537 0.16266,-5.04145 0.76712,-3.70868 2.25425,-9.49012 4.01838,-15.62211 0.28389,-0.98678 0.48945,-1.83736 0.45681,-1.89018 -0.0326,-0.0528 -0.4907,-0.3856 -1.0179,-0.73953 -1.06357,-0.71401 -1.98876,-1.42799 -2.34432,-1.80914 -0.22697,-0.2433 -0.23953,-0.33888 -0.45221,-3.44247 -0.12032,-1.75573 -0.28472,-4.1213 -0.36532,-5.25682 -0.0806,-1.13553 -0.14719,-2.41459 -0.14796,-2.84237 -0.002,-0.91919 0.0538,-1.02141 1.35713,-2.50331 3.05908,-3.4781 6.9375,-6.40847 12.55976,-9.48963 l 1.57876,-0.86521 2.22306,-4.41726 c 2.33204,-4.63379 3.37955,-6.93077 3.22925,-7.08107 -0.0994,-0.0994 -1.94807,0.83207 -3.37632,1.7012 -5.908,3.5952 -11.32073,8.79476 -14.59724,14.02235 -1.93956,3.09454 -3.04599,5.98556 -3.40585,8.89931 -0.18386,1.48871 -0.53337,1.98218 -1.46745,2.07193 -0.81541,0.0784 -0.78645,0.10328 -5.21697,-4.48938 -3.391444,-3.51555 -4.122444,-4.45157 -5.137106,-6.57788 -1.156427,-2.4234 -1.431134,-3.77351 -1.34817,-6.6259 0.03072,-1.05631 0.120714,-2.28786 0.199978,-2.73679 0.07927,-0.44893 0.144982,-0.84864 0.146038,-0.88825 0.0048,-0.17935 -0.305832,-0.0225 -1.18065,0.59604 -4.132009,2.92173 -8.928107,4.94177 -13.269578,5.58894 -1.373376,0.20472 -4.543413,0.15445 -5.916317,-0.0938 -2.135187,-0.38613 -4.066445,-1.14765 -5.7439,-2.26489 -1.627921,-1.08425 -4.03527,-3.33894 -4.783447,-4.48011 -0.245248,-0.37407 -0.737185,-0.90316 -1.244718,-1.33873 -2.550737,-2.18905 -3.522655,-3.40433 -4.458354,-5.57471 -0.7807,-1.81085 -1.085643,-3.53502 -1.245015,-7.03942 -0.169702,-3.73156 0.05867,-6.64043 0.879367,-11.200701 0.385765,-2.143545 1.185378,-5.742734 1.663364,-7.487068 0.136851,-0.499416 0.212992,-0.943858 0.169202,-0.987647 -0.04379,-0.04379 -0.507808,0.120523 -1.031152,0.36514 -3.076214,1.43786 -4.626399,1.862481 -6.809215,1.865156 -1.089983,0.0013 -1.874778,-0.106934 -2.753844,-0.379918 -1.243321,-0.3861 -1.675849,-0.732076 -4.5308,-3.624153 -1.471543,-1.49068 -2.888409,-2.975575 -3.148591,-3.299767 -0.918556,-1.144543 -1.670264,-3.022574 -2.072213,-5.177117 -0.266576,-1.428912 -0.235417,-5.983764 0.05368,-7.847661 0.808653,-5.213549 2.94405,-10.13831 7.025166,-16.201788 6.418412,-9.536095 16.473277,-19.187184 27.744363,-26.630227 9.967511,-6.582207 20.099519,-10.607294 29.216312,-11.6066 1.78791,-0.195976 5.57484,-0.223887 6.8987,-0.05084 3.13775,0.410136 5.94206,1.421492 7.76684,2.801056 1.44124,1.089603 5.77875,5.474127 7.74131,7.825224 1.90766,2.285316 2.73933,3.906971 3.45099,6.729016 0.91908,3.644576 1.07459,8.182345 0.42919,12.52451 -0.40703,2.738477 -1.36992,6.202964 -2.3987,8.630552 -0.25604,0.604166 -0.44655,1.129199 -0.42335,1.166739 0.0232,0.03754 0.31323,0.09807 0.64451,0.134503 0.91331,0.100455 1.6789,0.319064 2.47486,0.706671 0.59,0.287315 0.9204,0.550909 1.82754,1.458023 0.60904,0.609015 1.4488,1.509023 1.86614,2.000016 1.08743,1.279342 2.68732,2.743661 2.8213,2.582226 0.12773,-0.153913 1.13071,-2.952462 1.93369,-5.395492 0.32983,-1.003488 0.69906,-2.020928 0.82052,-2.260978 0.72072,-1.424455 2.82619,-2.889454 5.27898,-3.673151 1.37508,-0.439353 2.3317,-0.585647 3.43257,-0.524935 1.62403,0.08956 2.55422,0.591718 3.43709,1.85547 0.2925,0.418704 0.59511,0.773466 0.67245,0.78836 0.0913,0.01759 0.24911,-0.205797 0.45017,-0.637355 0.79998,-1.717065 3.18783,-3.367553 5.86468,-4.053681 1.86131,-0.477087 3.57241,-0.440798 4.67728,0.0992 0.68877,0.336634 0.92825,0.574206 1.65551,1.642336 0.30371,0.446066 0.61088,0.811029 0.6826,0.811029 0.13222,0 0.49898,-1.077869 2.46417,-7.241968 2.3342,-7.321579 4.84811,-13.969633 6.81394,-18.01953 0.63702,-1.312348 0.76012,-1.499577 1.32592,-2.016578 0.77554,-0.708647 1.66306,-1.191281 2.98997,-1.625945 1.45787,-0.477562 2.52802,-0.590534 4.21962,-0.445449 1.74631,0.149778 2.11036,0.236375 2.73956,0.651655 1.18365,0.781226 4.24921,4.325975 5.0199,5.804569 0.38032,0.729661 0.18339,1.729927 -0.7848,3.986335 -0.26364,0.614435 -0.93103,2.419075 -1.48307,4.010311 -2.45351,7.072104 -5.91057,17.199447 -5.91057,17.314811 0,0.196364 0.17091,0.146391 1.15159,-0.336709 0.7766,-0.382568 0.92254,-0.491675 0.98597,-0.737116 0.32232,-1.247299 2.22982,-7.807543 2.88988,-9.938852 2.65884,-8.585278 5.49003,-16.188451 7.86798,-21.129524 0.5599,-1.163395 0.69488,-1.365223 1.28593,-1.922788 1.4226,-1.342011 3.94373,-2.226128 6.36854,-2.233343 2.20764,-0.0066 2.76645,0.273403 4.92986,2.469924 2.30079,2.336 3.68451,3.926228 3.82531,4.396186 0.09,0.300369 0.0896,0.534993 -0.002,1.069161 -0.109,0.635632 -0.27648,1.098691 -1.21895,3.370177 -0.19535,0.470829 -0.89447,2.415387 -1.55359,4.321241 -4.17532,12.073 -5.50044,15.953879 -5.50044,16.109207 0,0.22258 0.0342,0.217725 0.66634,-0.0945 0.50158,-0.247754 0.55036,-0.307517 1.22954,-1.506348 0.90167,-1.591542 2.30628,-3.702801 3.30446,-4.966939 1.01249,-1.282243 3.44704,-3.703063 4.54646,-4.520814 2.0084,-1.493851 4.31966,-2.277373 6.70853,-2.274203 2.06974,0.0027 2.97834,0.390256 4.47868,1.910116 2.69094,2.725947 4.70644,4.91497 4.92774,5.351981 0.33664,0.664796 0.53464,1.392744 0.64586,2.374589 l 0.0967,0.853453 1.40239,1.404129 c 1.64189,1.643932 3.11549,3.329695 3.57821,4.093382 0.61353,1.012616 0.73719,2.141167 0.39225,3.579983 -0.27982,1.167202 -3.39791,8.357889 -5.08658,11.730267 -1.46532,2.926329 -3.24852,5.815958 -4.81074,7.79569 -1.09624,1.389202 -3.21398,3.462984 -4.2667,4.178137 -1.67325,1.136687 -3.54398,1.907688 -5.22259,2.152425 -0.50422,0.07352 -1.29407,0.09722 -2.1126,0.06341 -1.51377,-0.06253 -2.63374,-0.326911 -3.88979,-0.918226 -0.87767,-0.413187 -2.18726,-1.362669 -2.69069,-1.950814 -0.18573,-0.216981 -0.3921,-0.370072 -0.46248,-0.343067 -0.0721,0.02768 -0.17951,0.354634 -0.24834,0.756221 -0.0667,0.3891 -0.40307,2.047039 -0.7475,3.684309 -1.33669,6.354093 -2.34711,10.317647 -3.16135,12.400985 -0.55115,1.410183 -1.69108,3.755681 -2.34177,4.818397 -0.50523,0.825128 -0.56483,0.97784 -0.38165,0.97784 0.0591,0 1.86317,-0.408663 4.00915,-0.90814 2.14597,-0.499478 4.13944,-0.956737 4.42993,-1.016131 0.29048,-0.0594 4.5469,-1.037507 9.45871,-2.173582 5.64968,-1.30674 8.97119,-2.11726 9.04116,-2.206234 0.2503,-0.31831 1.63301,-4.604692 2.27535,-7.053574 0.5867,-2.236726 0.72023,-2.641855 0.90034,-2.731651 0.19551,-0.09747 0.19966,-0.117255 0.0549,-0.262017 -0.14476,-0.144762 -0.1196,-0.300121 0.33322,-2.057542 0.43987,-1.707195 0.54547,-2.239415 0.51298,-2.585507 -0.006,-0.05961 -0.14001,-0.162164 -0.2987,-0.227895 -0.40022,-0.165774 -0.83548,-0.690323 -0.96166,-1.158923 -0.18734,-0.695728 0.0903,-1.410896 0.83815,-2.158851 2.51847,-2.51886 9.46392,-3.956088 12.40306,-2.566574 1.05556,0.499025 4.6432,4.329485 5.9528,6.355702 0.55533,0.859204 0.5407,1.078344 -0.22182,3.321917 -0.69046,2.031556 -1.83091,6.310437 -1.74299,6.539553 0.034,0.08851 0.12411,0.126317 0.22516,0.09443 0.32872,-0.103718 6.81726,-1.470869 8.266,-1.741669 l 1.47158,-0.275067 0.42553,0.225742 c 1.5254,0.809224 5.79745,5.280302 6.09895,6.383089 0.30565,1.117991 -0.61066,3.912431 -1.91837,5.850378 -1.24437,1.844063 -2.18431,2.500915 -4.16274,2.909 -0.98718,0.20363 -13.76783,3.07522 -15.71779,3.53151 -0.33875,0.0793 -0.67056,0.20032 -0.73737,0.26901 -0.0668,0.0687 -0.34013,0.71787 -0.60738,1.44264 -0.56915,1.5435 -2.21655,6.74704 -2.21655,7.00129 0,0.14723 0.0489,0.16368 0.31209,0.10497 0.17165,-0.0383 0.61458,-0.0653 0.98428,-0.0599 1.23129,0.0177 1.7193,0.3877 4.1673,3.15923 0.6531,0.73941 1.45893,1.58205 1.79073,1.87253 0.71849,0.62902 1.00308,0.96506 1.28095,1.51258 0.51733,1.01929 0.67227,2.70747 0.35097,3.82394 -0.0901,0.31305 -0.58736,1.54146 -1.10505,2.7298 -0.51769,1.18834 -1.40784,3.26253 -1.97812,4.60932 -1.82033,4.29893 -3.88935,8.2285 -5.66112,10.75183 -2.17883,3.10306 -4.17519,5.09858 -6.33968,6.337 -1.02654,0.58734 -2.73158,1.32966 -3.58372,1.56024 -1.02786,0.27812 -3.19237,0.34945 -4.05243,0.13355 -1.01243,-0.25416 -1.93396,-0.76248 -2.63555,-1.45379 -0.34609,-0.34102 -0.66615,-0.62003 -0.71124,-0.62003 -0.0451,0 -0.35442,0.3781 -0.68741,0.84024 -0.75352,1.04575 -2.39031,2.68051 -3.4083,3.40408 -1.04159,0.74034 -2.20927,1.34736 -3.30675,1.71901 -1.60991,0.54518 -3.53643,0.48784 -4.77823,-0.14223 -1.33992,-0.67984 -2.29655,-1.764 -2.85992,-3.24114 -0.1484,-0.38908 -0.31624,-0.75467 -0.373,-0.81242 -0.0567,-0.0577 -0.38406,-0.20383 -0.72736,-0.32463 -0.79313,-0.27909 -1.514,-0.75478 -2.05401,-1.35539 -0.35975,-0.40014 -0.63476,-0.58692 -0.63476,-0.43112 0,0.0223 -0.14912,0.91894 -0.33138,1.99257 -0.33434,1.96955 -0.7243,5.08386 -0.7254,5.79316 -0.002,1.0121 -0.48587,1.70642 -1.34629,1.93011 -0.28918,0.0752 -1.19154,0.20561 -2.00525,0.28984 -3.3734,0.34918 -5.71744,-0.34033 -7.46222,-2.19506 -0.52255,-0.55548 -1.02592,-0.87585 -2.08752,-1.32861 -1.01235,-0.43176 -0.99909,-0.43756 -1.74345,0.76324 -1.95975,3.16149 -4.47174,5.9191 -6.83611,7.50455 -2.87591,1.92847 -5.07023,2.32428 -7.69151,1.3874 -1.72139,-0.61525 -2.99227,-1.52393 -3.96966,-2.83832 -0.27382,-0.36824 -0.53027,-0.65743 -0.56989,-0.64264 -0.0396,0.0148 -0.38408,0.43742 -0.76548,0.93916 -1.38582,1.82309 -2.64533,3.05288 -4.1668,4.06848 -1.24432,0.83061 -3.12161,1.38123 -4.36952,1.28162 -1.15953,-0.0926 -2.47387,-0.91854 -5.39507,-3.39043 -1.41225,-1.19504 -3.21404,-3.2317 -3.67676,-4.15604 -0.12236,-0.24441 -0.29857,-0.68206 -0.39158,-0.97254 -0.093,-0.29048 -0.19922,-0.5614 -0.23601,-0.60203 -0.0368,-0.0406 -0.25296,-0.008 -0.4804,0.072 -0.48552,0.1713 -1.65527,0.1933 -1.95615,0.0368 -0.59664,-0.31035 -2.84117,-2.37578 -4.41404,-4.06183 -1.59518,-1.70995 -2.12363,-2.5026 -2.27779,-3.41657 -0.23423,-1.38865 -0.029,-2.18471 1.71955,-6.67116 0.77949,-1.99998 1.31106,-3.49131 1.26196,-3.54041 -0.16257,-0.16256 -3.61097,0.96362 -3.86988,1.26383 -0.38003,0.44064 -2.7229,6.26848 -4.20571,10.46158 -3.01393,8.52284 -5.69464,19.92765 -7.29571,31.03888 -0.32086,2.2267 -0.42255,2.52256 -0.98666,2.87062 -0.39132,0.24143 -2.28495,0.73454 -3.72275,0.96942 -1.36652,0.22322 -3.17043,0.3074 -4.09896,0.19126 z m 0.21767,-6.4666 c 0.6345,-0.13406 1.443,-0.33312 1.79666,-0.44235 0.59635,-0.1842 0.64659,-0.22108 0.69196,-0.50804 0.0269,-0.17018 0.18163,-1.21688 0.34381,-2.32599 0.88837,-6.07535 2.22981,-12.77044 3.79033,-18.91743 1.91932,-7.56031 4.31819,-14.53949 7.45945,-21.70223 l 0.42113,-0.96028 0.62194,-0.30811 c 1.00561,-0.4982 3.07377,-1.14168 5.4716,-1.7024 1.23136,-0.28795 2.29306,-0.57997 2.35932,-0.64892 0.0663,-0.069 0.73148,-2.30759 1.47827,-4.97476 0.74679,-2.66716 1.39431,-4.96201 1.43893,-5.09966 0.14581,-0.44979 0.0299,-0.48261 -1.0083,-0.28543 -1.43415,0.2724 -4.06899,0.62317 -4.14089,0.55127 -0.0891,-0.0891 0.68422,-1.75676 2.01097,-4.33681 4.20097,-8.16939 5.44035,-11.2193 6.12648,-15.07633 0.18531,-1.04166 0.19422,-1.24917 0.0928,-2.16062 -0.26188,-2.353506 -1.28428,-4.044049 -3.22785,-5.337255 -1.42338,-0.947082 -3.33444,-1.607253 -5.37008,-1.855079 -1.24301,-0.151329 -4.20369,-0.129766 -5.71364,0.04161 -5.26628,0.597724 -11.34689,2.499783 -16.94886,5.301727 -5.67272,2.837337 -10.30083,6.155077 -13.47245,9.657967 -3.769757,4.16351 -6.096511,8.82684 -6.684842,13.39793 -0.171527,1.33269 -0.200363,3.79275 -0.05496,4.68864 0.273066,1.68246 1.206992,3.89586 2.269042,5.37761 0.703976,0.98218 2.11458,2.58251 2.74457,3.11373 0.55902,0.47137 0.59757,0.44476 0.68621,-0.47381 0.48438,-5.01929 4.22406,-11.46472 9.81762,-16.9209 5.19065,-5.06316 11.25743,-8.90102 16.02606,-10.13813 0.89678,-0.23265 1.24483,-0.27419 2.30466,-0.27509 1.11968,-9.5e-4 1.29589,0.0223 1.70947,0.22598 0.6907,0.34008 0.77897,0.53086 0.70792,1.53006 -0.0327,0.4596 -0.12875,1.20295 -0.21348,1.65188 -0.20247,1.07266 -1.10722,3.78068 -1.92497,5.76165 -0.65734,1.59238 -5.28578,10.93172 -5.57718,11.25371 -0.0858,0.0947 -0.77405,0.49415 -1.52956,0.88755 -5.37614,2.79941 -9.80689,6.14652 -12.83464,9.69566 l -0.64739,0.75887 0.003,1.20969 c 0.005,1.82475 0.2622,9.04524 0.32471,9.10775 0.0301,0.0301 0.64918,-0.52625 1.37583,-1.23624 0.72664,-0.70999 2.22862,-2.06365 3.33774,-3.00812 1.10912,-0.94447 2.11364,-1.80379 2.23226,-1.90961 0.11863,-0.10581 0.24211,-0.16597 0.2744,-0.13367 0.0323,0.0323 -0.311,1.2172 -0.76288,2.63313 -2.68386,8.40964 -5.7321,19.45776 -6.88354,24.94884 -0.35546,1.69512 -0.4039,2.07835 -0.41266,3.26494 -0.0111,1.50819 0.12087,2.19293 0.61115,3.17031 0.70323,1.40191 1.91217,2.28432 3.69291,2.6955 0.94421,0.21802 3.74379,0.11615 5.1868,-0.18874 z m 37.27642,-20.04291 c 2.26146,-0.68759 4.70659,-3.02074 6.94602,-6.62789 0.37272,-0.60034 0.71416,-1.12803 0.75876,-1.17263 0.0446,-0.0446 0.17777,0.21443 0.29593,0.57563 0.51444,1.57259 1.53396,3.08318 2.55501,3.78568 0.62452,0.42968 1.42306,0.80306 2.3219,1.08567 0.94126,0.29595 2.10971,0.33624 3.00709,0.10371 3.2346,-0.83817 7.13212,-4.56068 10.0009,-9.55184 0.40355,-0.7021 0.56613,-0.90565 0.7057,-0.88357 0.0997,0.0158 0.59467,0.0536 1.09983,0.084 0.96965,0.0584 1.61924,-0.0638 2.43651,-0.45831 0.60487,-0.29199 0.63015,-0.27057 0.63015,0.53407 0,1.04454 0.26325,1.67789 0.99988,2.40564 1.04101,1.02844 2.08001,1.3859 4.23362,1.45656 1.40491,0.0461 3.32601,-0.13618 3.52421,-0.33439 0.0418,-0.0418 0.14185,-0.76544 0.2223,-1.60806 0.42783,-4.48107 1.7409,-11.2314 3.16846,-16.28871 1.74115,-6.16824 3.84243,-10.89742 5.70119,-12.83123 0.86971,-0.90482 1.79004,-1.13705 2.33732,-0.58977 0.2924,0.2924 0.29411,0.30014 0.23844,1.08031 -0.0711,0.9965 -0.53517,2.80336 -1.41031,5.49116 -0.37832,1.16193 -0.85478,2.68222 -1.05881,3.37842 -0.69669,2.37736 -1.55743,6.53098 -1.87601,9.05305 -0.22099,1.74945 -0.15532,4.11612 0.14666,5.28561 0.4416,1.71019 1.30073,3.03999 2.29012,3.54473 2.08636,1.06439 4.80506,0.33519 7.70583,-2.06683 1.289,-1.06737 2.26718,-2.30615 3.4146,-4.32434 0.40224,-0.70747 0.76314,-1.30598 0.80202,-1.33 0.0389,-0.024 0.19152,0.32777 0.3392,0.78178 0.56288,1.73035 1.68395,2.84135 3.22577,3.1968 0.63234,0.14577 2.01558,0.12126 2.85013,-0.0505 1.3586,-0.27963 3.53508,-1.30143 4.86115,-2.2822 3.56538,-2.63694 6.90192,-7.78656 10.32033,-15.92838 0.48176,-1.14744 1.28989,-3.02718 1.79584,-4.1772 1.05233,-2.39191 1.23552,-2.99193 1.1657,-3.81801 -0.18332,-2.16894 -1.75462,-3.18821 -3.22321,-2.09084 -0.47082,0.35181 -0.8632,1.03077 -1.65143,2.85762 -1.45592,3.37427 -4.55232,9.23441 -5.98327,11.3237 -1.16886,1.70662 -2.46881,2.78768 -3.075,2.55721 -0.5569,-0.21174 -0.74005,-1.21054 -0.62123,-3.38787 0.14091,-2.58195 0.53655,-4.47126 1.7449,-8.33242 0.38841,-1.24115 1.36444,-4.37405 2.16895,-6.962 2.89772,-9.32141 3.39617,-10.87881 4.05689,-12.675634 0.369,-1.003488 0.70117,-1.856018 0.73816,-1.894511 0.0836,-0.08702 15.30497,-3.550269 17.63477,-4.012369 1.52692,-0.302854 2.60305,-1.373331 3.70283,-3.683377 0.82578,-1.734515 1.06352,-3.038883 0.64975,-3.564898 -0.1982,-0.251973 -0.23813,-0.262449 -0.79222,-0.207831 -0.71105,0.07009 -4.12128,0.791782 -12.14021,2.569179 -3.34572,0.74158 -6.10875,1.322708 -6.14006,1.291395 -0.0313,-0.03131 0.15058,-0.650068 0.40421,-1.375011 1.3704,-3.917013 1.75668,-5.16371 2.55064,-8.232061 0.47831,-1.848531 1.17948,-4.2934 1.55814,-5.433044 l 0.68848,-2.072079 -0.23422,-0.472651 c -0.43642,-0.880715 -1.51913,-1.250184 -3.59517,-1.226828 -2.11212,0.02376 -4.28398,0.564805 -6.36459,1.585517 -0.97658,0.479091 -2.03782,1.300102 -2.03782,1.576518 0,0.07257 0.14044,0.202801 0.31208,0.28941 0.77539,0.391231 1.09755,0.997914 0.97989,1.84524 -0.0782,0.563364 -2.22688,9.005188 -2.67058,10.492481 -0.38633,1.294965 -1.77203,5.293276 -1.8679,5.389648 -0.0366,0.03674 -14.58581,3.439104 -32.33171,7.560816 l -32.26526,7.49402 -0.40151,0.43547 c -0.51158,0.55486 -1.43108,2.36474 -1.93381,3.80637 -0.50016,1.43426 -0.90937,2.93634 -0.83344,3.05921 0.0326,0.0527 0.21987,0.0958 0.41624,0.0958 1.40372,0 22.45638,-4.84828 56.73575,-13.06586 4.39232,-1.05294 8.01135,-1.91444 8.04231,-1.91444 0.0309,0 0.0563,0.0549 0.0563,0.12194 0,0.17819 -4.29395,14.12206 -5.18178,16.82693 -0.41605,1.26756 -0.87236,2.7089 -1.01402,3.20297 -0.32015,1.11665 -1.67481,4.28883 -3.19736,7.48718 -1.19574,2.51183 -1.85063,3.73504 -2.7082,5.05837 -1.23174,1.90073 -1.60299,1.85478 -1.50573,-0.18637 0.0919,-1.92904 0.66971,-4.69295 1.82902,-8.74927 1.21725,-4.25908 1.63438,-6.62223 1.63477,-9.26159 3e-4,-2.04853 -0.18443,-3.10832 -0.74486,-4.27322 -0.44758,-0.93033 -0.90018,-1.41557 -1.68789,-1.80965 -2.43374,-1.21755 -5.80701,-0.27048 -8.98214,2.52181 -0.42252,0.37158 -0.79714,0.67664 -0.8325,0.67791 -0.0353,0.001 -0.0212,-0.15357 0.0314,-0.34411 0.12509,-0.45305 -0.0389,-0.85663 -0.43675,-1.0745 -0.50103,-0.2744 -2.42825,-0.21879 -3.75556,0.10837 -2.08596,0.51417 -4.06406,1.2963 -4.5018,1.78001 -0.42198,0.46628 -2.68883,8.20252 -4.56203,15.56916 -0.50617,1.99057 -0.82401,3.01905 -1.29092,4.1772 -1.62602,4.03325 -2.42359,5.48572 -2.96969,5.40815 -0.30981,-0.044 -0.26615,-0.30211 0.29759,-1.7591 0.83935,-2.16935 1.44238,-4.44471 1.78826,-6.74751 0.18933,-1.26058 0.19427,-3.96278 0.009,-4.83764 -0.22833,-1.07725 -0.7171,-1.79453 -1.46455,-2.14922 -0.37421,-0.17757 -0.45585,-0.34649 -0.55412,-1.14648 -0.15852,-1.29046 -0.8023,-2.77123 -1.53916,-3.54026 -0.51488,-0.53736 -1.03174,-0.86981 -1.86135,-1.19723 -0.57796,-0.2281 -0.75877,-0.25114 -1.98042,-0.25236 -1.27014,-0.001 -1.39434,0.0159 -2.249,0.31157 -1.84059,0.63665 -3.08494,1.4482 -4.67296,3.04765 -1.85698,1.87033 -3.62648,4.49999 -5.46511,8.12172 -1.4735,2.9025 -2.5475,5.68825 -3.22003,8.35216 -0.38766,1.53552 -2.03936,5.38095 -3.66642,8.53603 -1.22057,2.36687 -1.32983,2.49429 -1.84778,2.15492 -0.71667,-0.46959 -0.68431,-2.10891 0.0985,-4.98773 0.69322,-2.54949 1.13227,-3.72752 2.9705,-7.97029 1.7067,-3.93916 2.6663,-6.37553 2.98763,-7.58541 0.1861,-0.70075 0.0434,-1.13221 -0.57238,-1.73083 -1.33064,-1.29352 -4.45731,-2.24982 -6.50982,-1.99104 -1.34426,0.16949 -1.5962,0.35271 -2.3404,1.70215 -0.20317,0.3684 -0.38544,0.62173 -0.40503,0.56294 -0.0196,-0.0588 0.0717,-0.53304 0.20283,-1.05392 0.44911,-1.78374 0.57304,-2.63253 0.57993,-3.97192 0.006,-1.09622 -0.0273,-1.40459 -0.21357,-1.99723 -0.29805,-0.94845 -0.87542,-1.56276 -1.6899,-1.79802 -1.14919,-0.33194 -2.04522,-0.0488 -3.15315,0.99637 -2.74287,2.58748 -5.47586,8.58655 -6.37919,14.00266 -0.24598,1.47487 -0.24714,4.27472 -0.002,5.04856 l 0.17476,0.55183 -2.02955,5.23973 c -1.93144,4.98644 -2.29966,6.08414 -2.30347,6.86697 -0.003,0.59659 0.27677,1.3349 0.66215,1.74805 0.32044,0.34353 0.42182,0.39262 0.8911,0.43154 0.39667,0.0329 0.64069,-0.005 0.97259,-0.15207 0.53614,-0.23717 1.34109,-0.97069 1.65729,-1.51024 0.235,-0.40101 2.89813,-6.25819 4.2729,-9.39766 0.41419,-0.94587 0.78725,-1.74882 0.82903,-1.78433 0.0418,-0.0355 0.25142,-0.11436 0.46587,-0.17519 0.21446,-0.0608 0.68979,-0.30487 1.05631,-0.54229 0.64239,-0.41612 0.90646,-0.52078 0.90646,-0.35926 0,0.0421 -0.17449,0.59304 -0.38776,1.22435 -1.34168,3.97153 -2.21296,7.10366 -2.50972,9.02209 -0.27872,1.80181 -0.30653,5.4994 -0.0534,7.10604 0.66274,4.2071 1.8368,5.61724 4.55441,5.47018 0.48581,-0.0263 1.1772,-0.13716 1.53644,-0.24639 z m 17.23386,-11.94703 c -0.76787,-0.64612 -0.9665,-2.96345 -0.53901,-6.28849 0.80446,-6.25718 3.22017,-13.34121 5.05141,-14.81316 l 0.35115,-0.28226 0.36734,0.24962 c 0.20204,0.13728 0.40191,0.24961 0.44416,0.24961 0.0423,0 0.23077,0.0643 0.41893,0.14294 l 0.3421,0.14294 -0.52146,0.60127 c -0.94959,1.09493 -1.46241,1.99128 -1.98185,3.46401 -1.06889,3.03054 -0.99634,6.79596 0.18688,9.69949 0.15456,0.37927 0.28116,0.7255 0.28134,0.76941 1.8e-4,0.0439 -0.37287,0.88654 -0.82901,1.87253 -1.85445,4.00863 -2.6627,4.9572 -3.57198,4.19209 z m -4.93423,-22.54293 c 0.11255,-0.11982 0.41852,-0.67078 0.67992,-1.22436 0.2614,-0.55358 0.7386,-1.38916 1.06044,-1.85686 0.32185,-0.46769 0.58518,-0.88901 0.58518,-0.93627 0,-0.13148 -0.12751,-0.11359 -2.0749,0.2911 -0.99782,0.20735 -2.16571,0.42765 -2.59531,0.48955 -1.1976,0.17256 -1.21075,0.16371 -3.97392,-2.67578 -1.29306,-1.32878 -2.42665,-2.55574 -2.51908,-2.72657 -0.22227,-0.41084 -0.21505,-1.1538 0.0202,-2.07507 0.35436,-1.38789 1.06517,-3.32799 1.69642,-4.63027 l 0.63126,-1.30227 -0.26198,-0.73793 c -0.25466,-0.71735 -0.273,-0.74077 -0.65777,-0.83974 -0.78034,-0.20073 -1.01423,-0.29859 -1.56606,-0.65526 -1.43552,-0.92782 -2.32838,-2.6969 -2.67057,-5.29141 -0.18901,-1.432984 -0.18623,-4.333092 0.006,-6.745671 0.0832,-1.041841 0.13734,-1.987046 0.1203,-2.100454 -0.0243,-0.161593 -0.16499,-0.247214 -0.65049,-0.395817 -1.13196,-0.346468 -2.39672,-1.341589 -3.04971,-2.399511 -0.18877,-0.305838 -0.37817,-0.556069 -0.42088,-0.556069 -0.0427,0 -0.39003,0.42132 -0.77184,0.936268 -1.44269,1.945814 -3.39839,3.692806 -5.04499,4.506598 -0.38727,0.191396 -0.70412,0.376123 -0.70412,0.410502 0,0.03438 1.27981,1.373781 2.84402,2.976448 3.08312,3.158916 3.5596,3.761846 4.05512,5.131286 0.45583,1.25974 0.62173,2.31939 0.56551,3.61194 -0.0956,2.19829 -0.81505,4.8671 -2.30935,8.5668 -0.14492,0.3588 -0.0346,0.42297 0.30792,0.17908 0.15883,-0.1131 0.53943,-0.32284 0.84577,-0.46609 0.49221,-0.23017 0.66864,-0.25996 1.51726,-0.25616 1.11092,0.005 1.78406,0.20451 2.5251,0.74849 0.63866,0.46882 1.02093,1.04646 1.5053,2.27469 0.52017,1.31897 0.63727,1.49885 1.0318,1.58487 0.88876,0.19379 2.1483,0.97187 3.67307,2.26903 0.51707,0.43989 1.3343,1.11935 1.81607,1.50991 0.48177,0.39057 1.14928,0.96471 1.48337,1.27588 1.44438,1.34527 1.88094,1.55574 2.30053,1.10912 z m 23.11559,-6.29123 c 0.41015,-1.44098 0.71675,-2.64893 0.68134,-2.68434 -0.0354,-0.0354 -1.24031,0.20668 -2.67756,0.53797 -3.15901,0.72817 -2.94928,0.66922 -2.94928,0.82904 0,0.26816 4.00754,4.13938 4.14048,3.99963 0.0326,-0.0343 0.39488,-1.24133 0.80502,-2.6823 z m -116.52953,1.70623 c 4.832454,-0.41939 9.931181,-2.60603 15.124341,-6.48622 2.783907,-2.08006 6.467446,-5.55542 8.588585,-8.10318 4.607954,-5.534744 7.814014,-11.520028 8.824454,-16.474056 0.63267,-3.101878 0.50841,-6.463175 -0.33168,-8.972214 -1.13097,-3.377803 -3.17051,-5.520524 -6.81852,-7.163467 -0.52105,-0.234665 -0.956315,-0.459614 -0.967258,-0.499888 -0.01094,-0.04028 0.373478,-0.310894 0.854278,-0.601378 3.9385,-2.379544 8.99578,-6.747276 12.30166,-10.624353 3.29116,-3.859805 5.46035,-7.100018 7.54475,-11.26993 2.32107,-4.643348 3.53274,-8.445297 4.0445,-12.690718 0.51888,-4.304477 0.153,-9.01573 -0.96181,-12.384636 -0.33517,-1.012886 -1.49038,-3.241721 -2.18143,-4.208817 -2.49599,-3.493015 -6.27906,-5.514888 -11.16565,-5.967512 -1.46726,-0.135906 -4.82718,-0.05991 -6.5761,0.148733 -5.716367,0.681965 -11.929835,2.628083 -18.526198,5.802581 -7.045733,3.390758 -15.608301,9.311354 -22.678085,15.680785 -10.337717,9.313633 -17.982766,19.985816 -20.254394,28.274324 -0.718068,2.620022 -0.937729,4.33262 -0.940874,7.335571 -0.0032,3.090443 0.284354,4.645318 1.207765,6.529874 0.808076,1.649172 2.005661,2.681803 3.627614,3.127948 1.390463,0.38247 3.647534,0.240127 5.376287,-0.339059 0.792234,-0.265422 4.372053,-1.858008 4.545722,-2.022296 0.04595,-0.04346 0.0762,-0.872424 0.06724,-1.842133 -0.009,-0.96971 0.03243,-2.258738 0.09199,-2.864508 0.460832,-4.687113 2.365887,-10.507813 5.09766,-15.575378 3.902341,-7.239024 9.703767,-14.26001 15.545569,-18.813519 0.945571,-0.737044 3.480749,-2.491021 3.529716,-2.442053 0.01826,0.01826 -0.383961,0.91323 -0.893829,1.988817 -10.852824,22.894432 -19.321815,48.179836 -20.303278,60.618392 -0.219432,2.78097 -0.06203,7.1725 0.325614,9.08466 0.538178,2.65472 1.861578,4.97395 3.689524,6.46583 0.399081,0.32571 0.965733,0.81393 1.259226,1.08494 2.547208,2.35207 6.714433,3.57068 10.952614,3.20286 z m -0.599902,-11.63095 c -0.85074,-0.12495 -1.61286,-0.79984 -2.0043,-1.77488 -0.207559,-0.51701 -0.226561,-0.70264 -0.224919,-2.19719 0.002,-1.77983 0.174209,-2.9733 1.017329,-7.048652 2.384686,-11.526754 8.406261,-28.770691 16.551701,-47.398973 2.269716,-5.190746 7.024592,-15.657479 8.463026,-18.629346 l 0.371831,-0.768221 0.480138,-0.0881 c 0.637806,-0.117025 2.838416,0.07289 3.841106,0.331488 4.05774,1.046521 6.19848,4.634688 5.61405,9.409897 -0.82619,6.750585 -6.3447,15.594458 -15.038468,24.100398 -2.610592,2.554192 -6.342291,5.84819 -7.723917,6.817957 -0.965486,0.677677 -1.91554,1.690101 -2.269243,2.418217 -0.327195,0.673546 -0.732576,2.061032 -0.64403,2.204302 0.07791,0.12606 0.630387,0.393884 2.27004,1.100445 0.806783,0.347659 1.74776,0.786148 2.091058,0.97442 2.25772,1.238176 4.042388,2.928658 4.792138,4.539231 0.940716,2.020795 0.974632,4.926668 0.09245,7.920883 -0.820218,2.783904 -3.086408,6.877164 -5.422793,9.794811 -1.056232,1.319013 -3.627116,3.902423 -4.851678,4.875323 -3.037262,2.41306 -5.743473,3.6621 -7.405518,3.41799 z m 4.987093,-3.59997 c 2.64059,-1.79252 5.484934,-4.720553 7.777456,-8.00629 1.20049,-1.720591 2.129039,-3.435138 2.962672,-5.470514 0.871924,-2.128866 1.224911,-4.299983 1.005686,-6.185681 -0.06175,-0.531126 -0.153536,-1.042797 -0.203977,-1.137047 -0.103921,-0.194177 -0.840699,-0.584469 -2.018946,-1.069492 -0.871131,-0.358599 -3.690092,-1.213592 -4.001283,-1.213592 -0.255117,0 -0.606631,0.849005 -1.310887,3.166156 -1.552298,5.10739 -5.044892,19.07119 -5.044892,20.17007 0,0.27411 0.102856,0.24284 0.834171,-0.25361 z M 94.659338,61.214027 c 4.950605,-5.219102 8.154862,-9.544314 10.420122,-14.065433 1.59025,-3.173874 2.48887,-6.306928 2.47675,-8.635221 -0.004,-0.791782 -0.10694,-1.571219 -0.22251,-1.686794 -0.12442,-0.124418 -1.39192,-0.310556 -2.1377,-0.313931 l -0.77995,-0.0035 -0.89038,1.896545 c -3.713735,7.910306 -10.849547,24.08774 -10.849547,24.596746 0,0.240578 0.405403,-0.124998 1.983215,-1.788382 z M 221.81098,110.79007 c 0.40526,-1.31392 0.66966,-2.32344 0.62121,-2.37189 -0.13603,-0.13603 -5.05659,1.09365 -5.09099,1.27227 -0.017,0.0884 0.50022,0.61186 1.29556,1.31111 0.72814,0.64018 1.53874,1.38343 1.80132,1.65166 0.26258,0.26824 0.52015,0.47346 0.57238,0.45605 0.0522,-0.0174 0.41247,-1.06105 0.80052,-2.3192 z m -56.84606,-6.05825 c 1.65106,-0.33219 3.87031,-1.71015 5.761,-3.57707 2.98843,-2.950862 5.75436,-7.678466 6.99148,-11.950018 1.14939,-3.96863 3.37963,-14.373074 3.73843,-17.440353 0.2671,-2.283327 0.16014,-4.18666 -0.29089,-5.176489 -0.56504,-1.240032 -2.02731,-2.978645 -3.49151,-4.151331 -0.42864,-0.343298 -0.77974,-0.673385 -0.78024,-0.733526 -4.9e-4,-0.06014 0.16115,-0.139738 0.35921,-0.176882 1.00133,-0.18779 2.83397,-0.910415 4.99666,-1.970231 1.29353,-0.633885 2.41157,-1.152518 2.48453,-1.152518 0.0885,0 0.11583,0.07186 0.0821,0.216062 -0.0278,0.118834 -0.24185,1.015491 -0.47561,1.992572 -2.3667,9.892147 -3.91346,19.596192 -4.61481,28.952309 -0.42889,5.721351 0.18403,8.764397 1.99563,9.908008 0.88427,0.558217 3.00961,0.782467 4.37192,0.461298 3.54832,-0.83653 7.81835,-5.05306 10.58676,-10.454114 1.44208,-2.813442 2.21839,-5.182699 3.4038,-10.388199 0.94056,-4.130273 1.98739,-9.31497 2.31574,-11.469291 0.23218,-1.523311 0.23599,-4.137426 0.007,-4.983562 -0.36347,-1.344633 -1.71823,-3.117274 -3.56319,-4.662285 -0.55658,-0.466091 -0.99193,-0.879839 -0.96746,-0.919439 0.0245,-0.0396 0.19844,-0.100881 0.3866,-0.136179 0.76276,-0.143094 2.6712,-0.830204 4.00916,-1.443446 0.78116,-0.35804 1.44021,-0.631067 1.46455,-0.606727 0.0243,0.02434 -0.0386,0.368253 -0.13989,0.764253 -0.54755,2.140906 -0.82235,5.202735 -0.6758,7.529978 0.14052,2.231612 0.78082,4.408401 1.65853,5.638398 1.36532,1.913326 3.49702,2.978963 6.21116,3.104962 1.4088,0.0654 2.45641,-0.111194 3.91235,-0.659498 3.83518,-1.444317 7.49231,-5.701437 11.11422,-12.937646 1.46191,-2.920728 4.60889,-10.118163 4.8381,-11.065167 0.06,-0.247852 0.10907,-0.77227 0.10907,-1.165372 0,-1.299499 -0.67091,-2.177077 -1.66437,-2.177077 -0.64314,0 -1.17825,0.27163 -1.77212,0.899557 -0.51972,0.549534 -0.75797,0.971089 -1.40618,2.488132 -2.01473,4.715163 -5.19037,10.858733 -6.76165,13.081038 -0.67211,0.950587 -2.27252,2.570399 -3.0303,3.067052 -1.13871,0.746313 -2.12911,0.928732 -2.75442,0.507332 -0.60769,-0.409518 -1.05537,-1.630445 -1.04256,-2.843277 l 0.006,-0.539052 0.8199,-0.672193 c 1.63551,-1.340881 4.09569,-4.119646 5.87403,-6.634708 2.38706,-3.375971 4.89162,-8.448154 5.6785,-11.500009 0.82315,-3.192495 0.60157,-5.243137 -0.70806,-6.552769 -0.86263,-0.862632 -1.3753,-1.040155 -2.98526,-1.033719 -1.38942,0.0056 -2.20632,0.151989 -3.38618,0.60699 -3.36341,1.297068 -7.4513,5.77836 -10.50145,11.512048 l -0.32445,0.609911 -1.48843,0.667087 c -1.82902,0.819735 -2.93633,1.238596 -4.23549,1.602159 -1.14218,0.319631 -5.53649,1.223105 -5.60683,1.152767 -0.0257,-0.02569 0.36024,-1.23185 0.85761,-2.680365 7.38393,-21.504565 9.09341,-26.401283 9.86335,-28.252947 0.41486,-0.997718 0.69305,-1.811581 0.72499,-2.121006 0.048,-0.465432 0.0301,-0.523765 -0.24527,-0.799162 -0.41337,-0.413369 -1.05253,-0.610611 -2.17459,-0.671066 -2.09808,-0.113041 -4.67065,0.685208 -5.8218,1.806464 -0.35559,0.346361 -0.60139,0.735244 -1.006,1.591659 -3.09921,6.559797 -6.89353,17.499218 -10.21864,29.461442 -0.32299,1.161933 -0.64217,2.168829 -0.7093,2.237546 -0.0671,0.06872 -0.80971,0.450136 -1.65016,0.847598 -3.45026,1.631665 -4.42533,1.953694 -8.25004,2.724681 -1.00349,0.202283 -1.94336,0.397716 -2.0886,0.434294 -0.20171,0.0508 -0.26407,0.03192 -0.26407,-0.07993 0,-0.163741 1.54926,-4.737291 5.6012,-16.535165 4.15133,-12.087265 4.4539,-12.945163 5.12631,-14.535185 0.43885,-1.037751 0.63908,-1.642275 0.67495,-2.037846 0.0489,-0.538907 0.038,-0.574577 -0.26075,-0.853622 -0.48256,-0.450773 -1.20031,-0.625749 -2.54725,-0.620971 -1.60441,0.0057 -2.8488,0.293777 -4.21291,0.975321 -1.09814,0.548661 -1.53725,1.036984 -2.22654,2.476114 -1.81192,3.783016 -4.35604,10.49974 -6.52891,17.236947 -1.82796,5.667798 -4.83917,16.123504 -5.47582,19.013457 -0.15561,0.706392 -0.44835,1.45276 -2.54229,6.48186 -2.01615,4.842261 -2.72674,6.18945 -3.47625,6.590578 -0.48722,0.260749 -0.8052,-0.73003 -0.71292,-2.221324 0.19758,-3.193159 1.84339,-9.496286 4.73775,-18.144706 1.55719,-4.652922 1.55755,-4.654828 0.97728,-5.253509 -0.47483,-0.489901 -1.12859,-0.648712 -2.3837,-0.579047 -1.58221,0.08782 -2.92781,0.4953 -4.38148,1.326816 -0.80498,0.46046 -1.83401,1.348621 -2.1444,1.850853 -0.25636,0.414796 -2.50459,7.174967 -3.73971,11.244851 -2.19783,7.242204 -4.94468,14.61176 -5.77349,15.489803 -0.70417,0.746001 -0.93398,-0.670554 -0.62183,-3.833008 0.18858,-1.910489 0.42024,-3.200874 0.96316,-5.364943 0.86444,-3.445659 2.23622,-7.620855 4.05489,-12.341588 0.61041,-1.584455 1.16557,-3.032071 1.23368,-3.216924 0.20912,-0.567528 0.16738,-1.455949 -0.0861,-1.832044 -0.47397,-0.703324 -1.20253,-0.987283 -2.51844,-0.981581 -2.5892,0.01122 -6.13848,1.758602 -6.98287,3.437804 -0.0797,0.158446 -0.41623,1.109119 -0.7479,2.112607 -0.33167,1.003488 -1.02352,3.016199 -1.53744,4.472692 -1.13089,3.205039 -2.11056,6.282126 -2.84092,8.923152 -0.94236,3.407628 -2.69897,7.202067 -3.33414,7.202067 -0.31229,0 -0.36426,-0.246657 -0.15428,-0.73216 2.0461,-4.73071 2.85781,-10.964605 1.7185,-13.197846 -0.19899,-0.390042 -0.83327,-0.998014 -1.14415,-1.096684 -0.23094,-0.0733 -0.38923,-0.402195 -0.38923,-0.808748 0,-0.501587 -0.38283,-1.785306 -0.76342,-2.55991 -0.64612,-1.315042 -1.92459,-2.269532 -3.41377,-2.548681 -1.87422,-0.351324 -4.24088,0.337594 -6.15026,1.790292 -3.58331,2.726262 -7.47149,9.322903 -9.53495,16.176883 -1.6906,5.615514 -2.40936,11.312765 -1.84424,14.618402 0.21408,1.252181 0.68486,2.652864 1.21033,3.60096 0.48665,0.878061 1.62028,1.98926 2.49115,2.441861 3.2162,1.671497 5.97384,0.893773 9.56118,-2.69649 1.57522,-1.576508 2.69854,-3.018512 3.83335,-4.920865 1.05449,-1.767704 0.9368,-1.64042 1.39371,-1.507339 0.50414,0.146838 1.71219,0.142073 2.25665,-0.0089 0.61495,-0.170521 1.50368,-0.6281 2.07346,-1.067569 0.26896,-0.207441 0.51407,-0.377166 0.5447,-0.377166 0.0306,0 0.19285,0.44146 0.36048,0.981023 0.37084,1.193656 0.82426,2.119404 1.46089,2.98271 0.57748,0.783104 1.09541,1.223134 1.85698,1.577673 0.48911,0.2277 0.68462,0.263828 1.38569,0.256061 3.28037,-0.03634 6.53248,-2.773103 9.37095,-7.885969 0.1539,-0.277226 0.30758,-0.504091 0.3415,-0.504145 0.0339,-5.4e-5 0.13709,0.313192 0.22926,0.696102 0.39425,1.637899 1.14422,3.024371 2.01629,3.727543 1.00904,0.813599 2.46209,1.077254 3.75552,0.681435 1.34195,-0.410667 2.99744,-1.622854 4.23207,-3.098832 0.43325,-0.517933 0.66274,-0.727844 0.68334,-0.625031 0.0171,0.08514 -0.0586,0.749046 -0.1681,1.475343 -0.60334,4.001153 -1.29296,10.9173 -1.40997,14.140293 -0.0912,2.513261 0.23183,4.681991 0.89178,5.986301 0.32406,0.64048 0.94039,1.28265 1.50624,1.56939 0.97957,0.49638 2.58391,0.64221 3.97847,0.36163 z m 2.41664,-10.064697 c -0.48881,-1.10505 -0.46943,-2.306119 0.15437,-9.56806 0.3815,-4.44113 0.54964,-5.717552 1.15113,-8.738508 0.41845,-2.101672 2.10663,-9.080222 2.25445,-9.319398 0.12903,-0.208788 0.34359,-0.02965 0.81654,0.681773 0.96149,1.446288 1.32718,3.168052 1.32469,6.236936 -0.002,2.630717 -0.36218,5.313595 -1.07606,8.018302 -0.55528,2.103785 -1.17858,4.57516 -1.93493,7.671873 -0.80112,3.279993 -1.11461,4.208764 -1.68086,4.979757 -0.45303,0.616848 -0.74815,0.627761 -1.00933,0.03733 z m 21.2635,-4.360035 c -0.1734,-0.114721 -0.39055,-0.610787 -0.50586,-1.155587 -0.20993,-0.991816 -0.13907,-2.603654 0.37443,-8.517719 0.42299,-4.871663 0.59328,-6.145587 1.25797,-9.410701 0.37953,-1.864339 2.09012,-8.710432 2.2066,-8.831211 0.12425,-0.128831 0.57433,0.346557 0.99694,1.052979 0.76288,1.275234 1.11416,3.142269 1.11114,5.905695 -0.003,2.95708 -0.46481,5.884117 -1.49916,9.506728 -0.12819,0.448929 -0.62286,2.436699 -1.09927,4.417268 -1.21627,5.056334 -1.5512,6.059403 -2.28455,6.841963 -0.25491,0.27202 -0.3738,0.312609 -0.55824,0.190585 z m -68.19615,-5.838033 c -0.30874,-0.216247 -0.49374,-0.628278 -0.6509,-1.449664 -0.8027,-4.195338 2.03814,-15.807375 4.54644,-18.583769 0.46204,-0.511416 0.66593,-0.612461 0.869,-0.430651 0.088,0.07882 0.4101,0.253428 0.7157,0.388021 l 0.55565,0.244717 -0.62928,0.747955 c -0.74377,0.884043 -1.45362,2.218044 -1.85431,3.484742 -0.84298,2.664961 -0.79599,5.806668 0.12659,8.462316 0.19038,0.548019 0.36785,1.082823 0.39437,1.188453 0.0521,0.207614 -1.28859,3.188993 -1.99996,4.447318 -0.55094,0.974545 -1.19592,1.650432 -1.57496,1.650432 -0.15641,0 -0.38066,-0.06744 -0.49834,-0.14987 z m 91.58947,-31.352943 c 0,-0.146586 0.92156,-2.374462 1.83016,-4.424441 1.93416,-4.363828 3.81972,-7.57323 4.44936,-7.57323 0.61458,0 0.23788,2.056527 -0.85416,4.663064 -0.87734,2.094068 -2.68602,4.745179 -4.5984,6.740209 -0.64856,0.676589 -0.82696,0.804816 -0.82696,0.594398 z m -97.39775,44.536671 c 0.69881,-0.381874 1.27137,-0.751349 1.27236,-0.821056 0.004,-0.286682 -1.52697,-2.208319 -1.93228,-2.425235 -0.21849,-0.116932 -0.25393,-0.04248 -0.62059,1.303616 -0.14386,0.528152 -0.42734,1.409307 -0.62996,1.958124 -0.20261,0.548816 -0.36839,1.060128 -0.36839,1.13625 0,0.100266 0.13892,0.05632 0.50415,-0.15949 0.27728,-0.163841 1.0759,-0.610335 1.77471,-0.992209 z m 21.10385,-6.460854 c 1.71808,-0.06657 2.16062,-0.121679 2.16062,-0.269053 0,-0.145311 -1.93587,-1.292394 -2.77204,-1.642551 -0.33629,-0.140823 -0.6686,-0.234102 -0.73848,-0.207287 -0.12606,0.04837 -0.71469,1.796902 -0.71469,2.122977 0,0.143231 0.0566,0.160376 0.36011,0.108987 0.19805,-0.03354 0.96507,-0.08442 1.70448,-0.113073 z M 63.242834,76.264528 c 0.965716,-3.048552 2.364756,-7.134223 3.662899,-10.696907 0.498316,-1.367603 0.890028,-2.534337 0.870471,-2.592744 -0.05115,-0.152761 -0.529478,0.701083 -1.500569,2.678605 -1.466086,2.985527 -2.527565,5.841444 -3.264464,8.783062 -0.578013,2.307367 -0.963118,4.851176 -0.690328,4.559968 0.047,-0.05017 0.461897,-1.279567 0.921991,-2.731984 z m 46.761436,1.704489 c 0.0204,-0.06602 0.19193,-0.854645 0.3811,-1.752503 0.18917,-0.897858 0.3725,-1.736985 0.40739,-1.864728 0.0517,-0.189313 0.0342,-0.221031 -0.0948,-0.171536 -0.35705,0.137014 -2.84948,2.100219 -2.84948,2.244444 0,0.172941 0.32326,0.477359 1.24836,1.17559 0.65097,0.491331 0.84507,0.570202 0.90743,0.368733 z"
         id="path7" />
    </g>
  </g>
</svg>
