<?xml version="1.0" encoding="UTF-8" standalone="no"?>
<svg
   width="300"
   height="200"
   version="1.1"
   id="svg1"
   sodipodi:docname="dooda.svg"
   inkscape:version="1.3.2 (091e20e, 2023-11-25)"
   inkscape:export-filename="../public/hero-images/dooda.svg"
   inkscape:export-xdpi="96"
   inkscape:export-ydpi="96"
   xmlns:inkscape="http://www.inkscape.org/namespaces/inkscape"
   xmlns:sodipodi="http://sodipodi.sourceforge.net/DTD/sodipodi-0.dtd"
   xmlns="http://www.w3.org/2000/svg"
   xmlns:svg="http://www.w3.org/2000/svg">
  <defs
     id="defs1" />
  <sodipodi:namedview
     id="namedview1"
     pagecolor="#ffffff"
     bordercolor="#666666"
     borderopacity="1.0"
     inkscape:showpageshadow="2"
     inkscape:pageopacity="0.0"
     inkscape:pagecheckerboard="0"
     inkscape:deskcolor="#d1d1d1"
     showguides="true"
     inkscape:zoom="1.6770182"
     inkscape:cx="87.65558"
     inkscape:cy="118.663"
     inkscape:window-width="1792"
     inkscape:window-height="991"
     inkscape:window-x="0"
     inkscape:window-y="25"
     inkscape:window-maximized="1"
     inkscape:current-layer="svg1">
    <sodipodi:guide
       position="0,200"
       orientation="0,1"
       id="guide59"
       inkscape:locked="false"
       inkscape:label=""
       inkscape:color="rgb(0,134,229)" />
    <sodipodi:guide
       position="0,200"
       orientation="1,0"
       id="guide60"
       inkscape:locked="false" />
    <sodipodi:guide
       position="300,0"
       orientation="0,1"
       id="guide61"
       inkscape:locked="false"
       inkscape:label=""
       inkscape:color="rgb(0,134,229)" />
    <sodipodi:guide
       position="300,0"
       orientation="1,0"
       id="guide62"
       inkscape:locked="false" />
  </sodipodi:namedview>
  <rect
     style="fill:#ffffff;fill-opacity:1;stroke:none;stroke-width:1.00157"
     id="rect62"
     width="300"
     height="200"
     x="0"
     y="0"
     ry="5.6843419e-14"
     inkscape:label="bg" />
  <path
     id="svg_43"
     style="stroke-width:1.30213"
     d="M 34.999999,150 C 24.47383,150 16,160.88105 16,168 v 32 c 1.499157,-0.1475 3.043338,-0.22715 4.627167,-0.22715 H 54 V 168 c 0,-7.11895 -8.473832,-18 -19.000001,-18 z"
     inkscape:label="body1"
     sodipodi:nodetypes="sscscss" />
  <path
     id="svg_44"
     style="stroke-width:1.60908"
     d="M 16,1.4768499e-6 V 81.074446 C 16,90.450812 24.474803,98 34.999999,98 45.525196,98 54,90.450812 54,81.074446 V 0.03191098 H 17.251144 C 16.830498,0.03191098 16.414186,0.01824955 16,0 Z"
     inkscape:label="body2" />
  <rect
     id="svg_45"
     height="36.854912"
     width="74.854912"
     y="60.572544"
     x="35.572544"
     stroke="#000000"
     fill="#000000"
     style="stroke-width:1.14509"
     inkscape:label="body3" />
  <path
     id="svg_48"
     d="m 142.1993,23.631523 a 44.956913,46.534352 0 0 0 -44.957401,46.534857 44.956913,46.534352 0 0 0 44.957401,46.53486 44.956913,46.534352 0 0 0 33.39457,-15.45719 25.238976,12.356582 0 0 1 -8.41719,0.73326 25.238976,12.356582 0 0 1 -25.23925,-12.357734 25.238976,12.356582 0 0 1 25.23925,-12.35466 25.238976,12.356582 0 0 1 18.58436,3.996009 44.956913,46.534352 0 0 0 1.39567,-11.094545 44.956913,46.534352 0 0 0 -44.95741,-46.534857 z"
     inkscape:label="head"
     style="stroke-width:1.57745" />
  <path
     id="svg_49"
     style="fill:#ef3936;fill-opacity:1;stroke:none;stroke-width:1.08265"
     d="m 221.17124,76.044396 c -7.54912,0.115717 -12.62649,8.681734 -12.62639,19.390151 -1e-4,10.708423 5.99818,17.432643 12.62639,19.390153 5.75919,0.79114 6.28945,0.81983 11.29811,-0.71598 3.6298,1.23658 4.17929,1.19263 7.81596,0.63234 7.14221,-1.72682 13.23989,-8.64399 13.23972,-19.306513 1.7e-4,-10.662523 -1.37789,-19.191259 -14.39084,-19.306514 -3.51296,0.01546 -6.57912,0.469341 -9.20251,3.603705 -2.31713,-3.199733 -5.64419,-3.685761 -8.76044,-3.687342 z"
     sodipodi:nodetypes="ccccccccc"
     inkscape:label="apple"
     inkscape:transform-center-x="13.759383"
     inkscape:transform-center-y="6.6045054" />
  <ellipse
     ry="9.2386312"
     rx="7.9901738"
     id="svg_52"
     cy="50.538071"
     cx="167.96057"
     stroke="#ffffff"
     fill="#ffffff"
     style="stroke-width:1.49817"
     inkscape:label="eye" />
  <path
     id="rect58"
     style="fill:#b2b2b2;fill-opacity:1;stroke:none;stroke-width:1.00157"
     d="M 0,0 V 200 H 300 V 0 Z M 1,1 H 299 V 199 H 1 Z"
     inkscape:label="borders"
     sodipodi:nodetypes="cccccccccc" />
  <path
     style="fill:#000000;fill-opacity:1;stroke:none;stroke-width:1.38135px;stroke-linecap:butt;stroke-linejoin:miter;stroke-opacity:1"
     d="m 229.49581,79.174991 c -1.22374,-2.731156 -0.92965,-5.175484 0.14719,-7.913546 l 1.39193,0.156153 c -1.33659,2.557546 -1.01847,4.90645 -0.40382,7.550806 l -0.69943,0.763334 z"
     id="path60"
     sodipodi:nodetypes="cccccc"
     inkscape:label="apple-stem" />
  <circle
     id="svg_57-8"
     cy="52.296974"
     cx="169.3719"
     stroke="#000000"
     fill="#000000"
     style="stroke-width:1.43778"
     inkscape:label="eye"
     r="5.7510548" />
  <ellipse
     ry="9.9854631"
     rx="8.6360826"
     id="svg_52-2"
     cy="50.427837"
     cx="141.98726"
     stroke="#ffffff"
     fill="#ffffff"
     style="stroke-width:1.61929"
     inkscape:label="eye" />
  <circle
     id="svg_57"
     cy="52.197407"
     cx="143.37329"
     stroke="#000000"
     fill="#000000"
     style="stroke-width:1.61929"
     inkscape:label="eye"
     r="6.4770627" />
  <rect
     style="fill:#ffffff;fill-opacity:1;stroke:none;stroke-width:3.35992"
     id="rect1"
     width="2.5265985"
     height="10.820215"
     x="148.73669"
     y="94.58989"
     ry="1.1138457"
     inkscape:label="saliva" />
  <ellipse
     style="fill:#ffffff;fill-opacity:1;stroke:none;stroke-width:2.59136;stroke-opacity:1"
     id="path3"
     cx="117.73188"
     cy="91.466171"
     rx="2.9938593"
     ry="1.979418"
     transform="rotate(-18.129506)"
     inkscape:label="eye-glare" />
  <ellipse
     style="fill:#ffffff;fill-opacity:1;stroke:none;stroke-width:2.59136;stroke-opacity:1"
     id="path3-8"
     cx="143.71373"
     cy="99.973175"
     rx="2.9938593"
     ry="1.979418"
     transform="rotate(-18.129506)"
     inkscape:label="eye-glare" />
</svg>
