<?xml version="1.0" encoding="UTF-8" standalone="no"?>
<svg
   width="300"
   height="200"
   version="1.1"
   id="svg1"
   sodipodi:docname="machine-vision.svg"
   inkscape:version="1.3.2 (091e20e, 2023-11-25)"
   inkscape:export-filename="../public/hero-images/machine-vision.svg"
   inkscape:export-xdpi="96"
   inkscape:export-ydpi="96"
   xml:space="preserve"
   xmlns:inkscape="http://www.inkscape.org/namespaces/inkscape"
   xmlns:sodipodi="http://sodipodi.sourceforge.net/DTD/sodipodi-0.dtd"
   xmlns:xlink="http://www.w3.org/1999/xlink"
   xmlns="http://www.w3.org/2000/svg"
   xmlns:svg="http://www.w3.org/2000/svg"><defs
     id="defs1"><linearGradient
       id="linearGradient37"
       inkscape:collect="always"><stop
         style="stop-color:#ffffff;stop-opacity:0.29829547;"
         offset="0"
         id="stop37" /><stop
         style="stop-color:#ffffff;stop-opacity:0.19886364;"
         offset="1"
         id="stop38" /></linearGradient><linearGradient
       inkscape:collect="always"
       xlink:href="#linearGradient37"
       id="linearGradient38"
       x1="81.800583"
       y1="79.061624"
       x2="155.8535"
       y2="79.061624"
       gradientUnits="userSpaceOnUse"
       gradientTransform="translate(0,14)" /></defs><sodipodi:namedview
     id="namedview1"
     pagecolor="#ffffff"
     bordercolor="#666666"
     borderopacity="1.0"
     inkscape:showpageshadow="2"
     inkscape:pageopacity="0.0"
     inkscape:pagecheckerboard="0"
     inkscape:deskcolor="#d1d1d1"
     showguides="true"
     inkscape:zoom="1.4142136"
     inkscape:cx="130.10765"
     inkscape:cy="113.84419"
     inkscape:window-width="1792"
     inkscape:window-height="991"
     inkscape:window-x="0"
     inkscape:window-y="25"
     inkscape:window-maximized="1"
     inkscape:current-layer="svg1"><sodipodi:guide
       position="0,200"
       orientation="0,1"
       id="guide59"
       inkscape:locked="false"
       inkscape:label=""
       inkscape:color="rgb(0,134,229)" /><sodipodi:guide
       position="0,200"
       orientation="1,0"
       id="guide60"
       inkscape:locked="false" /><sodipodi:guide
       position="300,0"
       orientation="0,1"
       id="guide61"
       inkscape:locked="false"
       inkscape:label=""
       inkscape:color="rgb(0,134,229)" /><sodipodi:guide
       position="300,0"
       orientation="1,0"
       id="guide62"
       inkscape:locked="false" /></sodipodi:namedview><rect
     style="fill:#ffffff;fill-opacity:1;stroke:none;stroke-width:1.00157"
     id="rect62"
     width="300"
     height="200"
     x="0"
     y="0"
     ry="5.6843419e-14"
     inkscape:label="bg" /><path
     id="rect58"
     style="fill:#b2b2b2;fill-opacity:1;stroke:none;stroke-width:1.00157"
     d="M 0,0 V 200 H 300 V 0 Z M 1,1 H 299 V 199 H 1 Z"
     inkscape:label="borders"
     sodipodi:nodetypes="cccccccccc" /><text
     xml:space="preserve"
     style="font-style:normal;font-weight:normal;font-size:37.3333px;line-height:1.25;font-family:sans-serif;fill:#000000;fill-opacity:1;stroke:none"
     x="180.16499"
     y="46.994881"
     id="text1"><tspan
       sodipodi:role="line"
       x="180.16499"
       y="46.994881"
       id="tspan2"
       style="font-size:37.3333px">It's a</tspan></text><text
     xml:space="preserve"
     style="font-style:normal;font-weight:normal;font-size:37.3333px;line-height:1.25;font-family:sans-serif;fill:#aa0000;fill-opacity:1;stroke:none"
     x="213.29465"
     y="84.523788"
     id="text3"><tspan
       sodipodi:role="line"
       id="tspan3"
       x="213.29465"
       y="84.523788"
       style="font-size:37.3333px;fill:#aa0000">Cat!</tspan></text><path
     id="path24"
     style="color:#000000;fill:#000000;stroke-width:0.975514;-inkscape-stroke:none"
     d="m 160.84523,7.248146 c -5.06456,0 -9.14083,4.285415 -9.14083,9.607421 V 91.45518 c 0,5.32202 4.07627,9.60742 9.14083,9.60742 h 23.74052 c 0.153,2.95552 0.27231,5.32913 -0.34943,7.76172 -0.80729,3.15863 -2.04359,5.29098 -4.39199,8.75586 l -0.0205,0.0332 -0.0205,0.0332 c -0.57841,1.01539 -1.65822,2.00639 -2.288,3.57031 l -0.8903,2.21289 2.12073,-0.89648 c 0.81911,-0.34544 1.61523,-0.73327 2.39207,-1.14649 l 0.0111,-0.006 0.0111,-0.006 c 2.11736,-1.19932 4.31795,-2.39165 6.35286,-3.94921 l 0.002,-0.002 c 2.55755,-1.94821 4.97204,-5.58756 5.90493,-8.77344 l 0.004,-0.008 0.002,-0.008 c 0.88962,-3.22094 0.91726,-4.62508 1.02784,-7.57227 h 90.35261 c 5.06456,0 9.14083,-4.2854 9.14083,-9.60742 V 16.855567 c 0,-5.322006 -4.07627,-9.607421 -9.14083,-9.607421 z m -0.0205,1.777343 h 124.08895 c 4.06813,0 7.34166,3.441902 7.34166,7.716797 V 91.52159 c 0,4.27488 -3.27353,7.71679 -7.34166,7.7168 h -92.3488 c 4.9e-4,0.0215 -4.5e-4,0.043 0,0.0644 h -0.0111 c 0.0144,0.77093 0.006,1.53566 -0.026,2.32031 l -0.013,0.002 c -0.0836,2.339 -0.14969,3.66761 -0.91631,6.44532 -0.76983,2.62071 -3.13695,6.16377 -5.20236,7.73632 h -0.002 c -1.5883,1.216 -3.38901,2.20309 -5.18563,3.21875 0.0699,-0.11017 0.11818,-0.16895 0.18587,-0.28515 l 0.01,-0.0156 c 2.37428,-3.50426 3.79244,-5.94618 4.67078,-9.38281 0.63547,-2.48634 0.57182,-4.85794 0.44236,-7.42969 -0.0206,-0.31554 -0.0433,-0.59086 -0.0688,-0.84961 h 0.01 c -0.008,-0.0784 -0.0247,-0.1381 -0.0335,-0.21289 -0.0615,-0.55825 -0.13729,-1.03375 -0.23977,-1.55273 h -0.006 c -0.004,-0.0199 -0.005,-0.0385 -0.01,-0.0586 h -25.34453 c -4.06812,0 -7.34352,-3.44192 -7.34352,-7.7168 V 16.742286 c 0,-4.274895 3.2754,-7.716797 7.34352,-7.716797 z" /><rect
     style="fill:#7e6a61;fill-opacity:1;stroke:#000000;stroke-width:1.05976;stroke-linecap:round;stroke-dasharray:none;stroke-opacity:1"
     id="rect1"
     width="181.47658"
     height="47.076611"
     x="6.9912686"
     y="145.19777" /><rect
     style="fill:#785d4d;fill-opacity:1;stroke:#000000;stroke-width:1.05976;stroke-linecap:round;stroke-dasharray:none;stroke-opacity:1"
     id="rect2"
     width="8.5333834"
     height="47.076611"
     x="44.75404"
     y="145.19777" /><rect
     style="fill:#010413;fill-opacity:1;stroke:#000000;stroke-width:1.05976;stroke-linecap:round;stroke-dasharray:none;stroke-opacity:1"
     id="rect3"
     width="56.847065"
     height="8.4658031"
     x="71.154922"
     y="167.33911" /><rect
     style="fill:#d1cdc4;fill-opacity:1;stroke:#000000;stroke-width:1.05976;stroke-linecap:round;stroke-dasharray:none;stroke-opacity:1"
     id="rect4"
     width="11.662289"
     height="16.164858"
     x="136.98312"
     y="163.34778" /><rect
     style="fill:#b53a0f;fill-opacity:1;stroke:#000000;stroke-width:1.05976;stroke-linecap:round;stroke-dasharray:none;stroke-opacity:1"
     id="rect4-4"
     width="11.662289"
     height="16.164858"
     x="154.71362"
     y="163.34778" /><rect
     style="fill:#efd869;fill-opacity:1;stroke:#000000;stroke-width:1.05976;stroke-linecap:round;stroke-dasharray:none;stroke-opacity:1"
     id="rect4-4-3"
     width="11.662289"
     height="16.164858"
     x="172.44414"
     y="163.34778" /><rect
     style="fill:#785d4d;fill-opacity:1;stroke:#000000;stroke-width:1.05976;stroke-linecap:round;stroke-dasharray:none;stroke-opacity:1"
     id="rect5"
     width="71.964851"
     height="9.3586006"
     x="60.751583"
     y="135.83916" /><rect
     style="fill:#fad805;fill-opacity:1;stroke:#000000;stroke-width:1.05976;stroke-linecap:round;stroke-dasharray:none;stroke-opacity:1"
     id="rect6"
     width="124.16029"
     height="87.808746"
     x="49.942627"
     y="47.357819" /><rect
     style="fill:#f9d108;fill-opacity:1;stroke:#000000;stroke-width:1.05976;stroke-linecap:round;stroke-dasharray:none;stroke-opacity:1"
     id="rect7"
     width="7.9644866"
     height="88.481361"
     x="61.036026"
     y="47.357819" /><rect
     style="fill:#fbaf75;fill-opacity:1;stroke:#000000;stroke-width:1.05976;stroke-linecap:round;stroke-dasharray:none;stroke-opacity:1"
     id="rect8"
     width="83.161186"
     height="70.014816"
     x="79.24057"
     y="56.716423"
     rx="5.3968792"
     ry="5.3807135" /><path
     style="fill:#cc970b;fill-opacity:1;stroke:#000000;stroke-width:1.05976;stroke-linecap:butt;stroke-linejoin:miter;stroke-dasharray:none;stroke-opacity:1"
     d="m 49.942627,53.596887 -27.769995,14.179703 0.284446,52.00802 27.485549,12.43292 z"
     id="path8" /><g
     id="g37"
     inkscape:label="face"
     transform="translate(310.31041,7.7679904)"><path
       style="fill:#000000;fill-opacity:1;stroke:none;stroke-width:1px;stroke-linecap:butt;stroke-linejoin:miter;stroke-opacity:1"
       d="m -174.40942,60.872671 10.88329,-0.922313 4.98049,1.475701 1.38347,5.902804 -2.49024,-3.135865 -4.88826,-0.73785 -9.49983,0.368925 -1.66016,-0.09223 z"
       id="path18" /><path
       style="fill:#000000;fill-opacity:1;stroke:none;stroke-width:1px;stroke-linecap:butt;stroke-linejoin:miter;stroke-opacity:1"
       d="m -191.01106,63.63961 1.38347,-3.689252 -5.62611,-3.043634 -8.76198,-1.38347 -11.99007,0.368926 -5.81057,7.74743 h 5.44164 l 3.2281,-3.689252 7.56297,-1.38347 5.34942,0.645619 8.76197,4.427103 z"
       id="path19" /><path
       style="fill:#000000;fill-opacity:1;stroke:none;stroke-width:1px;stroke-linecap:butt;stroke-linejoin:miter;stroke-opacity:1"
       d="m -174.13273,68.435639 3.04363,-1.106776 3.78149,1.014545 3.68925,1.936857 1.38347,2.674709 -2.85917,-2.305783 -5.07272,-2.121321 z"
       id="path20" /><path
       style="fill:#000000;fill-opacity:1;stroke:none;stroke-width:1px;stroke-linecap:butt;stroke-linejoin:miter;stroke-opacity:1"
       d="m -195.43817,66.314319 -2.85917,-2.029089 h -6.08726 l -2.30579,0.368925 -3.68925,2.674708 3.96595,-1.844626 4.4271,-0.276694 h 3.68925 z"
       id="path21" /><path
       style="fill:#000000;fill-opacity:0.33;stroke:none;stroke-width:1px;stroke-linecap:butt;stroke-linejoin:miter;stroke-opacity:1"
       d="m -187.78297,65.807046 1.7524,12.681807 -10.97553,2.766939 1.56793,-5.072722 z"
       id="path22" /><path
       style="fill:#000000;fill-opacity:1;stroke:none;stroke-width:1px;stroke-linecap:butt;stroke-linejoin:miter;stroke-opacity:1"
       d="m -194.88478,83.284881 -0.55339,3.597022 0.83009,1.752395 3.87371,-0.368925 -3.41256,-0.830082 -0.64562,-1.199007 z"
       id="path23" /><path
       style="fill:#000000;fill-opacity:1;stroke:none;stroke-width:1px;stroke-linecap:butt;stroke-linejoin:miter;stroke-opacity:1"
       d="m -180.68115,86.420746 2.49024,-1.844626 1.66016,0.73785 -0.18446,1.660164 -1.10677,0.645619 z"
       id="path25" /><path
       style="fill:#000000;fill-opacity:1;stroke:none;stroke-width:1px;stroke-linecap:butt;stroke-linejoin:miter;stroke-opacity:1"
       d="m -184.9238,86.097936 -0.55338,-2.259667 -2.49025,0.276694 -2.30578,1.844626 0.64562,1.660164 2.58247,-0.830081 z"
       id="path26" /><path
       style="fill:#ffffff;fill-opacity:0.5;stroke:none;stroke-width:1px;stroke-linecap:butt;stroke-linejoin:miter;stroke-opacity:1"
       d="m -197.0061,68.942911 -2.83995,2.386485 -5.8759,0.353554 -4.65769,-4.354087 3.96595,-1.844626 8.11635,-0.276694 2.85917,1.106776 -1.56793,2.628592"
       id="path27" /><path
       style="fill:#ffffff;fill-opacity:0.5;stroke:none;stroke-width:1px;stroke-linecap:butt;stroke-linejoin:miter;stroke-opacity:1"
       d="m -174.13273,68.435639 -1.56793,1.70628 3.52016,2.159749 4.5078,1.229751 5.43781,-0.576445 -2.85917,-2.305783 -5.07272,-2.121321 -3.96595,-0.09223"
       id="path28" /><ellipse
       style="fill:#000000;fill-opacity:0.535047;stroke:none;stroke-width:1;stroke-linecap:round;stroke-dasharray:none;stroke-opacity:1"
       id="path29"
       cx="-169.48465"
       cy="70.312927"
       rx="2.6074562"
       ry="2.7842329" /><ellipse
       style="fill:#000000;fill-opacity:0.535047;stroke:none;stroke-width:1;stroke-linecap:round;stroke-dasharray:none;stroke-opacity:1"
       id="path30"
       cx="-202.71867"
       cy="67.705475"
       rx="3.2261746"
       ry="3.0052037" /><path
       style="fill:#070707;fill-opacity:0.535047;stroke:none;stroke-width:1px;stroke-linecap:butt;stroke-linejoin:miter;stroke-opacity:1"
       d="m -199.13895,102.35371 14.58408,-0.26517 5.39169,0.88388 8.39689,2.47488 -10.10616,-0.85237 -11.01865,-0.9154 z"
       id="path31"
       sodipodi:nodetypes="ccccccc" /><path
       style="fill:#000000;fill-opacity:0.324766;stroke:none;stroke-width:1px;stroke-linecap:butt;stroke-linejoin:miter;stroke-opacity:1"
       d="m -199.93444,101.20466 8.92722,-2.916818 7.95495,-0.707106 5.21491,1.06066 6.8943,6.805904 -4.02167,-1.23744 -4.19845,-1.23744 -5.39169,-0.88388 -14.58408,0.26517 z"
       id="path32" /><path
       style="fill:#000000;fill-opacity:0.28972;stroke:none;stroke-width:1px;stroke-linecap:butt;stroke-linejoin:miter;stroke-opacity:1"
       d="m -199.13895,102.35371 4.24264,4.5078 9.45756,2.56326 2.03293,-0.0884 2.72467,0.0884 9.73809,-3.97747 -10.37304,-0.88923 -5.06567,-0.42084 -5.50933,-0.4577 z"
       id="path33"
       sodipodi:nodetypes="cccccccccc" /><path
       style="fill:#000000;fill-opacity:0.4;stroke:none;stroke-width:1px;stroke-linecap:butt;stroke-linejoin:miter;stroke-opacity:1"
       d="m -186.875,88.634298 -3.39821,7.490702 -9.66123,2.375 -6.01041,6.9473 V 97.580736 L -198.375,91.875 Z"
       id="path34" /><path
       style="fill:#000000;fill-opacity:0.4;stroke:none;stroke-width:1px;stroke-linecap:butt;stroke-linejoin:miter;stroke-opacity:1"
       d="m -180.68115,89.75 v 6 l 4.1504,1.830736 5.58769,6.187184 v -6.727121 z"
       id="path35" /><path
       style="fill:#000000;fill-opacity:0.33;stroke:none;stroke-width:1px;stroke-linecap:butt;stroke-linejoin:miter;stroke-opacity:1"
       d="M -180.68115,62.75 -182.125,59.950358 -180.68115,52.25 v 3.273254 4.427104 z"
       id="path36" /><path
       style="fill:#000000;fill-opacity:0.33;stroke:none;stroke-width:1px;stroke-linecap:butt;stroke-linejoin:miter;stroke-opacity:1"
       d="M -176.53075,79.625 -179.5,67.328863 l 2,13.926929 z"
       id="path37" /></g><path
     style="fill:url(#linearGradient38);fill-opacity:0.35514;stroke:none;stroke-width:1.05976;stroke-linecap:butt;stroke-linejoin:miter;stroke-dasharray:none;stroke-opacity:1"
     d="m 81.800583,61.060648 7.111153,11.820633 20.764564,22.687524 19.02137,14.153325 27.15583,15.34047 z"
     id="path9" /><g
     id="g17"
     inkscape:label="arm"
     transform="translate(22,14)"><path
       style="fill:none;stroke:#000000;stroke-width:1.05976;stroke-linecap:butt;stroke-linejoin:miter;stroke-dasharray:none;stroke-opacity:1"
       d="m 90,121.16656 v 10.56108"
       id="path10"
       sodipodi:nodetypes="cc" /><path
       style="fill:#fdb87f;fill-opacity:1;stroke:#000000;stroke-width:1px;stroke-linecap:butt;stroke-linejoin:miter;stroke-opacity:1"
       d="m 26.584534,136.82548 23.27054,-6.29876 c 0,0 4.374,-2.3087 6.76469,-2.79697 3.00481,-0.61369 7.72428,-1.4835 7.72428,-1.4835 l 26.09919,-11.15144 c 0,0 10.478916,0.48269 15.704746,0.16929 7.51262,-0.45055 22.38615,-2.93991 22.38615,-2.93991 0,0 1.97711,-0.29281 2.29642,0.75012 0.38555,1.2593 -0.31255,2.62352 -1.03982,3.81173 -0.9012,1.47237 -3.9005,4.09641 -3.9005,4.09641 l -25.58019,5.61097 c 0,0 6.83466,1.68776 9.74943,2.42593 1.00234,0.25384 3.69248,0.89514 3.24587,1.8277 -1.62544,3.39402 -3.83506,3.83307 -6.42225,5.83106 1.18451,4.07359 -2.0987,5.92895 -3.45164,7.02276 -1.35294,1.0938 -0.0936,3.71032 -1.35795,4.78079 -1.9381,1.64094 -7.57145,0.8445 -7.57145,0.8445 0,0 -3.618622,4.48124 -6.223517,4.86301 -2.874119,0.42123 -6.147678,-1.03476 -8.117634,-3.16953 -1.040095,-1.12712 -1.324425,-4.40633 -1.324425,-4.40633 0,0 -7.64028,4.66717 -11.93438,4.90043 -2.62478,0.14258 -7.57645,-2.18758 -7.57645,-2.18758 l -25.26995,18.64492 -6.38881,2.91862 z"
       id="path12"
       sodipodi:nodetypes="ccsccscssccssccscsscscccc" /><path
       style="fill:none;stroke:#000000;stroke-width:1px;stroke-linecap:butt;stroke-linejoin:miter;stroke-opacity:1"
       d="m 98.831455,124.32491 8.051635,12.3532 c 0,0 0.40473,2.98337 -0.71537,4.54311 -0.63677,0.8867 -2.73627,2.47965 -2.73627,2.47965 L 95.043226,130.2627"
       id="path13"
       sodipodi:nodetypes="ccscc" /><path
       style="fill:none;stroke:#000000;stroke-width:1px;stroke-linecap:butt;stroke-linejoin:miter;stroke-opacity:1"
       d="m 89.902059,134.95044 4.717017,7.33972 c 0.761217,3.45355 0.785907,4.69093 -0.11703,7.036 0,0 -3.618622,4.48124 -6.223517,4.86301 -2.874119,0.42123 -6.147679,-1.03475 -8.117634,-3.16953 -1.040101,-1.12712 -1.324421,-4.40633 -1.324421,-4.40633 0,0 2.18183,-3.06532 3.759711,-2.91244 1.06525,0.10321 2.11355,2.41694 2.11355,2.41694 l 1.539385,3.67712 c 0,0 -0.308457,-1.35362 0.135294,-1.71884 0.350524,-0.28849 1.352939,0.15626 1.352939,0.15626 0,0 -2.415743,-1.0464 -3.027618,-2.11454 -1.025039,-1.78939 -0.490023,-6.16712 -0.490023,-6.16712"
       id="path14"
       sodipodi:nodetypes="cccaacaccacac" /><path
       style="fill:none;stroke:#000000;stroke-width:1px;stroke-linecap:butt;stroke-linejoin:miter;stroke-opacity:1"
       d="m 76.913844,129.32515 c 0,0 2.64914,-1.51093 4.123609,-1.67298 1.068837,-0.11747 2.239781,0.015 3.181218,0.53457 1.423444,0.78552 3.248098,3.63854 3.248098,3.63854"
       id="path15"
       sodipodi:nodetypes="cssc" /><path
       style="fill:none;stroke:#000000;stroke-width:1px;stroke-linecap:butt;stroke-linejoin:miter;stroke-opacity:1"
       d="m 82.055014,123.69988 c 0,0 2.839063,-1.07288 4.329404,-1.12902 0.939829,-0.0354 1.993189,-0.0167 2.77601,0.50453 1.75705,1.16999 3.447508,5.31222 3.447508,5.31222"
       id="path16"
       sodipodi:nodetypes="cssc" /><path
       style="fill:none;stroke:#000000;stroke-width:1px;stroke-linecap:butt;stroke-linejoin:miter;stroke-opacity:1"
       d="m 86.11383,119.01214 c 0,0 2.385544,-4.01272 4.329404,-3.91733 1.340065,0.0658 2.705878,2.97978 2.705878,2.97978"
       id="path17"
       sodipodi:nodetypes="csc" /></g></svg>
