<?xml version="1.0" encoding="UTF-8" standalone="no"?>
<svg
   width="300"
   height="200"
   version="1.1"
   id="svg1"
   sodipodi:docname="reinforcement-learning.svg"
   inkscape:version="1.3.2 (091e20e, 2023-11-25)"
   inkscape:export-filename="../public/hero-images/reinforcement-learning.svg"
   inkscape:export-xdpi="96"
   inkscape:export-ydpi="96"
   xml:space="preserve"
   xmlns:inkscape="http://www.inkscape.org/namespaces/inkscape"
   xmlns:sodipodi="http://sodipodi.sourceforge.net/DTD/sodipodi-0.dtd"
   xmlns:xlink="http://www.w3.org/1999/xlink"
   xmlns="http://www.w3.org/2000/svg"
   xmlns:svg="http://www.w3.org/2000/svg"><defs
     id="defs1"><linearGradient
       id="linearGradient49"
       inkscape:collect="always"><stop
         style="stop-color:#b4e700;stop-opacity:1;"
         offset="0"
         id="stop49" /><stop
         style="stop-color:#76b30a;stop-opacity:1;"
         offset="1"
         id="stop50" /></linearGradient><linearGradient
       inkscape:collect="always"
       xlink:href="#linearGradient49"
       id="linearGradient50"
       x1="0"
       y1="132.17383"
       x2="300"
       y2="132.17383"
       gradientUnits="userSpaceOnUse" /></defs><sodipodi:namedview
     id="namedview1"
     pagecolor="#ffffff"
     bordercolor="#666666"
     borderopacity="1.0"
     inkscape:showpageshadow="2"
     inkscape:pageopacity="0.0"
     inkscape:pagecheckerboard="0"
     inkscape:deskcolor="#d1d1d1"
     showguides="true"
     inkscape:zoom="2"
     inkscape:cx="189"
     inkscape:cy="70.5"
     inkscape:window-width="1792"
     inkscape:window-height="991"
     inkscape:window-x="0"
     inkscape:window-y="25"
     inkscape:window-maximized="1"
     inkscape:current-layer="svg1"><sodipodi:guide
       position="0,200"
       orientation="0,1"
       id="guide59"
       inkscape:locked="false"
       inkscape:label=""
       inkscape:color="rgb(0,134,229)" /><sodipodi:guide
       position="0,200"
       orientation="1,0"
       id="guide60"
       inkscape:locked="false" /><sodipodi:guide
       position="300,0"
       orientation="0,1"
       id="guide61"
       inkscape:locked="false"
       inkscape:label=""
       inkscape:color="rgb(0,134,229)" /><sodipodi:guide
       position="300,0"
       orientation="1,0"
       id="guide62"
       inkscape:locked="false" /></sodipodi:namedview><rect
     style="fill:#ffffff;fill-opacity:1;stroke:none;stroke-width:1.00157"
     id="rect62"
     width="300"
     height="200"
     x="0"
     y="0"
     ry="5.6843419e-14"
     inkscape:label="bg" /><path
     id="path49"
     style="fill:url(#linearGradient50);fill-opacity:1;stroke:none;stroke-width:1;stroke-linecap:round;stroke-dasharray:none;stroke-opacity:1"
     d="M 95.458984 64.347656 A 333.0473 149.90663 0 0 0 0 70.869141 L 0 200 L 300 200 L 300 95.972656 A 333.0473 149.90663 0 0 0 95.458984 64.347656 z " /><path
     id="rect58"
     style="fill:#b2b2b2;fill-opacity:1;stroke:none;stroke-width:1.00157"
     d="M 0,0 V 200 H 300 V 0 Z M 1,1 H 299 V 199 H 1 Z"
     inkscape:label="borders"
     sodipodi:nodetypes="cccccccccc" /><path
     style="fill:#9c9fa6;fill-opacity:1;stroke:#000000;stroke-width:1px;stroke-linecap:butt;stroke-linejoin:miter;stroke-opacity:1"
     d="M 43.5,155 40,174.5 c 0,0 20.406586,-6.95751 31,-7 3.922836,-0.0157 8.540271,-0.0747 11.5,2.5 2.546179,2.21492 3.5,9.5 3.5,9.5 0,0 -6.75884,-3.82251 -10.5,-4 -15.024711,-0.71279 -43.5,12 -43.5,12 l -4,-26 -7,-16 25,-1 z"
     id="path31"
     sodipodi:nodetypes="ccsscsccccc" /><path
     style="fill:#9c9fa6;fill-opacity:1;stroke:#000000;stroke-width:1px;stroke-linecap:butt;stroke-linejoin:miter;stroke-opacity:1"
     d="M 60.5,55 65.5,37.5 75.5,54 86,36 95.5,56.5 144,70 c 0,0 -4.09867,20.418754 -12,25.5 -11.63593,7.48292 -41.5,0.5 -41.5,0.5 l -35,38.5 46,-1 c 0,0 26.17468,6.21976 34,16 2.87996,3.59942 3.75289,8.95213 3,13.5 -0.73294,4.42738 -7,11.5 -7,11.5 0,0 -2.82638,-10.39767 -6.5,-14 -7.67251,-7.52362 -29.5,-13 -29.5,-13 l -57,4.5 c 0,0 -9.53925,14.69525 -17,18.5 -16.7407854,8.53727 -38.312128,0.1535 -56,6.5 -8.963821,3.21627 -24,15.5 -24,15.5 l 9.5,30 -78.5,40 18.5,-28 38,-16 -21.5,-19.5 -7.5,-24 -37.5,7.5 3,-16.5 36.5,-3 60.5,-32 z"
     id="path30"
     sodipodi:nodetypes="ccccccscccsscsccsscccccccccccc" /><circle
     style="fill:#9c9fa6;fill-opacity:1;stroke:#000000;stroke-width:1;stroke-linecap:round;stroke-dasharray:none;stroke-opacity:1"
     id="path28-9-4"
     cx="45.282204"
     cy="140.76128"
     r="14" /><circle
     style="fill:#9c9fa6;fill-opacity:1;stroke:#000000;stroke-width:1;stroke-linecap:round;stroke-dasharray:none;stroke-opacity:1"
     id="path28-9-4-6"
     cx="96.883232"
     cy="140.70363"
     r="10" /><circle
     style="fill:#9c9fa6;fill-opacity:1;stroke:#000000;stroke-width:1;stroke-linecap:round;stroke-dasharray:none;stroke-opacity:1"
     id="path28-9-4-6-5"
     cx="35.5"
     cy="181.5"
     r="9" /><ellipse
     style="fill:#ffffff;fill-opacity:1;stroke:#000000;stroke-width:1;stroke-linecap:round;stroke-dasharray:none;stroke-opacity:1"
     id="path24"
     cx="108.5"
     cy="58.125"
     rx="11.75"
     ry="12.125" /><ellipse
     style="fill:#000000;fill-opacity:1;stroke:#000000;stroke-width:1.5;stroke-linecap:round;stroke-opacity:1"
     id="path26-0"
     cx="113"
     cy="59.125"
     rx="5.75"
     ry="5.625" /><ellipse
     style="fill:#ffffff;fill-opacity:1;stroke:#000000;stroke-width:1;stroke-linecap:round;stroke-dasharray:none;stroke-opacity:1"
     id="path25"
     cx="90.125"
     cy="57.875"
     rx="13.375"
     ry="14.125" /><ellipse
     style="fill:#000000;fill-opacity:1;stroke:#000000;stroke-width:1.5;stroke-linecap:round;stroke-opacity:1"
     id="path26"
     cx="94.25"
     cy="58.625"
     rx="5.75"
     ry="5.625" /><path
     style="fill:none;stroke:#000000;stroke-width:1px;stroke-linecap:butt;stroke-linejoin:miter;stroke-opacity:1"
     d="m 64.467068,63.911611 c 5.951175,14.942822 18.747706,29.331826 46.219962,25.007739 2.09923,-0.32722 4.2093,-0.87675 6.03003,-2.00773"
     id="path27"
     sodipodi:nodetypes="ccc" /><path
     style="fill:#d8ae7e;fill-opacity:1;stroke:#000000;stroke-width:1px;stroke-linecap:butt;stroke-linejoin:miter;stroke-opacity:1"
     d="m 274.53421,80.963726 c 0.28138,-5.84658 0.31505,-12.241526 -4.28571,-16.564962 -2.19869,-4.370433 -2.12458,-11.788288 -8.43742,-12.296801 -4.87317,-0.30031 -9.56419,2.523425 -14.39385,0.429902 -4.97514,-0.873579 -8.33118,5.259767 -13.42937,2.98476 -1.99955,3.785227 -3.56618,7.469289 -7.24737,10.064129 -2.62698,4.644533 -4.37733,10.499396 -2.12789,15.641556 1.86444,4.380723 -4.58304,9.884424 2.09214,12.260489 5.81257,1.868497 8.82221,8.409451 15.10362,9.338331 4.4211,0.40245 8.8873,0.64436 12.77707,2.9203 5.30344,0.0376 7.37442,-5.956016 11.3621,-8.42554 4.40941,-3.362426 9.44543,-7.793313 8.69512,-13.944824 -0.0191,-0.803126 -0.067,-1.60523 -0.10844,-2.40734 z"
     id="path47" /><ellipse
     style="fill:#9f6006;fill-opacity:1;stroke:none;stroke-width:0.537854;stroke-linecap:round;stroke-dasharray:none;stroke-opacity:1"
     id="path48"
     cx="246.78821"
     cy="62.623142"
     rx="3.5434942"
     ry="3.4913397" /><ellipse
     style="fill:#9f6006;fill-opacity:1;stroke:none;stroke-width:0.524338;stroke-linecap:round;stroke-dasharray:none;stroke-opacity:1"
     id="path48-0"
     cx="259.7532"
     cy="68.231384"
     rx="3.4551058"
     ry="3.4029512" /><ellipse
     style="fill:#9f6006;fill-opacity:1;stroke:none;stroke-width:0.676407;stroke-linecap:round;stroke-dasharray:none;stroke-opacity:1"
     id="path48-8"
     cx="236.55731"
     cy="74.187187"
     rx="4.4273777"
     ry="4.4194174" /><ellipse
     style="fill:#9f6006;fill-opacity:1;stroke:none;stroke-width:0.781146;stroke-linecap:round;stroke-dasharray:none;stroke-opacity:1"
     id="path48-8-4"
     cx="241.22289"
     cy="90.572815"
     rx="5.1344843"
     ry="5.0823298" /><ellipse
     style="fill:#9f6006;fill-opacity:1;stroke:none;stroke-width:0.76763;stroke-linecap:round;stroke-dasharray:none;stroke-opacity:1"
     id="path48-8-0"
     cx="262.09985"
     cy="87.038994"
     rx="5.0460963"
     ry="4.9939418" /><ellipse
     style="fill:#9f6006;fill-opacity:1;stroke:none;stroke-width:0.473667;stroke-linecap:round;stroke-dasharray:none;stroke-opacity:1"
     id="path48-8-3"
     cx="249.21938"
     cy="77.746956"
     rx="3.1015525"
     ry="3.0935922" /></svg>
