<?xml version="1.0" encoding="UTF-8" standalone="no"?>
<!-- Created with Inkscape (http://www.inkscape.org/) -->

<svg
   width="210mm"
   height="297mm"
   viewBox="0 0 210 297"
   version="1.1"
   id="svg1"
   inkscape:version="1.3.2 (091e20e, 2023-11-25)"
   sodipodi:docname="tux.svg"
   xmlns:inkscape="http://www.inkscape.org/namespaces/inkscape"
   xmlns:sodipodi="http://sodipodi.sourceforge.net/DTD/sodipodi-0.dtd"
   xmlns="http://www.w3.org/2000/svg"
   xmlns:svg="http://www.w3.org/2000/svg">
  <sodipodi:namedview
     id="namedview1"
     pagecolor="#ffffff"
     bordercolor="#666666"
     borderopacity="1.0"
     inkscape:showpageshadow="2"
     inkscape:pageopacity="0.0"
     inkscape:pagecheckerboard="0"
     inkscape:deskcolor="#d1d1d1"
     inkscape:document-units="mm"
     inkscape:zoom="0.55083952"
     inkscape:cx="479.26844"
     inkscape:cy="392.12873"
     inkscape:window-width="1472"
     inkscape:window-height="449"
     inkscape:window-x="0"
     inkscape:window-y="25"
     inkscape:window-maximized="0"
     inkscape:current-layer="layer1" />
  <defs
     id="defs1" />
  <g
     inkscape:label="Calque 1"
     inkscape:groupmode="layer"
     id="layer1">
    <g
       id="g24"
       inkscape:label="tux"
       transform="matrix(0.05225254,0,0,0.05225254,117.64187,107.09723)">
      <circle
         style="fill:#212121;fill-opacity:1;stroke:none;stroke-width:2;stroke-dasharray:none;stroke-opacity:1"
         id="path15"
         cx="-641.93787"
         cy="-436.63275"
         r="400" />
      <path
         id="path17"
         style="fill:#ffffff;fill-opacity:1;stroke:none;stroke-width:1.76134;stroke-dasharray:none;stroke-opacity:1"
         d="m -767.10547,-716.85352 a 148.69444,176.26692 0 0 0 -148.69531,176.26563 148.69444,176.26692 0 0 0 18.25,83.67187 h 260.89062 a 148.69444,176.26692 0 0 0 18.24805,-83.67187 148.69444,176.26692 0 0 0 -148.69336,-176.26563 z" />
      <path
         id="path18"
         style="fill:#ffffff;fill-opacity:1;stroke:none;stroke-width:1.86537;stroke-dasharray:none;stroke-opacity:1"
         d="m -511.69423,-714.89888 c -28.7938,-1.71881 -58.20366,5.55902 -81.61619,22.7847 -16.47497,11.35971 -30.35719,26.2683 -41.20755,43.04055 29.02282,46.48922 40.65502,105.8029 22.36605,158.47455 -1.5445,10.77936 -13.54888,27.03503 -11.4504,33.68306 79.1009,0 158.20181,0 237.30272,0 13.56682,-31.12372 23.76347,-65.57246 18.38576,-99.74788 -1.51256,-14.96155 -3.71875,-29.86332 -8.27914,-44.23147 -14.27073,-49.92918 -52.42904,-94.45559 -103.31143,-108.87173 -10.46712,-3.01576 -21.30412,-4.74085 -32.18982,-5.13178 z" />
      <path
         id="path19"
         style="fill:#ffffff;fill-opacity:1;stroke:none;stroke-width:1.36583;stroke-dasharray:none;stroke-opacity:1"
         d="m -757.44141,-201.93359 c -48.67114,9.22547 -96.66321,25.24401 -138.54393,52.13847 76.03116,71.260158 183.97437,93.69566 286.80962,92.045776 77.51826,-5.62995 155.95725,-37.311474 217.10402,-88.251106 -11.52542,-13.82202 -87.68025,-46.64061 -127.44783,-52.77885 -0.31025,29.75392 9.93247,58.80448 25.33984,83.96485 -44.92693,7.51046 -91.37903,8.31549 -135.67105,-3.41367 -50.37573,-12.07451 -97.41067,-41.20073 -127.59067,-83.70547 z"
         sodipodi:nodetypes="cccccccc" />
      <path
         style="fill:#ffb928;fill-opacity:1;stroke:none;stroke-width:1px;stroke-linecap:butt;stroke-linejoin:miter;stroke-opacity:1"
         d="m -823.28042,-387.30158 c 46.82046,-8.1682 91.35414,-25.36243 137.41211,-36.47093 35.56683,-6.34989 72.25245,-8.82979 108.2219,-4.97451 46.057,7.91705 90.2437,25.26724 131.41644,47.11935 39.72557,21.16524 77.21944,46.15204 115.01304,70.51656 -45.00512,4.73179 -90.24282,8.36259 -135.5134,6.832 -63.05694,0.13412 -127.29693,1.34935 -188.39516,-16.71344 -33.73093,-8.30755 -67.33834,-17.47586 -98.86102,-32.37688 -23.5953,-10.26015 -46.60325,-21.81649 -69.29391,-33.93215 z"
         id="path20" />
      <ellipse
         style="fill:#212121;fill-opacity:1;stroke:none;stroke-width:2.03131;stroke-dasharray:none;stroke-opacity:1"
         id="path21"
         cx="-759.41461"
         cy="-553.08203"
         rx="58.574768"
         ry="57.5" />
      <path
         style="fill:#ffb928;fill-opacity:1;stroke:none;stroke-width:1px;stroke-linecap:butt;stroke-linejoin:miter;stroke-opacity:1"
         d="m -820.63492,-373.54497 c 9.34744,5.291 18.69489,10.58201 28.04233,15.87301 5.29835,19.63821 11.65576,38.92908 19.00058,57.89612 6.97787,20.97155 18.34865,40.07278 27.56026,60.0933 8.37148,12.83277 15.54594,26.55601 26.45452,37.50142 8.69573,10.5546 19.12239,19.61705 29.53492,28.38098 11.15783,7.28218 21.88372,15.34797 34.49236,19.99819 11.07624,5.49741 23.28045,8.29678 35.1961,11.27934 27.52537,4.31664 55.50888,6.58169 83.31681,3.89827 -10.93629,-21.92916 -18.62269,-45.82667 -20.61558,-70.31619 -0.68949,-20.19548 4.6276,-39.90923 13.43941,-57.95885 3.91319,-8.15189 8.34472,-16.05462 12.46718,-24.10591 8.64197,0.17637 17.28395,0.35273 25.92592,0.5291 -12.91897,19.89702 -22.77007,41.86566 -28.45597,64.89772 -5.87124,33.07853 3.18032,67.04921 19.62727,95.81279 0.58687,3.83798 -9.5784,1.92417 -13.54317,3.32728 -35.15073,3.4108 -70.83512,1.66334 -105.33315,-5.95454 -21.42203,-6.61003 -42.03214,-16.25465 -61.03406,-28.1222 -22.89526,-15.59151 -43.25658,-34.86011 -58.91138,-57.79768 -20.76686,-27.27027 -35.6609,-58.55808 -46.99578,-90.8008 -7.76131,-21.1815 -14.53785,-42.59828 -20.16857,-64.43135 z"
         id="path22" />
      <path
         style="fill:#431314;fill-opacity:1;stroke:none;stroke-width:1px;stroke-linecap:butt;stroke-linejoin:miter;stroke-opacity:1"
         d="m -544.97354,-292.59259 c -36.39566,-2.1953 -72.90118,-5.52785 -108.30446,-14.65482 -29.62664,-6.76161 -58.50155,-16.475 -86.60256,-28.01715 -13.98922,-5.58815 -27.847,-11.50199 -41.60092,-17.64549 12.50915,30.20171 24.15127,60.75845 35.83193,91.27528 10.63537,26.31402 26.83329,50.27542 45.98178,71.11691 14.36794,13.67987 30.95408,25.48712 50.08489,31.38315 20.48356,7.39937 42.28864,10.26991 63.84007,12.71369 11.25198,-0.57459 29.39792,3.51534 36.3393,-0.27372 -10.87458,-23.93188 -21.23028,-49.32629 -19.67617,-76.14797 1.95954,-24.89714 11.92937,-48.23698 24.10614,-69.74988 z"
         id="path23" />
      <path
         id="path23-8"
         style="fill:#c82b3a;fill-opacity:1;stroke:none;stroke-width:1px;stroke-linecap:butt;stroke-linejoin:miter;stroke-opacity:1"
         d="m -748.94727,-270.20703 c 11.51223,31.63461 30.13046,60.75656 54.21713,84.28321 16.32351,14.90554 36.36511,25.59374 57.85417,30.78989 6.35618,1.7331 12.80149,3.12611 19.28417,4.29409 2.63848,-7.5797 2.29399,-15.70911 0.24897,-23.38335 -4.49503,-17.76194 -15.68154,-32.87643 -27.14743,-46.80409 -12.23965,-10.87454 -24.81286,-21.91623 -39.94414,-28.56817 -11.44357,-5.87735 -23.11756,-11.43914 -35.6089,-14.7001 -9.06848,-3.19465 -18.51601,-4.94886 -28.06617,-5.80668 -0.27927,-0.0349 -0.55853,-0.0699 -0.8378,-0.1048 z" />
      <ellipse
         style="fill:#212121;fill-opacity:1;stroke:none;stroke-width:2.03131;stroke-dasharray:none;stroke-opacity:1"
         id="path21-7"
         cx="-507.07074"
         cy="-553.84393"
         rx="58.574768"
         ry="57.5" />
    </g>
  </g>
</svg>
